%TF.GenerationSoftware,KiCad,Pcbnew,7.0.2*%
%TF.CreationDate,2023-05-17T23:03:47-05:00*%
%TF.ProjectId,Touch_Keyboard_10x12_Matrix,546f7563-685f-44b6-9579-626f6172645f,rev?*%
%TF.SameCoordinates,Original*%
%TF.FileFunction,Profile,NP*%
%FSLAX46Y46*%
G04 Gerber Fmt 4.6, Leading zero omitted, Abs format (unit mm)*
G04 Created by KiCad (PCBNEW 7.0.2) date 2023-05-17 23:03:47*
%MOMM*%
%LPD*%
G01*
G04 APERTURE LIST*
%TA.AperFunction,Profile*%
%ADD10C,0.050000*%
%TD*%
%TA.AperFunction,Profile*%
%ADD11C,0.120000*%
%TD*%
G04 APERTURE END LIST*
D10*
X176212500Y-102393750D02*
X604837500Y-102393750D01*
X604837500Y-223837500D01*
X176212500Y-223837500D01*
X176212500Y-102393750D01*
D11*
X304118750Y-120880000D02*
X304118750Y-117880000D01*
X304118750Y-117880000D02*
X300718750Y-117880000D01*
X300718750Y-120880000D02*
X304118750Y-120880000D01*
X300718750Y-117880000D02*
X300718750Y-120880000D01*
X516050000Y-142311250D02*
X516050000Y-139311250D01*
X516050000Y-139311250D02*
X512650000Y-139311250D01*
X512650000Y-142311250D02*
X516050000Y-142311250D01*
X512650000Y-139311250D02*
X512650000Y-142311250D01*
X399368750Y-120880000D02*
X399368750Y-117880000D01*
X399368750Y-117880000D02*
X395968750Y-117880000D01*
X395968750Y-120880000D02*
X399368750Y-120880000D01*
X395968750Y-117880000D02*
X395968750Y-120880000D01*
X285068750Y-142311250D02*
X285068750Y-139311250D01*
X285068750Y-139311250D02*
X281668750Y-139311250D01*
X281668750Y-142311250D02*
X285068750Y-142311250D01*
X281668750Y-139311250D02*
X281668750Y-142311250D01*
X289831250Y-199461250D02*
X289831250Y-196461250D01*
X289831250Y-196461250D02*
X286431250Y-196461250D01*
X286431250Y-199461250D02*
X289831250Y-199461250D01*
X286431250Y-196461250D02*
X286431250Y-199461250D01*
X454137500Y-218511250D02*
X454137500Y-215511250D01*
X454137500Y-215511250D02*
X450737500Y-215511250D01*
X450737500Y-218511250D02*
X454137500Y-218511250D01*
X450737500Y-215511250D02*
X450737500Y-218511250D01*
X477950000Y-218511250D02*
X477950000Y-215511250D01*
X477950000Y-215511250D02*
X474550000Y-215511250D01*
X474550000Y-218511250D02*
X477950000Y-218511250D01*
X474550000Y-215511250D02*
X474550000Y-218511250D01*
X594631250Y-208986250D02*
X594631250Y-205986250D01*
X594631250Y-205986250D02*
X591231250Y-205986250D01*
X591231250Y-208986250D02*
X594631250Y-208986250D01*
X591231250Y-205986250D02*
X591231250Y-208986250D01*
X223156250Y-180411250D02*
X223156250Y-177411250D01*
X223156250Y-177411250D02*
X219756250Y-177411250D01*
X219756250Y-180411250D02*
X223156250Y-180411250D01*
X219756250Y-177411250D02*
X219756250Y-180411250D01*
X456518750Y-120880000D02*
X456518750Y-117880000D01*
X456518750Y-117880000D02*
X453118750Y-117880000D01*
X453118750Y-120880000D02*
X456518750Y-120880000D01*
X453118750Y-117880000D02*
X453118750Y-120880000D01*
X389843750Y-161361250D02*
X389843750Y-158361250D01*
X389843750Y-158361250D02*
X386443750Y-158361250D01*
X386443750Y-161361250D02*
X389843750Y-161361250D01*
X386443750Y-158361250D02*
X386443750Y-161361250D01*
X292212500Y-218511250D02*
X292212500Y-215511250D01*
X292212500Y-215511250D02*
X288812500Y-215511250D01*
X288812500Y-218511250D02*
X292212500Y-218511250D01*
X288812500Y-215511250D02*
X288812500Y-218511250D01*
X385081250Y-199461250D02*
X385081250Y-196461250D01*
X385081250Y-196461250D02*
X381681250Y-196461250D01*
X381681250Y-199461250D02*
X385081250Y-199461250D01*
X381681250Y-196461250D02*
X381681250Y-199461250D01*
X556531250Y-161361250D02*
X556531250Y-158361250D01*
X556531250Y-158361250D02*
X553131250Y-158361250D01*
X553131250Y-161361250D02*
X556531250Y-161361250D01*
X553131250Y-158361250D02*
X553131250Y-161361250D01*
X444612500Y-180411250D02*
X444612500Y-177411250D01*
X444612500Y-177411250D02*
X441212500Y-177411250D01*
X441212500Y-180411250D02*
X444612500Y-180411250D01*
X441212500Y-177411250D02*
X441212500Y-180411250D01*
X318406250Y-180411250D02*
X318406250Y-177411250D01*
X318406250Y-177411250D02*
X315006250Y-177411250D01*
X315006250Y-180411250D02*
X318406250Y-180411250D01*
X315006250Y-177411250D02*
X315006250Y-180411250D01*
X256493750Y-161361250D02*
X256493750Y-158361250D01*
X256493750Y-158361250D02*
X253093750Y-158361250D01*
X253093750Y-161361250D02*
X256493750Y-161361250D01*
X253093750Y-158361250D02*
X253093750Y-161361250D01*
X294593750Y-161361250D02*
X294593750Y-158361250D01*
X294593750Y-158361250D02*
X291193750Y-158361250D01*
X291193750Y-161361250D02*
X294593750Y-161361250D01*
X291193750Y-158361250D02*
X291193750Y-161361250D01*
X246968750Y-120880000D02*
X246968750Y-117880000D01*
X246968750Y-117880000D02*
X243568750Y-117880000D01*
X243568750Y-120880000D02*
X246968750Y-120880000D01*
X243568750Y-117880000D02*
X243568750Y-120880000D01*
X275543750Y-161361250D02*
X275543750Y-158361250D01*
X275543750Y-158361250D02*
X272143750Y-158361250D01*
X272143750Y-161361250D02*
X275543750Y-161361250D01*
X272143750Y-158361250D02*
X272143750Y-161361250D01*
X285068750Y-120880000D02*
X285068750Y-117880000D01*
X285068750Y-117880000D02*
X281668750Y-117880000D01*
X281668750Y-120880000D02*
X285068750Y-120880000D01*
X281668750Y-117880000D02*
X281668750Y-120880000D01*
X227918750Y-142311250D02*
X227918750Y-139311250D01*
X227918750Y-139311250D02*
X224518750Y-139311250D01*
X224518750Y-142311250D02*
X227918750Y-142311250D01*
X224518750Y-139311250D02*
X224518750Y-142311250D01*
X537481250Y-161361250D02*
X537481250Y-158361250D01*
X537481250Y-158361250D02*
X534081250Y-158361250D01*
X534081250Y-161361250D02*
X537481250Y-161361250D01*
X534081250Y-158361250D02*
X534081250Y-161361250D01*
X361268750Y-142311250D02*
X361268750Y-139311250D01*
X361268750Y-139311250D02*
X357868750Y-139311250D01*
X357868750Y-142311250D02*
X361268750Y-142311250D01*
X357868750Y-139311250D02*
X357868750Y-142311250D01*
X547006250Y-218511250D02*
X547006250Y-215511250D01*
X547006250Y-215511250D02*
X543606250Y-215511250D01*
X543606250Y-218511250D02*
X547006250Y-218511250D01*
X543606250Y-215511250D02*
X543606250Y-218511250D01*
X382700000Y-218511250D02*
X382700000Y-215511250D01*
X382700000Y-215511250D02*
X379300000Y-215511250D01*
X379300000Y-218511250D02*
X382700000Y-218511250D01*
X379300000Y-215511250D02*
X379300000Y-218511250D01*
X201725000Y-199461250D02*
X201725000Y-196461250D01*
X201725000Y-196461250D02*
X198325000Y-196461250D01*
X198325000Y-199461250D02*
X201725000Y-199461250D01*
X198325000Y-196461250D02*
X198325000Y-199461250D01*
X308881250Y-199461250D02*
X308881250Y-196461250D01*
X308881250Y-196461250D02*
X305481250Y-196461250D01*
X305481250Y-199461250D02*
X308881250Y-199461250D01*
X305481250Y-196461250D02*
X305481250Y-199461250D01*
X351743750Y-161361250D02*
X351743750Y-158361250D01*
X351743750Y-158361250D02*
X348343750Y-158361250D01*
X348343750Y-161361250D02*
X351743750Y-161361250D01*
X348343750Y-158361250D02*
X348343750Y-161361250D01*
X270781250Y-199461250D02*
X270781250Y-196461250D01*
X270781250Y-196461250D02*
X267381250Y-196461250D01*
X267381250Y-199461250D02*
X270781250Y-199461250D01*
X267381250Y-196461250D02*
X267381250Y-199461250D01*
X556531250Y-199461250D02*
X556531250Y-196461250D01*
X556531250Y-196461250D02*
X553131250Y-196461250D01*
X553131250Y-199461250D02*
X556531250Y-199461250D01*
X553131250Y-196461250D02*
X553131250Y-199461250D01*
X477950000Y-180411250D02*
X477950000Y-177411250D01*
X477950000Y-177411250D02*
X474550000Y-177411250D01*
X474550000Y-180411250D02*
X477950000Y-180411250D01*
X474550000Y-177411250D02*
X474550000Y-180411250D01*
X404131250Y-199461250D02*
X404131250Y-196461250D01*
X404131250Y-196461250D02*
X400731250Y-196461250D01*
X400731250Y-199461250D02*
X404131250Y-199461250D01*
X400731250Y-196461250D02*
X400731250Y-199461250D01*
X256726000Y-217134000D02*
X256726000Y-214134000D01*
X256726000Y-214134000D02*
X253326000Y-214134000D01*
X253326000Y-217134000D02*
X256726000Y-217134000D01*
X253326000Y-214134000D02*
X253326000Y-217134000D01*
X266018750Y-120880000D02*
X266018750Y-117880000D01*
X266018750Y-117880000D02*
X262618750Y-117880000D01*
X262618750Y-120880000D02*
X266018750Y-120880000D01*
X262618750Y-117880000D02*
X262618750Y-120880000D01*
X427943750Y-161361250D02*
X427943750Y-158361250D01*
X427943750Y-158361250D02*
X424543750Y-158361250D01*
X424543750Y-161361250D02*
X427943750Y-161361250D01*
X424543750Y-158361250D02*
X424543750Y-161361250D01*
X366031250Y-199461250D02*
X366031250Y-196461250D01*
X366031250Y-196461250D02*
X362631250Y-196461250D01*
X362631250Y-199461250D02*
X366031250Y-199461250D01*
X362631250Y-196461250D02*
X362631250Y-199461250D01*
X304118750Y-142311250D02*
X304118750Y-139311250D01*
X304118750Y-139311250D02*
X300718750Y-139311250D01*
X300718750Y-142311250D02*
X304118750Y-142311250D01*
X300718750Y-139311250D02*
X300718750Y-142311250D01*
X537481250Y-180411250D02*
X537481250Y-177411250D01*
X537481250Y-177411250D02*
X534081250Y-177411250D01*
X534081250Y-180411250D02*
X537481250Y-180411250D01*
X534081250Y-177411250D02*
X534081250Y-180411250D01*
X332693750Y-161361250D02*
X332693750Y-158361250D01*
X332693750Y-158361250D02*
X329293750Y-158361250D01*
X329293750Y-161361250D02*
X332693750Y-161361250D01*
X329293750Y-158361250D02*
X329293750Y-161361250D01*
X446993750Y-142311250D02*
X446993750Y-139311250D01*
X446993750Y-139311250D02*
X443593750Y-139311250D01*
X443593750Y-142311250D02*
X446993750Y-142311250D01*
X443593750Y-139311250D02*
X443593750Y-142311250D01*
X516050000Y-180411250D02*
X516050000Y-177411250D01*
X516050000Y-177411250D02*
X512650000Y-177411250D01*
X512650000Y-180411250D02*
X516050000Y-180411250D01*
X512650000Y-177411250D02*
X512650000Y-180411250D01*
X311262500Y-218511250D02*
X311262500Y-215511250D01*
X311262500Y-215511250D02*
X307862500Y-215511250D01*
X307862500Y-218511250D02*
X311262500Y-218511250D01*
X307862500Y-215511250D02*
X307862500Y-218511250D01*
X196962500Y-180411250D02*
X196962500Y-177411250D01*
X196962500Y-177411250D02*
X193562500Y-177411250D01*
X193562500Y-180411250D02*
X196962500Y-180411250D01*
X193562500Y-177411250D02*
X193562500Y-180411250D01*
X537481250Y-199461250D02*
X537481250Y-196461250D01*
X537481250Y-196461250D02*
X534081250Y-196461250D01*
X534081250Y-199461250D02*
X537481250Y-199461250D01*
X534081250Y-196461250D02*
X534081250Y-199461250D01*
X413656250Y-180411250D02*
X413656250Y-177411250D01*
X413656250Y-177411250D02*
X410256250Y-177411250D01*
X410256250Y-180411250D02*
X413656250Y-180411250D01*
X410256250Y-177411250D02*
X410256250Y-180411250D01*
X594631250Y-142311250D02*
X594631250Y-139311250D01*
X594631250Y-139311250D02*
X591231250Y-139311250D01*
X591231250Y-142311250D02*
X594631250Y-142311250D01*
X591231250Y-139311250D02*
X591231250Y-142311250D01*
X594631250Y-120880000D02*
X594631250Y-117880000D01*
X594631250Y-117880000D02*
X591231250Y-117880000D01*
X591231250Y-120880000D02*
X594631250Y-120880000D01*
X591231250Y-117880000D02*
X591231250Y-120880000D01*
X477950000Y-199461250D02*
X477950000Y-196461250D01*
X477950000Y-196461250D02*
X474550000Y-196461250D01*
X474550000Y-199461250D02*
X477950000Y-199461250D01*
X474550000Y-196461250D02*
X474550000Y-199461250D01*
X189818750Y-120880000D02*
X189818750Y-117880000D01*
X189818750Y-117880000D02*
X186418750Y-117880000D01*
X186418750Y-120880000D02*
X189818750Y-120880000D01*
X186418750Y-117880000D02*
X186418750Y-120880000D01*
X575581250Y-120880000D02*
X575581250Y-117880000D01*
X575581250Y-117880000D02*
X572181250Y-117880000D01*
X572181250Y-120880000D02*
X575581250Y-120880000D01*
X572181250Y-117880000D02*
X572181250Y-120880000D01*
X216012500Y-218511250D02*
X216012500Y-215511250D01*
X216012500Y-215511250D02*
X212612500Y-215511250D01*
X212612500Y-218511250D02*
X216012500Y-218511250D01*
X212612500Y-215511250D02*
X212612500Y-218511250D01*
X477950000Y-142311250D02*
X477950000Y-139311250D01*
X477950000Y-139311250D02*
X474550000Y-139311250D01*
X474550000Y-142311250D02*
X477950000Y-142311250D01*
X474550000Y-139311250D02*
X474550000Y-142311250D01*
X516050000Y-161361250D02*
X516050000Y-158361250D01*
X516050000Y-158361250D02*
X512650000Y-158361250D01*
X512650000Y-161361250D02*
X516050000Y-161361250D01*
X512650000Y-158361250D02*
X512650000Y-161361250D01*
X261256250Y-180411250D02*
X261256250Y-177411250D01*
X261256250Y-177411250D02*
X257856250Y-177411250D01*
X257856250Y-180411250D02*
X261256250Y-180411250D01*
X257856250Y-177411250D02*
X257856250Y-180411250D01*
X327931250Y-199461250D02*
X327931250Y-196461250D01*
X327931250Y-196461250D02*
X324531250Y-196461250D01*
X324531250Y-199461250D02*
X327931250Y-199461250D01*
X324531250Y-196461250D02*
X324531250Y-199461250D01*
X575581250Y-218511250D02*
X575581250Y-215511250D01*
X575581250Y-215511250D02*
X572181250Y-215511250D01*
X572181250Y-218511250D02*
X575581250Y-218511250D01*
X572181250Y-215511250D02*
X572181250Y-218511250D01*
X430325000Y-218511250D02*
X430325000Y-215511250D01*
X430325000Y-215511250D02*
X426925000Y-215511250D01*
X426925000Y-218511250D02*
X430325000Y-218511250D01*
X426925000Y-215511250D02*
X426925000Y-218511250D01*
X439850000Y-199461250D02*
X439850000Y-196461250D01*
X439850000Y-196461250D02*
X436450000Y-196461250D01*
X436450000Y-199461250D02*
X439850000Y-199461250D01*
X436450000Y-196461250D02*
X436450000Y-199461250D01*
X418418750Y-120880000D02*
X418418750Y-117880000D01*
X418418750Y-117880000D02*
X415018750Y-117880000D01*
X415018750Y-120880000D02*
X418418750Y-120880000D01*
X415018750Y-117880000D02*
X415018750Y-120880000D01*
X192200000Y-218511250D02*
X192200000Y-215511250D01*
X192200000Y-215511250D02*
X188800000Y-215511250D01*
X188800000Y-218511250D02*
X192200000Y-218511250D01*
X188800000Y-215511250D02*
X188800000Y-218511250D01*
X575581250Y-161361250D02*
X575581250Y-158361250D01*
X575581250Y-158361250D02*
X572181250Y-158361250D01*
X572181250Y-161361250D02*
X575581250Y-161361250D01*
X572181250Y-158361250D02*
X572181250Y-161361250D01*
X242206250Y-180411250D02*
X242206250Y-177411250D01*
X242206250Y-177411250D02*
X238806250Y-177411250D01*
X238806250Y-180411250D02*
X242206250Y-180411250D01*
X238806250Y-177411250D02*
X238806250Y-180411250D01*
X361249700Y-120880000D02*
X361249700Y-117880000D01*
X361249700Y-117880000D02*
X357849700Y-117880000D01*
X357849700Y-120880000D02*
X361249700Y-120880000D01*
X357849700Y-117880000D02*
X357849700Y-120880000D01*
X208868750Y-120880000D02*
X208868750Y-117880000D01*
X208868750Y-117880000D02*
X205468750Y-117880000D01*
X205468750Y-120880000D02*
X208868750Y-120880000D01*
X205468750Y-117880000D02*
X205468750Y-120880000D01*
X497000000Y-218511250D02*
X497000000Y-215511250D01*
X497000000Y-215511250D02*
X493600000Y-215511250D01*
X493600000Y-218511250D02*
X497000000Y-218511250D01*
X493600000Y-215511250D02*
X493600000Y-218511250D01*
X208868750Y-142311250D02*
X208868750Y-139311250D01*
X208868750Y-139311250D02*
X205468750Y-139311250D01*
X205468750Y-142311250D02*
X208868750Y-142311250D01*
X205468750Y-139311250D02*
X205468750Y-142311250D01*
X227918750Y-120880000D02*
X227918750Y-117880000D01*
X227918750Y-117880000D02*
X224518750Y-117880000D01*
X224518750Y-120880000D02*
X227918750Y-120880000D01*
X224518750Y-117880000D02*
X224518750Y-120880000D01*
X575581250Y-180411250D02*
X575581250Y-177411250D01*
X575581250Y-177411250D02*
X572181250Y-177411250D01*
X572181250Y-180411250D02*
X575581250Y-180411250D01*
X572181250Y-177411250D02*
X572181250Y-180411250D01*
X346981250Y-199461250D02*
X346981250Y-196461250D01*
X346981250Y-196461250D02*
X343581250Y-196461250D01*
X343581250Y-199461250D02*
X346981250Y-199461250D01*
X343581250Y-196461250D02*
X343581250Y-199461250D01*
X280306250Y-180411250D02*
X280306250Y-177411250D01*
X280306250Y-177411250D02*
X276906250Y-177411250D01*
X276906250Y-180411250D02*
X280306250Y-180411250D01*
X276906250Y-177411250D02*
X276906250Y-180411250D01*
X194581250Y-161361250D02*
X194581250Y-158361250D01*
X194581250Y-158361250D02*
X191181250Y-158361250D01*
X191181250Y-161361250D02*
X194581250Y-161361250D01*
X191181250Y-158361250D02*
X191181250Y-161361250D01*
X556531250Y-120880000D02*
X556531250Y-117880000D01*
X556531250Y-117880000D02*
X553131250Y-117880000D01*
X553131250Y-120880000D02*
X556531250Y-120880000D01*
X553131250Y-117880000D02*
X553131250Y-120880000D01*
X342218750Y-142311250D02*
X342218750Y-139311250D01*
X342218750Y-139311250D02*
X338818750Y-139311250D01*
X338818750Y-142311250D02*
X342218750Y-142311250D01*
X338818750Y-139311250D02*
X338818750Y-142311250D01*
X556531250Y-142311250D02*
X556531250Y-139311250D01*
X556531250Y-139311250D02*
X553131250Y-139311250D01*
X553131250Y-142311250D02*
X556531250Y-142311250D01*
X553131250Y-139311250D02*
X553131250Y-142311250D01*
X299356250Y-180411250D02*
X299356250Y-177411250D01*
X299356250Y-177411250D02*
X295956250Y-177411250D01*
X295956250Y-180411250D02*
X299356250Y-180411250D01*
X295956250Y-177411250D02*
X295956250Y-180411250D01*
X366581000Y-217261000D02*
X366581000Y-214261000D01*
X366581000Y-214261000D02*
X363181000Y-214261000D01*
X363181000Y-217261000D02*
X366581000Y-217261000D01*
X363181000Y-214261000D02*
X363181000Y-217261000D01*
X537481250Y-120880000D02*
X537481250Y-117880000D01*
X537481250Y-117880000D02*
X534081250Y-117880000D01*
X534081250Y-120880000D02*
X537481250Y-120880000D01*
X534081250Y-117880000D02*
X534081250Y-120880000D01*
X497000000Y-161361250D02*
X497000000Y-158361250D01*
X497000000Y-158361250D02*
X493600000Y-158361250D01*
X493600000Y-161361250D02*
X497000000Y-161361250D01*
X493600000Y-158361250D02*
X493600000Y-161361250D01*
X323168750Y-120880000D02*
X323168750Y-117880000D01*
X323168750Y-117880000D02*
X319768750Y-117880000D01*
X319768750Y-120880000D02*
X323168750Y-120880000D01*
X319768750Y-117880000D02*
X319768750Y-120880000D01*
X497000000Y-180411250D02*
X497000000Y-177411250D01*
X497000000Y-177411250D02*
X493600000Y-177411250D01*
X493600000Y-180411250D02*
X497000000Y-180411250D01*
X493600000Y-177411250D02*
X493600000Y-180411250D01*
X332693750Y-218511250D02*
X332693750Y-215511250D01*
X332693750Y-215511250D02*
X329293750Y-215511250D01*
X329293750Y-218511250D02*
X332693750Y-218511250D01*
X329293750Y-215511250D02*
X329293750Y-218511250D01*
X575581250Y-142311250D02*
X575581250Y-139311250D01*
X575581250Y-139311250D02*
X572181250Y-139311250D01*
X572181250Y-142311250D02*
X575581250Y-142311250D01*
X572181250Y-139311250D02*
X572181250Y-142311250D01*
X237443750Y-161361250D02*
X237443750Y-158361250D01*
X237443750Y-158361250D02*
X234043750Y-158361250D01*
X234043750Y-161361250D02*
X237443750Y-161361250D01*
X234043750Y-158361250D02*
X234043750Y-161361250D01*
X451756250Y-161361250D02*
X451756250Y-158361250D01*
X451756250Y-158361250D02*
X448356250Y-158361250D01*
X448356250Y-161361250D02*
X451756250Y-161361250D01*
X448356250Y-158361250D02*
X448356250Y-161361250D01*
X313643750Y-161361250D02*
X313643750Y-158361250D01*
X313643750Y-158361250D02*
X310243750Y-158361250D01*
X310243750Y-161361250D02*
X313643750Y-161361250D01*
X310243750Y-158361250D02*
X310243750Y-161361250D01*
X556531250Y-180411250D02*
X556531250Y-177411250D01*
X556531250Y-177411250D02*
X553131250Y-177411250D01*
X553131250Y-180411250D02*
X556531250Y-180411250D01*
X553131250Y-177411250D02*
X553131250Y-180411250D01*
X537481250Y-142311250D02*
X537481250Y-139311250D01*
X537481250Y-139311250D02*
X534081250Y-139311250D01*
X534081250Y-142311250D02*
X537481250Y-142311250D01*
X534081250Y-139311250D02*
X534081250Y-142311250D01*
X218393750Y-161361250D02*
X218393750Y-158361250D01*
X218393750Y-158361250D02*
X214993750Y-158361250D01*
X214993750Y-161361250D02*
X218393750Y-161361250D01*
X214993750Y-158361250D02*
X214993750Y-161361250D01*
X337456250Y-180411250D02*
X337456250Y-177411250D01*
X337456250Y-177411250D02*
X334056250Y-177411250D01*
X334056250Y-180411250D02*
X337456250Y-180411250D01*
X334056250Y-177411250D02*
X334056250Y-180411250D01*
X394606250Y-180411250D02*
X394606250Y-177411250D01*
X394606250Y-177411250D02*
X391206250Y-177411250D01*
X391206250Y-180411250D02*
X394606250Y-180411250D01*
X391206250Y-177411250D02*
X391206250Y-180411250D01*
X497000000Y-142311250D02*
X497000000Y-139311250D01*
X497000000Y-139311250D02*
X493600000Y-139311250D01*
X493600000Y-142311250D02*
X497000000Y-142311250D01*
X493600000Y-139311250D02*
X493600000Y-142311250D01*
X380318750Y-142311250D02*
X380318750Y-139311250D01*
X380318750Y-139311250D02*
X376918750Y-139311250D01*
X376918750Y-142311250D02*
X380318750Y-142311250D01*
X376918750Y-139311250D02*
X376918750Y-142311250D01*
X477950000Y-161361250D02*
X477950000Y-158361250D01*
X477950000Y-158361250D02*
X474550000Y-158361250D01*
X474550000Y-161361250D02*
X477950000Y-161361250D01*
X474550000Y-158361250D02*
X474550000Y-161361250D01*
X246968750Y-142311250D02*
X246968750Y-139311250D01*
X246968750Y-139311250D02*
X243568750Y-139311250D01*
X243568750Y-142311250D02*
X246968750Y-142311250D01*
X243568750Y-139311250D02*
X243568750Y-142311250D01*
X497000000Y-120880000D02*
X497000000Y-117880000D01*
X497000000Y-117880000D02*
X493600000Y-117880000D01*
X493600000Y-120880000D02*
X497000000Y-120880000D01*
X493600000Y-117880000D02*
X493600000Y-120880000D01*
X370793750Y-161361250D02*
X370793750Y-158361250D01*
X370793750Y-158361250D02*
X367393750Y-158361250D01*
X367393750Y-161361250D02*
X370793750Y-161361250D01*
X367393750Y-158361250D02*
X367393750Y-161361250D01*
X406512500Y-218511250D02*
X406512500Y-215511250D01*
X406512500Y-215511250D02*
X403112500Y-215511250D01*
X403112500Y-218511250D02*
X406512500Y-218511250D01*
X403112500Y-215511250D02*
X403112500Y-218511250D01*
X516050000Y-218511250D02*
X516050000Y-215511250D01*
X516050000Y-215511250D02*
X512650000Y-215511250D01*
X512650000Y-218511250D02*
X516050000Y-218511250D01*
X512650000Y-215511250D02*
X512650000Y-218511250D01*
X232681250Y-199461250D02*
X232681250Y-196461250D01*
X232681250Y-196461250D02*
X229281250Y-196461250D01*
X229281250Y-199461250D02*
X232681250Y-199461250D01*
X229281250Y-196461250D02*
X229281250Y-199461250D01*
X251731250Y-199461250D02*
X251731250Y-196461250D01*
X251731250Y-196461250D02*
X248331250Y-196461250D01*
X248331250Y-199461250D02*
X251731250Y-199461250D01*
X248331250Y-196461250D02*
X248331250Y-199461250D01*
X342218750Y-120880000D02*
X342218750Y-117880000D01*
X342218750Y-117880000D02*
X338818750Y-117880000D01*
X338818750Y-120880000D02*
X342218750Y-120880000D01*
X338818750Y-117880000D02*
X338818750Y-120880000D01*
X239825000Y-218511250D02*
X239825000Y-215511250D01*
X239825000Y-215511250D02*
X236425000Y-215511250D01*
X236425000Y-218511250D02*
X239825000Y-218511250D01*
X236425000Y-215511250D02*
X236425000Y-218511250D01*
X189818750Y-142311250D02*
X189818750Y-139311250D01*
X189818750Y-139311250D02*
X186418750Y-139311250D01*
X186418750Y-142311250D02*
X189818750Y-142311250D01*
X186418750Y-139311250D02*
X186418750Y-142311250D01*
X477950000Y-120880000D02*
X477950000Y-117880000D01*
X477950000Y-117880000D02*
X474550000Y-117880000D01*
X474550000Y-120880000D02*
X477950000Y-120880000D01*
X474550000Y-117880000D02*
X474550000Y-120880000D01*
X408893750Y-161361250D02*
X408893750Y-158361250D01*
X408893750Y-158361250D02*
X405493750Y-158361250D01*
X405493750Y-161361250D02*
X408893750Y-161361250D01*
X405493750Y-158361250D02*
X405493750Y-161361250D01*
X437468750Y-120880000D02*
X437468750Y-117880000D01*
X437468750Y-117880000D02*
X434068750Y-117880000D01*
X434068750Y-120880000D02*
X437468750Y-120880000D01*
X434068750Y-117880000D02*
X434068750Y-120880000D01*
X323168750Y-142311250D02*
X323168750Y-139311250D01*
X323168750Y-139311250D02*
X319768750Y-139311250D01*
X319768750Y-142311250D02*
X323168750Y-142311250D01*
X319768750Y-139311250D02*
X319768750Y-142311250D01*
X516050000Y-120880000D02*
X516050000Y-117880000D01*
X516050000Y-117880000D02*
X512650000Y-117880000D01*
X512650000Y-120880000D02*
X516050000Y-120880000D01*
X512650000Y-117880000D02*
X512650000Y-120880000D01*
X399368750Y-142311250D02*
X399368750Y-139311250D01*
X399368750Y-139311250D02*
X395968750Y-139311250D01*
X395968750Y-142311250D02*
X399368750Y-142311250D01*
X395968750Y-139311250D02*
X395968750Y-142311250D01*
X380318750Y-120880000D02*
X380318750Y-117880000D01*
X380318750Y-117880000D02*
X376918750Y-117880000D01*
X376918750Y-120880000D02*
X380318750Y-120880000D01*
X376918750Y-117880000D02*
X376918750Y-120880000D01*
X594631250Y-170886250D02*
X594631250Y-167886250D01*
X594631250Y-167886250D02*
X591231250Y-167886250D01*
X591231250Y-170886250D02*
X594631250Y-170886250D01*
X591231250Y-167886250D02*
X591231250Y-170886250D01*
X375556250Y-180411250D02*
X375556250Y-177411250D01*
X375556250Y-177411250D02*
X372156250Y-177411250D01*
X372156250Y-180411250D02*
X375556250Y-180411250D01*
X372156250Y-177411250D02*
X372156250Y-180411250D01*
X497000000Y-199461250D02*
X497000000Y-196461250D01*
X497000000Y-196461250D02*
X493600000Y-196461250D01*
X493600000Y-199461250D02*
X497000000Y-199461250D01*
X493600000Y-196461250D02*
X493600000Y-199461250D01*
X418418750Y-142311250D02*
X418418750Y-139311250D01*
X418418750Y-139311250D02*
X415018750Y-139311250D01*
X415018750Y-142311250D02*
X418418750Y-142311250D01*
X415018750Y-139311250D02*
X415018750Y-142311250D01*
X516050000Y-199461250D02*
X516050000Y-196461250D01*
X516050000Y-196461250D02*
X512650000Y-196461250D01*
X512650000Y-199461250D02*
X516050000Y-199461250D01*
X512650000Y-196461250D02*
X512650000Y-199461250D01*
X356506250Y-180411250D02*
X356506250Y-177411250D01*
X356506250Y-177411250D02*
X353106250Y-177411250D01*
X353106250Y-180411250D02*
X356506250Y-180411250D01*
X353106250Y-177411250D02*
X353106250Y-180411250D01*
X575581250Y-199461250D02*
X575581250Y-196461250D01*
X575581250Y-196461250D02*
X572181250Y-196461250D01*
X572181250Y-199461250D02*
X575581250Y-199461250D01*
X572181250Y-196461250D02*
X572181250Y-199461250D01*
X266018750Y-142311250D02*
X266018750Y-139311250D01*
X266018750Y-139311250D02*
X262618750Y-139311250D01*
X262618750Y-142311250D02*
X266018750Y-142311250D01*
X262618750Y-139311250D02*
X262618750Y-142311250D01*
M02*
