%TF.GenerationSoftware,KiCad,Pcbnew,7.0.2*%
%TF.CreationDate,2023-05-18T15:06:18-05:00*%
%TF.ProjectId,Touch_Keyboard_10x12_Matrix,546f7563-685f-44b6-9579-626f6172645f,rev?*%
%TF.SameCoordinates,Original*%
%TF.FileFunction,Drillmap*%
%TF.FilePolarity,Positive*%
%FSLAX45Y45*%
G04 Gerber Fmt 4.5, Leading zero omitted, Abs format (unit mm)*
G04 Created by KiCad (PCBNEW 7.0.2) date 2023-05-18 15:06:18*
%MOMM*%
%LPD*%
G01*
G04 APERTURE LIST*
%ADD10C,0.050000*%
%ADD11C,0.200000*%
%ADD12C,0.080000*%
%ADD13C,0.115200*%
%ADD14C,0.175000*%
%ADD15C,0.220000*%
%ADD16C,0.304800*%
%ADD17C,0.398780*%
G04 APERTURE END LIST*
D10*
X8742045Y-3435350D02*
X51604545Y-3435350D01*
X51604545Y-15579725D01*
X8742045Y-15579725D01*
X8742045Y-3435350D01*
D11*
D12*
X36965895Y-8141975D02*
X37045895Y-8221975D01*
X37045895Y-8141975D02*
X36965895Y-8221975D01*
D13*
X9273990Y-14627225D02*
G75*
G03*
X9273990Y-14627225I-57600J0D01*
G01*
X27721375Y-4305935D02*
G75*
G03*
X27721375Y-4305935I-57600J0D01*
G01*
X50286735Y-14633575D02*
G75*
G03*
X50286735Y-14633575I-57600J0D01*
G01*
D14*
X9424035Y-4538475D02*
X9424035Y-4713475D01*
X9336535Y-4625975D02*
X9511535Y-4625975D01*
X9424670Y-6681600D02*
X9424670Y-6856600D01*
X9337170Y-6769100D02*
X9512170Y-6769100D01*
X9662795Y-14301600D02*
X9662795Y-14476600D01*
X9575295Y-14389100D02*
X9750295Y-14389100D01*
X9900920Y-8586600D02*
X9900920Y-8761600D01*
X9813420Y-8674100D02*
X9988420Y-8674100D01*
X10139045Y-10491600D02*
X10139045Y-10666600D01*
X10051545Y-10579100D02*
X10226545Y-10579100D01*
X10440035Y-4538475D02*
X10440035Y-4713475D01*
X10352535Y-4625975D02*
X10527535Y-4625975D01*
X10440670Y-6681600D02*
X10440670Y-6856600D01*
X10353170Y-6769100D02*
X10528170Y-6769100D01*
X10615295Y-12396600D02*
X10615295Y-12571600D01*
X10527795Y-12484100D02*
X10702795Y-12484100D01*
X10678795Y-14301600D02*
X10678795Y-14476600D01*
X10591295Y-14389100D02*
X10766295Y-14389100D01*
X10916920Y-8586600D02*
X10916920Y-8761600D01*
X10829420Y-8674100D02*
X11004420Y-8674100D01*
X11155045Y-10491600D02*
X11155045Y-10666600D01*
X11067545Y-10579100D02*
X11242545Y-10579100D01*
X11329670Y-4538475D02*
X11329670Y-4713475D01*
X11242170Y-4625975D02*
X11417170Y-4625975D01*
X11329670Y-6681600D02*
X11329670Y-6856600D01*
X11242170Y-6769100D02*
X11417170Y-6769100D01*
X11631295Y-12396600D02*
X11631295Y-12571600D01*
X11543795Y-12484100D02*
X11718795Y-12484100D01*
X12044045Y-14301600D02*
X12044045Y-14476600D01*
X11956545Y-14389100D02*
X12131545Y-14389100D01*
X12282170Y-8586600D02*
X12282170Y-8761600D01*
X12194670Y-8674100D02*
X12369670Y-8674100D01*
X12345670Y-4538475D02*
X12345670Y-4713475D01*
X12258170Y-4625975D02*
X12433170Y-4625975D01*
X12345670Y-6681600D02*
X12345670Y-6856600D01*
X12258170Y-6769100D02*
X12433170Y-6769100D01*
X12758420Y-10491600D02*
X12758420Y-10666600D01*
X12670920Y-10579100D02*
X12845920Y-10579100D01*
X13060045Y-14301600D02*
X13060045Y-14476600D01*
X12972545Y-14389100D02*
X13147545Y-14389100D01*
X13234670Y-4538475D02*
X13234670Y-4713475D01*
X13147170Y-4625975D02*
X13322170Y-4625975D01*
X13234670Y-6681600D02*
X13234670Y-6856600D01*
X13147170Y-6769100D02*
X13322170Y-6769100D01*
X13298170Y-8586600D02*
X13298170Y-8761600D01*
X13210670Y-8674100D02*
X13385670Y-8674100D01*
X13710920Y-12396600D02*
X13710920Y-12571600D01*
X13623420Y-12484100D02*
X13798420Y-12484100D01*
X13774420Y-10491600D02*
X13774420Y-10666600D01*
X13686920Y-10579100D02*
X13861920Y-10579100D01*
X14187170Y-8586600D02*
X14187170Y-8761600D01*
X14099670Y-8674100D02*
X14274670Y-8674100D01*
X14250670Y-4538475D02*
X14250670Y-4713475D01*
X14163170Y-4625975D02*
X14338170Y-4625975D01*
X14250670Y-6681600D02*
X14250670Y-6856600D01*
X14163170Y-6769100D02*
X14338170Y-6769100D01*
X14425295Y-14301600D02*
X14425295Y-14476600D01*
X14337795Y-14389100D02*
X14512795Y-14389100D01*
X14663420Y-10491600D02*
X14663420Y-10666600D01*
X14575920Y-10579100D02*
X14750920Y-10579100D01*
X14726920Y-12396600D02*
X14726920Y-12571600D01*
X14639420Y-12484100D02*
X14814420Y-12484100D01*
X15139670Y-4538475D02*
X15139670Y-4713475D01*
X15052170Y-4625975D02*
X15227170Y-4625975D01*
X15139670Y-6681600D02*
X15139670Y-6856600D01*
X15052170Y-6769100D02*
X15227170Y-6769100D01*
X15203170Y-8586600D02*
X15203170Y-8761600D01*
X15115670Y-8674100D02*
X15290670Y-8674100D01*
X15441295Y-14301600D02*
X15441295Y-14476600D01*
X15353795Y-14389100D02*
X15528795Y-14389100D01*
X15615920Y-12396600D02*
X15615920Y-12571600D01*
X15528420Y-12484100D02*
X15703420Y-12484100D01*
X15679420Y-10491600D02*
X15679420Y-10666600D01*
X15591920Y-10579100D02*
X15766920Y-10579100D01*
X16092170Y-8586600D02*
X16092170Y-8761600D01*
X16004670Y-8674100D02*
X16179670Y-8674100D01*
X16155670Y-4538475D02*
X16155670Y-4713475D01*
X16068170Y-4625975D02*
X16243170Y-4625975D01*
X16155670Y-6681600D02*
X16155670Y-6856600D01*
X16068170Y-6769100D02*
X16243170Y-6769100D01*
X16568420Y-10491600D02*
X16568420Y-10666600D01*
X16480920Y-10579100D02*
X16655920Y-10579100D01*
X16568420Y-14301600D02*
X16568420Y-14476600D01*
X16480920Y-14389100D02*
X16655920Y-14389100D01*
X16631920Y-12396600D02*
X16631920Y-12571600D01*
X16544420Y-12484100D02*
X16719420Y-12484100D01*
X17044670Y-4538475D02*
X17044670Y-4713475D01*
X16957170Y-4625975D02*
X17132170Y-4625975D01*
X17044670Y-6681600D02*
X17044670Y-6856600D01*
X16957170Y-6769100D02*
X17132170Y-6769100D01*
X17108170Y-8586600D02*
X17108170Y-8761600D01*
X17020670Y-8674100D02*
X17195670Y-8674100D01*
X17520920Y-12396600D02*
X17520920Y-12571600D01*
X17433420Y-12484100D02*
X17608420Y-12484100D01*
X17584420Y-10491600D02*
X17584420Y-10666600D01*
X17496920Y-10579100D02*
X17671920Y-10579100D01*
X17584420Y-14301600D02*
X17584420Y-14476600D01*
X17496920Y-14389100D02*
X17671920Y-14389100D01*
X17997170Y-8586600D02*
X17997170Y-8761600D01*
X17909670Y-8674100D02*
X18084670Y-8674100D01*
X18060670Y-4538475D02*
X18060670Y-4713475D01*
X17973170Y-4625975D02*
X18148170Y-4625975D01*
X18060670Y-6681600D02*
X18060670Y-6856600D01*
X17973170Y-6769100D02*
X18148170Y-6769100D01*
X18473420Y-10491600D02*
X18473420Y-10666600D01*
X18385920Y-10579100D02*
X18560920Y-10579100D01*
X18536920Y-12396600D02*
X18536920Y-12571600D01*
X18449420Y-12484100D02*
X18624420Y-12484100D01*
X18949670Y-4538475D02*
X18949670Y-4713475D01*
X18862170Y-4625975D02*
X19037170Y-4625975D01*
X18949670Y-6681600D02*
X18949670Y-6856600D01*
X18862170Y-6769100D02*
X19037170Y-6769100D01*
X19013170Y-8586600D02*
X19013170Y-8761600D01*
X18925670Y-8674100D02*
X19100670Y-8674100D01*
X19425920Y-12396600D02*
X19425920Y-12571600D01*
X19338420Y-12484100D02*
X19513420Y-12484100D01*
X19489420Y-10491600D02*
X19489420Y-10666600D01*
X19401920Y-10579100D02*
X19576920Y-10579100D01*
X19664045Y-14301600D02*
X19664045Y-14476600D01*
X19576545Y-14389100D02*
X19751545Y-14389100D01*
X19902170Y-8586600D02*
X19902170Y-8761600D01*
X19814670Y-8674100D02*
X19989670Y-8674100D01*
X19965670Y-4538475D02*
X19965670Y-4713475D01*
X19878170Y-4625975D02*
X20053170Y-4625975D01*
X19965670Y-6681600D02*
X19965670Y-6856600D01*
X19878170Y-6769100D02*
X20053170Y-6769100D01*
X20378420Y-10491600D02*
X20378420Y-10666600D01*
X20290920Y-10579100D02*
X20465920Y-10579100D01*
X20441920Y-12396600D02*
X20441920Y-12571600D01*
X20354420Y-12484100D02*
X20529420Y-12484100D01*
X20680045Y-14301600D02*
X20680045Y-14476600D01*
X20592545Y-14389100D02*
X20767545Y-14389100D01*
X20854670Y-4538475D02*
X20854670Y-4713475D01*
X20767170Y-4625975D02*
X20942170Y-4625975D01*
X20854670Y-6681600D02*
X20854670Y-6856600D01*
X20767170Y-6769100D02*
X20942170Y-6769100D01*
X20918170Y-8586600D02*
X20918170Y-8761600D01*
X20830670Y-8674100D02*
X21005670Y-8674100D01*
X21330920Y-12396600D02*
X21330920Y-12571600D01*
X21243420Y-12484100D02*
X21418420Y-12484100D01*
X21394420Y-10491600D02*
X21394420Y-10666600D01*
X21306920Y-10579100D02*
X21481920Y-10579100D01*
X21569045Y-14301600D02*
X21569045Y-14476600D01*
X21481545Y-14389100D02*
X21656545Y-14389100D01*
X21807170Y-8586600D02*
X21807170Y-8761600D01*
X21719670Y-8674100D02*
X21894670Y-8674100D01*
X21870670Y-4538475D02*
X21870670Y-4713475D01*
X21783170Y-4625975D02*
X21958170Y-4625975D01*
X21870670Y-6681600D02*
X21870670Y-6856600D01*
X21783170Y-6769100D02*
X21958170Y-6769100D01*
X22283420Y-10491600D02*
X22283420Y-10666600D01*
X22195920Y-10579100D02*
X22370920Y-10579100D01*
X22346920Y-12396600D02*
X22346920Y-12571600D01*
X22259420Y-12484100D02*
X22434420Y-12484100D01*
X22585045Y-14301600D02*
X22585045Y-14476600D01*
X22497545Y-14389100D02*
X22672545Y-14389100D01*
X22759670Y-4538475D02*
X22759670Y-4713475D01*
X22672170Y-4625975D02*
X22847170Y-4625975D01*
X22759670Y-6681600D02*
X22759670Y-6856600D01*
X22672170Y-6769100D02*
X22847170Y-6769100D01*
X22823170Y-8586600D02*
X22823170Y-8761600D01*
X22735670Y-8674100D02*
X22910670Y-8674100D01*
X23235920Y-12396600D02*
X23235920Y-12571600D01*
X23148420Y-12484100D02*
X23323420Y-12484100D01*
X23299420Y-10491600D02*
X23299420Y-10666600D01*
X23211920Y-10579100D02*
X23386920Y-10579100D01*
X23712170Y-8586600D02*
X23712170Y-8761600D01*
X23624670Y-8674100D02*
X23799670Y-8674100D01*
X23712170Y-14301600D02*
X23712170Y-14476600D01*
X23624670Y-14389100D02*
X23799670Y-14389100D01*
X23775670Y-4538475D02*
X23775670Y-4713475D01*
X23688170Y-4625975D02*
X23863170Y-4625975D01*
X23775670Y-6681600D02*
X23775670Y-6856600D01*
X23688170Y-6769100D02*
X23863170Y-6769100D01*
X24188420Y-10491600D02*
X24188420Y-10666600D01*
X24100920Y-10579100D02*
X24275920Y-10579100D01*
X24251920Y-12396600D02*
X24251920Y-12571600D01*
X24164420Y-12484100D02*
X24339420Y-12484100D01*
X24664670Y-4538475D02*
X24664670Y-4713475D01*
X24577170Y-4625975D02*
X24752170Y-4625975D01*
X24664670Y-6681600D02*
X24664670Y-6856600D01*
X24577170Y-6769100D02*
X24752170Y-6769100D01*
X24728170Y-8586600D02*
X24728170Y-8761600D01*
X24640670Y-8674100D02*
X24815670Y-8674100D01*
X24728170Y-14301600D02*
X24728170Y-14476600D01*
X24640670Y-14389100D02*
X24815670Y-14389100D01*
X25140920Y-12396600D02*
X25140920Y-12571600D01*
X25053420Y-12484100D02*
X25228420Y-12484100D01*
X25204420Y-10491600D02*
X25204420Y-10666600D01*
X25116920Y-10579100D02*
X25291920Y-10579100D01*
X25617170Y-8586600D02*
X25617170Y-8761600D01*
X25529670Y-8674100D02*
X25704670Y-8674100D01*
X25680670Y-4538475D02*
X25680670Y-4713475D01*
X25593170Y-4625975D02*
X25768170Y-4625975D01*
X25680670Y-6681600D02*
X25680670Y-6856600D01*
X25593170Y-6769100D02*
X25768170Y-6769100D01*
X26093420Y-10491600D02*
X26093420Y-10666600D01*
X26005920Y-10579100D02*
X26180920Y-10579100D01*
X26156920Y-12396600D02*
X26156920Y-12571600D01*
X26069420Y-12484100D02*
X26244420Y-12484100D01*
X26569670Y-4538475D02*
X26569670Y-4713475D01*
X26482170Y-4625975D02*
X26657170Y-4625975D01*
X26569670Y-6681600D02*
X26569670Y-6856600D01*
X26482170Y-6769100D02*
X26657170Y-6769100D01*
X26569670Y-14301600D02*
X26569670Y-14476600D01*
X26482170Y-14389100D02*
X26657170Y-14389100D01*
X26633170Y-8586600D02*
X26633170Y-8761600D01*
X26545670Y-8674100D02*
X26720670Y-8674100D01*
X27045920Y-12396600D02*
X27045920Y-12571600D01*
X26958420Y-12484100D02*
X27133420Y-12484100D01*
X27109420Y-10491600D02*
X27109420Y-10666600D01*
X27021920Y-10579100D02*
X27196920Y-10579100D01*
X27522170Y-8586600D02*
X27522170Y-8761600D01*
X27434670Y-8674100D02*
X27609670Y-8674100D01*
X27585670Y-4538475D02*
X27585670Y-4713475D01*
X27498170Y-4625975D02*
X27673170Y-4625975D01*
X27585670Y-6681600D02*
X27585670Y-6856600D01*
X27498170Y-6769100D02*
X27673170Y-6769100D01*
X27585670Y-14301600D02*
X27585670Y-14476600D01*
X27498170Y-14389100D02*
X27673170Y-14389100D01*
X27998420Y-10491600D02*
X27998420Y-10666600D01*
X27910920Y-10579100D02*
X28085920Y-10579100D01*
X28061920Y-12396600D02*
X28061920Y-12571600D01*
X27974420Y-12484100D02*
X28149420Y-12484100D01*
X28474670Y-4538475D02*
X28474670Y-4713475D01*
X28387170Y-4625975D02*
X28562170Y-4625975D01*
X28474670Y-6681600D02*
X28474670Y-6856600D01*
X28387170Y-6769100D02*
X28562170Y-6769100D01*
X28538170Y-8586600D02*
X28538170Y-8761600D01*
X28450670Y-8674100D02*
X28625670Y-8674100D01*
X28712795Y-14301600D02*
X28712795Y-14476600D01*
X28625295Y-14389100D02*
X28800295Y-14389100D01*
X28950920Y-12396600D02*
X28950920Y-12571600D01*
X28863420Y-12484100D02*
X29038420Y-12484100D01*
X29014420Y-10491600D02*
X29014420Y-10666600D01*
X28926920Y-10579100D02*
X29101920Y-10579100D01*
X29427170Y-8586600D02*
X29427170Y-8761600D01*
X29339670Y-8674100D02*
X29514670Y-8674100D01*
X29490670Y-4538475D02*
X29490670Y-4713475D01*
X29403170Y-4625975D02*
X29578170Y-4625975D01*
X29490670Y-6681600D02*
X29490670Y-6856600D01*
X29403170Y-6769100D02*
X29578170Y-6769100D01*
X29728795Y-14301600D02*
X29728795Y-14476600D01*
X29641295Y-14389100D02*
X29816295Y-14389100D01*
X29903420Y-10491600D02*
X29903420Y-10666600D01*
X29815920Y-10579100D02*
X29990920Y-10579100D01*
X29966920Y-12396600D02*
X29966920Y-12571600D01*
X29879420Y-12484100D02*
X30054420Y-12484100D01*
X30379670Y-4538475D02*
X30379670Y-4713475D01*
X30292170Y-4625975D02*
X30467170Y-4625975D01*
X30379670Y-6681600D02*
X30379670Y-6856600D01*
X30292170Y-6769100D02*
X30467170Y-6769100D01*
X30443170Y-8586600D02*
X30443170Y-8761600D01*
X30355670Y-8674100D02*
X30530670Y-8674100D01*
X30855920Y-12396600D02*
X30855920Y-12571600D01*
X30768420Y-12484100D02*
X30943420Y-12484100D01*
X30919420Y-10491600D02*
X30919420Y-10666600D01*
X30831920Y-10579100D02*
X31006920Y-10579100D01*
X31094045Y-14301600D02*
X31094045Y-14476600D01*
X31006545Y-14389100D02*
X31181545Y-14389100D01*
X31332170Y-8586600D02*
X31332170Y-8761600D01*
X31244670Y-8674100D02*
X31419670Y-8674100D01*
X31395670Y-4538475D02*
X31395670Y-4713475D01*
X31308170Y-4625975D02*
X31483170Y-4625975D01*
X31395670Y-6681600D02*
X31395670Y-6856600D01*
X31308170Y-6769100D02*
X31483170Y-6769100D01*
X31808420Y-10491600D02*
X31808420Y-10666600D01*
X31720920Y-10579100D02*
X31895920Y-10579100D01*
X31871920Y-12396600D02*
X31871920Y-12571600D01*
X31784420Y-12484100D02*
X31959420Y-12484100D01*
X32110045Y-14301600D02*
X32110045Y-14476600D01*
X32022545Y-14389100D02*
X32197545Y-14389100D01*
X32284670Y-4538475D02*
X32284670Y-4713475D01*
X32197170Y-4625975D02*
X32372170Y-4625975D01*
X32284670Y-6681600D02*
X32284670Y-6856600D01*
X32197170Y-6769100D02*
X32372170Y-6769100D01*
X32348170Y-8586600D02*
X32348170Y-8761600D01*
X32260670Y-8674100D02*
X32435670Y-8674100D01*
X32824420Y-10491600D02*
X32824420Y-10666600D01*
X32736920Y-10579100D02*
X32911920Y-10579100D01*
X33237170Y-8586600D02*
X33237170Y-8761600D01*
X33149670Y-8674100D02*
X33324670Y-8674100D01*
X33300670Y-4538475D02*
X33300670Y-4713475D01*
X33213170Y-4625975D02*
X33388170Y-4625975D01*
X33300670Y-6681600D02*
X33300670Y-6856600D01*
X33213170Y-6769100D02*
X33388170Y-6769100D01*
X33475295Y-14301600D02*
X33475295Y-14476600D01*
X33387795Y-14389100D02*
X33562795Y-14389100D01*
X34189670Y-4538475D02*
X34189670Y-4713475D01*
X34102170Y-4625975D02*
X34277170Y-4625975D01*
X34253170Y-8586600D02*
X34253170Y-8761600D01*
X34165670Y-8674100D02*
X34340670Y-8674100D01*
X34427795Y-12396600D02*
X34427795Y-12571600D01*
X34340295Y-12484100D02*
X34515295Y-12484100D01*
X34491295Y-14301600D02*
X34491295Y-14476600D01*
X34403795Y-14389100D02*
X34578795Y-14389100D01*
X34904045Y-10491600D02*
X34904045Y-10666600D01*
X34816545Y-10579100D02*
X34991545Y-10579100D01*
X35142170Y-6681600D02*
X35142170Y-6856600D01*
X35054670Y-6769100D02*
X35229670Y-6769100D01*
X35205670Y-4538475D02*
X35205670Y-4713475D01*
X35118170Y-4625975D02*
X35293170Y-4625975D01*
X35443795Y-12396600D02*
X35443795Y-12571600D01*
X35356295Y-12484100D02*
X35531295Y-12484100D01*
X35618420Y-8586600D02*
X35618420Y-8761600D01*
X35530920Y-8674100D02*
X35705920Y-8674100D01*
X35856545Y-14301600D02*
X35856545Y-14476600D01*
X35769045Y-14389100D02*
X35944045Y-14389100D01*
X35920045Y-10491600D02*
X35920045Y-10666600D01*
X35832545Y-10579100D02*
X36007545Y-10579100D01*
X36094670Y-4538475D02*
X36094670Y-4713475D01*
X36007170Y-4625975D02*
X36182170Y-4625975D01*
X36158170Y-6681600D02*
X36158170Y-6856600D01*
X36070670Y-6769100D02*
X36245670Y-6769100D01*
X36634420Y-8586600D02*
X36634420Y-8761600D01*
X36546920Y-8674100D02*
X36721920Y-8674100D01*
X36872545Y-14301600D02*
X36872545Y-14476600D01*
X36785045Y-14389100D02*
X36960045Y-14389100D01*
X37110670Y-4538475D02*
X37110670Y-4713475D01*
X37023170Y-4625975D02*
X37198170Y-4625975D01*
X38237795Y-4538475D02*
X38237795Y-4713475D01*
X38150295Y-4625975D02*
X38325295Y-4625975D01*
X38237795Y-6681600D02*
X38237795Y-6856600D01*
X38150295Y-6769100D02*
X38325295Y-6769100D01*
X38237795Y-8586600D02*
X38237795Y-8761600D01*
X38150295Y-8674100D02*
X38325295Y-8674100D01*
X38237795Y-10491600D02*
X38237795Y-10666600D01*
X38150295Y-10579100D02*
X38325295Y-10579100D01*
X38237795Y-12396600D02*
X38237795Y-12571600D01*
X38150295Y-12484100D02*
X38325295Y-12484100D01*
X38237795Y-14301600D02*
X38237795Y-14476600D01*
X38150295Y-14389100D02*
X38325295Y-14389100D01*
X39253795Y-4538475D02*
X39253795Y-4713475D01*
X39166295Y-4625975D02*
X39341295Y-4625975D01*
X39253795Y-6681600D02*
X39253795Y-6856600D01*
X39166295Y-6769100D02*
X39341295Y-6769100D01*
X39253795Y-8586600D02*
X39253795Y-8761600D01*
X39166295Y-8674100D02*
X39341295Y-8674100D01*
X39253795Y-10491600D02*
X39253795Y-10666600D01*
X39166295Y-10579100D02*
X39341295Y-10579100D01*
X39253795Y-12396600D02*
X39253795Y-12571600D01*
X39166295Y-12484100D02*
X39341295Y-12484100D01*
X39253795Y-14301600D02*
X39253795Y-14476600D01*
X39166295Y-14389100D02*
X39341295Y-14389100D01*
X40142795Y-4538475D02*
X40142795Y-4713475D01*
X40055295Y-4625975D02*
X40230295Y-4625975D01*
X40142795Y-6681600D02*
X40142795Y-6856600D01*
X40055295Y-6769100D02*
X40230295Y-6769100D01*
X40142795Y-8586600D02*
X40142795Y-8761600D01*
X40055295Y-8674100D02*
X40230295Y-8674100D01*
X40142795Y-10491600D02*
X40142795Y-10666600D01*
X40055295Y-10579100D02*
X40230295Y-10579100D01*
X40142795Y-12396600D02*
X40142795Y-12571600D01*
X40055295Y-12484100D02*
X40230295Y-12484100D01*
X40142795Y-14301600D02*
X40142795Y-14476600D01*
X40055295Y-14389100D02*
X40230295Y-14389100D01*
X41158795Y-4538475D02*
X41158795Y-4713475D01*
X41071295Y-4625975D02*
X41246295Y-4625975D01*
X41158795Y-6681600D02*
X41158795Y-6856600D01*
X41071295Y-6769100D02*
X41246295Y-6769100D01*
X41158795Y-8586600D02*
X41158795Y-8761600D01*
X41071295Y-8674100D02*
X41246295Y-8674100D01*
X41158795Y-10491600D02*
X41158795Y-10666600D01*
X41071295Y-10579100D02*
X41246295Y-10579100D01*
X41158795Y-12396600D02*
X41158795Y-12571600D01*
X41071295Y-12484100D02*
X41246295Y-12484100D01*
X41158795Y-14301600D02*
X41158795Y-14476600D01*
X41071295Y-14389100D02*
X41246295Y-14389100D01*
X42047795Y-4538475D02*
X42047795Y-4713475D01*
X41960295Y-4625975D02*
X42135295Y-4625975D01*
X42047795Y-6681600D02*
X42047795Y-6856600D01*
X41960295Y-6769100D02*
X42135295Y-6769100D01*
X42047795Y-8586600D02*
X42047795Y-8761600D01*
X41960295Y-8674100D02*
X42135295Y-8674100D01*
X42047795Y-10491600D02*
X42047795Y-10666600D01*
X41960295Y-10579100D02*
X42135295Y-10579100D01*
X42047795Y-12396600D02*
X42047795Y-12571600D01*
X41960295Y-12484100D02*
X42135295Y-12484100D01*
X42047795Y-14301600D02*
X42047795Y-14476600D01*
X41960295Y-14389100D02*
X42135295Y-14389100D01*
X43063795Y-4538475D02*
X43063795Y-4713475D01*
X42976295Y-4625975D02*
X43151295Y-4625975D01*
X43063795Y-6681600D02*
X43063795Y-6856600D01*
X42976295Y-6769100D02*
X43151295Y-6769100D01*
X43063795Y-8586600D02*
X43063795Y-8761600D01*
X42976295Y-8674100D02*
X43151295Y-8674100D01*
X43063795Y-10491600D02*
X43063795Y-10666600D01*
X42976295Y-10579100D02*
X43151295Y-10579100D01*
X43063795Y-12396600D02*
X43063795Y-12571600D01*
X42976295Y-12484100D02*
X43151295Y-12484100D01*
X43063795Y-14301600D02*
X43063795Y-14476600D01*
X42976295Y-14389100D02*
X43151295Y-14389100D01*
X44190920Y-4538475D02*
X44190920Y-4713475D01*
X44103420Y-4625975D02*
X44278420Y-4625975D01*
X44190920Y-6681600D02*
X44190920Y-6856600D01*
X44103420Y-6769100D02*
X44278420Y-6769100D01*
X44190920Y-8586600D02*
X44190920Y-8761600D01*
X44103420Y-8674100D02*
X44278420Y-8674100D01*
X44190920Y-10491600D02*
X44190920Y-10666600D01*
X44103420Y-10579100D02*
X44278420Y-10579100D01*
X44190920Y-12396600D02*
X44190920Y-12571600D01*
X44103420Y-12484100D02*
X44278420Y-12484100D01*
X45143420Y-14301600D02*
X45143420Y-14476600D01*
X45055920Y-14389100D02*
X45230920Y-14389100D01*
X45206920Y-4538475D02*
X45206920Y-4713475D01*
X45119420Y-4625975D02*
X45294420Y-4625975D01*
X45206920Y-6681600D02*
X45206920Y-6856600D01*
X45119420Y-6769100D02*
X45294420Y-6769100D01*
X45206920Y-8586600D02*
X45206920Y-8761600D01*
X45119420Y-8674100D02*
X45294420Y-8674100D01*
X45206920Y-10491600D02*
X45206920Y-10666600D01*
X45119420Y-10579100D02*
X45294420Y-10579100D01*
X45206920Y-12396600D02*
X45206920Y-12571600D01*
X45119420Y-12484100D02*
X45294420Y-12484100D01*
X46095920Y-4538475D02*
X46095920Y-4713475D01*
X46008420Y-4625975D02*
X46183420Y-4625975D01*
X46095920Y-6681600D02*
X46095920Y-6856600D01*
X46008420Y-6769100D02*
X46183420Y-6769100D01*
X46095920Y-8586600D02*
X46095920Y-8761600D01*
X46008420Y-8674100D02*
X46183420Y-8674100D01*
X46095920Y-10491600D02*
X46095920Y-10666600D01*
X46008420Y-10579100D02*
X46183420Y-10579100D01*
X46095920Y-12396600D02*
X46095920Y-12571600D01*
X46008420Y-12484100D02*
X46183420Y-12484100D01*
X46159420Y-14301600D02*
X46159420Y-14476600D01*
X46071920Y-14389100D02*
X46246920Y-14389100D01*
X47111920Y-4538475D02*
X47111920Y-4713475D01*
X47024420Y-4625975D02*
X47199420Y-4625975D01*
X47111920Y-6681600D02*
X47111920Y-6856600D01*
X47024420Y-6769100D02*
X47199420Y-6769100D01*
X47111920Y-8586600D02*
X47111920Y-8761600D01*
X47024420Y-8674100D02*
X47199420Y-8674100D01*
X47111920Y-10491600D02*
X47111920Y-10666600D01*
X47024420Y-10579100D02*
X47199420Y-10579100D01*
X47111920Y-12396600D02*
X47111920Y-12571600D01*
X47024420Y-12484100D02*
X47199420Y-12484100D01*
X48000920Y-4538475D02*
X48000920Y-4713475D01*
X47913420Y-4625975D02*
X48088420Y-4625975D01*
X48000920Y-6681600D02*
X48000920Y-6856600D01*
X47913420Y-6769100D02*
X48088420Y-6769100D01*
X48000920Y-8586600D02*
X48000920Y-8761600D01*
X47913420Y-8674100D02*
X48088420Y-8674100D01*
X48000920Y-10491600D02*
X48000920Y-10666600D01*
X47913420Y-10579100D02*
X48088420Y-10579100D01*
X48000920Y-12396600D02*
X48000920Y-12571600D01*
X47913420Y-12484100D02*
X48088420Y-12484100D01*
X48000920Y-14301600D02*
X48000920Y-14476600D01*
X47913420Y-14389100D02*
X48088420Y-14389100D01*
X49016920Y-4538475D02*
X49016920Y-4713475D01*
X48929420Y-4625975D02*
X49104420Y-4625975D01*
X49016920Y-6681600D02*
X49016920Y-6856600D01*
X48929420Y-6769100D02*
X49104420Y-6769100D01*
X49016920Y-8586600D02*
X49016920Y-8761600D01*
X48929420Y-8674100D02*
X49104420Y-8674100D01*
X49016920Y-10491600D02*
X49016920Y-10666600D01*
X48929420Y-10579100D02*
X49104420Y-10579100D01*
X49016920Y-12396600D02*
X49016920Y-12571600D01*
X48929420Y-12484100D02*
X49104420Y-12484100D01*
X49016920Y-14301600D02*
X49016920Y-14476600D01*
X48929420Y-14389100D02*
X49104420Y-14389100D01*
X49905920Y-4538475D02*
X49905920Y-4713475D01*
X49818420Y-4625975D02*
X49993420Y-4625975D01*
X49905920Y-6681600D02*
X49905920Y-6856600D01*
X49818420Y-6769100D02*
X49993420Y-6769100D01*
X49905920Y-9539100D02*
X49905920Y-9714100D01*
X49818420Y-9626600D02*
X49993420Y-9626600D01*
X49905920Y-13349100D02*
X49905920Y-13524100D01*
X49818420Y-13436600D02*
X49993420Y-13436600D01*
X50921920Y-4538475D02*
X50921920Y-4713475D01*
X50834420Y-4625975D02*
X51009420Y-4625975D01*
X50921920Y-6681600D02*
X50921920Y-6856600D01*
X50834420Y-6769100D02*
X51009420Y-6769100D01*
X50921920Y-9539100D02*
X50921920Y-9714100D01*
X50834420Y-9626600D02*
X51009420Y-9626600D01*
X50921920Y-13349100D02*
X50921920Y-13524100D01*
X50834420Y-13436600D02*
X51009420Y-13436600D01*
D15*
X9294173Y-12561882D02*
X9294173Y-12406317D01*
X9138608Y-12406317D01*
X9138608Y-12561882D01*
X9294173Y-12561882D01*
X10961048Y-6846882D02*
X10961048Y-6691317D01*
X10805483Y-6691317D01*
X10805483Y-6846882D01*
X10961048Y-6846882D01*
X16085497Y-14466882D02*
X16085497Y-14311317D01*
X15929932Y-14311317D01*
X15929932Y-14466882D01*
X16085497Y-14466882D01*
X18104798Y-10656883D02*
X18104798Y-10501318D01*
X17949233Y-10501318D01*
X17949233Y-10656883D01*
X18104798Y-10656883D01*
X18581048Y-4941883D02*
X18581048Y-4786318D01*
X18425483Y-4786318D01*
X18425483Y-4941883D01*
X18581048Y-4941883D01*
X23220357Y-14466882D02*
X23220357Y-14311317D01*
X23064792Y-14311317D01*
X23064792Y-14466882D01*
X23220357Y-14466882D01*
X26201047Y-6846882D02*
X26201047Y-6691317D01*
X26045482Y-6691317D01*
X26045482Y-6846882D01*
X26201047Y-6846882D01*
X29534797Y-10656883D02*
X29534797Y-10501318D01*
X29379232Y-10501318D01*
X29379232Y-10656883D01*
X29534797Y-10656883D01*
X32868547Y-14466882D02*
X32868547Y-14311317D01*
X32712982Y-14311317D01*
X32712982Y-14466882D01*
X32868547Y-14466882D01*
X33821048Y-4941883D02*
X33821048Y-4786318D01*
X33665483Y-4786318D01*
X33665483Y-4941883D01*
X33821048Y-4941883D01*
X39776078Y-8751883D02*
X39776078Y-8596318D01*
X39620513Y-8596318D01*
X39620513Y-8751883D01*
X39776078Y-8751883D01*
X41679173Y-14466882D02*
X41679173Y-14311317D01*
X41523608Y-14311317D01*
X41523608Y-14466882D01*
X41679173Y-14466882D01*
X45727297Y-8751883D02*
X45727297Y-8596318D01*
X45571732Y-8596318D01*
X45571732Y-8751883D01*
X45727297Y-8751883D01*
X49534757Y-14020477D02*
X49534757Y-13864912D01*
X49379192Y-13864912D01*
X49379192Y-14020477D01*
X49534757Y-14020477D01*
X49539837Y-6846882D02*
X49539837Y-6691317D01*
X49384272Y-6691317D01*
X49384272Y-6846882D01*
X49539837Y-6846882D01*
D16*
X9932670Y-13335000D02*
X10085070Y-13182600D01*
X9932670Y-13030200D01*
X9780270Y-13182600D01*
X9932670Y-13335000D01*
X12313920Y-13335000D02*
X12466320Y-13182600D01*
X12313920Y-13030200D01*
X12161520Y-13182600D01*
X12313920Y-13335000D01*
X34221420Y-11430000D02*
X34373820Y-11277600D01*
X34221420Y-11125200D01*
X34069020Y-11277600D01*
X34221420Y-11430000D01*
X34460815Y-7620000D02*
X34613215Y-7467600D01*
X34460815Y-7315200D01*
X34308415Y-7467600D01*
X34460815Y-7620000D01*
X36602670Y-11430000D02*
X36755070Y-11277600D01*
X36602670Y-11125200D01*
X36450270Y-11277600D01*
X36602670Y-11430000D01*
X36842065Y-7620000D02*
X36994465Y-7467600D01*
X36842065Y-7315200D01*
X36689665Y-7467600D01*
X36842065Y-7620000D01*
X44460795Y-15240000D02*
X44613195Y-15087600D01*
X44460795Y-14935200D01*
X44308395Y-15087600D01*
X44460795Y-15240000D01*
X46842045Y-15240000D02*
X46994445Y-15087600D01*
X46842045Y-14935200D01*
X46689645Y-15087600D01*
X46842045Y-15240000D01*
X51112420Y-8588375D02*
X51264820Y-8435975D01*
X51112420Y-8283575D01*
X50960020Y-8435975D01*
X51112420Y-8588375D01*
X51112420Y-10969625D02*
X51264820Y-10817225D01*
X51112420Y-10664825D01*
X50960020Y-10817225D01*
X51112420Y-10969625D01*
X51112420Y-12398375D02*
X51264820Y-12245975D01*
X51112420Y-12093575D01*
X50960020Y-12245975D01*
X51112420Y-12398375D01*
X51112420Y-14779625D02*
X51264820Y-14627225D01*
X51112420Y-14474825D01*
X50960020Y-14627225D01*
X51112420Y-14779625D01*
D17*
X9732645Y-4426585D02*
X10131425Y-4825365D01*
X10131425Y-4426585D02*
X9732645Y-4825365D01*
X10131425Y-4625975D02*
G75*
G03*
X10131425Y-4625975I-199390J0D01*
G01*
X9733280Y-6569710D02*
X10132060Y-6968490D01*
X10132060Y-6569710D02*
X9733280Y-6968490D01*
X10132060Y-6769100D02*
G75*
G03*
X10132060Y-6769100I-199390J0D01*
G01*
X9733280Y-11459210D02*
X10132060Y-11857990D01*
X10132060Y-11459210D02*
X9733280Y-11857990D01*
X10132060Y-11658600D02*
G75*
G03*
X10132060Y-11658600I-199390J0D01*
G01*
X9971405Y-14189710D02*
X10370185Y-14588490D01*
X10370185Y-14189710D02*
X9971405Y-14588490D01*
X10370185Y-14389100D02*
G75*
G03*
X10370185Y-14389100I-199390J0D01*
G01*
X10209530Y-8474710D02*
X10608310Y-8873490D01*
X10608310Y-8474710D02*
X10209530Y-8873490D01*
X10608310Y-8674100D02*
G75*
G03*
X10608310Y-8674100I-199390J0D01*
G01*
X10447655Y-10379710D02*
X10846435Y-10778490D01*
X10846435Y-10379710D02*
X10447655Y-10778490D01*
X10846435Y-10579100D02*
G75*
G03*
X10846435Y-10579100I-199390J0D01*
G01*
X10923905Y-12284710D02*
X11322685Y-12683490D01*
X11322685Y-12284710D02*
X10923905Y-12683490D01*
X11322685Y-12484100D02*
G75*
G03*
X11322685Y-12484100I-199390J0D01*
G01*
X11638280Y-4426585D02*
X12037060Y-4825365D01*
X12037060Y-4426585D02*
X11638280Y-4825365D01*
X12037060Y-4625975D02*
G75*
G03*
X12037060Y-4625975I-199390J0D01*
G01*
X11638280Y-6569710D02*
X12037060Y-6968490D01*
X12037060Y-6569710D02*
X11638280Y-6968490D01*
X12037060Y-6769100D02*
G75*
G03*
X12037060Y-6769100I-199390J0D01*
G01*
X12114530Y-11459210D02*
X12513310Y-11857990D01*
X12513310Y-11459210D02*
X12114530Y-11857990D01*
X12513310Y-11658600D02*
G75*
G03*
X12513310Y-11658600I-199390J0D01*
G01*
X12352655Y-14189710D02*
X12751435Y-14588490D01*
X12751435Y-14189710D02*
X12352655Y-14588490D01*
X12751435Y-14389100D02*
G75*
G03*
X12751435Y-14389100I-199390J0D01*
G01*
X12590780Y-8474710D02*
X12989560Y-8873490D01*
X12989560Y-8474710D02*
X12590780Y-8873490D01*
X12989560Y-8674100D02*
G75*
G03*
X12989560Y-8674100I-199390J0D01*
G01*
X13067030Y-10379710D02*
X13465810Y-10778490D01*
X13465810Y-10379710D02*
X13067030Y-10778490D01*
X13465810Y-10579100D02*
G75*
G03*
X13465810Y-10579100I-199390J0D01*
G01*
X13543280Y-4426585D02*
X13942060Y-4825365D01*
X13942060Y-4426585D02*
X13543280Y-4825365D01*
X13942060Y-4625975D02*
G75*
G03*
X13942060Y-4625975I-199390J0D01*
G01*
X13543280Y-6569710D02*
X13942060Y-6968490D01*
X13942060Y-6569710D02*
X13543280Y-6968490D01*
X13942060Y-6769100D02*
G75*
G03*
X13942060Y-6769100I-199390J0D01*
G01*
X14019530Y-12284710D02*
X14418310Y-12683490D01*
X14418310Y-12284710D02*
X14019530Y-12683490D01*
X14418310Y-12484100D02*
G75*
G03*
X14418310Y-12484100I-199390J0D01*
G01*
X14495780Y-8474710D02*
X14894560Y-8873490D01*
X14894560Y-8474710D02*
X14495780Y-8873490D01*
X14894560Y-8674100D02*
G75*
G03*
X14894560Y-8674100I-199390J0D01*
G01*
X14733905Y-14189710D02*
X15132685Y-14588490D01*
X15132685Y-14189710D02*
X14733905Y-14588490D01*
X15132685Y-14389100D02*
G75*
G03*
X15132685Y-14389100I-199390J0D01*
G01*
X14972030Y-10379710D02*
X15370810Y-10778490D01*
X15370810Y-10379710D02*
X14972030Y-10778490D01*
X15370810Y-10579100D02*
G75*
G03*
X15370810Y-10579100I-199390J0D01*
G01*
X15448280Y-4426585D02*
X15847060Y-4825365D01*
X15847060Y-4426585D02*
X15448280Y-4825365D01*
X15847060Y-4625975D02*
G75*
G03*
X15847060Y-4625975I-199390J0D01*
G01*
X15448280Y-6569710D02*
X15847060Y-6968490D01*
X15847060Y-6569710D02*
X15448280Y-6968490D01*
X15847060Y-6769100D02*
G75*
G03*
X15847060Y-6769100I-199390J0D01*
G01*
X15924530Y-12284710D02*
X16323310Y-12683490D01*
X16323310Y-12284710D02*
X15924530Y-12683490D01*
X16323310Y-12484100D02*
G75*
G03*
X16323310Y-12484100I-199390J0D01*
G01*
X16400780Y-8474710D02*
X16799560Y-8873490D01*
X16799560Y-8474710D02*
X16400780Y-8873490D01*
X16799560Y-8674100D02*
G75*
G03*
X16799560Y-8674100I-199390J0D01*
G01*
X16877030Y-10379710D02*
X17275810Y-10778490D01*
X17275810Y-10379710D02*
X16877030Y-10778490D01*
X17275810Y-10579100D02*
G75*
G03*
X17275810Y-10579100I-199390J0D01*
G01*
X16877030Y-14189710D02*
X17275810Y-14588490D01*
X17275810Y-14189710D02*
X16877030Y-14588490D01*
X17275810Y-14389100D02*
G75*
G03*
X17275810Y-14389100I-199390J0D01*
G01*
X17353280Y-4426585D02*
X17752060Y-4825365D01*
X17752060Y-4426585D02*
X17353280Y-4825365D01*
X17752060Y-4625975D02*
G75*
G03*
X17752060Y-4625975I-199390J0D01*
G01*
X17353280Y-6569710D02*
X17752060Y-6968490D01*
X17752060Y-6569710D02*
X17353280Y-6968490D01*
X17752060Y-6769100D02*
G75*
G03*
X17752060Y-6769100I-199390J0D01*
G01*
X17829530Y-12284710D02*
X18228310Y-12683490D01*
X18228310Y-12284710D02*
X17829530Y-12683490D01*
X18228310Y-12484100D02*
G75*
G03*
X18228310Y-12484100I-199390J0D01*
G01*
X18305780Y-8474710D02*
X18704560Y-8873490D01*
X18704560Y-8474710D02*
X18305780Y-8873490D01*
X18704560Y-8674100D02*
G75*
G03*
X18704560Y-8674100I-199390J0D01*
G01*
X18782030Y-10379710D02*
X19180810Y-10778490D01*
X19180810Y-10379710D02*
X18782030Y-10778490D01*
X19180810Y-10579100D02*
G75*
G03*
X19180810Y-10579100I-199390J0D01*
G01*
X19258280Y-4426585D02*
X19657060Y-4825365D01*
X19657060Y-4426585D02*
X19258280Y-4825365D01*
X19657060Y-4625975D02*
G75*
G03*
X19657060Y-4625975I-199390J0D01*
G01*
X19258280Y-6569710D02*
X19657060Y-6968490D01*
X19657060Y-6569710D02*
X19258280Y-6968490D01*
X19657060Y-6769100D02*
G75*
G03*
X19657060Y-6769100I-199390J0D01*
G01*
X19734530Y-12284710D02*
X20133310Y-12683490D01*
X20133310Y-12284710D02*
X19734530Y-12683490D01*
X20133310Y-12484100D02*
G75*
G03*
X20133310Y-12484100I-199390J0D01*
G01*
X19972655Y-14189710D02*
X20371435Y-14588490D01*
X20371435Y-14189710D02*
X19972655Y-14588490D01*
X20371435Y-14389100D02*
G75*
G03*
X20371435Y-14389100I-199390J0D01*
G01*
X20210780Y-8474710D02*
X20609560Y-8873490D01*
X20609560Y-8474710D02*
X20210780Y-8873490D01*
X20609560Y-8674100D02*
G75*
G03*
X20609560Y-8674100I-199390J0D01*
G01*
X20687030Y-10379710D02*
X21085810Y-10778490D01*
X21085810Y-10379710D02*
X20687030Y-10778490D01*
X21085810Y-10579100D02*
G75*
G03*
X21085810Y-10579100I-199390J0D01*
G01*
X21163280Y-4426585D02*
X21562060Y-4825365D01*
X21562060Y-4426585D02*
X21163280Y-4825365D01*
X21562060Y-4625975D02*
G75*
G03*
X21562060Y-4625975I-199390J0D01*
G01*
X21163280Y-6569710D02*
X21562060Y-6968490D01*
X21562060Y-6569710D02*
X21163280Y-6968490D01*
X21562060Y-6769100D02*
G75*
G03*
X21562060Y-6769100I-199390J0D01*
G01*
X21639530Y-12284710D02*
X22038310Y-12683490D01*
X22038310Y-12284710D02*
X21639530Y-12683490D01*
X22038310Y-12484100D02*
G75*
G03*
X22038310Y-12484100I-199390J0D01*
G01*
X21877655Y-14189710D02*
X22276435Y-14588490D01*
X22276435Y-14189710D02*
X21877655Y-14588490D01*
X22276435Y-14389100D02*
G75*
G03*
X22276435Y-14389100I-199390J0D01*
G01*
X22115780Y-8474710D02*
X22514560Y-8873490D01*
X22514560Y-8474710D02*
X22115780Y-8873490D01*
X22514560Y-8674100D02*
G75*
G03*
X22514560Y-8674100I-199390J0D01*
G01*
X22592030Y-10379710D02*
X22990810Y-10778490D01*
X22990810Y-10379710D02*
X22592030Y-10778490D01*
X22990810Y-10579100D02*
G75*
G03*
X22990810Y-10579100I-199390J0D01*
G01*
X23068280Y-4426585D02*
X23467060Y-4825365D01*
X23467060Y-4426585D02*
X23068280Y-4825365D01*
X23467060Y-4625975D02*
G75*
G03*
X23467060Y-4625975I-199390J0D01*
G01*
X23068280Y-6569710D02*
X23467060Y-6968490D01*
X23467060Y-6569710D02*
X23068280Y-6968490D01*
X23467060Y-6769100D02*
G75*
G03*
X23467060Y-6769100I-199390J0D01*
G01*
X23544530Y-12284710D02*
X23943310Y-12683490D01*
X23943310Y-12284710D02*
X23544530Y-12683490D01*
X23943310Y-12484100D02*
G75*
G03*
X23943310Y-12484100I-199390J0D01*
G01*
X24020780Y-8474710D02*
X24419560Y-8873490D01*
X24419560Y-8474710D02*
X24020780Y-8873490D01*
X24419560Y-8674100D02*
G75*
G03*
X24419560Y-8674100I-199390J0D01*
G01*
X24020780Y-14189710D02*
X24419560Y-14588490D01*
X24419560Y-14189710D02*
X24020780Y-14588490D01*
X24419560Y-14389100D02*
G75*
G03*
X24419560Y-14389100I-199390J0D01*
G01*
X24497030Y-10379710D02*
X24895810Y-10778490D01*
X24895810Y-10379710D02*
X24497030Y-10778490D01*
X24895810Y-10579100D02*
G75*
G03*
X24895810Y-10579100I-199390J0D01*
G01*
X24973280Y-4426585D02*
X25372060Y-4825365D01*
X25372060Y-4426585D02*
X24973280Y-4825365D01*
X25372060Y-4625975D02*
G75*
G03*
X25372060Y-4625975I-199390J0D01*
G01*
X24973280Y-6569710D02*
X25372060Y-6968490D01*
X25372060Y-6569710D02*
X24973280Y-6968490D01*
X25372060Y-6769100D02*
G75*
G03*
X25372060Y-6769100I-199390J0D01*
G01*
X25449530Y-12284710D02*
X25848310Y-12683490D01*
X25848310Y-12284710D02*
X25449530Y-12683490D01*
X25848310Y-12484100D02*
G75*
G03*
X25848310Y-12484100I-199390J0D01*
G01*
X25925780Y-8474710D02*
X26324560Y-8873490D01*
X26324560Y-8474710D02*
X25925780Y-8873490D01*
X26324560Y-8674100D02*
G75*
G03*
X26324560Y-8674100I-199390J0D01*
G01*
X26402030Y-10379710D02*
X26800810Y-10778490D01*
X26800810Y-10379710D02*
X26402030Y-10778490D01*
X26800810Y-10579100D02*
G75*
G03*
X26800810Y-10579100I-199390J0D01*
G01*
X26878280Y-4426585D02*
X27277060Y-4825365D01*
X27277060Y-4426585D02*
X26878280Y-4825365D01*
X27277060Y-4625975D02*
G75*
G03*
X27277060Y-4625975I-199390J0D01*
G01*
X26878280Y-6569710D02*
X27277060Y-6968490D01*
X27277060Y-6569710D02*
X26878280Y-6968490D01*
X27277060Y-6769100D02*
G75*
G03*
X27277060Y-6769100I-199390J0D01*
G01*
X26878280Y-14189710D02*
X27277060Y-14588490D01*
X27277060Y-14189710D02*
X26878280Y-14588490D01*
X27277060Y-14389100D02*
G75*
G03*
X27277060Y-14389100I-199390J0D01*
G01*
X27354530Y-12284710D02*
X27753310Y-12683490D01*
X27753310Y-12284710D02*
X27354530Y-12683490D01*
X27753310Y-12484100D02*
G75*
G03*
X27753310Y-12484100I-199390J0D01*
G01*
X27830780Y-8474710D02*
X28229560Y-8873490D01*
X28229560Y-8474710D02*
X27830780Y-8873490D01*
X28229560Y-8674100D02*
G75*
G03*
X28229560Y-8674100I-199390J0D01*
G01*
X28307030Y-10379710D02*
X28705810Y-10778490D01*
X28705810Y-10379710D02*
X28307030Y-10778490D01*
X28705810Y-10579100D02*
G75*
G03*
X28705810Y-10579100I-199390J0D01*
G01*
X28783280Y-4426585D02*
X29182060Y-4825365D01*
X29182060Y-4426585D02*
X28783280Y-4825365D01*
X29182060Y-4625975D02*
G75*
G03*
X29182060Y-4625975I-199390J0D01*
G01*
X28783280Y-6569710D02*
X29182060Y-6968490D01*
X29182060Y-6569710D02*
X28783280Y-6968490D01*
X29182060Y-6769100D02*
G75*
G03*
X29182060Y-6769100I-199390J0D01*
G01*
X29021405Y-14189710D02*
X29420185Y-14588490D01*
X29420185Y-14189710D02*
X29021405Y-14588490D01*
X29420185Y-14389100D02*
G75*
G03*
X29420185Y-14389100I-199390J0D01*
G01*
X29259530Y-12284710D02*
X29658310Y-12683490D01*
X29658310Y-12284710D02*
X29259530Y-12683490D01*
X29658310Y-12484100D02*
G75*
G03*
X29658310Y-12484100I-199390J0D01*
G01*
X29735780Y-8474710D02*
X30134560Y-8873490D01*
X30134560Y-8474710D02*
X29735780Y-8873490D01*
X30134560Y-8674100D02*
G75*
G03*
X30134560Y-8674100I-199390J0D01*
G01*
X30212030Y-10379710D02*
X30610810Y-10778490D01*
X30610810Y-10379710D02*
X30212030Y-10778490D01*
X30610810Y-10579100D02*
G75*
G03*
X30610810Y-10579100I-199390J0D01*
G01*
X30688280Y-4426585D02*
X31087060Y-4825365D01*
X31087060Y-4426585D02*
X30688280Y-4825365D01*
X31087060Y-4625975D02*
G75*
G03*
X31087060Y-4625975I-199390J0D01*
G01*
X30688280Y-6569710D02*
X31087060Y-6968490D01*
X31087060Y-6569710D02*
X30688280Y-6968490D01*
X31087060Y-6769100D02*
G75*
G03*
X31087060Y-6769100I-199390J0D01*
G01*
X31164530Y-12284710D02*
X31563310Y-12683490D01*
X31563310Y-12284710D02*
X31164530Y-12683490D01*
X31563310Y-12484100D02*
G75*
G03*
X31563310Y-12484100I-199390J0D01*
G01*
X31402655Y-14189710D02*
X31801435Y-14588490D01*
X31801435Y-14189710D02*
X31402655Y-14588490D01*
X31801435Y-14389100D02*
G75*
G03*
X31801435Y-14389100I-199390J0D01*
G01*
X31640780Y-8474710D02*
X32039560Y-8873490D01*
X32039560Y-8474710D02*
X31640780Y-8873490D01*
X32039560Y-8674100D02*
G75*
G03*
X32039560Y-8674100I-199390J0D01*
G01*
X32117030Y-10379710D02*
X32515810Y-10778490D01*
X32515810Y-10379710D02*
X32117030Y-10778490D01*
X32515810Y-10579100D02*
G75*
G03*
X32515810Y-10579100I-199390J0D01*
G01*
X32593280Y-4426585D02*
X32992060Y-4825365D01*
X32992060Y-4426585D02*
X32593280Y-4825365D01*
X32992060Y-4625975D02*
G75*
G03*
X32992060Y-4625975I-199390J0D01*
G01*
X32593280Y-6569710D02*
X32992060Y-6968490D01*
X32992060Y-6569710D02*
X32593280Y-6968490D01*
X32992060Y-6769100D02*
G75*
G03*
X32992060Y-6769100I-199390J0D01*
G01*
X33545780Y-8474710D02*
X33944560Y-8873490D01*
X33944560Y-8474710D02*
X33545780Y-8873490D01*
X33944560Y-8674100D02*
G75*
G03*
X33944560Y-8674100I-199390J0D01*
G01*
X33783905Y-14189710D02*
X34182685Y-14588490D01*
X34182685Y-14189710D02*
X33783905Y-14588490D01*
X34182685Y-14389100D02*
G75*
G03*
X34182685Y-14389100I-199390J0D01*
G01*
X34022030Y-9554210D02*
X34420810Y-9952990D01*
X34420810Y-9554210D02*
X34022030Y-9952990D01*
X34420810Y-9753600D02*
G75*
G03*
X34420810Y-9753600I-199390J0D01*
G01*
X34261425Y-5744210D02*
X34660205Y-6142990D01*
X34660205Y-5744210D02*
X34261425Y-6142990D01*
X34660205Y-5943600D02*
G75*
G03*
X34660205Y-5943600I-199390J0D01*
G01*
X34498280Y-4426585D02*
X34897060Y-4825365D01*
X34897060Y-4426585D02*
X34498280Y-4825365D01*
X34897060Y-4625975D02*
G75*
G03*
X34897060Y-4625975I-199390J0D01*
G01*
X34736405Y-12284710D02*
X35135185Y-12683490D01*
X35135185Y-12284710D02*
X34736405Y-12683490D01*
X35135185Y-12484100D02*
G75*
G03*
X35135185Y-12484100I-199390J0D01*
G01*
X35212655Y-10379710D02*
X35611435Y-10778490D01*
X35611435Y-10379710D02*
X35212655Y-10778490D01*
X35611435Y-10579100D02*
G75*
G03*
X35611435Y-10579100I-199390J0D01*
G01*
X35450780Y-6569710D02*
X35849560Y-6968490D01*
X35849560Y-6569710D02*
X35450780Y-6968490D01*
X35849560Y-6769100D02*
G75*
G03*
X35849560Y-6769100I-199390J0D01*
G01*
X35927030Y-8474710D02*
X36325810Y-8873490D01*
X36325810Y-8474710D02*
X35927030Y-8873490D01*
X36325810Y-8674100D02*
G75*
G03*
X36325810Y-8674100I-199390J0D01*
G01*
X36165155Y-14189710D02*
X36563935Y-14588490D01*
X36563935Y-14189710D02*
X36165155Y-14588490D01*
X36563935Y-14389100D02*
G75*
G03*
X36563935Y-14389100I-199390J0D01*
G01*
X36403280Y-4426585D02*
X36802060Y-4825365D01*
X36802060Y-4426585D02*
X36403280Y-4825365D01*
X36802060Y-4625975D02*
G75*
G03*
X36802060Y-4625975I-199390J0D01*
G01*
X36403280Y-9554210D02*
X36802060Y-9952990D01*
X36802060Y-9554210D02*
X36403280Y-9952990D01*
X36802060Y-9753600D02*
G75*
G03*
X36802060Y-9753600I-199390J0D01*
G01*
X36642675Y-5744210D02*
X37041455Y-6142990D01*
X37041455Y-5744210D02*
X36642675Y-6142990D01*
X37041455Y-5943600D02*
G75*
G03*
X37041455Y-5943600I-199390J0D01*
G01*
X38546405Y-4426585D02*
X38945185Y-4825365D01*
X38945185Y-4426585D02*
X38546405Y-4825365D01*
X38945185Y-4625975D02*
G75*
G03*
X38945185Y-4625975I-199390J0D01*
G01*
X38546405Y-6569710D02*
X38945185Y-6968490D01*
X38945185Y-6569710D02*
X38546405Y-6968490D01*
X38945185Y-6769100D02*
G75*
G03*
X38945185Y-6769100I-199390J0D01*
G01*
X38546405Y-8474710D02*
X38945185Y-8873490D01*
X38945185Y-8474710D02*
X38546405Y-8873490D01*
X38945185Y-8674100D02*
G75*
G03*
X38945185Y-8674100I-199390J0D01*
G01*
X38546405Y-10379710D02*
X38945185Y-10778490D01*
X38945185Y-10379710D02*
X38546405Y-10778490D01*
X38945185Y-10579100D02*
G75*
G03*
X38945185Y-10579100I-199390J0D01*
G01*
X38546405Y-12284710D02*
X38945185Y-12683490D01*
X38945185Y-12284710D02*
X38546405Y-12683490D01*
X38945185Y-12484100D02*
G75*
G03*
X38945185Y-12484100I-199390J0D01*
G01*
X38546405Y-14189710D02*
X38945185Y-14588490D01*
X38945185Y-14189710D02*
X38546405Y-14588490D01*
X38945185Y-14389100D02*
G75*
G03*
X38945185Y-14389100I-199390J0D01*
G01*
X40451405Y-4426585D02*
X40850185Y-4825365D01*
X40850185Y-4426585D02*
X40451405Y-4825365D01*
X40850185Y-4625975D02*
G75*
G03*
X40850185Y-4625975I-199390J0D01*
G01*
X40451405Y-6569710D02*
X40850185Y-6968490D01*
X40850185Y-6569710D02*
X40451405Y-6968490D01*
X40850185Y-6769100D02*
G75*
G03*
X40850185Y-6769100I-199390J0D01*
G01*
X40451405Y-8474710D02*
X40850185Y-8873490D01*
X40850185Y-8474710D02*
X40451405Y-8873490D01*
X40850185Y-8674100D02*
G75*
G03*
X40850185Y-8674100I-199390J0D01*
G01*
X40451405Y-10379710D02*
X40850185Y-10778490D01*
X40850185Y-10379710D02*
X40451405Y-10778490D01*
X40850185Y-10579100D02*
G75*
G03*
X40850185Y-10579100I-199390J0D01*
G01*
X40451405Y-12284710D02*
X40850185Y-12683490D01*
X40850185Y-12284710D02*
X40451405Y-12683490D01*
X40850185Y-12484100D02*
G75*
G03*
X40850185Y-12484100I-199390J0D01*
G01*
X40451405Y-14189710D02*
X40850185Y-14588490D01*
X40850185Y-14189710D02*
X40451405Y-14588490D01*
X40850185Y-14389100D02*
G75*
G03*
X40850185Y-14389100I-199390J0D01*
G01*
X42356405Y-4426585D02*
X42755185Y-4825365D01*
X42755185Y-4426585D02*
X42356405Y-4825365D01*
X42755185Y-4625975D02*
G75*
G03*
X42755185Y-4625975I-199390J0D01*
G01*
X42356405Y-6569710D02*
X42755185Y-6968490D01*
X42755185Y-6569710D02*
X42356405Y-6968490D01*
X42755185Y-6769100D02*
G75*
G03*
X42755185Y-6769100I-199390J0D01*
G01*
X42356405Y-8474710D02*
X42755185Y-8873490D01*
X42755185Y-8474710D02*
X42356405Y-8873490D01*
X42755185Y-8674100D02*
G75*
G03*
X42755185Y-8674100I-199390J0D01*
G01*
X42356405Y-10379710D02*
X42755185Y-10778490D01*
X42755185Y-10379710D02*
X42356405Y-10778490D01*
X42755185Y-10579100D02*
G75*
G03*
X42755185Y-10579100I-199390J0D01*
G01*
X42356405Y-12284710D02*
X42755185Y-12683490D01*
X42755185Y-12284710D02*
X42356405Y-12683490D01*
X42755185Y-12484100D02*
G75*
G03*
X42755185Y-12484100I-199390J0D01*
G01*
X42356405Y-14189710D02*
X42755185Y-14588490D01*
X42755185Y-14189710D02*
X42356405Y-14588490D01*
X42755185Y-14389100D02*
G75*
G03*
X42755185Y-14389100I-199390J0D01*
G01*
X44261405Y-13364210D02*
X44660185Y-13762990D01*
X44660185Y-13364210D02*
X44261405Y-13762990D01*
X44660185Y-13563600D02*
G75*
G03*
X44660185Y-13563600I-199390J0D01*
G01*
X44499530Y-4426585D02*
X44898310Y-4825365D01*
X44898310Y-4426585D02*
X44499530Y-4825365D01*
X44898310Y-4625975D02*
G75*
G03*
X44898310Y-4625975I-199390J0D01*
G01*
X44499530Y-6569710D02*
X44898310Y-6968490D01*
X44898310Y-6569710D02*
X44499530Y-6968490D01*
X44898310Y-6769100D02*
G75*
G03*
X44898310Y-6769100I-199390J0D01*
G01*
X44499530Y-8474710D02*
X44898310Y-8873490D01*
X44898310Y-8474710D02*
X44499530Y-8873490D01*
X44898310Y-8674100D02*
G75*
G03*
X44898310Y-8674100I-199390J0D01*
G01*
X44499530Y-10379710D02*
X44898310Y-10778490D01*
X44898310Y-10379710D02*
X44499530Y-10778490D01*
X44898310Y-10579100D02*
G75*
G03*
X44898310Y-10579100I-199390J0D01*
G01*
X44499530Y-12284710D02*
X44898310Y-12683490D01*
X44898310Y-12284710D02*
X44499530Y-12683490D01*
X44898310Y-12484100D02*
G75*
G03*
X44898310Y-12484100I-199390J0D01*
G01*
X45452030Y-14189710D02*
X45850810Y-14588490D01*
X45850810Y-14189710D02*
X45452030Y-14588490D01*
X45850810Y-14389100D02*
G75*
G03*
X45850810Y-14389100I-199390J0D01*
G01*
X46404530Y-4426585D02*
X46803310Y-4825365D01*
X46803310Y-4426585D02*
X46404530Y-4825365D01*
X46803310Y-4625975D02*
G75*
G03*
X46803310Y-4625975I-199390J0D01*
G01*
X46404530Y-6569710D02*
X46803310Y-6968490D01*
X46803310Y-6569710D02*
X46404530Y-6968490D01*
X46803310Y-6769100D02*
G75*
G03*
X46803310Y-6769100I-199390J0D01*
G01*
X46404530Y-8474710D02*
X46803310Y-8873490D01*
X46803310Y-8474710D02*
X46404530Y-8873490D01*
X46803310Y-8674100D02*
G75*
G03*
X46803310Y-8674100I-199390J0D01*
G01*
X46404530Y-10379710D02*
X46803310Y-10778490D01*
X46803310Y-10379710D02*
X46404530Y-10778490D01*
X46803310Y-10579100D02*
G75*
G03*
X46803310Y-10579100I-199390J0D01*
G01*
X46404530Y-12284710D02*
X46803310Y-12683490D01*
X46803310Y-12284710D02*
X46404530Y-12683490D01*
X46803310Y-12484100D02*
G75*
G03*
X46803310Y-12484100I-199390J0D01*
G01*
X46642655Y-13364210D02*
X47041435Y-13762990D01*
X47041435Y-13364210D02*
X46642655Y-13762990D01*
X47041435Y-13563600D02*
G75*
G03*
X47041435Y-13563600I-199390J0D01*
G01*
X48309530Y-4426585D02*
X48708310Y-4825365D01*
X48708310Y-4426585D02*
X48309530Y-4825365D01*
X48708310Y-4625975D02*
G75*
G03*
X48708310Y-4625975I-199390J0D01*
G01*
X48309530Y-6569710D02*
X48708310Y-6968490D01*
X48708310Y-6569710D02*
X48309530Y-6968490D01*
X48708310Y-6769100D02*
G75*
G03*
X48708310Y-6769100I-199390J0D01*
G01*
X48309530Y-8474710D02*
X48708310Y-8873490D01*
X48708310Y-8474710D02*
X48309530Y-8873490D01*
X48708310Y-8674100D02*
G75*
G03*
X48708310Y-8674100I-199390J0D01*
G01*
X48309530Y-10379710D02*
X48708310Y-10778490D01*
X48708310Y-10379710D02*
X48309530Y-10778490D01*
X48708310Y-10579100D02*
G75*
G03*
X48708310Y-10579100I-199390J0D01*
G01*
X48309530Y-12284710D02*
X48708310Y-12683490D01*
X48708310Y-12284710D02*
X48309530Y-12683490D01*
X48708310Y-12484100D02*
G75*
G03*
X48708310Y-12484100I-199390J0D01*
G01*
X48309530Y-14189710D02*
X48708310Y-14588490D01*
X48708310Y-14189710D02*
X48309530Y-14588490D01*
X48708310Y-14389100D02*
G75*
G03*
X48708310Y-14389100I-199390J0D01*
G01*
X49389030Y-8236585D02*
X49787810Y-8635365D01*
X49787810Y-8236585D02*
X49389030Y-8635365D01*
X49787810Y-8435975D02*
G75*
G03*
X49787810Y-8435975I-199390J0D01*
G01*
X49389030Y-10617835D02*
X49787810Y-11016615D01*
X49787810Y-10617835D02*
X49389030Y-11016615D01*
X49787810Y-10817225D02*
G75*
G03*
X49787810Y-10817225I-199390J0D01*
G01*
X49389030Y-12046585D02*
X49787810Y-12445365D01*
X49787810Y-12046585D02*
X49389030Y-12445365D01*
X49787810Y-12245975D02*
G75*
G03*
X49787810Y-12245975I-199390J0D01*
G01*
X49389030Y-14427835D02*
X49787810Y-14826615D01*
X49787810Y-14427835D02*
X49389030Y-14826615D01*
X49787810Y-14627225D02*
G75*
G03*
X49787810Y-14627225I-199390J0D01*
G01*
X50214530Y-4426585D02*
X50613310Y-4825365D01*
X50613310Y-4426585D02*
X50214530Y-4825365D01*
X50613310Y-4625975D02*
G75*
G03*
X50613310Y-4625975I-199390J0D01*
G01*
X50214530Y-6569710D02*
X50613310Y-6968490D01*
X50613310Y-6569710D02*
X50214530Y-6968490D01*
X50613310Y-6769100D02*
G75*
G03*
X50613310Y-6769100I-199390J0D01*
G01*
X50214530Y-9427210D02*
X50613310Y-9825990D01*
X50613310Y-9427210D02*
X50214530Y-9825990D01*
X50613310Y-9626600D02*
G75*
G03*
X50613310Y-9626600I-199390J0D01*
G01*
X50214530Y-13237210D02*
X50613310Y-13635990D01*
X50613310Y-13237210D02*
X50214530Y-13635990D01*
X50613310Y-13436600D02*
G75*
G03*
X50613310Y-13436600I-199390J0D01*
G01*
D11*
X8987164Y-15894749D02*
X8987164Y-15694749D01*
X8987164Y-15694749D02*
X9034783Y-15694749D01*
X9034783Y-15694749D02*
X9063355Y-15704273D01*
X9063355Y-15704273D02*
X9082402Y-15723320D01*
X9082402Y-15723320D02*
X9091926Y-15742368D01*
X9091926Y-15742368D02*
X9101450Y-15780463D01*
X9101450Y-15780463D02*
X9101450Y-15809034D01*
X9101450Y-15809034D02*
X9091926Y-15847130D01*
X9091926Y-15847130D02*
X9082402Y-15866177D01*
X9082402Y-15866177D02*
X9063355Y-15885225D01*
X9063355Y-15885225D02*
X9034783Y-15894749D01*
X9034783Y-15894749D02*
X8987164Y-15894749D01*
X9187164Y-15894749D02*
X9187164Y-15761415D01*
X9187164Y-15799511D02*
X9196688Y-15780463D01*
X9196688Y-15780463D02*
X9206212Y-15770939D01*
X9206212Y-15770939D02*
X9225259Y-15761415D01*
X9225259Y-15761415D02*
X9244307Y-15761415D01*
X9310974Y-15894749D02*
X9310974Y-15761415D01*
X9310974Y-15694749D02*
X9301450Y-15704273D01*
X9301450Y-15704273D02*
X9310974Y-15713796D01*
X9310974Y-15713796D02*
X9320497Y-15704273D01*
X9320497Y-15704273D02*
X9310974Y-15694749D01*
X9310974Y-15694749D02*
X9310974Y-15713796D01*
X9434783Y-15894749D02*
X9415735Y-15885225D01*
X9415735Y-15885225D02*
X9406212Y-15866177D01*
X9406212Y-15866177D02*
X9406212Y-15694749D01*
X9539545Y-15894749D02*
X9520497Y-15885225D01*
X9520497Y-15885225D02*
X9510974Y-15866177D01*
X9510974Y-15866177D02*
X9510974Y-15694749D01*
X9768116Y-15894749D02*
X9768116Y-15694749D01*
X9768116Y-15694749D02*
X9834783Y-15837606D01*
X9834783Y-15837606D02*
X9901450Y-15694749D01*
X9901450Y-15694749D02*
X9901450Y-15894749D01*
X10082402Y-15894749D02*
X10082402Y-15789987D01*
X10082402Y-15789987D02*
X10072878Y-15770939D01*
X10072878Y-15770939D02*
X10053831Y-15761415D01*
X10053831Y-15761415D02*
X10015735Y-15761415D01*
X10015735Y-15761415D02*
X9996688Y-15770939D01*
X10082402Y-15885225D02*
X10063355Y-15894749D01*
X10063355Y-15894749D02*
X10015735Y-15894749D01*
X10015735Y-15894749D02*
X9996688Y-15885225D01*
X9996688Y-15885225D02*
X9987164Y-15866177D01*
X9987164Y-15866177D02*
X9987164Y-15847130D01*
X9987164Y-15847130D02*
X9996688Y-15828082D01*
X9996688Y-15828082D02*
X10015735Y-15818558D01*
X10015735Y-15818558D02*
X10063355Y-15818558D01*
X10063355Y-15818558D02*
X10082402Y-15809034D01*
X10177640Y-15761415D02*
X10177640Y-15961415D01*
X10177640Y-15770939D02*
X10196688Y-15761415D01*
X10196688Y-15761415D02*
X10234783Y-15761415D01*
X10234783Y-15761415D02*
X10253831Y-15770939D01*
X10253831Y-15770939D02*
X10263355Y-15780463D01*
X10263355Y-15780463D02*
X10272878Y-15799511D01*
X10272878Y-15799511D02*
X10272878Y-15856653D01*
X10272878Y-15856653D02*
X10263355Y-15875701D01*
X10263355Y-15875701D02*
X10253831Y-15885225D01*
X10253831Y-15885225D02*
X10234783Y-15894749D01*
X10234783Y-15894749D02*
X10196688Y-15894749D01*
X10196688Y-15894749D02*
X10177640Y-15885225D01*
X10358593Y-15875701D02*
X10368116Y-15885225D01*
X10368116Y-15885225D02*
X10358593Y-15894749D01*
X10358593Y-15894749D02*
X10349069Y-15885225D01*
X10349069Y-15885225D02*
X10358593Y-15875701D01*
X10358593Y-15875701D02*
X10358593Y-15894749D01*
X10358593Y-15770939D02*
X10368116Y-15780463D01*
X10368116Y-15780463D02*
X10358593Y-15789987D01*
X10358593Y-15789987D02*
X10349069Y-15780463D01*
X10349069Y-15780463D02*
X10358593Y-15770939D01*
X10358593Y-15770939D02*
X10358593Y-15789987D01*
D12*
X8659545Y-16182225D02*
X8739545Y-16262225D01*
X8739545Y-16182225D02*
X8659545Y-16262225D01*
D11*
X9025259Y-16114749D02*
X9044307Y-16114749D01*
X9044307Y-16114749D02*
X9063355Y-16124273D01*
X9063355Y-16124273D02*
X9072878Y-16133796D01*
X9072878Y-16133796D02*
X9082402Y-16152844D01*
X9082402Y-16152844D02*
X9091926Y-16190939D01*
X9091926Y-16190939D02*
X9091926Y-16238558D01*
X9091926Y-16238558D02*
X9082402Y-16276653D01*
X9082402Y-16276653D02*
X9072878Y-16295701D01*
X9072878Y-16295701D02*
X9063355Y-16305225D01*
X9063355Y-16305225D02*
X9044307Y-16314749D01*
X9044307Y-16314749D02*
X9025259Y-16314749D01*
X9025259Y-16314749D02*
X9006212Y-16305225D01*
X9006212Y-16305225D02*
X8996688Y-16295701D01*
X8996688Y-16295701D02*
X8987164Y-16276653D01*
X8987164Y-16276653D02*
X8977640Y-16238558D01*
X8977640Y-16238558D02*
X8977640Y-16190939D01*
X8977640Y-16190939D02*
X8987164Y-16152844D01*
X8987164Y-16152844D02*
X8996688Y-16133796D01*
X8996688Y-16133796D02*
X9006212Y-16124273D01*
X9006212Y-16124273D02*
X9025259Y-16114749D01*
X9177640Y-16295701D02*
X9187164Y-16305225D01*
X9187164Y-16305225D02*
X9177640Y-16314749D01*
X9177640Y-16314749D02*
X9168116Y-16305225D01*
X9168116Y-16305225D02*
X9177640Y-16295701D01*
X9177640Y-16295701D02*
X9177640Y-16314749D01*
X9301450Y-16200463D02*
X9282402Y-16190939D01*
X9282402Y-16190939D02*
X9272878Y-16181415D01*
X9272878Y-16181415D02*
X9263355Y-16162368D01*
X9263355Y-16162368D02*
X9263355Y-16152844D01*
X9263355Y-16152844D02*
X9272878Y-16133796D01*
X9272878Y-16133796D02*
X9282402Y-16124273D01*
X9282402Y-16124273D02*
X9301450Y-16114749D01*
X9301450Y-16114749D02*
X9339545Y-16114749D01*
X9339545Y-16114749D02*
X9358593Y-16124273D01*
X9358593Y-16124273D02*
X9368116Y-16133796D01*
X9368116Y-16133796D02*
X9377640Y-16152844D01*
X9377640Y-16152844D02*
X9377640Y-16162368D01*
X9377640Y-16162368D02*
X9368116Y-16181415D01*
X9368116Y-16181415D02*
X9358593Y-16190939D01*
X9358593Y-16190939D02*
X9339545Y-16200463D01*
X9339545Y-16200463D02*
X9301450Y-16200463D01*
X9301450Y-16200463D02*
X9282402Y-16209987D01*
X9282402Y-16209987D02*
X9272878Y-16219511D01*
X9272878Y-16219511D02*
X9263355Y-16238558D01*
X9263355Y-16238558D02*
X9263355Y-16276653D01*
X9263355Y-16276653D02*
X9272878Y-16295701D01*
X9272878Y-16295701D02*
X9282402Y-16305225D01*
X9282402Y-16305225D02*
X9301450Y-16314749D01*
X9301450Y-16314749D02*
X9339545Y-16314749D01*
X9339545Y-16314749D02*
X9358593Y-16305225D01*
X9358593Y-16305225D02*
X9368116Y-16295701D01*
X9368116Y-16295701D02*
X9377640Y-16276653D01*
X9377640Y-16276653D02*
X9377640Y-16238558D01*
X9377640Y-16238558D02*
X9368116Y-16219511D01*
X9368116Y-16219511D02*
X9358593Y-16209987D01*
X9358593Y-16209987D02*
X9339545Y-16200463D01*
X9501450Y-16114749D02*
X9520497Y-16114749D01*
X9520497Y-16114749D02*
X9539545Y-16124273D01*
X9539545Y-16124273D02*
X9549069Y-16133796D01*
X9549069Y-16133796D02*
X9558593Y-16152844D01*
X9558593Y-16152844D02*
X9568116Y-16190939D01*
X9568116Y-16190939D02*
X9568116Y-16238558D01*
X9568116Y-16238558D02*
X9558593Y-16276653D01*
X9558593Y-16276653D02*
X9549069Y-16295701D01*
X9549069Y-16295701D02*
X9539545Y-16305225D01*
X9539545Y-16305225D02*
X9520497Y-16314749D01*
X9520497Y-16314749D02*
X9501450Y-16314749D01*
X9501450Y-16314749D02*
X9482402Y-16305225D01*
X9482402Y-16305225D02*
X9472878Y-16295701D01*
X9472878Y-16295701D02*
X9463355Y-16276653D01*
X9463355Y-16276653D02*
X9453831Y-16238558D01*
X9453831Y-16238558D02*
X9453831Y-16190939D01*
X9453831Y-16190939D02*
X9463355Y-16152844D01*
X9463355Y-16152844D02*
X9472878Y-16133796D01*
X9472878Y-16133796D02*
X9482402Y-16124273D01*
X9482402Y-16124273D02*
X9501450Y-16114749D01*
X9691926Y-16114749D02*
X9710974Y-16114749D01*
X9710974Y-16114749D02*
X9730021Y-16124273D01*
X9730021Y-16124273D02*
X9739545Y-16133796D01*
X9739545Y-16133796D02*
X9749069Y-16152844D01*
X9749069Y-16152844D02*
X9758593Y-16190939D01*
X9758593Y-16190939D02*
X9758593Y-16238558D01*
X9758593Y-16238558D02*
X9749069Y-16276653D01*
X9749069Y-16276653D02*
X9739545Y-16295701D01*
X9739545Y-16295701D02*
X9730021Y-16305225D01*
X9730021Y-16305225D02*
X9710974Y-16314749D01*
X9710974Y-16314749D02*
X9691926Y-16314749D01*
X9691926Y-16314749D02*
X9672878Y-16305225D01*
X9672878Y-16305225D02*
X9663355Y-16295701D01*
X9663355Y-16295701D02*
X9653831Y-16276653D01*
X9653831Y-16276653D02*
X9644307Y-16238558D01*
X9644307Y-16238558D02*
X9644307Y-16190939D01*
X9644307Y-16190939D02*
X9653831Y-16152844D01*
X9653831Y-16152844D02*
X9663355Y-16133796D01*
X9663355Y-16133796D02*
X9672878Y-16124273D01*
X9672878Y-16124273D02*
X9691926Y-16114749D01*
X9844307Y-16314749D02*
X9844307Y-16181415D01*
X9844307Y-16200463D02*
X9853831Y-16190939D01*
X9853831Y-16190939D02*
X9872878Y-16181415D01*
X9872878Y-16181415D02*
X9901450Y-16181415D01*
X9901450Y-16181415D02*
X9920497Y-16190939D01*
X9920497Y-16190939D02*
X9930021Y-16209987D01*
X9930021Y-16209987D02*
X9930021Y-16314749D01*
X9930021Y-16209987D02*
X9939545Y-16190939D01*
X9939545Y-16190939D02*
X9958593Y-16181415D01*
X9958593Y-16181415D02*
X9987164Y-16181415D01*
X9987164Y-16181415D02*
X10006212Y-16190939D01*
X10006212Y-16190939D02*
X10015736Y-16209987D01*
X10015736Y-16209987D02*
X10015736Y-16314749D01*
X10110974Y-16314749D02*
X10110974Y-16181415D01*
X10110974Y-16200463D02*
X10120497Y-16190939D01*
X10120497Y-16190939D02*
X10139545Y-16181415D01*
X10139545Y-16181415D02*
X10168117Y-16181415D01*
X10168117Y-16181415D02*
X10187164Y-16190939D01*
X10187164Y-16190939D02*
X10196688Y-16209987D01*
X10196688Y-16209987D02*
X10196688Y-16314749D01*
X10196688Y-16209987D02*
X10206212Y-16190939D01*
X10206212Y-16190939D02*
X10225259Y-16181415D01*
X10225259Y-16181415D02*
X10253831Y-16181415D01*
X10253831Y-16181415D02*
X10272878Y-16190939D01*
X10272878Y-16190939D02*
X10282402Y-16209987D01*
X10282402Y-16209987D02*
X10282402Y-16314749D01*
X10672878Y-16105225D02*
X10501450Y-16362368D01*
X10930021Y-16114749D02*
X10949069Y-16114749D01*
X10949069Y-16114749D02*
X10968117Y-16124273D01*
X10968117Y-16124273D02*
X10977640Y-16133796D01*
X10977640Y-16133796D02*
X10987164Y-16152844D01*
X10987164Y-16152844D02*
X10996688Y-16190939D01*
X10996688Y-16190939D02*
X10996688Y-16238558D01*
X10996688Y-16238558D02*
X10987164Y-16276653D01*
X10987164Y-16276653D02*
X10977640Y-16295701D01*
X10977640Y-16295701D02*
X10968117Y-16305225D01*
X10968117Y-16305225D02*
X10949069Y-16314749D01*
X10949069Y-16314749D02*
X10930021Y-16314749D01*
X10930021Y-16314749D02*
X10910974Y-16305225D01*
X10910974Y-16305225D02*
X10901450Y-16295701D01*
X10901450Y-16295701D02*
X10891926Y-16276653D01*
X10891926Y-16276653D02*
X10882402Y-16238558D01*
X10882402Y-16238558D02*
X10882402Y-16190939D01*
X10882402Y-16190939D02*
X10891926Y-16152844D01*
X10891926Y-16152844D02*
X10901450Y-16133796D01*
X10901450Y-16133796D02*
X10910974Y-16124273D01*
X10910974Y-16124273D02*
X10930021Y-16114749D01*
X11082402Y-16295701D02*
X11091926Y-16305225D01*
X11091926Y-16305225D02*
X11082402Y-16314749D01*
X11082402Y-16314749D02*
X11072879Y-16305225D01*
X11072879Y-16305225D02*
X11082402Y-16295701D01*
X11082402Y-16295701D02*
X11082402Y-16314749D01*
X11215736Y-16114749D02*
X11234783Y-16114749D01*
X11234783Y-16114749D02*
X11253831Y-16124273D01*
X11253831Y-16124273D02*
X11263355Y-16133796D01*
X11263355Y-16133796D02*
X11272878Y-16152844D01*
X11272878Y-16152844D02*
X11282402Y-16190939D01*
X11282402Y-16190939D02*
X11282402Y-16238558D01*
X11282402Y-16238558D02*
X11272878Y-16276653D01*
X11272878Y-16276653D02*
X11263355Y-16295701D01*
X11263355Y-16295701D02*
X11253831Y-16305225D01*
X11253831Y-16305225D02*
X11234783Y-16314749D01*
X11234783Y-16314749D02*
X11215736Y-16314749D01*
X11215736Y-16314749D02*
X11196688Y-16305225D01*
X11196688Y-16305225D02*
X11187164Y-16295701D01*
X11187164Y-16295701D02*
X11177640Y-16276653D01*
X11177640Y-16276653D02*
X11168117Y-16238558D01*
X11168117Y-16238558D02*
X11168117Y-16190939D01*
X11168117Y-16190939D02*
X11177640Y-16152844D01*
X11177640Y-16152844D02*
X11187164Y-16133796D01*
X11187164Y-16133796D02*
X11196688Y-16124273D01*
X11196688Y-16124273D02*
X11215736Y-16114749D01*
X11349069Y-16114749D02*
X11472878Y-16114749D01*
X11472878Y-16114749D02*
X11406212Y-16190939D01*
X11406212Y-16190939D02*
X11434783Y-16190939D01*
X11434783Y-16190939D02*
X11453831Y-16200463D01*
X11453831Y-16200463D02*
X11463355Y-16209987D01*
X11463355Y-16209987D02*
X11472878Y-16229034D01*
X11472878Y-16229034D02*
X11472878Y-16276653D01*
X11472878Y-16276653D02*
X11463355Y-16295701D01*
X11463355Y-16295701D02*
X11453831Y-16305225D01*
X11453831Y-16305225D02*
X11434783Y-16314749D01*
X11434783Y-16314749D02*
X11377640Y-16314749D01*
X11377640Y-16314749D02*
X11358593Y-16305225D01*
X11358593Y-16305225D02*
X11349069Y-16295701D01*
X11663355Y-16314749D02*
X11549069Y-16314749D01*
X11606212Y-16314749D02*
X11606212Y-16114749D01*
X11606212Y-16114749D02*
X11587164Y-16143320D01*
X11587164Y-16143320D02*
X11568117Y-16162368D01*
X11568117Y-16162368D02*
X11549069Y-16171892D01*
X11844307Y-16114749D02*
X11749069Y-16114749D01*
X11749069Y-16114749D02*
X11739545Y-16209987D01*
X11739545Y-16209987D02*
X11749069Y-16200463D01*
X11749069Y-16200463D02*
X11768117Y-16190939D01*
X11768117Y-16190939D02*
X11815736Y-16190939D01*
X11815736Y-16190939D02*
X11834783Y-16200463D01*
X11834783Y-16200463D02*
X11844307Y-16209987D01*
X11844307Y-16209987D02*
X11853831Y-16229034D01*
X11853831Y-16229034D02*
X11853831Y-16276653D01*
X11853831Y-16276653D02*
X11844307Y-16295701D01*
X11844307Y-16295701D02*
X11834783Y-16305225D01*
X11834783Y-16305225D02*
X11815736Y-16314749D01*
X11815736Y-16314749D02*
X11768117Y-16314749D01*
X11768117Y-16314749D02*
X11749069Y-16305225D01*
X11749069Y-16305225D02*
X11739545Y-16295701D01*
X11930021Y-16114749D02*
X11930021Y-16152844D01*
X12006212Y-16114749D02*
X12006212Y-16152844D01*
X12301450Y-16390939D02*
X12291926Y-16381415D01*
X12291926Y-16381415D02*
X12272879Y-16352844D01*
X12272879Y-16352844D02*
X12263355Y-16333796D01*
X12263355Y-16333796D02*
X12253831Y-16305225D01*
X12253831Y-16305225D02*
X12244307Y-16257606D01*
X12244307Y-16257606D02*
X12244307Y-16219511D01*
X12244307Y-16219511D02*
X12253831Y-16171892D01*
X12253831Y-16171892D02*
X12263355Y-16143320D01*
X12263355Y-16143320D02*
X12272879Y-16124273D01*
X12272879Y-16124273D02*
X12291926Y-16095701D01*
X12291926Y-16095701D02*
X12301450Y-16086177D01*
X12482402Y-16314749D02*
X12368117Y-16314749D01*
X12425259Y-16314749D02*
X12425259Y-16114749D01*
X12425259Y-16114749D02*
X12406212Y-16143320D01*
X12406212Y-16143320D02*
X12387164Y-16162368D01*
X12387164Y-16162368D02*
X12368117Y-16171892D01*
X12720498Y-16314749D02*
X12720498Y-16114749D01*
X12806212Y-16314749D02*
X12806212Y-16209987D01*
X12806212Y-16209987D02*
X12796688Y-16190939D01*
X12796688Y-16190939D02*
X12777641Y-16181415D01*
X12777641Y-16181415D02*
X12749069Y-16181415D01*
X12749069Y-16181415D02*
X12730021Y-16190939D01*
X12730021Y-16190939D02*
X12720498Y-16200463D01*
X12930021Y-16314749D02*
X12910974Y-16305225D01*
X12910974Y-16305225D02*
X12901450Y-16295701D01*
X12901450Y-16295701D02*
X12891926Y-16276653D01*
X12891926Y-16276653D02*
X12891926Y-16219511D01*
X12891926Y-16219511D02*
X12901450Y-16200463D01*
X12901450Y-16200463D02*
X12910974Y-16190939D01*
X12910974Y-16190939D02*
X12930021Y-16181415D01*
X12930021Y-16181415D02*
X12958593Y-16181415D01*
X12958593Y-16181415D02*
X12977641Y-16190939D01*
X12977641Y-16190939D02*
X12987164Y-16200463D01*
X12987164Y-16200463D02*
X12996688Y-16219511D01*
X12996688Y-16219511D02*
X12996688Y-16276653D01*
X12996688Y-16276653D02*
X12987164Y-16295701D01*
X12987164Y-16295701D02*
X12977641Y-16305225D01*
X12977641Y-16305225D02*
X12958593Y-16314749D01*
X12958593Y-16314749D02*
X12930021Y-16314749D01*
X13110974Y-16314749D02*
X13091926Y-16305225D01*
X13091926Y-16305225D02*
X13082402Y-16286177D01*
X13082402Y-16286177D02*
X13082402Y-16114749D01*
X13263355Y-16305225D02*
X13244307Y-16314749D01*
X13244307Y-16314749D02*
X13206212Y-16314749D01*
X13206212Y-16314749D02*
X13187164Y-16305225D01*
X13187164Y-16305225D02*
X13177641Y-16286177D01*
X13177641Y-16286177D02*
X13177641Y-16209987D01*
X13177641Y-16209987D02*
X13187164Y-16190939D01*
X13187164Y-16190939D02*
X13206212Y-16181415D01*
X13206212Y-16181415D02*
X13244307Y-16181415D01*
X13244307Y-16181415D02*
X13263355Y-16190939D01*
X13263355Y-16190939D02*
X13272879Y-16209987D01*
X13272879Y-16209987D02*
X13272879Y-16229034D01*
X13272879Y-16229034D02*
X13177641Y-16248082D01*
X13339545Y-16390939D02*
X13349069Y-16381415D01*
X13349069Y-16381415D02*
X13368117Y-16352844D01*
X13368117Y-16352844D02*
X13377641Y-16333796D01*
X13377641Y-16333796D02*
X13387164Y-16305225D01*
X13387164Y-16305225D02*
X13396688Y-16257606D01*
X13396688Y-16257606D02*
X13396688Y-16219511D01*
X13396688Y-16219511D02*
X13387164Y-16171892D01*
X13387164Y-16171892D02*
X13377641Y-16143320D01*
X13377641Y-16143320D02*
X13368117Y-16124273D01*
X13368117Y-16124273D02*
X13349069Y-16095701D01*
X13349069Y-16095701D02*
X13339545Y-16086177D01*
X13701450Y-16390939D02*
X13691926Y-16381415D01*
X13691926Y-16381415D02*
X13672879Y-16352844D01*
X13672879Y-16352844D02*
X13663355Y-16333796D01*
X13663355Y-16333796D02*
X13653831Y-16305225D01*
X13653831Y-16305225D02*
X13644307Y-16257606D01*
X13644307Y-16257606D02*
X13644307Y-16219511D01*
X13644307Y-16219511D02*
X13653831Y-16171892D01*
X13653831Y-16171892D02*
X13663355Y-16143320D01*
X13663355Y-16143320D02*
X13672879Y-16124273D01*
X13672879Y-16124273D02*
X13691926Y-16095701D01*
X13691926Y-16095701D02*
X13701450Y-16086177D01*
X13777641Y-16181415D02*
X13777641Y-16314749D01*
X13777641Y-16200463D02*
X13787164Y-16190939D01*
X13787164Y-16190939D02*
X13806212Y-16181415D01*
X13806212Y-16181415D02*
X13834783Y-16181415D01*
X13834783Y-16181415D02*
X13853831Y-16190939D01*
X13853831Y-16190939D02*
X13863355Y-16209987D01*
X13863355Y-16209987D02*
X13863355Y-16314749D01*
X13987164Y-16314749D02*
X13968117Y-16305225D01*
X13968117Y-16305225D02*
X13958593Y-16295701D01*
X13958593Y-16295701D02*
X13949069Y-16276653D01*
X13949069Y-16276653D02*
X13949069Y-16219511D01*
X13949069Y-16219511D02*
X13958593Y-16200463D01*
X13958593Y-16200463D02*
X13968117Y-16190939D01*
X13968117Y-16190939D02*
X13987164Y-16181415D01*
X13987164Y-16181415D02*
X14015736Y-16181415D01*
X14015736Y-16181415D02*
X14034783Y-16190939D01*
X14034783Y-16190939D02*
X14044307Y-16200463D01*
X14044307Y-16200463D02*
X14053831Y-16219511D01*
X14053831Y-16219511D02*
X14053831Y-16276653D01*
X14053831Y-16276653D02*
X14044307Y-16295701D01*
X14044307Y-16295701D02*
X14034783Y-16305225D01*
X14034783Y-16305225D02*
X14015736Y-16314749D01*
X14015736Y-16314749D02*
X13987164Y-16314749D01*
X14110974Y-16181415D02*
X14187164Y-16181415D01*
X14139545Y-16114749D02*
X14139545Y-16286177D01*
X14139545Y-16286177D02*
X14149069Y-16305225D01*
X14149069Y-16305225D02*
X14168117Y-16314749D01*
X14168117Y-16314749D02*
X14187164Y-16314749D01*
X14406212Y-16181415D02*
X14406212Y-16381415D01*
X14406212Y-16190939D02*
X14425260Y-16181415D01*
X14425260Y-16181415D02*
X14463355Y-16181415D01*
X14463355Y-16181415D02*
X14482403Y-16190939D01*
X14482403Y-16190939D02*
X14491926Y-16200463D01*
X14491926Y-16200463D02*
X14501450Y-16219511D01*
X14501450Y-16219511D02*
X14501450Y-16276653D01*
X14501450Y-16276653D02*
X14491926Y-16295701D01*
X14491926Y-16295701D02*
X14482403Y-16305225D01*
X14482403Y-16305225D02*
X14463355Y-16314749D01*
X14463355Y-16314749D02*
X14425260Y-16314749D01*
X14425260Y-16314749D02*
X14406212Y-16305225D01*
X14615736Y-16314749D02*
X14596688Y-16305225D01*
X14596688Y-16305225D02*
X14587164Y-16286177D01*
X14587164Y-16286177D02*
X14587164Y-16114749D01*
X14777641Y-16314749D02*
X14777641Y-16209987D01*
X14777641Y-16209987D02*
X14768117Y-16190939D01*
X14768117Y-16190939D02*
X14749069Y-16181415D01*
X14749069Y-16181415D02*
X14710974Y-16181415D01*
X14710974Y-16181415D02*
X14691926Y-16190939D01*
X14777641Y-16305225D02*
X14758593Y-16314749D01*
X14758593Y-16314749D02*
X14710974Y-16314749D01*
X14710974Y-16314749D02*
X14691926Y-16305225D01*
X14691926Y-16305225D02*
X14682403Y-16286177D01*
X14682403Y-16286177D02*
X14682403Y-16267130D01*
X14682403Y-16267130D02*
X14691926Y-16248082D01*
X14691926Y-16248082D02*
X14710974Y-16238558D01*
X14710974Y-16238558D02*
X14758593Y-16238558D01*
X14758593Y-16238558D02*
X14777641Y-16229034D01*
X14844307Y-16181415D02*
X14920498Y-16181415D01*
X14872879Y-16114749D02*
X14872879Y-16286177D01*
X14872879Y-16286177D02*
X14882403Y-16305225D01*
X14882403Y-16305225D02*
X14901450Y-16314749D01*
X14901450Y-16314749D02*
X14920498Y-16314749D01*
X15063355Y-16305225D02*
X15044307Y-16314749D01*
X15044307Y-16314749D02*
X15006212Y-16314749D01*
X15006212Y-16314749D02*
X14987164Y-16305225D01*
X14987164Y-16305225D02*
X14977641Y-16286177D01*
X14977641Y-16286177D02*
X14977641Y-16209987D01*
X14977641Y-16209987D02*
X14987164Y-16190939D01*
X14987164Y-16190939D02*
X15006212Y-16181415D01*
X15006212Y-16181415D02*
X15044307Y-16181415D01*
X15044307Y-16181415D02*
X15063355Y-16190939D01*
X15063355Y-16190939D02*
X15072879Y-16209987D01*
X15072879Y-16209987D02*
X15072879Y-16229034D01*
X15072879Y-16229034D02*
X14977641Y-16248082D01*
X15244307Y-16314749D02*
X15244307Y-16114749D01*
X15244307Y-16305225D02*
X15225260Y-16314749D01*
X15225260Y-16314749D02*
X15187164Y-16314749D01*
X15187164Y-16314749D02*
X15168117Y-16305225D01*
X15168117Y-16305225D02*
X15158593Y-16295701D01*
X15158593Y-16295701D02*
X15149069Y-16276653D01*
X15149069Y-16276653D02*
X15149069Y-16219511D01*
X15149069Y-16219511D02*
X15158593Y-16200463D01*
X15158593Y-16200463D02*
X15168117Y-16190939D01*
X15168117Y-16190939D02*
X15187164Y-16181415D01*
X15187164Y-16181415D02*
X15225260Y-16181415D01*
X15225260Y-16181415D02*
X15244307Y-16190939D01*
X15320498Y-16390939D02*
X15330022Y-16381415D01*
X15330022Y-16381415D02*
X15349069Y-16352844D01*
X15349069Y-16352844D02*
X15358593Y-16333796D01*
X15358593Y-16333796D02*
X15368117Y-16305225D01*
X15368117Y-16305225D02*
X15377641Y-16257606D01*
X15377641Y-16257606D02*
X15377641Y-16219511D01*
X15377641Y-16219511D02*
X15368117Y-16171892D01*
X15368117Y-16171892D02*
X15358593Y-16143320D01*
X15358593Y-16143320D02*
X15349069Y-16124273D01*
X15349069Y-16124273D02*
X15330022Y-16095701D01*
X15330022Y-16095701D02*
X15320498Y-16086177D01*
D13*
X8739545Y-16486225D02*
G75*
G03*
X8739545Y-16486225I-57600J0D01*
G01*
D11*
X9091926Y-16578749D02*
X8977640Y-16578749D01*
X9034783Y-16578749D02*
X9034783Y-16378749D01*
X9034783Y-16378749D02*
X9015735Y-16407320D01*
X9015735Y-16407320D02*
X8996688Y-16426368D01*
X8996688Y-16426368D02*
X8977640Y-16435892D01*
X9177640Y-16559701D02*
X9187164Y-16569225D01*
X9187164Y-16569225D02*
X9177640Y-16578749D01*
X9177640Y-16578749D02*
X9168116Y-16569225D01*
X9168116Y-16569225D02*
X9177640Y-16559701D01*
X9177640Y-16559701D02*
X9177640Y-16578749D01*
X9377640Y-16578749D02*
X9263355Y-16578749D01*
X9320497Y-16578749D02*
X9320497Y-16378749D01*
X9320497Y-16378749D02*
X9301450Y-16407320D01*
X9301450Y-16407320D02*
X9282402Y-16426368D01*
X9282402Y-16426368D02*
X9263355Y-16435892D01*
X9558593Y-16378749D02*
X9463355Y-16378749D01*
X9463355Y-16378749D02*
X9453831Y-16473987D01*
X9453831Y-16473987D02*
X9463355Y-16464463D01*
X9463355Y-16464463D02*
X9482402Y-16454939D01*
X9482402Y-16454939D02*
X9530021Y-16454939D01*
X9530021Y-16454939D02*
X9549069Y-16464463D01*
X9549069Y-16464463D02*
X9558593Y-16473987D01*
X9558593Y-16473987D02*
X9568116Y-16493034D01*
X9568116Y-16493034D02*
X9568116Y-16540653D01*
X9568116Y-16540653D02*
X9558593Y-16559701D01*
X9558593Y-16559701D02*
X9549069Y-16569225D01*
X9549069Y-16569225D02*
X9530021Y-16578749D01*
X9530021Y-16578749D02*
X9482402Y-16578749D01*
X9482402Y-16578749D02*
X9463355Y-16569225D01*
X9463355Y-16569225D02*
X9453831Y-16559701D01*
X9644307Y-16397796D02*
X9653831Y-16388273D01*
X9653831Y-16388273D02*
X9672878Y-16378749D01*
X9672878Y-16378749D02*
X9720497Y-16378749D01*
X9720497Y-16378749D02*
X9739545Y-16388273D01*
X9739545Y-16388273D02*
X9749069Y-16397796D01*
X9749069Y-16397796D02*
X9758593Y-16416844D01*
X9758593Y-16416844D02*
X9758593Y-16435892D01*
X9758593Y-16435892D02*
X9749069Y-16464463D01*
X9749069Y-16464463D02*
X9634783Y-16578749D01*
X9634783Y-16578749D02*
X9758593Y-16578749D01*
X9844307Y-16578749D02*
X9844307Y-16445415D01*
X9844307Y-16464463D02*
X9853831Y-16454939D01*
X9853831Y-16454939D02*
X9872878Y-16445415D01*
X9872878Y-16445415D02*
X9901450Y-16445415D01*
X9901450Y-16445415D02*
X9920497Y-16454939D01*
X9920497Y-16454939D02*
X9930021Y-16473987D01*
X9930021Y-16473987D02*
X9930021Y-16578749D01*
X9930021Y-16473987D02*
X9939545Y-16454939D01*
X9939545Y-16454939D02*
X9958593Y-16445415D01*
X9958593Y-16445415D02*
X9987164Y-16445415D01*
X9987164Y-16445415D02*
X10006212Y-16454939D01*
X10006212Y-16454939D02*
X10015736Y-16473987D01*
X10015736Y-16473987D02*
X10015736Y-16578749D01*
X10110974Y-16578749D02*
X10110974Y-16445415D01*
X10110974Y-16464463D02*
X10120497Y-16454939D01*
X10120497Y-16454939D02*
X10139545Y-16445415D01*
X10139545Y-16445415D02*
X10168117Y-16445415D01*
X10168117Y-16445415D02*
X10187164Y-16454939D01*
X10187164Y-16454939D02*
X10196688Y-16473987D01*
X10196688Y-16473987D02*
X10196688Y-16578749D01*
X10196688Y-16473987D02*
X10206212Y-16454939D01*
X10206212Y-16454939D02*
X10225259Y-16445415D01*
X10225259Y-16445415D02*
X10253831Y-16445415D01*
X10253831Y-16445415D02*
X10272878Y-16454939D01*
X10272878Y-16454939D02*
X10282402Y-16473987D01*
X10282402Y-16473987D02*
X10282402Y-16578749D01*
X10672878Y-16369225D02*
X10501450Y-16626368D01*
X10930021Y-16378749D02*
X10949069Y-16378749D01*
X10949069Y-16378749D02*
X10968117Y-16388273D01*
X10968117Y-16388273D02*
X10977640Y-16397796D01*
X10977640Y-16397796D02*
X10987164Y-16416844D01*
X10987164Y-16416844D02*
X10996688Y-16454939D01*
X10996688Y-16454939D02*
X10996688Y-16502558D01*
X10996688Y-16502558D02*
X10987164Y-16540653D01*
X10987164Y-16540653D02*
X10977640Y-16559701D01*
X10977640Y-16559701D02*
X10968117Y-16569225D01*
X10968117Y-16569225D02*
X10949069Y-16578749D01*
X10949069Y-16578749D02*
X10930021Y-16578749D01*
X10930021Y-16578749D02*
X10910974Y-16569225D01*
X10910974Y-16569225D02*
X10901450Y-16559701D01*
X10901450Y-16559701D02*
X10891926Y-16540653D01*
X10891926Y-16540653D02*
X10882402Y-16502558D01*
X10882402Y-16502558D02*
X10882402Y-16454939D01*
X10882402Y-16454939D02*
X10891926Y-16416844D01*
X10891926Y-16416844D02*
X10901450Y-16397796D01*
X10901450Y-16397796D02*
X10910974Y-16388273D01*
X10910974Y-16388273D02*
X10930021Y-16378749D01*
X11082402Y-16559701D02*
X11091926Y-16569225D01*
X11091926Y-16569225D02*
X11082402Y-16578749D01*
X11082402Y-16578749D02*
X11072879Y-16569225D01*
X11072879Y-16569225D02*
X11082402Y-16559701D01*
X11082402Y-16559701D02*
X11082402Y-16578749D01*
X11215736Y-16378749D02*
X11234783Y-16378749D01*
X11234783Y-16378749D02*
X11253831Y-16388273D01*
X11253831Y-16388273D02*
X11263355Y-16397796D01*
X11263355Y-16397796D02*
X11272878Y-16416844D01*
X11272878Y-16416844D02*
X11282402Y-16454939D01*
X11282402Y-16454939D02*
X11282402Y-16502558D01*
X11282402Y-16502558D02*
X11272878Y-16540653D01*
X11272878Y-16540653D02*
X11263355Y-16559701D01*
X11263355Y-16559701D02*
X11253831Y-16569225D01*
X11253831Y-16569225D02*
X11234783Y-16578749D01*
X11234783Y-16578749D02*
X11215736Y-16578749D01*
X11215736Y-16578749D02*
X11196688Y-16569225D01*
X11196688Y-16569225D02*
X11187164Y-16559701D01*
X11187164Y-16559701D02*
X11177640Y-16540653D01*
X11177640Y-16540653D02*
X11168117Y-16502558D01*
X11168117Y-16502558D02*
X11168117Y-16454939D01*
X11168117Y-16454939D02*
X11177640Y-16416844D01*
X11177640Y-16416844D02*
X11187164Y-16397796D01*
X11187164Y-16397796D02*
X11196688Y-16388273D01*
X11196688Y-16388273D02*
X11215736Y-16378749D01*
X11453831Y-16445415D02*
X11453831Y-16578749D01*
X11406212Y-16369225D02*
X11358593Y-16512082D01*
X11358593Y-16512082D02*
X11482402Y-16512082D01*
X11653831Y-16378749D02*
X11558593Y-16378749D01*
X11558593Y-16378749D02*
X11549069Y-16473987D01*
X11549069Y-16473987D02*
X11558593Y-16464463D01*
X11558593Y-16464463D02*
X11577640Y-16454939D01*
X11577640Y-16454939D02*
X11625259Y-16454939D01*
X11625259Y-16454939D02*
X11644307Y-16464463D01*
X11644307Y-16464463D02*
X11653831Y-16473987D01*
X11653831Y-16473987D02*
X11663355Y-16493034D01*
X11663355Y-16493034D02*
X11663355Y-16540653D01*
X11663355Y-16540653D02*
X11653831Y-16559701D01*
X11653831Y-16559701D02*
X11644307Y-16569225D01*
X11644307Y-16569225D02*
X11625259Y-16578749D01*
X11625259Y-16578749D02*
X11577640Y-16578749D01*
X11577640Y-16578749D02*
X11558593Y-16569225D01*
X11558593Y-16569225D02*
X11549069Y-16559701D01*
X11834783Y-16445415D02*
X11834783Y-16578749D01*
X11787164Y-16369225D02*
X11739545Y-16512082D01*
X11739545Y-16512082D02*
X11863355Y-16512082D01*
X11930021Y-16378749D02*
X11930021Y-16416844D01*
X12006212Y-16378749D02*
X12006212Y-16416844D01*
X12301450Y-16654939D02*
X12291926Y-16645415D01*
X12291926Y-16645415D02*
X12272879Y-16616844D01*
X12272879Y-16616844D02*
X12263355Y-16597796D01*
X12263355Y-16597796D02*
X12253831Y-16569225D01*
X12253831Y-16569225D02*
X12244307Y-16521606D01*
X12244307Y-16521606D02*
X12244307Y-16483511D01*
X12244307Y-16483511D02*
X12253831Y-16435892D01*
X12253831Y-16435892D02*
X12263355Y-16407320D01*
X12263355Y-16407320D02*
X12272879Y-16388273D01*
X12272879Y-16388273D02*
X12291926Y-16359701D01*
X12291926Y-16359701D02*
X12301450Y-16350177D01*
X12358593Y-16378749D02*
X12482402Y-16378749D01*
X12482402Y-16378749D02*
X12415736Y-16454939D01*
X12415736Y-16454939D02*
X12444307Y-16454939D01*
X12444307Y-16454939D02*
X12463355Y-16464463D01*
X12463355Y-16464463D02*
X12472879Y-16473987D01*
X12472879Y-16473987D02*
X12482402Y-16493034D01*
X12482402Y-16493034D02*
X12482402Y-16540653D01*
X12482402Y-16540653D02*
X12472879Y-16559701D01*
X12472879Y-16559701D02*
X12463355Y-16569225D01*
X12463355Y-16569225D02*
X12444307Y-16578749D01*
X12444307Y-16578749D02*
X12387164Y-16578749D01*
X12387164Y-16578749D02*
X12368117Y-16569225D01*
X12368117Y-16569225D02*
X12358593Y-16559701D01*
X12720498Y-16578749D02*
X12720498Y-16378749D01*
X12806212Y-16578749D02*
X12806212Y-16473987D01*
X12806212Y-16473987D02*
X12796688Y-16454939D01*
X12796688Y-16454939D02*
X12777641Y-16445415D01*
X12777641Y-16445415D02*
X12749069Y-16445415D01*
X12749069Y-16445415D02*
X12730021Y-16454939D01*
X12730021Y-16454939D02*
X12720498Y-16464463D01*
X12930021Y-16578749D02*
X12910974Y-16569225D01*
X12910974Y-16569225D02*
X12901450Y-16559701D01*
X12901450Y-16559701D02*
X12891926Y-16540653D01*
X12891926Y-16540653D02*
X12891926Y-16483511D01*
X12891926Y-16483511D02*
X12901450Y-16464463D01*
X12901450Y-16464463D02*
X12910974Y-16454939D01*
X12910974Y-16454939D02*
X12930021Y-16445415D01*
X12930021Y-16445415D02*
X12958593Y-16445415D01*
X12958593Y-16445415D02*
X12977641Y-16454939D01*
X12977641Y-16454939D02*
X12987164Y-16464463D01*
X12987164Y-16464463D02*
X12996688Y-16483511D01*
X12996688Y-16483511D02*
X12996688Y-16540653D01*
X12996688Y-16540653D02*
X12987164Y-16559701D01*
X12987164Y-16559701D02*
X12977641Y-16569225D01*
X12977641Y-16569225D02*
X12958593Y-16578749D01*
X12958593Y-16578749D02*
X12930021Y-16578749D01*
X13110974Y-16578749D02*
X13091926Y-16569225D01*
X13091926Y-16569225D02*
X13082402Y-16550177D01*
X13082402Y-16550177D02*
X13082402Y-16378749D01*
X13263355Y-16569225D02*
X13244307Y-16578749D01*
X13244307Y-16578749D02*
X13206212Y-16578749D01*
X13206212Y-16578749D02*
X13187164Y-16569225D01*
X13187164Y-16569225D02*
X13177641Y-16550177D01*
X13177641Y-16550177D02*
X13177641Y-16473987D01*
X13177641Y-16473987D02*
X13187164Y-16454939D01*
X13187164Y-16454939D02*
X13206212Y-16445415D01*
X13206212Y-16445415D02*
X13244307Y-16445415D01*
X13244307Y-16445415D02*
X13263355Y-16454939D01*
X13263355Y-16454939D02*
X13272879Y-16473987D01*
X13272879Y-16473987D02*
X13272879Y-16493034D01*
X13272879Y-16493034D02*
X13177641Y-16512082D01*
X13349069Y-16569225D02*
X13368117Y-16578749D01*
X13368117Y-16578749D02*
X13406212Y-16578749D01*
X13406212Y-16578749D02*
X13425260Y-16569225D01*
X13425260Y-16569225D02*
X13434783Y-16550177D01*
X13434783Y-16550177D02*
X13434783Y-16540653D01*
X13434783Y-16540653D02*
X13425260Y-16521606D01*
X13425260Y-16521606D02*
X13406212Y-16512082D01*
X13406212Y-16512082D02*
X13377641Y-16512082D01*
X13377641Y-16512082D02*
X13358593Y-16502558D01*
X13358593Y-16502558D02*
X13349069Y-16483511D01*
X13349069Y-16483511D02*
X13349069Y-16473987D01*
X13349069Y-16473987D02*
X13358593Y-16454939D01*
X13358593Y-16454939D02*
X13377641Y-16445415D01*
X13377641Y-16445415D02*
X13406212Y-16445415D01*
X13406212Y-16445415D02*
X13425260Y-16454939D01*
X13501450Y-16654939D02*
X13510974Y-16645415D01*
X13510974Y-16645415D02*
X13530022Y-16616844D01*
X13530022Y-16616844D02*
X13539545Y-16597796D01*
X13539545Y-16597796D02*
X13549069Y-16569225D01*
X13549069Y-16569225D02*
X13558593Y-16521606D01*
X13558593Y-16521606D02*
X13558593Y-16483511D01*
X13558593Y-16483511D02*
X13549069Y-16435892D01*
X13549069Y-16435892D02*
X13539545Y-16407320D01*
X13539545Y-16407320D02*
X13530022Y-16388273D01*
X13530022Y-16388273D02*
X13510974Y-16359701D01*
X13510974Y-16359701D02*
X13501450Y-16350177D01*
X13863355Y-16654939D02*
X13853831Y-16645415D01*
X13853831Y-16645415D02*
X13834783Y-16616844D01*
X13834783Y-16616844D02*
X13825260Y-16597796D01*
X13825260Y-16597796D02*
X13815736Y-16569225D01*
X13815736Y-16569225D02*
X13806212Y-16521606D01*
X13806212Y-16521606D02*
X13806212Y-16483511D01*
X13806212Y-16483511D02*
X13815736Y-16435892D01*
X13815736Y-16435892D02*
X13825260Y-16407320D01*
X13825260Y-16407320D02*
X13834783Y-16388273D01*
X13834783Y-16388273D02*
X13853831Y-16359701D01*
X13853831Y-16359701D02*
X13863355Y-16350177D01*
X13939545Y-16445415D02*
X13939545Y-16578749D01*
X13939545Y-16464463D02*
X13949069Y-16454939D01*
X13949069Y-16454939D02*
X13968117Y-16445415D01*
X13968117Y-16445415D02*
X13996688Y-16445415D01*
X13996688Y-16445415D02*
X14015736Y-16454939D01*
X14015736Y-16454939D02*
X14025260Y-16473987D01*
X14025260Y-16473987D02*
X14025260Y-16578749D01*
X14149069Y-16578749D02*
X14130022Y-16569225D01*
X14130022Y-16569225D02*
X14120498Y-16559701D01*
X14120498Y-16559701D02*
X14110974Y-16540653D01*
X14110974Y-16540653D02*
X14110974Y-16483511D01*
X14110974Y-16483511D02*
X14120498Y-16464463D01*
X14120498Y-16464463D02*
X14130022Y-16454939D01*
X14130022Y-16454939D02*
X14149069Y-16445415D01*
X14149069Y-16445415D02*
X14177641Y-16445415D01*
X14177641Y-16445415D02*
X14196688Y-16454939D01*
X14196688Y-16454939D02*
X14206212Y-16464463D01*
X14206212Y-16464463D02*
X14215736Y-16483511D01*
X14215736Y-16483511D02*
X14215736Y-16540653D01*
X14215736Y-16540653D02*
X14206212Y-16559701D01*
X14206212Y-16559701D02*
X14196688Y-16569225D01*
X14196688Y-16569225D02*
X14177641Y-16578749D01*
X14177641Y-16578749D02*
X14149069Y-16578749D01*
X14272879Y-16445415D02*
X14349069Y-16445415D01*
X14301450Y-16378749D02*
X14301450Y-16550177D01*
X14301450Y-16550177D02*
X14310974Y-16569225D01*
X14310974Y-16569225D02*
X14330022Y-16578749D01*
X14330022Y-16578749D02*
X14349069Y-16578749D01*
X14568117Y-16445415D02*
X14568117Y-16645415D01*
X14568117Y-16454939D02*
X14587164Y-16445415D01*
X14587164Y-16445415D02*
X14625260Y-16445415D01*
X14625260Y-16445415D02*
X14644307Y-16454939D01*
X14644307Y-16454939D02*
X14653831Y-16464463D01*
X14653831Y-16464463D02*
X14663355Y-16483511D01*
X14663355Y-16483511D02*
X14663355Y-16540653D01*
X14663355Y-16540653D02*
X14653831Y-16559701D01*
X14653831Y-16559701D02*
X14644307Y-16569225D01*
X14644307Y-16569225D02*
X14625260Y-16578749D01*
X14625260Y-16578749D02*
X14587164Y-16578749D01*
X14587164Y-16578749D02*
X14568117Y-16569225D01*
X14777641Y-16578749D02*
X14758593Y-16569225D01*
X14758593Y-16569225D02*
X14749069Y-16550177D01*
X14749069Y-16550177D02*
X14749069Y-16378749D01*
X14939545Y-16578749D02*
X14939545Y-16473987D01*
X14939545Y-16473987D02*
X14930022Y-16454939D01*
X14930022Y-16454939D02*
X14910974Y-16445415D01*
X14910974Y-16445415D02*
X14872879Y-16445415D01*
X14872879Y-16445415D02*
X14853831Y-16454939D01*
X14939545Y-16569225D02*
X14920498Y-16578749D01*
X14920498Y-16578749D02*
X14872879Y-16578749D01*
X14872879Y-16578749D02*
X14853831Y-16569225D01*
X14853831Y-16569225D02*
X14844307Y-16550177D01*
X14844307Y-16550177D02*
X14844307Y-16531130D01*
X14844307Y-16531130D02*
X14853831Y-16512082D01*
X14853831Y-16512082D02*
X14872879Y-16502558D01*
X14872879Y-16502558D02*
X14920498Y-16502558D01*
X14920498Y-16502558D02*
X14939545Y-16493034D01*
X15006212Y-16445415D02*
X15082403Y-16445415D01*
X15034784Y-16378749D02*
X15034784Y-16550177D01*
X15034784Y-16550177D02*
X15044307Y-16569225D01*
X15044307Y-16569225D02*
X15063355Y-16578749D01*
X15063355Y-16578749D02*
X15082403Y-16578749D01*
X15225260Y-16569225D02*
X15206212Y-16578749D01*
X15206212Y-16578749D02*
X15168117Y-16578749D01*
X15168117Y-16578749D02*
X15149069Y-16569225D01*
X15149069Y-16569225D02*
X15139545Y-16550177D01*
X15139545Y-16550177D02*
X15139545Y-16473987D01*
X15139545Y-16473987D02*
X15149069Y-16454939D01*
X15149069Y-16454939D02*
X15168117Y-16445415D01*
X15168117Y-16445415D02*
X15206212Y-16445415D01*
X15206212Y-16445415D02*
X15225260Y-16454939D01*
X15225260Y-16454939D02*
X15234784Y-16473987D01*
X15234784Y-16473987D02*
X15234784Y-16493034D01*
X15234784Y-16493034D02*
X15139545Y-16512082D01*
X15406212Y-16578749D02*
X15406212Y-16378749D01*
X15406212Y-16569225D02*
X15387165Y-16578749D01*
X15387165Y-16578749D02*
X15349069Y-16578749D01*
X15349069Y-16578749D02*
X15330022Y-16569225D01*
X15330022Y-16569225D02*
X15320498Y-16559701D01*
X15320498Y-16559701D02*
X15310974Y-16540653D01*
X15310974Y-16540653D02*
X15310974Y-16483511D01*
X15310974Y-16483511D02*
X15320498Y-16464463D01*
X15320498Y-16464463D02*
X15330022Y-16454939D01*
X15330022Y-16454939D02*
X15349069Y-16445415D01*
X15349069Y-16445415D02*
X15387165Y-16445415D01*
X15387165Y-16445415D02*
X15406212Y-16454939D01*
X15482403Y-16654939D02*
X15491926Y-16645415D01*
X15491926Y-16645415D02*
X15510974Y-16616844D01*
X15510974Y-16616844D02*
X15520498Y-16597796D01*
X15520498Y-16597796D02*
X15530022Y-16569225D01*
X15530022Y-16569225D02*
X15539545Y-16521606D01*
X15539545Y-16521606D02*
X15539545Y-16483511D01*
X15539545Y-16483511D02*
X15530022Y-16435892D01*
X15530022Y-16435892D02*
X15520498Y-16407320D01*
X15520498Y-16407320D02*
X15510974Y-16388273D01*
X15510974Y-16388273D02*
X15491926Y-16359701D01*
X15491926Y-16359701D02*
X15482403Y-16350177D01*
D14*
X8652045Y-16662725D02*
X8652045Y-16837725D01*
X8564545Y-16750225D02*
X8739545Y-16750225D01*
D11*
X9091926Y-16842749D02*
X8977640Y-16842749D01*
X9034783Y-16842749D02*
X9034783Y-16642749D01*
X9034783Y-16642749D02*
X9015735Y-16671320D01*
X9015735Y-16671320D02*
X8996688Y-16690368D01*
X8996688Y-16690368D02*
X8977640Y-16699892D01*
X9177640Y-16823701D02*
X9187164Y-16833225D01*
X9187164Y-16833225D02*
X9177640Y-16842749D01*
X9177640Y-16842749D02*
X9168116Y-16833225D01*
X9168116Y-16833225D02*
X9177640Y-16823701D01*
X9177640Y-16823701D02*
X9177640Y-16842749D01*
X9253831Y-16642749D02*
X9387164Y-16642749D01*
X9387164Y-16642749D02*
X9301450Y-16842749D01*
X9558593Y-16642749D02*
X9463355Y-16642749D01*
X9463355Y-16642749D02*
X9453831Y-16737987D01*
X9453831Y-16737987D02*
X9463355Y-16728463D01*
X9463355Y-16728463D02*
X9482402Y-16718939D01*
X9482402Y-16718939D02*
X9530021Y-16718939D01*
X9530021Y-16718939D02*
X9549069Y-16728463D01*
X9549069Y-16728463D02*
X9558593Y-16737987D01*
X9558593Y-16737987D02*
X9568116Y-16757034D01*
X9568116Y-16757034D02*
X9568116Y-16804654D01*
X9568116Y-16804654D02*
X9558593Y-16823701D01*
X9558593Y-16823701D02*
X9549069Y-16833225D01*
X9549069Y-16833225D02*
X9530021Y-16842749D01*
X9530021Y-16842749D02*
X9482402Y-16842749D01*
X9482402Y-16842749D02*
X9463355Y-16833225D01*
X9463355Y-16833225D02*
X9453831Y-16823701D01*
X9691926Y-16642749D02*
X9710974Y-16642749D01*
X9710974Y-16642749D02*
X9730021Y-16652273D01*
X9730021Y-16652273D02*
X9739545Y-16661796D01*
X9739545Y-16661796D02*
X9749069Y-16680844D01*
X9749069Y-16680844D02*
X9758593Y-16718939D01*
X9758593Y-16718939D02*
X9758593Y-16766558D01*
X9758593Y-16766558D02*
X9749069Y-16804654D01*
X9749069Y-16804654D02*
X9739545Y-16823701D01*
X9739545Y-16823701D02*
X9730021Y-16833225D01*
X9730021Y-16833225D02*
X9710974Y-16842749D01*
X9710974Y-16842749D02*
X9691926Y-16842749D01*
X9691926Y-16842749D02*
X9672878Y-16833225D01*
X9672878Y-16833225D02*
X9663355Y-16823701D01*
X9663355Y-16823701D02*
X9653831Y-16804654D01*
X9653831Y-16804654D02*
X9644307Y-16766558D01*
X9644307Y-16766558D02*
X9644307Y-16718939D01*
X9644307Y-16718939D02*
X9653831Y-16680844D01*
X9653831Y-16680844D02*
X9663355Y-16661796D01*
X9663355Y-16661796D02*
X9672878Y-16652273D01*
X9672878Y-16652273D02*
X9691926Y-16642749D01*
X9844307Y-16842749D02*
X9844307Y-16709415D01*
X9844307Y-16728463D02*
X9853831Y-16718939D01*
X9853831Y-16718939D02*
X9872878Y-16709415D01*
X9872878Y-16709415D02*
X9901450Y-16709415D01*
X9901450Y-16709415D02*
X9920497Y-16718939D01*
X9920497Y-16718939D02*
X9930021Y-16737987D01*
X9930021Y-16737987D02*
X9930021Y-16842749D01*
X9930021Y-16737987D02*
X9939545Y-16718939D01*
X9939545Y-16718939D02*
X9958593Y-16709415D01*
X9958593Y-16709415D02*
X9987164Y-16709415D01*
X9987164Y-16709415D02*
X10006212Y-16718939D01*
X10006212Y-16718939D02*
X10015736Y-16737987D01*
X10015736Y-16737987D02*
X10015736Y-16842749D01*
X10110974Y-16842749D02*
X10110974Y-16709415D01*
X10110974Y-16728463D02*
X10120497Y-16718939D01*
X10120497Y-16718939D02*
X10139545Y-16709415D01*
X10139545Y-16709415D02*
X10168117Y-16709415D01*
X10168117Y-16709415D02*
X10187164Y-16718939D01*
X10187164Y-16718939D02*
X10196688Y-16737987D01*
X10196688Y-16737987D02*
X10196688Y-16842749D01*
X10196688Y-16737987D02*
X10206212Y-16718939D01*
X10206212Y-16718939D02*
X10225259Y-16709415D01*
X10225259Y-16709415D02*
X10253831Y-16709415D01*
X10253831Y-16709415D02*
X10272878Y-16718939D01*
X10272878Y-16718939D02*
X10282402Y-16737987D01*
X10282402Y-16737987D02*
X10282402Y-16842749D01*
X10672878Y-16633225D02*
X10501450Y-16890368D01*
X10930021Y-16642749D02*
X10949069Y-16642749D01*
X10949069Y-16642749D02*
X10968117Y-16652273D01*
X10968117Y-16652273D02*
X10977640Y-16661796D01*
X10977640Y-16661796D02*
X10987164Y-16680844D01*
X10987164Y-16680844D02*
X10996688Y-16718939D01*
X10996688Y-16718939D02*
X10996688Y-16766558D01*
X10996688Y-16766558D02*
X10987164Y-16804654D01*
X10987164Y-16804654D02*
X10977640Y-16823701D01*
X10977640Y-16823701D02*
X10968117Y-16833225D01*
X10968117Y-16833225D02*
X10949069Y-16842749D01*
X10949069Y-16842749D02*
X10930021Y-16842749D01*
X10930021Y-16842749D02*
X10910974Y-16833225D01*
X10910974Y-16833225D02*
X10901450Y-16823701D01*
X10901450Y-16823701D02*
X10891926Y-16804654D01*
X10891926Y-16804654D02*
X10882402Y-16766558D01*
X10882402Y-16766558D02*
X10882402Y-16718939D01*
X10882402Y-16718939D02*
X10891926Y-16680844D01*
X10891926Y-16680844D02*
X10901450Y-16661796D01*
X10901450Y-16661796D02*
X10910974Y-16652273D01*
X10910974Y-16652273D02*
X10930021Y-16642749D01*
X11082402Y-16823701D02*
X11091926Y-16833225D01*
X11091926Y-16833225D02*
X11082402Y-16842749D01*
X11082402Y-16842749D02*
X11072879Y-16833225D01*
X11072879Y-16833225D02*
X11082402Y-16823701D01*
X11082402Y-16823701D02*
X11082402Y-16842749D01*
X11215736Y-16642749D02*
X11234783Y-16642749D01*
X11234783Y-16642749D02*
X11253831Y-16652273D01*
X11253831Y-16652273D02*
X11263355Y-16661796D01*
X11263355Y-16661796D02*
X11272878Y-16680844D01*
X11272878Y-16680844D02*
X11282402Y-16718939D01*
X11282402Y-16718939D02*
X11282402Y-16766558D01*
X11282402Y-16766558D02*
X11272878Y-16804654D01*
X11272878Y-16804654D02*
X11263355Y-16823701D01*
X11263355Y-16823701D02*
X11253831Y-16833225D01*
X11253831Y-16833225D02*
X11234783Y-16842749D01*
X11234783Y-16842749D02*
X11215736Y-16842749D01*
X11215736Y-16842749D02*
X11196688Y-16833225D01*
X11196688Y-16833225D02*
X11187164Y-16823701D01*
X11187164Y-16823701D02*
X11177640Y-16804654D01*
X11177640Y-16804654D02*
X11168117Y-16766558D01*
X11168117Y-16766558D02*
X11168117Y-16718939D01*
X11168117Y-16718939D02*
X11177640Y-16680844D01*
X11177640Y-16680844D02*
X11187164Y-16661796D01*
X11187164Y-16661796D02*
X11196688Y-16652273D01*
X11196688Y-16652273D02*
X11215736Y-16642749D01*
X11453831Y-16642749D02*
X11415736Y-16642749D01*
X11415736Y-16642749D02*
X11396688Y-16652273D01*
X11396688Y-16652273D02*
X11387164Y-16661796D01*
X11387164Y-16661796D02*
X11368117Y-16690368D01*
X11368117Y-16690368D02*
X11358593Y-16728463D01*
X11358593Y-16728463D02*
X11358593Y-16804654D01*
X11358593Y-16804654D02*
X11368117Y-16823701D01*
X11368117Y-16823701D02*
X11377640Y-16833225D01*
X11377640Y-16833225D02*
X11396688Y-16842749D01*
X11396688Y-16842749D02*
X11434783Y-16842749D01*
X11434783Y-16842749D02*
X11453831Y-16833225D01*
X11453831Y-16833225D02*
X11463355Y-16823701D01*
X11463355Y-16823701D02*
X11472878Y-16804654D01*
X11472878Y-16804654D02*
X11472878Y-16757034D01*
X11472878Y-16757034D02*
X11463355Y-16737987D01*
X11463355Y-16737987D02*
X11453831Y-16728463D01*
X11453831Y-16728463D02*
X11434783Y-16718939D01*
X11434783Y-16718939D02*
X11396688Y-16718939D01*
X11396688Y-16718939D02*
X11377640Y-16728463D01*
X11377640Y-16728463D02*
X11368117Y-16737987D01*
X11368117Y-16737987D02*
X11358593Y-16757034D01*
X11587164Y-16728463D02*
X11568117Y-16718939D01*
X11568117Y-16718939D02*
X11558593Y-16709415D01*
X11558593Y-16709415D02*
X11549069Y-16690368D01*
X11549069Y-16690368D02*
X11549069Y-16680844D01*
X11549069Y-16680844D02*
X11558593Y-16661796D01*
X11558593Y-16661796D02*
X11568117Y-16652273D01*
X11568117Y-16652273D02*
X11587164Y-16642749D01*
X11587164Y-16642749D02*
X11625259Y-16642749D01*
X11625259Y-16642749D02*
X11644307Y-16652273D01*
X11644307Y-16652273D02*
X11653831Y-16661796D01*
X11653831Y-16661796D02*
X11663355Y-16680844D01*
X11663355Y-16680844D02*
X11663355Y-16690368D01*
X11663355Y-16690368D02*
X11653831Y-16709415D01*
X11653831Y-16709415D02*
X11644307Y-16718939D01*
X11644307Y-16718939D02*
X11625259Y-16728463D01*
X11625259Y-16728463D02*
X11587164Y-16728463D01*
X11587164Y-16728463D02*
X11568117Y-16737987D01*
X11568117Y-16737987D02*
X11558593Y-16747511D01*
X11558593Y-16747511D02*
X11549069Y-16766558D01*
X11549069Y-16766558D02*
X11549069Y-16804654D01*
X11549069Y-16804654D02*
X11558593Y-16823701D01*
X11558593Y-16823701D02*
X11568117Y-16833225D01*
X11568117Y-16833225D02*
X11587164Y-16842749D01*
X11587164Y-16842749D02*
X11625259Y-16842749D01*
X11625259Y-16842749D02*
X11644307Y-16833225D01*
X11644307Y-16833225D02*
X11653831Y-16823701D01*
X11653831Y-16823701D02*
X11663355Y-16804654D01*
X11663355Y-16804654D02*
X11663355Y-16766558D01*
X11663355Y-16766558D02*
X11653831Y-16747511D01*
X11653831Y-16747511D02*
X11644307Y-16737987D01*
X11644307Y-16737987D02*
X11625259Y-16728463D01*
X11758593Y-16842749D02*
X11796688Y-16842749D01*
X11796688Y-16842749D02*
X11815736Y-16833225D01*
X11815736Y-16833225D02*
X11825259Y-16823701D01*
X11825259Y-16823701D02*
X11844307Y-16795130D01*
X11844307Y-16795130D02*
X11853831Y-16757034D01*
X11853831Y-16757034D02*
X11853831Y-16680844D01*
X11853831Y-16680844D02*
X11844307Y-16661796D01*
X11844307Y-16661796D02*
X11834783Y-16652273D01*
X11834783Y-16652273D02*
X11815736Y-16642749D01*
X11815736Y-16642749D02*
X11777640Y-16642749D01*
X11777640Y-16642749D02*
X11758593Y-16652273D01*
X11758593Y-16652273D02*
X11749069Y-16661796D01*
X11749069Y-16661796D02*
X11739545Y-16680844D01*
X11739545Y-16680844D02*
X11739545Y-16728463D01*
X11739545Y-16728463D02*
X11749069Y-16747511D01*
X11749069Y-16747511D02*
X11758593Y-16757034D01*
X11758593Y-16757034D02*
X11777640Y-16766558D01*
X11777640Y-16766558D02*
X11815736Y-16766558D01*
X11815736Y-16766558D02*
X11834783Y-16757034D01*
X11834783Y-16757034D02*
X11844307Y-16747511D01*
X11844307Y-16747511D02*
X11853831Y-16728463D01*
X11930021Y-16642749D02*
X11930021Y-16680844D01*
X12006212Y-16642749D02*
X12006212Y-16680844D01*
X12301450Y-16918939D02*
X12291926Y-16909415D01*
X12291926Y-16909415D02*
X12272879Y-16880844D01*
X12272879Y-16880844D02*
X12263355Y-16861796D01*
X12263355Y-16861796D02*
X12253831Y-16833225D01*
X12253831Y-16833225D02*
X12244307Y-16785606D01*
X12244307Y-16785606D02*
X12244307Y-16747511D01*
X12244307Y-16747511D02*
X12253831Y-16699892D01*
X12253831Y-16699892D02*
X12263355Y-16671320D01*
X12263355Y-16671320D02*
X12272879Y-16652273D01*
X12272879Y-16652273D02*
X12291926Y-16623701D01*
X12291926Y-16623701D02*
X12301450Y-16614177D01*
X12368117Y-16661796D02*
X12377640Y-16652273D01*
X12377640Y-16652273D02*
X12396688Y-16642749D01*
X12396688Y-16642749D02*
X12444307Y-16642749D01*
X12444307Y-16642749D02*
X12463355Y-16652273D01*
X12463355Y-16652273D02*
X12472879Y-16661796D01*
X12472879Y-16661796D02*
X12482402Y-16680844D01*
X12482402Y-16680844D02*
X12482402Y-16699892D01*
X12482402Y-16699892D02*
X12472879Y-16728463D01*
X12472879Y-16728463D02*
X12358593Y-16842749D01*
X12358593Y-16842749D02*
X12482402Y-16842749D01*
X12549069Y-16642749D02*
X12672879Y-16642749D01*
X12672879Y-16642749D02*
X12606212Y-16718939D01*
X12606212Y-16718939D02*
X12634783Y-16718939D01*
X12634783Y-16718939D02*
X12653831Y-16728463D01*
X12653831Y-16728463D02*
X12663355Y-16737987D01*
X12663355Y-16737987D02*
X12672879Y-16757034D01*
X12672879Y-16757034D02*
X12672879Y-16804654D01*
X12672879Y-16804654D02*
X12663355Y-16823701D01*
X12663355Y-16823701D02*
X12653831Y-16833225D01*
X12653831Y-16833225D02*
X12634783Y-16842749D01*
X12634783Y-16842749D02*
X12577640Y-16842749D01*
X12577640Y-16842749D02*
X12558593Y-16833225D01*
X12558593Y-16833225D02*
X12549069Y-16823701D01*
X12787164Y-16728463D02*
X12768117Y-16718939D01*
X12768117Y-16718939D02*
X12758593Y-16709415D01*
X12758593Y-16709415D02*
X12749069Y-16690368D01*
X12749069Y-16690368D02*
X12749069Y-16680844D01*
X12749069Y-16680844D02*
X12758593Y-16661796D01*
X12758593Y-16661796D02*
X12768117Y-16652273D01*
X12768117Y-16652273D02*
X12787164Y-16642749D01*
X12787164Y-16642749D02*
X12825260Y-16642749D01*
X12825260Y-16642749D02*
X12844307Y-16652273D01*
X12844307Y-16652273D02*
X12853831Y-16661796D01*
X12853831Y-16661796D02*
X12863355Y-16680844D01*
X12863355Y-16680844D02*
X12863355Y-16690368D01*
X12863355Y-16690368D02*
X12853831Y-16709415D01*
X12853831Y-16709415D02*
X12844307Y-16718939D01*
X12844307Y-16718939D02*
X12825260Y-16728463D01*
X12825260Y-16728463D02*
X12787164Y-16728463D01*
X12787164Y-16728463D02*
X12768117Y-16737987D01*
X12768117Y-16737987D02*
X12758593Y-16747511D01*
X12758593Y-16747511D02*
X12749069Y-16766558D01*
X12749069Y-16766558D02*
X12749069Y-16804654D01*
X12749069Y-16804654D02*
X12758593Y-16823701D01*
X12758593Y-16823701D02*
X12768117Y-16833225D01*
X12768117Y-16833225D02*
X12787164Y-16842749D01*
X12787164Y-16842749D02*
X12825260Y-16842749D01*
X12825260Y-16842749D02*
X12844307Y-16833225D01*
X12844307Y-16833225D02*
X12853831Y-16823701D01*
X12853831Y-16823701D02*
X12863355Y-16804654D01*
X12863355Y-16804654D02*
X12863355Y-16766558D01*
X12863355Y-16766558D02*
X12853831Y-16747511D01*
X12853831Y-16747511D02*
X12844307Y-16737987D01*
X12844307Y-16737987D02*
X12825260Y-16728463D01*
X13101450Y-16842749D02*
X13101450Y-16642749D01*
X13187164Y-16842749D02*
X13187164Y-16737987D01*
X13187164Y-16737987D02*
X13177641Y-16718939D01*
X13177641Y-16718939D02*
X13158593Y-16709415D01*
X13158593Y-16709415D02*
X13130021Y-16709415D01*
X13130021Y-16709415D02*
X13110974Y-16718939D01*
X13110974Y-16718939D02*
X13101450Y-16728463D01*
X13310974Y-16842749D02*
X13291926Y-16833225D01*
X13291926Y-16833225D02*
X13282402Y-16823701D01*
X13282402Y-16823701D02*
X13272879Y-16804654D01*
X13272879Y-16804654D02*
X13272879Y-16747511D01*
X13272879Y-16747511D02*
X13282402Y-16728463D01*
X13282402Y-16728463D02*
X13291926Y-16718939D01*
X13291926Y-16718939D02*
X13310974Y-16709415D01*
X13310974Y-16709415D02*
X13339545Y-16709415D01*
X13339545Y-16709415D02*
X13358593Y-16718939D01*
X13358593Y-16718939D02*
X13368117Y-16728463D01*
X13368117Y-16728463D02*
X13377641Y-16747511D01*
X13377641Y-16747511D02*
X13377641Y-16804654D01*
X13377641Y-16804654D02*
X13368117Y-16823701D01*
X13368117Y-16823701D02*
X13358593Y-16833225D01*
X13358593Y-16833225D02*
X13339545Y-16842749D01*
X13339545Y-16842749D02*
X13310974Y-16842749D01*
X13491926Y-16842749D02*
X13472879Y-16833225D01*
X13472879Y-16833225D02*
X13463355Y-16814177D01*
X13463355Y-16814177D02*
X13463355Y-16642749D01*
X13644307Y-16833225D02*
X13625260Y-16842749D01*
X13625260Y-16842749D02*
X13587164Y-16842749D01*
X13587164Y-16842749D02*
X13568117Y-16833225D01*
X13568117Y-16833225D02*
X13558593Y-16814177D01*
X13558593Y-16814177D02*
X13558593Y-16737987D01*
X13558593Y-16737987D02*
X13568117Y-16718939D01*
X13568117Y-16718939D02*
X13587164Y-16709415D01*
X13587164Y-16709415D02*
X13625260Y-16709415D01*
X13625260Y-16709415D02*
X13644307Y-16718939D01*
X13644307Y-16718939D02*
X13653831Y-16737987D01*
X13653831Y-16737987D02*
X13653831Y-16757034D01*
X13653831Y-16757034D02*
X13558593Y-16776082D01*
X13730022Y-16833225D02*
X13749069Y-16842749D01*
X13749069Y-16842749D02*
X13787164Y-16842749D01*
X13787164Y-16842749D02*
X13806212Y-16833225D01*
X13806212Y-16833225D02*
X13815736Y-16814177D01*
X13815736Y-16814177D02*
X13815736Y-16804654D01*
X13815736Y-16804654D02*
X13806212Y-16785606D01*
X13806212Y-16785606D02*
X13787164Y-16776082D01*
X13787164Y-16776082D02*
X13758593Y-16776082D01*
X13758593Y-16776082D02*
X13739545Y-16766558D01*
X13739545Y-16766558D02*
X13730022Y-16747511D01*
X13730022Y-16747511D02*
X13730022Y-16737987D01*
X13730022Y-16737987D02*
X13739545Y-16718939D01*
X13739545Y-16718939D02*
X13758593Y-16709415D01*
X13758593Y-16709415D02*
X13787164Y-16709415D01*
X13787164Y-16709415D02*
X13806212Y-16718939D01*
X13882403Y-16918939D02*
X13891926Y-16909415D01*
X13891926Y-16909415D02*
X13910974Y-16880844D01*
X13910974Y-16880844D02*
X13920498Y-16861796D01*
X13920498Y-16861796D02*
X13930022Y-16833225D01*
X13930022Y-16833225D02*
X13939545Y-16785606D01*
X13939545Y-16785606D02*
X13939545Y-16747511D01*
X13939545Y-16747511D02*
X13930022Y-16699892D01*
X13930022Y-16699892D02*
X13920498Y-16671320D01*
X13920498Y-16671320D02*
X13910974Y-16652273D01*
X13910974Y-16652273D02*
X13891926Y-16623701D01*
X13891926Y-16623701D02*
X13882403Y-16614177D01*
X14244307Y-16918939D02*
X14234783Y-16909415D01*
X14234783Y-16909415D02*
X14215736Y-16880844D01*
X14215736Y-16880844D02*
X14206212Y-16861796D01*
X14206212Y-16861796D02*
X14196688Y-16833225D01*
X14196688Y-16833225D02*
X14187164Y-16785606D01*
X14187164Y-16785606D02*
X14187164Y-16747511D01*
X14187164Y-16747511D02*
X14196688Y-16699892D01*
X14196688Y-16699892D02*
X14206212Y-16671320D01*
X14206212Y-16671320D02*
X14215736Y-16652273D01*
X14215736Y-16652273D02*
X14234783Y-16623701D01*
X14234783Y-16623701D02*
X14244307Y-16614177D01*
X14320498Y-16709415D02*
X14320498Y-16842749D01*
X14320498Y-16728463D02*
X14330022Y-16718939D01*
X14330022Y-16718939D02*
X14349069Y-16709415D01*
X14349069Y-16709415D02*
X14377641Y-16709415D01*
X14377641Y-16709415D02*
X14396688Y-16718939D01*
X14396688Y-16718939D02*
X14406212Y-16737987D01*
X14406212Y-16737987D02*
X14406212Y-16842749D01*
X14530022Y-16842749D02*
X14510974Y-16833225D01*
X14510974Y-16833225D02*
X14501450Y-16823701D01*
X14501450Y-16823701D02*
X14491926Y-16804654D01*
X14491926Y-16804654D02*
X14491926Y-16747511D01*
X14491926Y-16747511D02*
X14501450Y-16728463D01*
X14501450Y-16728463D02*
X14510974Y-16718939D01*
X14510974Y-16718939D02*
X14530022Y-16709415D01*
X14530022Y-16709415D02*
X14558593Y-16709415D01*
X14558593Y-16709415D02*
X14577641Y-16718939D01*
X14577641Y-16718939D02*
X14587164Y-16728463D01*
X14587164Y-16728463D02*
X14596688Y-16747511D01*
X14596688Y-16747511D02*
X14596688Y-16804654D01*
X14596688Y-16804654D02*
X14587164Y-16823701D01*
X14587164Y-16823701D02*
X14577641Y-16833225D01*
X14577641Y-16833225D02*
X14558593Y-16842749D01*
X14558593Y-16842749D02*
X14530022Y-16842749D01*
X14653831Y-16709415D02*
X14730022Y-16709415D01*
X14682403Y-16642749D02*
X14682403Y-16814177D01*
X14682403Y-16814177D02*
X14691926Y-16833225D01*
X14691926Y-16833225D02*
X14710974Y-16842749D01*
X14710974Y-16842749D02*
X14730022Y-16842749D01*
X14949069Y-16709415D02*
X14949069Y-16909415D01*
X14949069Y-16718939D02*
X14968117Y-16709415D01*
X14968117Y-16709415D02*
X15006212Y-16709415D01*
X15006212Y-16709415D02*
X15025260Y-16718939D01*
X15025260Y-16718939D02*
X15034784Y-16728463D01*
X15034784Y-16728463D02*
X15044307Y-16747511D01*
X15044307Y-16747511D02*
X15044307Y-16804654D01*
X15044307Y-16804654D02*
X15034784Y-16823701D01*
X15034784Y-16823701D02*
X15025260Y-16833225D01*
X15025260Y-16833225D02*
X15006212Y-16842749D01*
X15006212Y-16842749D02*
X14968117Y-16842749D01*
X14968117Y-16842749D02*
X14949069Y-16833225D01*
X15158593Y-16842749D02*
X15139545Y-16833225D01*
X15139545Y-16833225D02*
X15130022Y-16814177D01*
X15130022Y-16814177D02*
X15130022Y-16642749D01*
X15320498Y-16842749D02*
X15320498Y-16737987D01*
X15320498Y-16737987D02*
X15310974Y-16718939D01*
X15310974Y-16718939D02*
X15291926Y-16709415D01*
X15291926Y-16709415D02*
X15253831Y-16709415D01*
X15253831Y-16709415D02*
X15234784Y-16718939D01*
X15320498Y-16833225D02*
X15301450Y-16842749D01*
X15301450Y-16842749D02*
X15253831Y-16842749D01*
X15253831Y-16842749D02*
X15234784Y-16833225D01*
X15234784Y-16833225D02*
X15225260Y-16814177D01*
X15225260Y-16814177D02*
X15225260Y-16795130D01*
X15225260Y-16795130D02*
X15234784Y-16776082D01*
X15234784Y-16776082D02*
X15253831Y-16766558D01*
X15253831Y-16766558D02*
X15301450Y-16766558D01*
X15301450Y-16766558D02*
X15320498Y-16757034D01*
X15387165Y-16709415D02*
X15463355Y-16709415D01*
X15415736Y-16642749D02*
X15415736Y-16814177D01*
X15415736Y-16814177D02*
X15425260Y-16833225D01*
X15425260Y-16833225D02*
X15444307Y-16842749D01*
X15444307Y-16842749D02*
X15463355Y-16842749D01*
X15606212Y-16833225D02*
X15587165Y-16842749D01*
X15587165Y-16842749D02*
X15549069Y-16842749D01*
X15549069Y-16842749D02*
X15530022Y-16833225D01*
X15530022Y-16833225D02*
X15520498Y-16814177D01*
X15520498Y-16814177D02*
X15520498Y-16737987D01*
X15520498Y-16737987D02*
X15530022Y-16718939D01*
X15530022Y-16718939D02*
X15549069Y-16709415D01*
X15549069Y-16709415D02*
X15587165Y-16709415D01*
X15587165Y-16709415D02*
X15606212Y-16718939D01*
X15606212Y-16718939D02*
X15615736Y-16737987D01*
X15615736Y-16737987D02*
X15615736Y-16757034D01*
X15615736Y-16757034D02*
X15520498Y-16776082D01*
X15787165Y-16842749D02*
X15787165Y-16642749D01*
X15787165Y-16833225D02*
X15768117Y-16842749D01*
X15768117Y-16842749D02*
X15730022Y-16842749D01*
X15730022Y-16842749D02*
X15710974Y-16833225D01*
X15710974Y-16833225D02*
X15701450Y-16823701D01*
X15701450Y-16823701D02*
X15691926Y-16804654D01*
X15691926Y-16804654D02*
X15691926Y-16747511D01*
X15691926Y-16747511D02*
X15701450Y-16728463D01*
X15701450Y-16728463D02*
X15710974Y-16718939D01*
X15710974Y-16718939D02*
X15730022Y-16709415D01*
X15730022Y-16709415D02*
X15768117Y-16709415D01*
X15768117Y-16709415D02*
X15787165Y-16718939D01*
X15863355Y-16918939D02*
X15872879Y-16909415D01*
X15872879Y-16909415D02*
X15891926Y-16880844D01*
X15891926Y-16880844D02*
X15901450Y-16861796D01*
X15901450Y-16861796D02*
X15910974Y-16833225D01*
X15910974Y-16833225D02*
X15920498Y-16785606D01*
X15920498Y-16785606D02*
X15920498Y-16747511D01*
X15920498Y-16747511D02*
X15910974Y-16699892D01*
X15910974Y-16699892D02*
X15901450Y-16671320D01*
X15901450Y-16671320D02*
X15891926Y-16652273D01*
X15891926Y-16652273D02*
X15872879Y-16623701D01*
X15872879Y-16623701D02*
X15863355Y-16614177D01*
X8710256Y-17115936D02*
X8710256Y-16974514D01*
X8568834Y-16974514D01*
X8568834Y-17115936D01*
X8710256Y-17115936D01*
X8977640Y-16956796D02*
X8987164Y-16947273D01*
X8987164Y-16947273D02*
X9006212Y-16937749D01*
X9006212Y-16937749D02*
X9053831Y-16937749D01*
X9053831Y-16937749D02*
X9072878Y-16947273D01*
X9072878Y-16947273D02*
X9082402Y-16956796D01*
X9082402Y-16956796D02*
X9091926Y-16975844D01*
X9091926Y-16975844D02*
X9091926Y-16994892D01*
X9091926Y-16994892D02*
X9082402Y-17023463D01*
X9082402Y-17023463D02*
X8968116Y-17137749D01*
X8968116Y-17137749D02*
X9091926Y-17137749D01*
X9177640Y-17118701D02*
X9187164Y-17128225D01*
X9187164Y-17128225D02*
X9177640Y-17137749D01*
X9177640Y-17137749D02*
X9168116Y-17128225D01*
X9168116Y-17128225D02*
X9177640Y-17118701D01*
X9177640Y-17118701D02*
X9177640Y-17137749D01*
X9263355Y-16956796D02*
X9272878Y-16947273D01*
X9272878Y-16947273D02*
X9291926Y-16937749D01*
X9291926Y-16937749D02*
X9339545Y-16937749D01*
X9339545Y-16937749D02*
X9358593Y-16947273D01*
X9358593Y-16947273D02*
X9368116Y-16956796D01*
X9368116Y-16956796D02*
X9377640Y-16975844D01*
X9377640Y-16975844D02*
X9377640Y-16994892D01*
X9377640Y-16994892D02*
X9368116Y-17023463D01*
X9368116Y-17023463D02*
X9253831Y-17137749D01*
X9253831Y-17137749D02*
X9377640Y-17137749D01*
X9501450Y-16937749D02*
X9520497Y-16937749D01*
X9520497Y-16937749D02*
X9539545Y-16947273D01*
X9539545Y-16947273D02*
X9549069Y-16956796D01*
X9549069Y-16956796D02*
X9558593Y-16975844D01*
X9558593Y-16975844D02*
X9568116Y-17013939D01*
X9568116Y-17013939D02*
X9568116Y-17061558D01*
X9568116Y-17061558D02*
X9558593Y-17099654D01*
X9558593Y-17099654D02*
X9549069Y-17118701D01*
X9549069Y-17118701D02*
X9539545Y-17128225D01*
X9539545Y-17128225D02*
X9520497Y-17137749D01*
X9520497Y-17137749D02*
X9501450Y-17137749D01*
X9501450Y-17137749D02*
X9482402Y-17128225D01*
X9482402Y-17128225D02*
X9472878Y-17118701D01*
X9472878Y-17118701D02*
X9463355Y-17099654D01*
X9463355Y-17099654D02*
X9453831Y-17061558D01*
X9453831Y-17061558D02*
X9453831Y-17013939D01*
X9453831Y-17013939D02*
X9463355Y-16975844D01*
X9463355Y-16975844D02*
X9472878Y-16956796D01*
X9472878Y-16956796D02*
X9482402Y-16947273D01*
X9482402Y-16947273D02*
X9501450Y-16937749D01*
X9691926Y-16937749D02*
X9710974Y-16937749D01*
X9710974Y-16937749D02*
X9730021Y-16947273D01*
X9730021Y-16947273D02*
X9739545Y-16956796D01*
X9739545Y-16956796D02*
X9749069Y-16975844D01*
X9749069Y-16975844D02*
X9758593Y-17013939D01*
X9758593Y-17013939D02*
X9758593Y-17061558D01*
X9758593Y-17061558D02*
X9749069Y-17099654D01*
X9749069Y-17099654D02*
X9739545Y-17118701D01*
X9739545Y-17118701D02*
X9730021Y-17128225D01*
X9730021Y-17128225D02*
X9710974Y-17137749D01*
X9710974Y-17137749D02*
X9691926Y-17137749D01*
X9691926Y-17137749D02*
X9672878Y-17128225D01*
X9672878Y-17128225D02*
X9663355Y-17118701D01*
X9663355Y-17118701D02*
X9653831Y-17099654D01*
X9653831Y-17099654D02*
X9644307Y-17061558D01*
X9644307Y-17061558D02*
X9644307Y-17013939D01*
X9644307Y-17013939D02*
X9653831Y-16975844D01*
X9653831Y-16975844D02*
X9663355Y-16956796D01*
X9663355Y-16956796D02*
X9672878Y-16947273D01*
X9672878Y-16947273D02*
X9691926Y-16937749D01*
X9844307Y-17137749D02*
X9844307Y-17004415D01*
X9844307Y-17023463D02*
X9853831Y-17013939D01*
X9853831Y-17013939D02*
X9872878Y-17004415D01*
X9872878Y-17004415D02*
X9901450Y-17004415D01*
X9901450Y-17004415D02*
X9920497Y-17013939D01*
X9920497Y-17013939D02*
X9930021Y-17032987D01*
X9930021Y-17032987D02*
X9930021Y-17137749D01*
X9930021Y-17032987D02*
X9939545Y-17013939D01*
X9939545Y-17013939D02*
X9958593Y-17004415D01*
X9958593Y-17004415D02*
X9987164Y-17004415D01*
X9987164Y-17004415D02*
X10006212Y-17013939D01*
X10006212Y-17013939D02*
X10015736Y-17032987D01*
X10015736Y-17032987D02*
X10015736Y-17137749D01*
X10110974Y-17137749D02*
X10110974Y-17004415D01*
X10110974Y-17023463D02*
X10120497Y-17013939D01*
X10120497Y-17013939D02*
X10139545Y-17004415D01*
X10139545Y-17004415D02*
X10168117Y-17004415D01*
X10168117Y-17004415D02*
X10187164Y-17013939D01*
X10187164Y-17013939D02*
X10196688Y-17032987D01*
X10196688Y-17032987D02*
X10196688Y-17137749D01*
X10196688Y-17032987D02*
X10206212Y-17013939D01*
X10206212Y-17013939D02*
X10225259Y-17004415D01*
X10225259Y-17004415D02*
X10253831Y-17004415D01*
X10253831Y-17004415D02*
X10272878Y-17013939D01*
X10272878Y-17013939D02*
X10282402Y-17032987D01*
X10282402Y-17032987D02*
X10282402Y-17137749D01*
X10672878Y-16928225D02*
X10501450Y-17185368D01*
X10930021Y-16937749D02*
X10949069Y-16937749D01*
X10949069Y-16937749D02*
X10968117Y-16947273D01*
X10968117Y-16947273D02*
X10977640Y-16956796D01*
X10977640Y-16956796D02*
X10987164Y-16975844D01*
X10987164Y-16975844D02*
X10996688Y-17013939D01*
X10996688Y-17013939D02*
X10996688Y-17061558D01*
X10996688Y-17061558D02*
X10987164Y-17099654D01*
X10987164Y-17099654D02*
X10977640Y-17118701D01*
X10977640Y-17118701D02*
X10968117Y-17128225D01*
X10968117Y-17128225D02*
X10949069Y-17137749D01*
X10949069Y-17137749D02*
X10930021Y-17137749D01*
X10930021Y-17137749D02*
X10910974Y-17128225D01*
X10910974Y-17128225D02*
X10901450Y-17118701D01*
X10901450Y-17118701D02*
X10891926Y-17099654D01*
X10891926Y-17099654D02*
X10882402Y-17061558D01*
X10882402Y-17061558D02*
X10882402Y-17013939D01*
X10882402Y-17013939D02*
X10891926Y-16975844D01*
X10891926Y-16975844D02*
X10901450Y-16956796D01*
X10901450Y-16956796D02*
X10910974Y-16947273D01*
X10910974Y-16947273D02*
X10930021Y-16937749D01*
X11082402Y-17118701D02*
X11091926Y-17128225D01*
X11091926Y-17128225D02*
X11082402Y-17137749D01*
X11082402Y-17137749D02*
X11072879Y-17128225D01*
X11072879Y-17128225D02*
X11082402Y-17118701D01*
X11082402Y-17118701D02*
X11082402Y-17137749D01*
X11215736Y-16937749D02*
X11234783Y-16937749D01*
X11234783Y-16937749D02*
X11253831Y-16947273D01*
X11253831Y-16947273D02*
X11263355Y-16956796D01*
X11263355Y-16956796D02*
X11272878Y-16975844D01*
X11272878Y-16975844D02*
X11282402Y-17013939D01*
X11282402Y-17013939D02*
X11282402Y-17061558D01*
X11282402Y-17061558D02*
X11272878Y-17099654D01*
X11272878Y-17099654D02*
X11263355Y-17118701D01*
X11263355Y-17118701D02*
X11253831Y-17128225D01*
X11253831Y-17128225D02*
X11234783Y-17137749D01*
X11234783Y-17137749D02*
X11215736Y-17137749D01*
X11215736Y-17137749D02*
X11196688Y-17128225D01*
X11196688Y-17128225D02*
X11187164Y-17118701D01*
X11187164Y-17118701D02*
X11177640Y-17099654D01*
X11177640Y-17099654D02*
X11168117Y-17061558D01*
X11168117Y-17061558D02*
X11168117Y-17013939D01*
X11168117Y-17013939D02*
X11177640Y-16975844D01*
X11177640Y-16975844D02*
X11187164Y-16956796D01*
X11187164Y-16956796D02*
X11196688Y-16947273D01*
X11196688Y-16947273D02*
X11215736Y-16937749D01*
X11396688Y-17023463D02*
X11377640Y-17013939D01*
X11377640Y-17013939D02*
X11368117Y-17004415D01*
X11368117Y-17004415D02*
X11358593Y-16985368D01*
X11358593Y-16985368D02*
X11358593Y-16975844D01*
X11358593Y-16975844D02*
X11368117Y-16956796D01*
X11368117Y-16956796D02*
X11377640Y-16947273D01*
X11377640Y-16947273D02*
X11396688Y-16937749D01*
X11396688Y-16937749D02*
X11434783Y-16937749D01*
X11434783Y-16937749D02*
X11453831Y-16947273D01*
X11453831Y-16947273D02*
X11463355Y-16956796D01*
X11463355Y-16956796D02*
X11472878Y-16975844D01*
X11472878Y-16975844D02*
X11472878Y-16985368D01*
X11472878Y-16985368D02*
X11463355Y-17004415D01*
X11463355Y-17004415D02*
X11453831Y-17013939D01*
X11453831Y-17013939D02*
X11434783Y-17023463D01*
X11434783Y-17023463D02*
X11396688Y-17023463D01*
X11396688Y-17023463D02*
X11377640Y-17032987D01*
X11377640Y-17032987D02*
X11368117Y-17042511D01*
X11368117Y-17042511D02*
X11358593Y-17061558D01*
X11358593Y-17061558D02*
X11358593Y-17099654D01*
X11358593Y-17099654D02*
X11368117Y-17118701D01*
X11368117Y-17118701D02*
X11377640Y-17128225D01*
X11377640Y-17128225D02*
X11396688Y-17137749D01*
X11396688Y-17137749D02*
X11434783Y-17137749D01*
X11434783Y-17137749D02*
X11453831Y-17128225D01*
X11453831Y-17128225D02*
X11463355Y-17118701D01*
X11463355Y-17118701D02*
X11472878Y-17099654D01*
X11472878Y-17099654D02*
X11472878Y-17061558D01*
X11472878Y-17061558D02*
X11463355Y-17042511D01*
X11463355Y-17042511D02*
X11453831Y-17032987D01*
X11453831Y-17032987D02*
X11434783Y-17023463D01*
X11644307Y-16937749D02*
X11606212Y-16937749D01*
X11606212Y-16937749D02*
X11587164Y-16947273D01*
X11587164Y-16947273D02*
X11577640Y-16956796D01*
X11577640Y-16956796D02*
X11558593Y-16985368D01*
X11558593Y-16985368D02*
X11549069Y-17023463D01*
X11549069Y-17023463D02*
X11549069Y-17099654D01*
X11549069Y-17099654D02*
X11558593Y-17118701D01*
X11558593Y-17118701D02*
X11568117Y-17128225D01*
X11568117Y-17128225D02*
X11587164Y-17137749D01*
X11587164Y-17137749D02*
X11625259Y-17137749D01*
X11625259Y-17137749D02*
X11644307Y-17128225D01*
X11644307Y-17128225D02*
X11653831Y-17118701D01*
X11653831Y-17118701D02*
X11663355Y-17099654D01*
X11663355Y-17099654D02*
X11663355Y-17052035D01*
X11663355Y-17052035D02*
X11653831Y-17032987D01*
X11653831Y-17032987D02*
X11644307Y-17023463D01*
X11644307Y-17023463D02*
X11625259Y-17013939D01*
X11625259Y-17013939D02*
X11587164Y-17013939D01*
X11587164Y-17013939D02*
X11568117Y-17023463D01*
X11568117Y-17023463D02*
X11558593Y-17032987D01*
X11558593Y-17032987D02*
X11549069Y-17052035D01*
X11834783Y-16937749D02*
X11796688Y-16937749D01*
X11796688Y-16937749D02*
X11777640Y-16947273D01*
X11777640Y-16947273D02*
X11768117Y-16956796D01*
X11768117Y-16956796D02*
X11749069Y-16985368D01*
X11749069Y-16985368D02*
X11739545Y-17023463D01*
X11739545Y-17023463D02*
X11739545Y-17099654D01*
X11739545Y-17099654D02*
X11749069Y-17118701D01*
X11749069Y-17118701D02*
X11758593Y-17128225D01*
X11758593Y-17128225D02*
X11777640Y-17137749D01*
X11777640Y-17137749D02*
X11815736Y-17137749D01*
X11815736Y-17137749D02*
X11834783Y-17128225D01*
X11834783Y-17128225D02*
X11844307Y-17118701D01*
X11844307Y-17118701D02*
X11853831Y-17099654D01*
X11853831Y-17099654D02*
X11853831Y-17052035D01*
X11853831Y-17052035D02*
X11844307Y-17032987D01*
X11844307Y-17032987D02*
X11834783Y-17023463D01*
X11834783Y-17023463D02*
X11815736Y-17013939D01*
X11815736Y-17013939D02*
X11777640Y-17013939D01*
X11777640Y-17013939D02*
X11758593Y-17023463D01*
X11758593Y-17023463D02*
X11749069Y-17032987D01*
X11749069Y-17032987D02*
X11739545Y-17052035D01*
X11930021Y-16937749D02*
X11930021Y-16975844D01*
X12006212Y-16937749D02*
X12006212Y-16975844D01*
X12301450Y-17213939D02*
X12291926Y-17204415D01*
X12291926Y-17204415D02*
X12272879Y-17175844D01*
X12272879Y-17175844D02*
X12263355Y-17156796D01*
X12263355Y-17156796D02*
X12253831Y-17128225D01*
X12253831Y-17128225D02*
X12244307Y-17080606D01*
X12244307Y-17080606D02*
X12244307Y-17042511D01*
X12244307Y-17042511D02*
X12253831Y-16994892D01*
X12253831Y-16994892D02*
X12263355Y-16966320D01*
X12263355Y-16966320D02*
X12272879Y-16947273D01*
X12272879Y-16947273D02*
X12291926Y-16918701D01*
X12291926Y-16918701D02*
X12301450Y-16909177D01*
X12482402Y-17137749D02*
X12368117Y-17137749D01*
X12425259Y-17137749D02*
X12425259Y-16937749D01*
X12425259Y-16937749D02*
X12406212Y-16966320D01*
X12406212Y-16966320D02*
X12387164Y-16985368D01*
X12387164Y-16985368D02*
X12368117Y-16994892D01*
X12663355Y-16937749D02*
X12568117Y-16937749D01*
X12568117Y-16937749D02*
X12558593Y-17032987D01*
X12558593Y-17032987D02*
X12568117Y-17023463D01*
X12568117Y-17023463D02*
X12587164Y-17013939D01*
X12587164Y-17013939D02*
X12634783Y-17013939D01*
X12634783Y-17013939D02*
X12653831Y-17023463D01*
X12653831Y-17023463D02*
X12663355Y-17032987D01*
X12663355Y-17032987D02*
X12672879Y-17052035D01*
X12672879Y-17052035D02*
X12672879Y-17099654D01*
X12672879Y-17099654D02*
X12663355Y-17118701D01*
X12663355Y-17118701D02*
X12653831Y-17128225D01*
X12653831Y-17128225D02*
X12634783Y-17137749D01*
X12634783Y-17137749D02*
X12587164Y-17137749D01*
X12587164Y-17137749D02*
X12568117Y-17128225D01*
X12568117Y-17128225D02*
X12558593Y-17118701D01*
X12910974Y-17137749D02*
X12910974Y-16937749D01*
X12996688Y-17137749D02*
X12996688Y-17032987D01*
X12996688Y-17032987D02*
X12987164Y-17013939D01*
X12987164Y-17013939D02*
X12968117Y-17004415D01*
X12968117Y-17004415D02*
X12939545Y-17004415D01*
X12939545Y-17004415D02*
X12920498Y-17013939D01*
X12920498Y-17013939D02*
X12910974Y-17023463D01*
X13120498Y-17137749D02*
X13101450Y-17128225D01*
X13101450Y-17128225D02*
X13091926Y-17118701D01*
X13091926Y-17118701D02*
X13082402Y-17099654D01*
X13082402Y-17099654D02*
X13082402Y-17042511D01*
X13082402Y-17042511D02*
X13091926Y-17023463D01*
X13091926Y-17023463D02*
X13101450Y-17013939D01*
X13101450Y-17013939D02*
X13120498Y-17004415D01*
X13120498Y-17004415D02*
X13149069Y-17004415D01*
X13149069Y-17004415D02*
X13168117Y-17013939D01*
X13168117Y-17013939D02*
X13177641Y-17023463D01*
X13177641Y-17023463D02*
X13187164Y-17042511D01*
X13187164Y-17042511D02*
X13187164Y-17099654D01*
X13187164Y-17099654D02*
X13177641Y-17118701D01*
X13177641Y-17118701D02*
X13168117Y-17128225D01*
X13168117Y-17128225D02*
X13149069Y-17137749D01*
X13149069Y-17137749D02*
X13120498Y-17137749D01*
X13301450Y-17137749D02*
X13282402Y-17128225D01*
X13282402Y-17128225D02*
X13272879Y-17109177D01*
X13272879Y-17109177D02*
X13272879Y-16937749D01*
X13453831Y-17128225D02*
X13434783Y-17137749D01*
X13434783Y-17137749D02*
X13396688Y-17137749D01*
X13396688Y-17137749D02*
X13377641Y-17128225D01*
X13377641Y-17128225D02*
X13368117Y-17109177D01*
X13368117Y-17109177D02*
X13368117Y-17032987D01*
X13368117Y-17032987D02*
X13377641Y-17013939D01*
X13377641Y-17013939D02*
X13396688Y-17004415D01*
X13396688Y-17004415D02*
X13434783Y-17004415D01*
X13434783Y-17004415D02*
X13453831Y-17013939D01*
X13453831Y-17013939D02*
X13463355Y-17032987D01*
X13463355Y-17032987D02*
X13463355Y-17052035D01*
X13463355Y-17052035D02*
X13368117Y-17071082D01*
X13539545Y-17128225D02*
X13558593Y-17137749D01*
X13558593Y-17137749D02*
X13596688Y-17137749D01*
X13596688Y-17137749D02*
X13615736Y-17128225D01*
X13615736Y-17128225D02*
X13625260Y-17109177D01*
X13625260Y-17109177D02*
X13625260Y-17099654D01*
X13625260Y-17099654D02*
X13615736Y-17080606D01*
X13615736Y-17080606D02*
X13596688Y-17071082D01*
X13596688Y-17071082D02*
X13568117Y-17071082D01*
X13568117Y-17071082D02*
X13549069Y-17061558D01*
X13549069Y-17061558D02*
X13539545Y-17042511D01*
X13539545Y-17042511D02*
X13539545Y-17032987D01*
X13539545Y-17032987D02*
X13549069Y-17013939D01*
X13549069Y-17013939D02*
X13568117Y-17004415D01*
X13568117Y-17004415D02*
X13596688Y-17004415D01*
X13596688Y-17004415D02*
X13615736Y-17013939D01*
X13691926Y-17213939D02*
X13701450Y-17204415D01*
X13701450Y-17204415D02*
X13720498Y-17175844D01*
X13720498Y-17175844D02*
X13730022Y-17156796D01*
X13730022Y-17156796D02*
X13739545Y-17128225D01*
X13739545Y-17128225D02*
X13749069Y-17080606D01*
X13749069Y-17080606D02*
X13749069Y-17042511D01*
X13749069Y-17042511D02*
X13739545Y-16994892D01*
X13739545Y-16994892D02*
X13730022Y-16966320D01*
X13730022Y-16966320D02*
X13720498Y-16947273D01*
X13720498Y-16947273D02*
X13701450Y-16918701D01*
X13701450Y-16918701D02*
X13691926Y-16909177D01*
X14053831Y-17213939D02*
X14044307Y-17204415D01*
X14044307Y-17204415D02*
X14025260Y-17175844D01*
X14025260Y-17175844D02*
X14015736Y-17156796D01*
X14015736Y-17156796D02*
X14006212Y-17128225D01*
X14006212Y-17128225D02*
X13996688Y-17080606D01*
X13996688Y-17080606D02*
X13996688Y-17042511D01*
X13996688Y-17042511D02*
X14006212Y-16994892D01*
X14006212Y-16994892D02*
X14015736Y-16966320D01*
X14015736Y-16966320D02*
X14025260Y-16947273D01*
X14025260Y-16947273D02*
X14044307Y-16918701D01*
X14044307Y-16918701D02*
X14053831Y-16909177D01*
X14130022Y-17004415D02*
X14130022Y-17137749D01*
X14130022Y-17023463D02*
X14139545Y-17013939D01*
X14139545Y-17013939D02*
X14158593Y-17004415D01*
X14158593Y-17004415D02*
X14187164Y-17004415D01*
X14187164Y-17004415D02*
X14206212Y-17013939D01*
X14206212Y-17013939D02*
X14215736Y-17032987D01*
X14215736Y-17032987D02*
X14215736Y-17137749D01*
X14339545Y-17137749D02*
X14320498Y-17128225D01*
X14320498Y-17128225D02*
X14310974Y-17118701D01*
X14310974Y-17118701D02*
X14301450Y-17099654D01*
X14301450Y-17099654D02*
X14301450Y-17042511D01*
X14301450Y-17042511D02*
X14310974Y-17023463D01*
X14310974Y-17023463D02*
X14320498Y-17013939D01*
X14320498Y-17013939D02*
X14339545Y-17004415D01*
X14339545Y-17004415D02*
X14368117Y-17004415D01*
X14368117Y-17004415D02*
X14387164Y-17013939D01*
X14387164Y-17013939D02*
X14396688Y-17023463D01*
X14396688Y-17023463D02*
X14406212Y-17042511D01*
X14406212Y-17042511D02*
X14406212Y-17099654D01*
X14406212Y-17099654D02*
X14396688Y-17118701D01*
X14396688Y-17118701D02*
X14387164Y-17128225D01*
X14387164Y-17128225D02*
X14368117Y-17137749D01*
X14368117Y-17137749D02*
X14339545Y-17137749D01*
X14463355Y-17004415D02*
X14539545Y-17004415D01*
X14491926Y-16937749D02*
X14491926Y-17109177D01*
X14491926Y-17109177D02*
X14501450Y-17128225D01*
X14501450Y-17128225D02*
X14520498Y-17137749D01*
X14520498Y-17137749D02*
X14539545Y-17137749D01*
X14758593Y-17004415D02*
X14758593Y-17204415D01*
X14758593Y-17013939D02*
X14777641Y-17004415D01*
X14777641Y-17004415D02*
X14815736Y-17004415D01*
X14815736Y-17004415D02*
X14834784Y-17013939D01*
X14834784Y-17013939D02*
X14844307Y-17023463D01*
X14844307Y-17023463D02*
X14853831Y-17042511D01*
X14853831Y-17042511D02*
X14853831Y-17099654D01*
X14853831Y-17099654D02*
X14844307Y-17118701D01*
X14844307Y-17118701D02*
X14834784Y-17128225D01*
X14834784Y-17128225D02*
X14815736Y-17137749D01*
X14815736Y-17137749D02*
X14777641Y-17137749D01*
X14777641Y-17137749D02*
X14758593Y-17128225D01*
X14968117Y-17137749D02*
X14949069Y-17128225D01*
X14949069Y-17128225D02*
X14939545Y-17109177D01*
X14939545Y-17109177D02*
X14939545Y-16937749D01*
X15130022Y-17137749D02*
X15130022Y-17032987D01*
X15130022Y-17032987D02*
X15120498Y-17013939D01*
X15120498Y-17013939D02*
X15101450Y-17004415D01*
X15101450Y-17004415D02*
X15063355Y-17004415D01*
X15063355Y-17004415D02*
X15044307Y-17013939D01*
X15130022Y-17128225D02*
X15110974Y-17137749D01*
X15110974Y-17137749D02*
X15063355Y-17137749D01*
X15063355Y-17137749D02*
X15044307Y-17128225D01*
X15044307Y-17128225D02*
X15034784Y-17109177D01*
X15034784Y-17109177D02*
X15034784Y-17090130D01*
X15034784Y-17090130D02*
X15044307Y-17071082D01*
X15044307Y-17071082D02*
X15063355Y-17061558D01*
X15063355Y-17061558D02*
X15110974Y-17061558D01*
X15110974Y-17061558D02*
X15130022Y-17052035D01*
X15196688Y-17004415D02*
X15272879Y-17004415D01*
X15225260Y-16937749D02*
X15225260Y-17109177D01*
X15225260Y-17109177D02*
X15234784Y-17128225D01*
X15234784Y-17128225D02*
X15253831Y-17137749D01*
X15253831Y-17137749D02*
X15272879Y-17137749D01*
X15415736Y-17128225D02*
X15396688Y-17137749D01*
X15396688Y-17137749D02*
X15358593Y-17137749D01*
X15358593Y-17137749D02*
X15339545Y-17128225D01*
X15339545Y-17128225D02*
X15330022Y-17109177D01*
X15330022Y-17109177D02*
X15330022Y-17032987D01*
X15330022Y-17032987D02*
X15339545Y-17013939D01*
X15339545Y-17013939D02*
X15358593Y-17004415D01*
X15358593Y-17004415D02*
X15396688Y-17004415D01*
X15396688Y-17004415D02*
X15415736Y-17013939D01*
X15415736Y-17013939D02*
X15425260Y-17032987D01*
X15425260Y-17032987D02*
X15425260Y-17052035D01*
X15425260Y-17052035D02*
X15330022Y-17071082D01*
X15596688Y-17137749D02*
X15596688Y-16937749D01*
X15596688Y-17128225D02*
X15577641Y-17137749D01*
X15577641Y-17137749D02*
X15539545Y-17137749D01*
X15539545Y-17137749D02*
X15520498Y-17128225D01*
X15520498Y-17128225D02*
X15510974Y-17118701D01*
X15510974Y-17118701D02*
X15501450Y-17099654D01*
X15501450Y-17099654D02*
X15501450Y-17042511D01*
X15501450Y-17042511D02*
X15510974Y-17023463D01*
X15510974Y-17023463D02*
X15520498Y-17013939D01*
X15520498Y-17013939D02*
X15539545Y-17004415D01*
X15539545Y-17004415D02*
X15577641Y-17004415D01*
X15577641Y-17004415D02*
X15596688Y-17013939D01*
X15672879Y-17213939D02*
X15682403Y-17204415D01*
X15682403Y-17204415D02*
X15701450Y-17175844D01*
X15701450Y-17175844D02*
X15710974Y-17156796D01*
X15710974Y-17156796D02*
X15720498Y-17128225D01*
X15720498Y-17128225D02*
X15730022Y-17080606D01*
X15730022Y-17080606D02*
X15730022Y-17042511D01*
X15730022Y-17042511D02*
X15720498Y-16994892D01*
X15720498Y-16994892D02*
X15710974Y-16966320D01*
X15710974Y-16966320D02*
X15701450Y-16947273D01*
X15701450Y-16947273D02*
X15682403Y-16918701D01*
X15682403Y-16918701D02*
X15672879Y-16909177D01*
X8639545Y-17465225D02*
X8739545Y-17365225D01*
X8639545Y-17265225D01*
X8539545Y-17365225D01*
X8639545Y-17465225D01*
X8968116Y-17257749D02*
X9091926Y-17257749D01*
X9091926Y-17257749D02*
X9025259Y-17333939D01*
X9025259Y-17333939D02*
X9053831Y-17333939D01*
X9053831Y-17333939D02*
X9072878Y-17343463D01*
X9072878Y-17343463D02*
X9082402Y-17352987D01*
X9082402Y-17352987D02*
X9091926Y-17372035D01*
X9091926Y-17372035D02*
X9091926Y-17419654D01*
X9091926Y-17419654D02*
X9082402Y-17438701D01*
X9082402Y-17438701D02*
X9072878Y-17448225D01*
X9072878Y-17448225D02*
X9053831Y-17457749D01*
X9053831Y-17457749D02*
X8996688Y-17457749D01*
X8996688Y-17457749D02*
X8977640Y-17448225D01*
X8977640Y-17448225D02*
X8968116Y-17438701D01*
X9177640Y-17438701D02*
X9187164Y-17448225D01*
X9187164Y-17448225D02*
X9177640Y-17457749D01*
X9177640Y-17457749D02*
X9168116Y-17448225D01*
X9168116Y-17448225D02*
X9177640Y-17438701D01*
X9177640Y-17438701D02*
X9177640Y-17457749D01*
X9310974Y-17257749D02*
X9330021Y-17257749D01*
X9330021Y-17257749D02*
X9349069Y-17267273D01*
X9349069Y-17267273D02*
X9358593Y-17276796D01*
X9358593Y-17276796D02*
X9368116Y-17295844D01*
X9368116Y-17295844D02*
X9377640Y-17333939D01*
X9377640Y-17333939D02*
X9377640Y-17381558D01*
X9377640Y-17381558D02*
X9368116Y-17419654D01*
X9368116Y-17419654D02*
X9358593Y-17438701D01*
X9358593Y-17438701D02*
X9349069Y-17448225D01*
X9349069Y-17448225D02*
X9330021Y-17457749D01*
X9330021Y-17457749D02*
X9310974Y-17457749D01*
X9310974Y-17457749D02*
X9291926Y-17448225D01*
X9291926Y-17448225D02*
X9282402Y-17438701D01*
X9282402Y-17438701D02*
X9272878Y-17419654D01*
X9272878Y-17419654D02*
X9263355Y-17381558D01*
X9263355Y-17381558D02*
X9263355Y-17333939D01*
X9263355Y-17333939D02*
X9272878Y-17295844D01*
X9272878Y-17295844D02*
X9282402Y-17276796D01*
X9282402Y-17276796D02*
X9291926Y-17267273D01*
X9291926Y-17267273D02*
X9310974Y-17257749D01*
X9549069Y-17324415D02*
X9549069Y-17457749D01*
X9501450Y-17248225D02*
X9453831Y-17391082D01*
X9453831Y-17391082D02*
X9577640Y-17391082D01*
X9682402Y-17343463D02*
X9663355Y-17333939D01*
X9663355Y-17333939D02*
X9653831Y-17324415D01*
X9653831Y-17324415D02*
X9644307Y-17305368D01*
X9644307Y-17305368D02*
X9644307Y-17295844D01*
X9644307Y-17295844D02*
X9653831Y-17276796D01*
X9653831Y-17276796D02*
X9663355Y-17267273D01*
X9663355Y-17267273D02*
X9682402Y-17257749D01*
X9682402Y-17257749D02*
X9720497Y-17257749D01*
X9720497Y-17257749D02*
X9739545Y-17267273D01*
X9739545Y-17267273D02*
X9749069Y-17276796D01*
X9749069Y-17276796D02*
X9758593Y-17295844D01*
X9758593Y-17295844D02*
X9758593Y-17305368D01*
X9758593Y-17305368D02*
X9749069Y-17324415D01*
X9749069Y-17324415D02*
X9739545Y-17333939D01*
X9739545Y-17333939D02*
X9720497Y-17343463D01*
X9720497Y-17343463D02*
X9682402Y-17343463D01*
X9682402Y-17343463D02*
X9663355Y-17352987D01*
X9663355Y-17352987D02*
X9653831Y-17362511D01*
X9653831Y-17362511D02*
X9644307Y-17381558D01*
X9644307Y-17381558D02*
X9644307Y-17419654D01*
X9644307Y-17419654D02*
X9653831Y-17438701D01*
X9653831Y-17438701D02*
X9663355Y-17448225D01*
X9663355Y-17448225D02*
X9682402Y-17457749D01*
X9682402Y-17457749D02*
X9720497Y-17457749D01*
X9720497Y-17457749D02*
X9739545Y-17448225D01*
X9739545Y-17448225D02*
X9749069Y-17438701D01*
X9749069Y-17438701D02*
X9758593Y-17419654D01*
X9758593Y-17419654D02*
X9758593Y-17381558D01*
X9758593Y-17381558D02*
X9749069Y-17362511D01*
X9749069Y-17362511D02*
X9739545Y-17352987D01*
X9739545Y-17352987D02*
X9720497Y-17343463D01*
X9844307Y-17457749D02*
X9844307Y-17324415D01*
X9844307Y-17343463D02*
X9853831Y-17333939D01*
X9853831Y-17333939D02*
X9872878Y-17324415D01*
X9872878Y-17324415D02*
X9901450Y-17324415D01*
X9901450Y-17324415D02*
X9920497Y-17333939D01*
X9920497Y-17333939D02*
X9930021Y-17352987D01*
X9930021Y-17352987D02*
X9930021Y-17457749D01*
X9930021Y-17352987D02*
X9939545Y-17333939D01*
X9939545Y-17333939D02*
X9958593Y-17324415D01*
X9958593Y-17324415D02*
X9987164Y-17324415D01*
X9987164Y-17324415D02*
X10006212Y-17333939D01*
X10006212Y-17333939D02*
X10015736Y-17352987D01*
X10015736Y-17352987D02*
X10015736Y-17457749D01*
X10110974Y-17457749D02*
X10110974Y-17324415D01*
X10110974Y-17343463D02*
X10120497Y-17333939D01*
X10120497Y-17333939D02*
X10139545Y-17324415D01*
X10139545Y-17324415D02*
X10168117Y-17324415D01*
X10168117Y-17324415D02*
X10187164Y-17333939D01*
X10187164Y-17333939D02*
X10196688Y-17352987D01*
X10196688Y-17352987D02*
X10196688Y-17457749D01*
X10196688Y-17352987D02*
X10206212Y-17333939D01*
X10206212Y-17333939D02*
X10225259Y-17324415D01*
X10225259Y-17324415D02*
X10253831Y-17324415D01*
X10253831Y-17324415D02*
X10272878Y-17333939D01*
X10272878Y-17333939D02*
X10282402Y-17352987D01*
X10282402Y-17352987D02*
X10282402Y-17457749D01*
X10672878Y-17248225D02*
X10501450Y-17505368D01*
X10930021Y-17257749D02*
X10949069Y-17257749D01*
X10949069Y-17257749D02*
X10968117Y-17267273D01*
X10968117Y-17267273D02*
X10977640Y-17276796D01*
X10977640Y-17276796D02*
X10987164Y-17295844D01*
X10987164Y-17295844D02*
X10996688Y-17333939D01*
X10996688Y-17333939D02*
X10996688Y-17381558D01*
X10996688Y-17381558D02*
X10987164Y-17419654D01*
X10987164Y-17419654D02*
X10977640Y-17438701D01*
X10977640Y-17438701D02*
X10968117Y-17448225D01*
X10968117Y-17448225D02*
X10949069Y-17457749D01*
X10949069Y-17457749D02*
X10930021Y-17457749D01*
X10930021Y-17457749D02*
X10910974Y-17448225D01*
X10910974Y-17448225D02*
X10901450Y-17438701D01*
X10901450Y-17438701D02*
X10891926Y-17419654D01*
X10891926Y-17419654D02*
X10882402Y-17381558D01*
X10882402Y-17381558D02*
X10882402Y-17333939D01*
X10882402Y-17333939D02*
X10891926Y-17295844D01*
X10891926Y-17295844D02*
X10901450Y-17276796D01*
X10901450Y-17276796D02*
X10910974Y-17267273D01*
X10910974Y-17267273D02*
X10930021Y-17257749D01*
X11082402Y-17438701D02*
X11091926Y-17448225D01*
X11091926Y-17448225D02*
X11082402Y-17457749D01*
X11082402Y-17457749D02*
X11072879Y-17448225D01*
X11072879Y-17448225D02*
X11082402Y-17438701D01*
X11082402Y-17438701D02*
X11082402Y-17457749D01*
X11282402Y-17457749D02*
X11168117Y-17457749D01*
X11225259Y-17457749D02*
X11225259Y-17257749D01*
X11225259Y-17257749D02*
X11206212Y-17286320D01*
X11206212Y-17286320D02*
X11187164Y-17305368D01*
X11187164Y-17305368D02*
X11168117Y-17314892D01*
X11358593Y-17276796D02*
X11368117Y-17267273D01*
X11368117Y-17267273D02*
X11387164Y-17257749D01*
X11387164Y-17257749D02*
X11434783Y-17257749D01*
X11434783Y-17257749D02*
X11453831Y-17267273D01*
X11453831Y-17267273D02*
X11463355Y-17276796D01*
X11463355Y-17276796D02*
X11472878Y-17295844D01*
X11472878Y-17295844D02*
X11472878Y-17314892D01*
X11472878Y-17314892D02*
X11463355Y-17343463D01*
X11463355Y-17343463D02*
X11349069Y-17457749D01*
X11349069Y-17457749D02*
X11472878Y-17457749D01*
X11596688Y-17257749D02*
X11615736Y-17257749D01*
X11615736Y-17257749D02*
X11634783Y-17267273D01*
X11634783Y-17267273D02*
X11644307Y-17276796D01*
X11644307Y-17276796D02*
X11653831Y-17295844D01*
X11653831Y-17295844D02*
X11663355Y-17333939D01*
X11663355Y-17333939D02*
X11663355Y-17381558D01*
X11663355Y-17381558D02*
X11653831Y-17419654D01*
X11653831Y-17419654D02*
X11644307Y-17438701D01*
X11644307Y-17438701D02*
X11634783Y-17448225D01*
X11634783Y-17448225D02*
X11615736Y-17457749D01*
X11615736Y-17457749D02*
X11596688Y-17457749D01*
X11596688Y-17457749D02*
X11577640Y-17448225D01*
X11577640Y-17448225D02*
X11568117Y-17438701D01*
X11568117Y-17438701D02*
X11558593Y-17419654D01*
X11558593Y-17419654D02*
X11549069Y-17381558D01*
X11549069Y-17381558D02*
X11549069Y-17333939D01*
X11549069Y-17333939D02*
X11558593Y-17295844D01*
X11558593Y-17295844D02*
X11568117Y-17276796D01*
X11568117Y-17276796D02*
X11577640Y-17267273D01*
X11577640Y-17267273D02*
X11596688Y-17257749D01*
X11787164Y-17257749D02*
X11806212Y-17257749D01*
X11806212Y-17257749D02*
X11825259Y-17267273D01*
X11825259Y-17267273D02*
X11834783Y-17276796D01*
X11834783Y-17276796D02*
X11844307Y-17295844D01*
X11844307Y-17295844D02*
X11853831Y-17333939D01*
X11853831Y-17333939D02*
X11853831Y-17381558D01*
X11853831Y-17381558D02*
X11844307Y-17419654D01*
X11844307Y-17419654D02*
X11834783Y-17438701D01*
X11834783Y-17438701D02*
X11825259Y-17448225D01*
X11825259Y-17448225D02*
X11806212Y-17457749D01*
X11806212Y-17457749D02*
X11787164Y-17457749D01*
X11787164Y-17457749D02*
X11768117Y-17448225D01*
X11768117Y-17448225D02*
X11758593Y-17438701D01*
X11758593Y-17438701D02*
X11749069Y-17419654D01*
X11749069Y-17419654D02*
X11739545Y-17381558D01*
X11739545Y-17381558D02*
X11739545Y-17333939D01*
X11739545Y-17333939D02*
X11749069Y-17295844D01*
X11749069Y-17295844D02*
X11758593Y-17276796D01*
X11758593Y-17276796D02*
X11768117Y-17267273D01*
X11768117Y-17267273D02*
X11787164Y-17257749D01*
X11930021Y-17257749D02*
X11930021Y-17295844D01*
X12006212Y-17257749D02*
X12006212Y-17295844D01*
X12301450Y-17533939D02*
X12291926Y-17524415D01*
X12291926Y-17524415D02*
X12272879Y-17495844D01*
X12272879Y-17495844D02*
X12263355Y-17476796D01*
X12263355Y-17476796D02*
X12253831Y-17448225D01*
X12253831Y-17448225D02*
X12244307Y-17400606D01*
X12244307Y-17400606D02*
X12244307Y-17362511D01*
X12244307Y-17362511D02*
X12253831Y-17314892D01*
X12253831Y-17314892D02*
X12263355Y-17286320D01*
X12263355Y-17286320D02*
X12272879Y-17267273D01*
X12272879Y-17267273D02*
X12291926Y-17238701D01*
X12291926Y-17238701D02*
X12301450Y-17229177D01*
X12482402Y-17457749D02*
X12368117Y-17457749D01*
X12425259Y-17457749D02*
X12425259Y-17257749D01*
X12425259Y-17257749D02*
X12406212Y-17286320D01*
X12406212Y-17286320D02*
X12387164Y-17305368D01*
X12387164Y-17305368D02*
X12368117Y-17314892D01*
X12558593Y-17276796D02*
X12568117Y-17267273D01*
X12568117Y-17267273D02*
X12587164Y-17257749D01*
X12587164Y-17257749D02*
X12634783Y-17257749D01*
X12634783Y-17257749D02*
X12653831Y-17267273D01*
X12653831Y-17267273D02*
X12663355Y-17276796D01*
X12663355Y-17276796D02*
X12672879Y-17295844D01*
X12672879Y-17295844D02*
X12672879Y-17314892D01*
X12672879Y-17314892D02*
X12663355Y-17343463D01*
X12663355Y-17343463D02*
X12549069Y-17457749D01*
X12549069Y-17457749D02*
X12672879Y-17457749D01*
X12910974Y-17457749D02*
X12910974Y-17257749D01*
X12996688Y-17457749D02*
X12996688Y-17352987D01*
X12996688Y-17352987D02*
X12987164Y-17333939D01*
X12987164Y-17333939D02*
X12968117Y-17324415D01*
X12968117Y-17324415D02*
X12939545Y-17324415D01*
X12939545Y-17324415D02*
X12920498Y-17333939D01*
X12920498Y-17333939D02*
X12910974Y-17343463D01*
X13120498Y-17457749D02*
X13101450Y-17448225D01*
X13101450Y-17448225D02*
X13091926Y-17438701D01*
X13091926Y-17438701D02*
X13082402Y-17419654D01*
X13082402Y-17419654D02*
X13082402Y-17362511D01*
X13082402Y-17362511D02*
X13091926Y-17343463D01*
X13091926Y-17343463D02*
X13101450Y-17333939D01*
X13101450Y-17333939D02*
X13120498Y-17324415D01*
X13120498Y-17324415D02*
X13149069Y-17324415D01*
X13149069Y-17324415D02*
X13168117Y-17333939D01*
X13168117Y-17333939D02*
X13177641Y-17343463D01*
X13177641Y-17343463D02*
X13187164Y-17362511D01*
X13187164Y-17362511D02*
X13187164Y-17419654D01*
X13187164Y-17419654D02*
X13177641Y-17438701D01*
X13177641Y-17438701D02*
X13168117Y-17448225D01*
X13168117Y-17448225D02*
X13149069Y-17457749D01*
X13149069Y-17457749D02*
X13120498Y-17457749D01*
X13301450Y-17457749D02*
X13282402Y-17448225D01*
X13282402Y-17448225D02*
X13272879Y-17429177D01*
X13272879Y-17429177D02*
X13272879Y-17257749D01*
X13453831Y-17448225D02*
X13434783Y-17457749D01*
X13434783Y-17457749D02*
X13396688Y-17457749D01*
X13396688Y-17457749D02*
X13377641Y-17448225D01*
X13377641Y-17448225D02*
X13368117Y-17429177D01*
X13368117Y-17429177D02*
X13368117Y-17352987D01*
X13368117Y-17352987D02*
X13377641Y-17333939D01*
X13377641Y-17333939D02*
X13396688Y-17324415D01*
X13396688Y-17324415D02*
X13434783Y-17324415D01*
X13434783Y-17324415D02*
X13453831Y-17333939D01*
X13453831Y-17333939D02*
X13463355Y-17352987D01*
X13463355Y-17352987D02*
X13463355Y-17372035D01*
X13463355Y-17372035D02*
X13368117Y-17391082D01*
X13539545Y-17448225D02*
X13558593Y-17457749D01*
X13558593Y-17457749D02*
X13596688Y-17457749D01*
X13596688Y-17457749D02*
X13615736Y-17448225D01*
X13615736Y-17448225D02*
X13625260Y-17429177D01*
X13625260Y-17429177D02*
X13625260Y-17419654D01*
X13625260Y-17419654D02*
X13615736Y-17400606D01*
X13615736Y-17400606D02*
X13596688Y-17391082D01*
X13596688Y-17391082D02*
X13568117Y-17391082D01*
X13568117Y-17391082D02*
X13549069Y-17381558D01*
X13549069Y-17381558D02*
X13539545Y-17362511D01*
X13539545Y-17362511D02*
X13539545Y-17352987D01*
X13539545Y-17352987D02*
X13549069Y-17333939D01*
X13549069Y-17333939D02*
X13568117Y-17324415D01*
X13568117Y-17324415D02*
X13596688Y-17324415D01*
X13596688Y-17324415D02*
X13615736Y-17333939D01*
X13691926Y-17533939D02*
X13701450Y-17524415D01*
X13701450Y-17524415D02*
X13720498Y-17495844D01*
X13720498Y-17495844D02*
X13730022Y-17476796D01*
X13730022Y-17476796D02*
X13739545Y-17448225D01*
X13739545Y-17448225D02*
X13749069Y-17400606D01*
X13749069Y-17400606D02*
X13749069Y-17362511D01*
X13749069Y-17362511D02*
X13739545Y-17314892D01*
X13739545Y-17314892D02*
X13730022Y-17286320D01*
X13730022Y-17286320D02*
X13720498Y-17267273D01*
X13720498Y-17267273D02*
X13701450Y-17238701D01*
X13701450Y-17238701D02*
X13691926Y-17229177D01*
X14053831Y-17533939D02*
X14044307Y-17524415D01*
X14044307Y-17524415D02*
X14025260Y-17495844D01*
X14025260Y-17495844D02*
X14015736Y-17476796D01*
X14015736Y-17476796D02*
X14006212Y-17448225D01*
X14006212Y-17448225D02*
X13996688Y-17400606D01*
X13996688Y-17400606D02*
X13996688Y-17362511D01*
X13996688Y-17362511D02*
X14006212Y-17314892D01*
X14006212Y-17314892D02*
X14015736Y-17286320D01*
X14015736Y-17286320D02*
X14025260Y-17267273D01*
X14025260Y-17267273D02*
X14044307Y-17238701D01*
X14044307Y-17238701D02*
X14053831Y-17229177D01*
X14130022Y-17324415D02*
X14130022Y-17457749D01*
X14130022Y-17343463D02*
X14139545Y-17333939D01*
X14139545Y-17333939D02*
X14158593Y-17324415D01*
X14158593Y-17324415D02*
X14187164Y-17324415D01*
X14187164Y-17324415D02*
X14206212Y-17333939D01*
X14206212Y-17333939D02*
X14215736Y-17352987D01*
X14215736Y-17352987D02*
X14215736Y-17457749D01*
X14339545Y-17457749D02*
X14320498Y-17448225D01*
X14320498Y-17448225D02*
X14310974Y-17438701D01*
X14310974Y-17438701D02*
X14301450Y-17419654D01*
X14301450Y-17419654D02*
X14301450Y-17362511D01*
X14301450Y-17362511D02*
X14310974Y-17343463D01*
X14310974Y-17343463D02*
X14320498Y-17333939D01*
X14320498Y-17333939D02*
X14339545Y-17324415D01*
X14339545Y-17324415D02*
X14368117Y-17324415D01*
X14368117Y-17324415D02*
X14387164Y-17333939D01*
X14387164Y-17333939D02*
X14396688Y-17343463D01*
X14396688Y-17343463D02*
X14406212Y-17362511D01*
X14406212Y-17362511D02*
X14406212Y-17419654D01*
X14406212Y-17419654D02*
X14396688Y-17438701D01*
X14396688Y-17438701D02*
X14387164Y-17448225D01*
X14387164Y-17448225D02*
X14368117Y-17457749D01*
X14368117Y-17457749D02*
X14339545Y-17457749D01*
X14463355Y-17324415D02*
X14539545Y-17324415D01*
X14491926Y-17257749D02*
X14491926Y-17429177D01*
X14491926Y-17429177D02*
X14501450Y-17448225D01*
X14501450Y-17448225D02*
X14520498Y-17457749D01*
X14520498Y-17457749D02*
X14539545Y-17457749D01*
X14758593Y-17324415D02*
X14758593Y-17524415D01*
X14758593Y-17333939D02*
X14777641Y-17324415D01*
X14777641Y-17324415D02*
X14815736Y-17324415D01*
X14815736Y-17324415D02*
X14834784Y-17333939D01*
X14834784Y-17333939D02*
X14844307Y-17343463D01*
X14844307Y-17343463D02*
X14853831Y-17362511D01*
X14853831Y-17362511D02*
X14853831Y-17419654D01*
X14853831Y-17419654D02*
X14844307Y-17438701D01*
X14844307Y-17438701D02*
X14834784Y-17448225D01*
X14834784Y-17448225D02*
X14815736Y-17457749D01*
X14815736Y-17457749D02*
X14777641Y-17457749D01*
X14777641Y-17457749D02*
X14758593Y-17448225D01*
X14968117Y-17457749D02*
X14949069Y-17448225D01*
X14949069Y-17448225D02*
X14939545Y-17429177D01*
X14939545Y-17429177D02*
X14939545Y-17257749D01*
X15130022Y-17457749D02*
X15130022Y-17352987D01*
X15130022Y-17352987D02*
X15120498Y-17333939D01*
X15120498Y-17333939D02*
X15101450Y-17324415D01*
X15101450Y-17324415D02*
X15063355Y-17324415D01*
X15063355Y-17324415D02*
X15044307Y-17333939D01*
X15130022Y-17448225D02*
X15110974Y-17457749D01*
X15110974Y-17457749D02*
X15063355Y-17457749D01*
X15063355Y-17457749D02*
X15044307Y-17448225D01*
X15044307Y-17448225D02*
X15034784Y-17429177D01*
X15034784Y-17429177D02*
X15034784Y-17410130D01*
X15034784Y-17410130D02*
X15044307Y-17391082D01*
X15044307Y-17391082D02*
X15063355Y-17381558D01*
X15063355Y-17381558D02*
X15110974Y-17381558D01*
X15110974Y-17381558D02*
X15130022Y-17372035D01*
X15196688Y-17324415D02*
X15272879Y-17324415D01*
X15225260Y-17257749D02*
X15225260Y-17429177D01*
X15225260Y-17429177D02*
X15234784Y-17448225D01*
X15234784Y-17448225D02*
X15253831Y-17457749D01*
X15253831Y-17457749D02*
X15272879Y-17457749D01*
X15415736Y-17448225D02*
X15396688Y-17457749D01*
X15396688Y-17457749D02*
X15358593Y-17457749D01*
X15358593Y-17457749D02*
X15339545Y-17448225D01*
X15339545Y-17448225D02*
X15330022Y-17429177D01*
X15330022Y-17429177D02*
X15330022Y-17352987D01*
X15330022Y-17352987D02*
X15339545Y-17333939D01*
X15339545Y-17333939D02*
X15358593Y-17324415D01*
X15358593Y-17324415D02*
X15396688Y-17324415D01*
X15396688Y-17324415D02*
X15415736Y-17333939D01*
X15415736Y-17333939D02*
X15425260Y-17352987D01*
X15425260Y-17352987D02*
X15425260Y-17372035D01*
X15425260Y-17372035D02*
X15330022Y-17391082D01*
X15596688Y-17457749D02*
X15596688Y-17257749D01*
X15596688Y-17448225D02*
X15577641Y-17457749D01*
X15577641Y-17457749D02*
X15539545Y-17457749D01*
X15539545Y-17457749D02*
X15520498Y-17448225D01*
X15520498Y-17448225D02*
X15510974Y-17438701D01*
X15510974Y-17438701D02*
X15501450Y-17419654D01*
X15501450Y-17419654D02*
X15501450Y-17362511D01*
X15501450Y-17362511D02*
X15510974Y-17343463D01*
X15510974Y-17343463D02*
X15520498Y-17333939D01*
X15520498Y-17333939D02*
X15539545Y-17324415D01*
X15539545Y-17324415D02*
X15577641Y-17324415D01*
X15577641Y-17324415D02*
X15596688Y-17333939D01*
X15672879Y-17533939D02*
X15682403Y-17524415D01*
X15682403Y-17524415D02*
X15701450Y-17495844D01*
X15701450Y-17495844D02*
X15710974Y-17476796D01*
X15710974Y-17476796D02*
X15720498Y-17448225D01*
X15720498Y-17448225D02*
X15730022Y-17400606D01*
X15730022Y-17400606D02*
X15730022Y-17362511D01*
X15730022Y-17362511D02*
X15720498Y-17314892D01*
X15720498Y-17314892D02*
X15710974Y-17286320D01*
X15710974Y-17286320D02*
X15701450Y-17267273D01*
X15701450Y-17267273D02*
X15682403Y-17238701D01*
X15682403Y-17238701D02*
X15672879Y-17229177D01*
X8539545Y-17585225D02*
X8739545Y-17785225D01*
X8739545Y-17585225D02*
X8539545Y-17785225D01*
X8739545Y-17685225D02*
G75*
G03*
X8739545Y-17685225I-100000J0D01*
G01*
X8968116Y-17577749D02*
X9091926Y-17577749D01*
X9091926Y-17577749D02*
X9025259Y-17653939D01*
X9025259Y-17653939D02*
X9053831Y-17653939D01*
X9053831Y-17653939D02*
X9072878Y-17663463D01*
X9072878Y-17663463D02*
X9082402Y-17672987D01*
X9082402Y-17672987D02*
X9091926Y-17692035D01*
X9091926Y-17692035D02*
X9091926Y-17739654D01*
X9091926Y-17739654D02*
X9082402Y-17758701D01*
X9082402Y-17758701D02*
X9072878Y-17768225D01*
X9072878Y-17768225D02*
X9053831Y-17777749D01*
X9053831Y-17777749D02*
X8996688Y-17777749D01*
X8996688Y-17777749D02*
X8977640Y-17768225D01*
X8977640Y-17768225D02*
X8968116Y-17758701D01*
X9177640Y-17758701D02*
X9187164Y-17768225D01*
X9187164Y-17768225D02*
X9177640Y-17777749D01*
X9177640Y-17777749D02*
X9168116Y-17768225D01*
X9168116Y-17768225D02*
X9177640Y-17758701D01*
X9177640Y-17758701D02*
X9177640Y-17777749D01*
X9282402Y-17777749D02*
X9320497Y-17777749D01*
X9320497Y-17777749D02*
X9339545Y-17768225D01*
X9339545Y-17768225D02*
X9349069Y-17758701D01*
X9349069Y-17758701D02*
X9368116Y-17730130D01*
X9368116Y-17730130D02*
X9377640Y-17692035D01*
X9377640Y-17692035D02*
X9377640Y-17615844D01*
X9377640Y-17615844D02*
X9368116Y-17596796D01*
X9368116Y-17596796D02*
X9358593Y-17587273D01*
X9358593Y-17587273D02*
X9339545Y-17577749D01*
X9339545Y-17577749D02*
X9301450Y-17577749D01*
X9301450Y-17577749D02*
X9282402Y-17587273D01*
X9282402Y-17587273D02*
X9272878Y-17596796D01*
X9272878Y-17596796D02*
X9263355Y-17615844D01*
X9263355Y-17615844D02*
X9263355Y-17663463D01*
X9263355Y-17663463D02*
X9272878Y-17682511D01*
X9272878Y-17682511D02*
X9282402Y-17692035D01*
X9282402Y-17692035D02*
X9301450Y-17701558D01*
X9301450Y-17701558D02*
X9339545Y-17701558D01*
X9339545Y-17701558D02*
X9358593Y-17692035D01*
X9358593Y-17692035D02*
X9368116Y-17682511D01*
X9368116Y-17682511D02*
X9377640Y-17663463D01*
X9491926Y-17663463D02*
X9472878Y-17653939D01*
X9472878Y-17653939D02*
X9463355Y-17644415D01*
X9463355Y-17644415D02*
X9453831Y-17625368D01*
X9453831Y-17625368D02*
X9453831Y-17615844D01*
X9453831Y-17615844D02*
X9463355Y-17596796D01*
X9463355Y-17596796D02*
X9472878Y-17587273D01*
X9472878Y-17587273D02*
X9491926Y-17577749D01*
X9491926Y-17577749D02*
X9530021Y-17577749D01*
X9530021Y-17577749D02*
X9549069Y-17587273D01*
X9549069Y-17587273D02*
X9558593Y-17596796D01*
X9558593Y-17596796D02*
X9568116Y-17615844D01*
X9568116Y-17615844D02*
X9568116Y-17625368D01*
X9568116Y-17625368D02*
X9558593Y-17644415D01*
X9558593Y-17644415D02*
X9549069Y-17653939D01*
X9549069Y-17653939D02*
X9530021Y-17663463D01*
X9530021Y-17663463D02*
X9491926Y-17663463D01*
X9491926Y-17663463D02*
X9472878Y-17672987D01*
X9472878Y-17672987D02*
X9463355Y-17682511D01*
X9463355Y-17682511D02*
X9453831Y-17701558D01*
X9453831Y-17701558D02*
X9453831Y-17739654D01*
X9453831Y-17739654D02*
X9463355Y-17758701D01*
X9463355Y-17758701D02*
X9472878Y-17768225D01*
X9472878Y-17768225D02*
X9491926Y-17777749D01*
X9491926Y-17777749D02*
X9530021Y-17777749D01*
X9530021Y-17777749D02*
X9549069Y-17768225D01*
X9549069Y-17768225D02*
X9558593Y-17758701D01*
X9558593Y-17758701D02*
X9568116Y-17739654D01*
X9568116Y-17739654D02*
X9568116Y-17701558D01*
X9568116Y-17701558D02*
X9558593Y-17682511D01*
X9558593Y-17682511D02*
X9549069Y-17672987D01*
X9549069Y-17672987D02*
X9530021Y-17663463D01*
X9682402Y-17663463D02*
X9663355Y-17653939D01*
X9663355Y-17653939D02*
X9653831Y-17644415D01*
X9653831Y-17644415D02*
X9644307Y-17625368D01*
X9644307Y-17625368D02*
X9644307Y-17615844D01*
X9644307Y-17615844D02*
X9653831Y-17596796D01*
X9653831Y-17596796D02*
X9663355Y-17587273D01*
X9663355Y-17587273D02*
X9682402Y-17577749D01*
X9682402Y-17577749D02*
X9720497Y-17577749D01*
X9720497Y-17577749D02*
X9739545Y-17587273D01*
X9739545Y-17587273D02*
X9749069Y-17596796D01*
X9749069Y-17596796D02*
X9758593Y-17615844D01*
X9758593Y-17615844D02*
X9758593Y-17625368D01*
X9758593Y-17625368D02*
X9749069Y-17644415D01*
X9749069Y-17644415D02*
X9739545Y-17653939D01*
X9739545Y-17653939D02*
X9720497Y-17663463D01*
X9720497Y-17663463D02*
X9682402Y-17663463D01*
X9682402Y-17663463D02*
X9663355Y-17672987D01*
X9663355Y-17672987D02*
X9653831Y-17682511D01*
X9653831Y-17682511D02*
X9644307Y-17701558D01*
X9644307Y-17701558D02*
X9644307Y-17739654D01*
X9644307Y-17739654D02*
X9653831Y-17758701D01*
X9653831Y-17758701D02*
X9663355Y-17768225D01*
X9663355Y-17768225D02*
X9682402Y-17777749D01*
X9682402Y-17777749D02*
X9720497Y-17777749D01*
X9720497Y-17777749D02*
X9739545Y-17768225D01*
X9739545Y-17768225D02*
X9749069Y-17758701D01*
X9749069Y-17758701D02*
X9758593Y-17739654D01*
X9758593Y-17739654D02*
X9758593Y-17701558D01*
X9758593Y-17701558D02*
X9749069Y-17682511D01*
X9749069Y-17682511D02*
X9739545Y-17672987D01*
X9739545Y-17672987D02*
X9720497Y-17663463D01*
X9844307Y-17777749D02*
X9844307Y-17644415D01*
X9844307Y-17663463D02*
X9853831Y-17653939D01*
X9853831Y-17653939D02*
X9872878Y-17644415D01*
X9872878Y-17644415D02*
X9901450Y-17644415D01*
X9901450Y-17644415D02*
X9920497Y-17653939D01*
X9920497Y-17653939D02*
X9930021Y-17672987D01*
X9930021Y-17672987D02*
X9930021Y-17777749D01*
X9930021Y-17672987D02*
X9939545Y-17653939D01*
X9939545Y-17653939D02*
X9958593Y-17644415D01*
X9958593Y-17644415D02*
X9987164Y-17644415D01*
X9987164Y-17644415D02*
X10006212Y-17653939D01*
X10006212Y-17653939D02*
X10015736Y-17672987D01*
X10015736Y-17672987D02*
X10015736Y-17777749D01*
X10110974Y-17777749D02*
X10110974Y-17644415D01*
X10110974Y-17663463D02*
X10120497Y-17653939D01*
X10120497Y-17653939D02*
X10139545Y-17644415D01*
X10139545Y-17644415D02*
X10168117Y-17644415D01*
X10168117Y-17644415D02*
X10187164Y-17653939D01*
X10187164Y-17653939D02*
X10196688Y-17672987D01*
X10196688Y-17672987D02*
X10196688Y-17777749D01*
X10196688Y-17672987D02*
X10206212Y-17653939D01*
X10206212Y-17653939D02*
X10225259Y-17644415D01*
X10225259Y-17644415D02*
X10253831Y-17644415D01*
X10253831Y-17644415D02*
X10272878Y-17653939D01*
X10272878Y-17653939D02*
X10282402Y-17672987D01*
X10282402Y-17672987D02*
X10282402Y-17777749D01*
X10672878Y-17568225D02*
X10501450Y-17825368D01*
X10930021Y-17577749D02*
X10949069Y-17577749D01*
X10949069Y-17577749D02*
X10968117Y-17587273D01*
X10968117Y-17587273D02*
X10977640Y-17596796D01*
X10977640Y-17596796D02*
X10987164Y-17615844D01*
X10987164Y-17615844D02*
X10996688Y-17653939D01*
X10996688Y-17653939D02*
X10996688Y-17701558D01*
X10996688Y-17701558D02*
X10987164Y-17739654D01*
X10987164Y-17739654D02*
X10977640Y-17758701D01*
X10977640Y-17758701D02*
X10968117Y-17768225D01*
X10968117Y-17768225D02*
X10949069Y-17777749D01*
X10949069Y-17777749D02*
X10930021Y-17777749D01*
X10930021Y-17777749D02*
X10910974Y-17768225D01*
X10910974Y-17768225D02*
X10901450Y-17758701D01*
X10901450Y-17758701D02*
X10891926Y-17739654D01*
X10891926Y-17739654D02*
X10882402Y-17701558D01*
X10882402Y-17701558D02*
X10882402Y-17653939D01*
X10882402Y-17653939D02*
X10891926Y-17615844D01*
X10891926Y-17615844D02*
X10901450Y-17596796D01*
X10901450Y-17596796D02*
X10910974Y-17587273D01*
X10910974Y-17587273D02*
X10930021Y-17577749D01*
X11082402Y-17758701D02*
X11091926Y-17768225D01*
X11091926Y-17768225D02*
X11082402Y-17777749D01*
X11082402Y-17777749D02*
X11072879Y-17768225D01*
X11072879Y-17768225D02*
X11082402Y-17758701D01*
X11082402Y-17758701D02*
X11082402Y-17777749D01*
X11282402Y-17777749D02*
X11168117Y-17777749D01*
X11225259Y-17777749D02*
X11225259Y-17577749D01*
X11225259Y-17577749D02*
X11206212Y-17606320D01*
X11206212Y-17606320D02*
X11187164Y-17625368D01*
X11187164Y-17625368D02*
X11168117Y-17634892D01*
X11463355Y-17577749D02*
X11368117Y-17577749D01*
X11368117Y-17577749D02*
X11358593Y-17672987D01*
X11358593Y-17672987D02*
X11368117Y-17663463D01*
X11368117Y-17663463D02*
X11387164Y-17653939D01*
X11387164Y-17653939D02*
X11434783Y-17653939D01*
X11434783Y-17653939D02*
X11453831Y-17663463D01*
X11453831Y-17663463D02*
X11463355Y-17672987D01*
X11463355Y-17672987D02*
X11472878Y-17692035D01*
X11472878Y-17692035D02*
X11472878Y-17739654D01*
X11472878Y-17739654D02*
X11463355Y-17758701D01*
X11463355Y-17758701D02*
X11453831Y-17768225D01*
X11453831Y-17768225D02*
X11434783Y-17777749D01*
X11434783Y-17777749D02*
X11387164Y-17777749D01*
X11387164Y-17777749D02*
X11368117Y-17768225D01*
X11368117Y-17768225D02*
X11358593Y-17758701D01*
X11539545Y-17577749D02*
X11672878Y-17577749D01*
X11672878Y-17577749D02*
X11587164Y-17777749D01*
X11787164Y-17577749D02*
X11806212Y-17577749D01*
X11806212Y-17577749D02*
X11825259Y-17587273D01*
X11825259Y-17587273D02*
X11834783Y-17596796D01*
X11834783Y-17596796D02*
X11844307Y-17615844D01*
X11844307Y-17615844D02*
X11853831Y-17653939D01*
X11853831Y-17653939D02*
X11853831Y-17701558D01*
X11853831Y-17701558D02*
X11844307Y-17739654D01*
X11844307Y-17739654D02*
X11834783Y-17758701D01*
X11834783Y-17758701D02*
X11825259Y-17768225D01*
X11825259Y-17768225D02*
X11806212Y-17777749D01*
X11806212Y-17777749D02*
X11787164Y-17777749D01*
X11787164Y-17777749D02*
X11768117Y-17768225D01*
X11768117Y-17768225D02*
X11758593Y-17758701D01*
X11758593Y-17758701D02*
X11749069Y-17739654D01*
X11749069Y-17739654D02*
X11739545Y-17701558D01*
X11739545Y-17701558D02*
X11739545Y-17653939D01*
X11739545Y-17653939D02*
X11749069Y-17615844D01*
X11749069Y-17615844D02*
X11758593Y-17596796D01*
X11758593Y-17596796D02*
X11768117Y-17587273D01*
X11768117Y-17587273D02*
X11787164Y-17577749D01*
X11930021Y-17577749D02*
X11930021Y-17615844D01*
X12006212Y-17577749D02*
X12006212Y-17615844D01*
X12301450Y-17853939D02*
X12291926Y-17844415D01*
X12291926Y-17844415D02*
X12272879Y-17815844D01*
X12272879Y-17815844D02*
X12263355Y-17796796D01*
X12263355Y-17796796D02*
X12253831Y-17768225D01*
X12253831Y-17768225D02*
X12244307Y-17720606D01*
X12244307Y-17720606D02*
X12244307Y-17682511D01*
X12244307Y-17682511D02*
X12253831Y-17634892D01*
X12253831Y-17634892D02*
X12263355Y-17606320D01*
X12263355Y-17606320D02*
X12272879Y-17587273D01*
X12272879Y-17587273D02*
X12291926Y-17558701D01*
X12291926Y-17558701D02*
X12301450Y-17549177D01*
X12482402Y-17777749D02*
X12368117Y-17777749D01*
X12425259Y-17777749D02*
X12425259Y-17577749D01*
X12425259Y-17577749D02*
X12406212Y-17606320D01*
X12406212Y-17606320D02*
X12387164Y-17625368D01*
X12387164Y-17625368D02*
X12368117Y-17634892D01*
X12549069Y-17577749D02*
X12672879Y-17577749D01*
X12672879Y-17577749D02*
X12606212Y-17653939D01*
X12606212Y-17653939D02*
X12634783Y-17653939D01*
X12634783Y-17653939D02*
X12653831Y-17663463D01*
X12653831Y-17663463D02*
X12663355Y-17672987D01*
X12663355Y-17672987D02*
X12672879Y-17692035D01*
X12672879Y-17692035D02*
X12672879Y-17739654D01*
X12672879Y-17739654D02*
X12663355Y-17758701D01*
X12663355Y-17758701D02*
X12653831Y-17768225D01*
X12653831Y-17768225D02*
X12634783Y-17777749D01*
X12634783Y-17777749D02*
X12577640Y-17777749D01*
X12577640Y-17777749D02*
X12558593Y-17768225D01*
X12558593Y-17768225D02*
X12549069Y-17758701D01*
X12863355Y-17777749D02*
X12749069Y-17777749D01*
X12806212Y-17777749D02*
X12806212Y-17577749D01*
X12806212Y-17577749D02*
X12787164Y-17606320D01*
X12787164Y-17606320D02*
X12768117Y-17625368D01*
X12768117Y-17625368D02*
X12749069Y-17634892D01*
X13101450Y-17777749D02*
X13101450Y-17577749D01*
X13187164Y-17777749D02*
X13187164Y-17672987D01*
X13187164Y-17672987D02*
X13177641Y-17653939D01*
X13177641Y-17653939D02*
X13158593Y-17644415D01*
X13158593Y-17644415D02*
X13130021Y-17644415D01*
X13130021Y-17644415D02*
X13110974Y-17653939D01*
X13110974Y-17653939D02*
X13101450Y-17663463D01*
X13310974Y-17777749D02*
X13291926Y-17768225D01*
X13291926Y-17768225D02*
X13282402Y-17758701D01*
X13282402Y-17758701D02*
X13272879Y-17739654D01*
X13272879Y-17739654D02*
X13272879Y-17682511D01*
X13272879Y-17682511D02*
X13282402Y-17663463D01*
X13282402Y-17663463D02*
X13291926Y-17653939D01*
X13291926Y-17653939D02*
X13310974Y-17644415D01*
X13310974Y-17644415D02*
X13339545Y-17644415D01*
X13339545Y-17644415D02*
X13358593Y-17653939D01*
X13358593Y-17653939D02*
X13368117Y-17663463D01*
X13368117Y-17663463D02*
X13377641Y-17682511D01*
X13377641Y-17682511D02*
X13377641Y-17739654D01*
X13377641Y-17739654D02*
X13368117Y-17758701D01*
X13368117Y-17758701D02*
X13358593Y-17768225D01*
X13358593Y-17768225D02*
X13339545Y-17777749D01*
X13339545Y-17777749D02*
X13310974Y-17777749D01*
X13491926Y-17777749D02*
X13472879Y-17768225D01*
X13472879Y-17768225D02*
X13463355Y-17749177D01*
X13463355Y-17749177D02*
X13463355Y-17577749D01*
X13644307Y-17768225D02*
X13625260Y-17777749D01*
X13625260Y-17777749D02*
X13587164Y-17777749D01*
X13587164Y-17777749D02*
X13568117Y-17768225D01*
X13568117Y-17768225D02*
X13558593Y-17749177D01*
X13558593Y-17749177D02*
X13558593Y-17672987D01*
X13558593Y-17672987D02*
X13568117Y-17653939D01*
X13568117Y-17653939D02*
X13587164Y-17644415D01*
X13587164Y-17644415D02*
X13625260Y-17644415D01*
X13625260Y-17644415D02*
X13644307Y-17653939D01*
X13644307Y-17653939D02*
X13653831Y-17672987D01*
X13653831Y-17672987D02*
X13653831Y-17692035D01*
X13653831Y-17692035D02*
X13558593Y-17711082D01*
X13730022Y-17768225D02*
X13749069Y-17777749D01*
X13749069Y-17777749D02*
X13787164Y-17777749D01*
X13787164Y-17777749D02*
X13806212Y-17768225D01*
X13806212Y-17768225D02*
X13815736Y-17749177D01*
X13815736Y-17749177D02*
X13815736Y-17739654D01*
X13815736Y-17739654D02*
X13806212Y-17720606D01*
X13806212Y-17720606D02*
X13787164Y-17711082D01*
X13787164Y-17711082D02*
X13758593Y-17711082D01*
X13758593Y-17711082D02*
X13739545Y-17701558D01*
X13739545Y-17701558D02*
X13730022Y-17682511D01*
X13730022Y-17682511D02*
X13730022Y-17672987D01*
X13730022Y-17672987D02*
X13739545Y-17653939D01*
X13739545Y-17653939D02*
X13758593Y-17644415D01*
X13758593Y-17644415D02*
X13787164Y-17644415D01*
X13787164Y-17644415D02*
X13806212Y-17653939D01*
X13882403Y-17853939D02*
X13891926Y-17844415D01*
X13891926Y-17844415D02*
X13910974Y-17815844D01*
X13910974Y-17815844D02*
X13920498Y-17796796D01*
X13920498Y-17796796D02*
X13930022Y-17768225D01*
X13930022Y-17768225D02*
X13939545Y-17720606D01*
X13939545Y-17720606D02*
X13939545Y-17682511D01*
X13939545Y-17682511D02*
X13930022Y-17634892D01*
X13930022Y-17634892D02*
X13920498Y-17606320D01*
X13920498Y-17606320D02*
X13910974Y-17587273D01*
X13910974Y-17587273D02*
X13891926Y-17558701D01*
X13891926Y-17558701D02*
X13882403Y-17549177D01*
X14244307Y-17853939D02*
X14234783Y-17844415D01*
X14234783Y-17844415D02*
X14215736Y-17815844D01*
X14215736Y-17815844D02*
X14206212Y-17796796D01*
X14206212Y-17796796D02*
X14196688Y-17768225D01*
X14196688Y-17768225D02*
X14187164Y-17720606D01*
X14187164Y-17720606D02*
X14187164Y-17682511D01*
X14187164Y-17682511D02*
X14196688Y-17634892D01*
X14196688Y-17634892D02*
X14206212Y-17606320D01*
X14206212Y-17606320D02*
X14215736Y-17587273D01*
X14215736Y-17587273D02*
X14234783Y-17558701D01*
X14234783Y-17558701D02*
X14244307Y-17549177D01*
X14320498Y-17644415D02*
X14320498Y-17777749D01*
X14320498Y-17663463D02*
X14330022Y-17653939D01*
X14330022Y-17653939D02*
X14349069Y-17644415D01*
X14349069Y-17644415D02*
X14377641Y-17644415D01*
X14377641Y-17644415D02*
X14396688Y-17653939D01*
X14396688Y-17653939D02*
X14406212Y-17672987D01*
X14406212Y-17672987D02*
X14406212Y-17777749D01*
X14530022Y-17777749D02*
X14510974Y-17768225D01*
X14510974Y-17768225D02*
X14501450Y-17758701D01*
X14501450Y-17758701D02*
X14491926Y-17739654D01*
X14491926Y-17739654D02*
X14491926Y-17682511D01*
X14491926Y-17682511D02*
X14501450Y-17663463D01*
X14501450Y-17663463D02*
X14510974Y-17653939D01*
X14510974Y-17653939D02*
X14530022Y-17644415D01*
X14530022Y-17644415D02*
X14558593Y-17644415D01*
X14558593Y-17644415D02*
X14577641Y-17653939D01*
X14577641Y-17653939D02*
X14587164Y-17663463D01*
X14587164Y-17663463D02*
X14596688Y-17682511D01*
X14596688Y-17682511D02*
X14596688Y-17739654D01*
X14596688Y-17739654D02*
X14587164Y-17758701D01*
X14587164Y-17758701D02*
X14577641Y-17768225D01*
X14577641Y-17768225D02*
X14558593Y-17777749D01*
X14558593Y-17777749D02*
X14530022Y-17777749D01*
X14653831Y-17644415D02*
X14730022Y-17644415D01*
X14682403Y-17577749D02*
X14682403Y-17749177D01*
X14682403Y-17749177D02*
X14691926Y-17768225D01*
X14691926Y-17768225D02*
X14710974Y-17777749D01*
X14710974Y-17777749D02*
X14730022Y-17777749D01*
X14949069Y-17644415D02*
X14949069Y-17844415D01*
X14949069Y-17653939D02*
X14968117Y-17644415D01*
X14968117Y-17644415D02*
X15006212Y-17644415D01*
X15006212Y-17644415D02*
X15025260Y-17653939D01*
X15025260Y-17653939D02*
X15034784Y-17663463D01*
X15034784Y-17663463D02*
X15044307Y-17682511D01*
X15044307Y-17682511D02*
X15044307Y-17739654D01*
X15044307Y-17739654D02*
X15034784Y-17758701D01*
X15034784Y-17758701D02*
X15025260Y-17768225D01*
X15025260Y-17768225D02*
X15006212Y-17777749D01*
X15006212Y-17777749D02*
X14968117Y-17777749D01*
X14968117Y-17777749D02*
X14949069Y-17768225D01*
X15158593Y-17777749D02*
X15139545Y-17768225D01*
X15139545Y-17768225D02*
X15130022Y-17749177D01*
X15130022Y-17749177D02*
X15130022Y-17577749D01*
X15320498Y-17777749D02*
X15320498Y-17672987D01*
X15320498Y-17672987D02*
X15310974Y-17653939D01*
X15310974Y-17653939D02*
X15291926Y-17644415D01*
X15291926Y-17644415D02*
X15253831Y-17644415D01*
X15253831Y-17644415D02*
X15234784Y-17653939D01*
X15320498Y-17768225D02*
X15301450Y-17777749D01*
X15301450Y-17777749D02*
X15253831Y-17777749D01*
X15253831Y-17777749D02*
X15234784Y-17768225D01*
X15234784Y-17768225D02*
X15225260Y-17749177D01*
X15225260Y-17749177D02*
X15225260Y-17730130D01*
X15225260Y-17730130D02*
X15234784Y-17711082D01*
X15234784Y-17711082D02*
X15253831Y-17701558D01*
X15253831Y-17701558D02*
X15301450Y-17701558D01*
X15301450Y-17701558D02*
X15320498Y-17692035D01*
X15387165Y-17644415D02*
X15463355Y-17644415D01*
X15415736Y-17577749D02*
X15415736Y-17749177D01*
X15415736Y-17749177D02*
X15425260Y-17768225D01*
X15425260Y-17768225D02*
X15444307Y-17777749D01*
X15444307Y-17777749D02*
X15463355Y-17777749D01*
X15606212Y-17768225D02*
X15587165Y-17777749D01*
X15587165Y-17777749D02*
X15549069Y-17777749D01*
X15549069Y-17777749D02*
X15530022Y-17768225D01*
X15530022Y-17768225D02*
X15520498Y-17749177D01*
X15520498Y-17749177D02*
X15520498Y-17672987D01*
X15520498Y-17672987D02*
X15530022Y-17653939D01*
X15530022Y-17653939D02*
X15549069Y-17644415D01*
X15549069Y-17644415D02*
X15587165Y-17644415D01*
X15587165Y-17644415D02*
X15606212Y-17653939D01*
X15606212Y-17653939D02*
X15615736Y-17672987D01*
X15615736Y-17672987D02*
X15615736Y-17692035D01*
X15615736Y-17692035D02*
X15520498Y-17711082D01*
X15787165Y-17777749D02*
X15787165Y-17577749D01*
X15787165Y-17768225D02*
X15768117Y-17777749D01*
X15768117Y-17777749D02*
X15730022Y-17777749D01*
X15730022Y-17777749D02*
X15710974Y-17768225D01*
X15710974Y-17768225D02*
X15701450Y-17758701D01*
X15701450Y-17758701D02*
X15691926Y-17739654D01*
X15691926Y-17739654D02*
X15691926Y-17682511D01*
X15691926Y-17682511D02*
X15701450Y-17663463D01*
X15701450Y-17663463D02*
X15710974Y-17653939D01*
X15710974Y-17653939D02*
X15730022Y-17644415D01*
X15730022Y-17644415D02*
X15768117Y-17644415D01*
X15768117Y-17644415D02*
X15787165Y-17653939D01*
X15863355Y-17853939D02*
X15872879Y-17844415D01*
X15872879Y-17844415D02*
X15891926Y-17815844D01*
X15891926Y-17815844D02*
X15901450Y-17796796D01*
X15901450Y-17796796D02*
X15910974Y-17768225D01*
X15910974Y-17768225D02*
X15920498Y-17720606D01*
X15920498Y-17720606D02*
X15920498Y-17682511D01*
X15920498Y-17682511D02*
X15910974Y-17634892D01*
X15910974Y-17634892D02*
X15901450Y-17606320D01*
X15901450Y-17606320D02*
X15891926Y-17587273D01*
X15891926Y-17587273D02*
X15872879Y-17558701D01*
X15872879Y-17558701D02*
X15863355Y-17549177D01*
M02*
