%TF.GenerationSoftware,KiCad,Pcbnew,7.0.2*%
%TF.CreationDate,2023-05-17T23:03:51-05:00*%
%TF.ProjectId,Touch_Keyboard_10x12_Matrix,546f7563-685f-44b6-9579-626f6172645f,rev?*%
%TF.SameCoordinates,Original*%
%TF.FileFunction,Drillmap*%
%TF.FilePolarity,Positive*%
%FSLAX45Y45*%
G04 Gerber Fmt 4.5, Leading zero omitted, Abs format (unit mm)*
G04 Created by KiCad (PCBNEW 7.0.2) date 2023-05-17 23:03:51*
%MOMM*%
%LPD*%
G01*
G04 APERTURE LIST*
%ADD10C,0.050000*%
%ADD11C,0.200000*%
%ADD12C,0.080000*%
%ADD13C,0.115200*%
%ADD14C,0.175000*%
%ADD15C,0.220000*%
%ADD16C,0.304800*%
%ADD17C,0.398780*%
G04 APERTURE END LIST*
D10*
X17621250Y-10239375D02*
X60483750Y-10239375D01*
X60483750Y-22383750D01*
X17621250Y-22383750D01*
X17621250Y-10239375D01*
D11*
D12*
X45845100Y-14946000D02*
X45925100Y-15026000D01*
X45925100Y-14946000D02*
X45845100Y-15026000D01*
D13*
X18153195Y-21431250D02*
G75*
G03*
X18153195Y-21431250I-57600J0D01*
G01*
X36600580Y-11109960D02*
G75*
G03*
X36600580Y-11109960I-57600J0D01*
G01*
X59165940Y-21437600D02*
G75*
G03*
X59165940Y-21437600I-57600J0D01*
G01*
D14*
X18303240Y-11342500D02*
X18303240Y-11517500D01*
X18215740Y-11430000D02*
X18390740Y-11430000D01*
X18303875Y-13485625D02*
X18303875Y-13660625D01*
X18216375Y-13573125D02*
X18391375Y-13573125D01*
X18542000Y-21105625D02*
X18542000Y-21280625D01*
X18454500Y-21193125D02*
X18629500Y-21193125D01*
X18780125Y-15390625D02*
X18780125Y-15565625D01*
X18692625Y-15478125D02*
X18867625Y-15478125D01*
X19018250Y-17295625D02*
X19018250Y-17470625D01*
X18930750Y-17383125D02*
X19105750Y-17383125D01*
X19319240Y-11342500D02*
X19319240Y-11517500D01*
X19231740Y-11430000D02*
X19406740Y-11430000D01*
X19319875Y-13485625D02*
X19319875Y-13660625D01*
X19232375Y-13573125D02*
X19407375Y-13573125D01*
X19494500Y-19200625D02*
X19494500Y-19375625D01*
X19407000Y-19288125D02*
X19582000Y-19288125D01*
X19558000Y-21105625D02*
X19558000Y-21280625D01*
X19470500Y-21193125D02*
X19645500Y-21193125D01*
X19796125Y-15390625D02*
X19796125Y-15565625D01*
X19708625Y-15478125D02*
X19883625Y-15478125D01*
X20034250Y-17295625D02*
X20034250Y-17470625D01*
X19946750Y-17383125D02*
X20121750Y-17383125D01*
X20208875Y-11342500D02*
X20208875Y-11517500D01*
X20121375Y-11430000D02*
X20296375Y-11430000D01*
X20208875Y-13485625D02*
X20208875Y-13660625D01*
X20121375Y-13573125D02*
X20296375Y-13573125D01*
X20510500Y-19200625D02*
X20510500Y-19375625D01*
X20423000Y-19288125D02*
X20598000Y-19288125D01*
X20923250Y-21105625D02*
X20923250Y-21280625D01*
X20835750Y-21193125D02*
X21010750Y-21193125D01*
X21161375Y-15390625D02*
X21161375Y-15565625D01*
X21073875Y-15478125D02*
X21248875Y-15478125D01*
X21224875Y-11342500D02*
X21224875Y-11517500D01*
X21137375Y-11430000D02*
X21312375Y-11430000D01*
X21224875Y-13485625D02*
X21224875Y-13660625D01*
X21137375Y-13573125D02*
X21312375Y-13573125D01*
X21637625Y-17295625D02*
X21637625Y-17470625D01*
X21550125Y-17383125D02*
X21725125Y-17383125D01*
X21939250Y-21105625D02*
X21939250Y-21280625D01*
X21851750Y-21193125D02*
X22026750Y-21193125D01*
X22113875Y-11342500D02*
X22113875Y-11517500D01*
X22026375Y-11430000D02*
X22201375Y-11430000D01*
X22113875Y-13485625D02*
X22113875Y-13660625D01*
X22026375Y-13573125D02*
X22201375Y-13573125D01*
X22177375Y-15390625D02*
X22177375Y-15565625D01*
X22089875Y-15478125D02*
X22264875Y-15478125D01*
X22590125Y-19200625D02*
X22590125Y-19375625D01*
X22502625Y-19288125D02*
X22677625Y-19288125D01*
X22653625Y-17295625D02*
X22653625Y-17470625D01*
X22566125Y-17383125D02*
X22741125Y-17383125D01*
X23066375Y-15390625D02*
X23066375Y-15565625D01*
X22978875Y-15478125D02*
X23153875Y-15478125D01*
X23129875Y-11342500D02*
X23129875Y-11517500D01*
X23042375Y-11430000D02*
X23217375Y-11430000D01*
X23129875Y-13485625D02*
X23129875Y-13660625D01*
X23042375Y-13573125D02*
X23217375Y-13573125D01*
X23304500Y-21105625D02*
X23304500Y-21280625D01*
X23217000Y-21193125D02*
X23392000Y-21193125D01*
X23542625Y-17295625D02*
X23542625Y-17470625D01*
X23455125Y-17383125D02*
X23630125Y-17383125D01*
X23606125Y-19200625D02*
X23606125Y-19375625D01*
X23518625Y-19288125D02*
X23693625Y-19288125D01*
X24018875Y-11342500D02*
X24018875Y-11517500D01*
X23931375Y-11430000D02*
X24106375Y-11430000D01*
X24018875Y-13485625D02*
X24018875Y-13660625D01*
X23931375Y-13573125D02*
X24106375Y-13573125D01*
X24082375Y-15390625D02*
X24082375Y-15565625D01*
X23994875Y-15478125D02*
X24169875Y-15478125D01*
X24320500Y-21105625D02*
X24320500Y-21280625D01*
X24233000Y-21193125D02*
X24408000Y-21193125D01*
X24495125Y-19200625D02*
X24495125Y-19375625D01*
X24407625Y-19288125D02*
X24582625Y-19288125D01*
X24558625Y-17295625D02*
X24558625Y-17470625D01*
X24471125Y-17383125D02*
X24646125Y-17383125D01*
X24971375Y-15390625D02*
X24971375Y-15565625D01*
X24883875Y-15478125D02*
X25058875Y-15478125D01*
X25034875Y-11342500D02*
X25034875Y-11517500D01*
X24947375Y-11430000D02*
X25122375Y-11430000D01*
X25034875Y-13485625D02*
X25034875Y-13660625D01*
X24947375Y-13573125D02*
X25122375Y-13573125D01*
X25447625Y-17295625D02*
X25447625Y-17470625D01*
X25360125Y-17383125D02*
X25535125Y-17383125D01*
X25447625Y-21105625D02*
X25447625Y-21280625D01*
X25360125Y-21193125D02*
X25535125Y-21193125D01*
X25511125Y-19200625D02*
X25511125Y-19375625D01*
X25423625Y-19288125D02*
X25598625Y-19288125D01*
X25923875Y-11342500D02*
X25923875Y-11517500D01*
X25836375Y-11430000D02*
X26011375Y-11430000D01*
X25923875Y-13485625D02*
X25923875Y-13660625D01*
X25836375Y-13573125D02*
X26011375Y-13573125D01*
X25987375Y-15390625D02*
X25987375Y-15565625D01*
X25899875Y-15478125D02*
X26074875Y-15478125D01*
X26400125Y-19200625D02*
X26400125Y-19375625D01*
X26312625Y-19288125D02*
X26487625Y-19288125D01*
X26463625Y-17295625D02*
X26463625Y-17470625D01*
X26376125Y-17383125D02*
X26551125Y-17383125D01*
X26463625Y-21105625D02*
X26463625Y-21280625D01*
X26376125Y-21193125D02*
X26551125Y-21193125D01*
X26876375Y-15390625D02*
X26876375Y-15565625D01*
X26788875Y-15478125D02*
X26963875Y-15478125D01*
X26939875Y-11342500D02*
X26939875Y-11517500D01*
X26852375Y-11430000D02*
X27027375Y-11430000D01*
X26939875Y-13485625D02*
X26939875Y-13660625D01*
X26852375Y-13573125D02*
X27027375Y-13573125D01*
X27352625Y-17295625D02*
X27352625Y-17470625D01*
X27265125Y-17383125D02*
X27440125Y-17383125D01*
X27416125Y-19200625D02*
X27416125Y-19375625D01*
X27328625Y-19288125D02*
X27503625Y-19288125D01*
X27828875Y-11342500D02*
X27828875Y-11517500D01*
X27741375Y-11430000D02*
X27916375Y-11430000D01*
X27828875Y-13485625D02*
X27828875Y-13660625D01*
X27741375Y-13573125D02*
X27916375Y-13573125D01*
X27892375Y-15390625D02*
X27892375Y-15565625D01*
X27804875Y-15478125D02*
X27979875Y-15478125D01*
X28305125Y-19200625D02*
X28305125Y-19375625D01*
X28217625Y-19288125D02*
X28392625Y-19288125D01*
X28368625Y-17295625D02*
X28368625Y-17470625D01*
X28281125Y-17383125D02*
X28456125Y-17383125D01*
X28543250Y-21105625D02*
X28543250Y-21280625D01*
X28455750Y-21193125D02*
X28630750Y-21193125D01*
X28781375Y-15390625D02*
X28781375Y-15565625D01*
X28693875Y-15478125D02*
X28868875Y-15478125D01*
X28844875Y-11342500D02*
X28844875Y-11517500D01*
X28757375Y-11430000D02*
X28932375Y-11430000D01*
X28844875Y-13485625D02*
X28844875Y-13660625D01*
X28757375Y-13573125D02*
X28932375Y-13573125D01*
X29257625Y-17295625D02*
X29257625Y-17470625D01*
X29170125Y-17383125D02*
X29345125Y-17383125D01*
X29321125Y-19200625D02*
X29321125Y-19375625D01*
X29233625Y-19288125D02*
X29408625Y-19288125D01*
X29559250Y-21105625D02*
X29559250Y-21280625D01*
X29471750Y-21193125D02*
X29646750Y-21193125D01*
X29733875Y-11342500D02*
X29733875Y-11517500D01*
X29646375Y-11430000D02*
X29821375Y-11430000D01*
X29733875Y-13485625D02*
X29733875Y-13660625D01*
X29646375Y-13573125D02*
X29821375Y-13573125D01*
X29797375Y-15390625D02*
X29797375Y-15565625D01*
X29709875Y-15478125D02*
X29884875Y-15478125D01*
X30210125Y-19200625D02*
X30210125Y-19375625D01*
X30122625Y-19288125D02*
X30297625Y-19288125D01*
X30273625Y-17295625D02*
X30273625Y-17470625D01*
X30186125Y-17383125D02*
X30361125Y-17383125D01*
X30448250Y-21105625D02*
X30448250Y-21280625D01*
X30360750Y-21193125D02*
X30535750Y-21193125D01*
X30686375Y-15390625D02*
X30686375Y-15565625D01*
X30598875Y-15478125D02*
X30773875Y-15478125D01*
X30749875Y-11342500D02*
X30749875Y-11517500D01*
X30662375Y-11430000D02*
X30837375Y-11430000D01*
X30749875Y-13485625D02*
X30749875Y-13660625D01*
X30662375Y-13573125D02*
X30837375Y-13573125D01*
X31162625Y-17295625D02*
X31162625Y-17470625D01*
X31075125Y-17383125D02*
X31250125Y-17383125D01*
X31226125Y-19200625D02*
X31226125Y-19375625D01*
X31138625Y-19288125D02*
X31313625Y-19288125D01*
X31464250Y-21105625D02*
X31464250Y-21280625D01*
X31376750Y-21193125D02*
X31551750Y-21193125D01*
X31638875Y-11342500D02*
X31638875Y-11517500D01*
X31551375Y-11430000D02*
X31726375Y-11430000D01*
X31638875Y-13485625D02*
X31638875Y-13660625D01*
X31551375Y-13573125D02*
X31726375Y-13573125D01*
X31702375Y-15390625D02*
X31702375Y-15565625D01*
X31614875Y-15478125D02*
X31789875Y-15478125D01*
X32115125Y-19200625D02*
X32115125Y-19375625D01*
X32027625Y-19288125D02*
X32202625Y-19288125D01*
X32178625Y-17295625D02*
X32178625Y-17470625D01*
X32091125Y-17383125D02*
X32266125Y-17383125D01*
X32591375Y-15390625D02*
X32591375Y-15565625D01*
X32503875Y-15478125D02*
X32678875Y-15478125D01*
X32591375Y-21105625D02*
X32591375Y-21280625D01*
X32503875Y-21193125D02*
X32678875Y-21193125D01*
X32654875Y-11342500D02*
X32654875Y-11517500D01*
X32567375Y-11430000D02*
X32742375Y-11430000D01*
X32654875Y-13485625D02*
X32654875Y-13660625D01*
X32567375Y-13573125D02*
X32742375Y-13573125D01*
X33067625Y-17295625D02*
X33067625Y-17470625D01*
X32980125Y-17383125D02*
X33155125Y-17383125D01*
X33131125Y-19200625D02*
X33131125Y-19375625D01*
X33043625Y-19288125D02*
X33218625Y-19288125D01*
X33543875Y-11342500D02*
X33543875Y-11517500D01*
X33456375Y-11430000D02*
X33631375Y-11430000D01*
X33543875Y-13485625D02*
X33543875Y-13660625D01*
X33456375Y-13573125D02*
X33631375Y-13573125D01*
X33607375Y-15390625D02*
X33607375Y-15565625D01*
X33519875Y-15478125D02*
X33694875Y-15478125D01*
X33607375Y-21105625D02*
X33607375Y-21280625D01*
X33519875Y-21193125D02*
X33694875Y-21193125D01*
X34020125Y-19200625D02*
X34020125Y-19375625D01*
X33932625Y-19288125D02*
X34107625Y-19288125D01*
X34083625Y-17295625D02*
X34083625Y-17470625D01*
X33996125Y-17383125D02*
X34171125Y-17383125D01*
X34496375Y-15390625D02*
X34496375Y-15565625D01*
X34408875Y-15478125D02*
X34583875Y-15478125D01*
X34559875Y-11342500D02*
X34559875Y-11517500D01*
X34472375Y-11430000D02*
X34647375Y-11430000D01*
X34559875Y-13485625D02*
X34559875Y-13660625D01*
X34472375Y-13573125D02*
X34647375Y-13573125D01*
X34972625Y-17295625D02*
X34972625Y-17470625D01*
X34885125Y-17383125D02*
X35060125Y-17383125D01*
X35036125Y-19200625D02*
X35036125Y-19375625D01*
X34948625Y-19288125D02*
X35123625Y-19288125D01*
X35448875Y-11342500D02*
X35448875Y-11517500D01*
X35361375Y-11430000D02*
X35536375Y-11430000D01*
X35448875Y-13485625D02*
X35448875Y-13660625D01*
X35361375Y-13573125D02*
X35536375Y-13573125D01*
X35448875Y-21105625D02*
X35448875Y-21280625D01*
X35361375Y-21193125D02*
X35536375Y-21193125D01*
X35512375Y-15390625D02*
X35512375Y-15565625D01*
X35424875Y-15478125D02*
X35599875Y-15478125D01*
X35925125Y-19200625D02*
X35925125Y-19375625D01*
X35837625Y-19288125D02*
X36012625Y-19288125D01*
X35988625Y-17295625D02*
X35988625Y-17470625D01*
X35901125Y-17383125D02*
X36076125Y-17383125D01*
X36401375Y-15390625D02*
X36401375Y-15565625D01*
X36313875Y-15478125D02*
X36488875Y-15478125D01*
X36464875Y-11342500D02*
X36464875Y-11517500D01*
X36377375Y-11430000D02*
X36552375Y-11430000D01*
X36464875Y-13485625D02*
X36464875Y-13660625D01*
X36377375Y-13573125D02*
X36552375Y-13573125D01*
X36464875Y-21105625D02*
X36464875Y-21280625D01*
X36377375Y-21193125D02*
X36552375Y-21193125D01*
X36877625Y-17295625D02*
X36877625Y-17470625D01*
X36790125Y-17383125D02*
X36965125Y-17383125D01*
X36941125Y-19200625D02*
X36941125Y-19375625D01*
X36853625Y-19288125D02*
X37028625Y-19288125D01*
X37353875Y-11342500D02*
X37353875Y-11517500D01*
X37266375Y-11430000D02*
X37441375Y-11430000D01*
X37353875Y-13485625D02*
X37353875Y-13660625D01*
X37266375Y-13573125D02*
X37441375Y-13573125D01*
X37417375Y-15390625D02*
X37417375Y-15565625D01*
X37329875Y-15478125D02*
X37504875Y-15478125D01*
X37592000Y-21105625D02*
X37592000Y-21280625D01*
X37504500Y-21193125D02*
X37679500Y-21193125D01*
X37830125Y-19200625D02*
X37830125Y-19375625D01*
X37742625Y-19288125D02*
X37917625Y-19288125D01*
X37893625Y-17295625D02*
X37893625Y-17470625D01*
X37806125Y-17383125D02*
X37981125Y-17383125D01*
X38306375Y-15390625D02*
X38306375Y-15565625D01*
X38218875Y-15478125D02*
X38393875Y-15478125D01*
X38369875Y-11342500D02*
X38369875Y-11517500D01*
X38282375Y-11430000D02*
X38457375Y-11430000D01*
X38369875Y-13485625D02*
X38369875Y-13660625D01*
X38282375Y-13573125D02*
X38457375Y-13573125D01*
X38608000Y-21105625D02*
X38608000Y-21280625D01*
X38520500Y-21193125D02*
X38695500Y-21193125D01*
X38782625Y-17295625D02*
X38782625Y-17470625D01*
X38695125Y-17383125D02*
X38870125Y-17383125D01*
X38846125Y-19200625D02*
X38846125Y-19375625D01*
X38758625Y-19288125D02*
X38933625Y-19288125D01*
X39258875Y-11342500D02*
X39258875Y-11517500D01*
X39171375Y-11430000D02*
X39346375Y-11430000D01*
X39258875Y-13485625D02*
X39258875Y-13660625D01*
X39171375Y-13573125D02*
X39346375Y-13573125D01*
X39322375Y-15390625D02*
X39322375Y-15565625D01*
X39234875Y-15478125D02*
X39409875Y-15478125D01*
X39735125Y-19200625D02*
X39735125Y-19375625D01*
X39647625Y-19288125D02*
X39822625Y-19288125D01*
X39798625Y-17295625D02*
X39798625Y-17470625D01*
X39711125Y-17383125D02*
X39886125Y-17383125D01*
X39973250Y-21105625D02*
X39973250Y-21280625D01*
X39885750Y-21193125D02*
X40060750Y-21193125D01*
X40211375Y-15390625D02*
X40211375Y-15565625D01*
X40123875Y-15478125D02*
X40298875Y-15478125D01*
X40274875Y-11342500D02*
X40274875Y-11517500D01*
X40187375Y-11430000D02*
X40362375Y-11430000D01*
X40274875Y-13485625D02*
X40274875Y-13660625D01*
X40187375Y-13573125D02*
X40362375Y-13573125D01*
X40687625Y-17295625D02*
X40687625Y-17470625D01*
X40600125Y-17383125D02*
X40775125Y-17383125D01*
X40751125Y-19200625D02*
X40751125Y-19375625D01*
X40663625Y-19288125D02*
X40838625Y-19288125D01*
X40989250Y-21105625D02*
X40989250Y-21280625D01*
X40901750Y-21193125D02*
X41076750Y-21193125D01*
X41163875Y-11342500D02*
X41163875Y-11517500D01*
X41076375Y-11430000D02*
X41251375Y-11430000D01*
X41163875Y-13485625D02*
X41163875Y-13660625D01*
X41076375Y-13573125D02*
X41251375Y-13573125D01*
X41227375Y-15390625D02*
X41227375Y-15565625D01*
X41139875Y-15478125D02*
X41314875Y-15478125D01*
X41703625Y-17295625D02*
X41703625Y-17470625D01*
X41616125Y-17383125D02*
X41791125Y-17383125D01*
X42116375Y-15390625D02*
X42116375Y-15565625D01*
X42028875Y-15478125D02*
X42203875Y-15478125D01*
X42179875Y-11342500D02*
X42179875Y-11517500D01*
X42092375Y-11430000D02*
X42267375Y-11430000D01*
X42179875Y-13485625D02*
X42179875Y-13660625D01*
X42092375Y-13573125D02*
X42267375Y-13573125D01*
X42354500Y-21105625D02*
X42354500Y-21280625D01*
X42267000Y-21193125D02*
X42442000Y-21193125D01*
X43068875Y-11342500D02*
X43068875Y-11517500D01*
X42981375Y-11430000D02*
X43156375Y-11430000D01*
X43132375Y-15390625D02*
X43132375Y-15565625D01*
X43044875Y-15478125D02*
X43219875Y-15478125D01*
X43307000Y-19200625D02*
X43307000Y-19375625D01*
X43219500Y-19288125D02*
X43394500Y-19288125D01*
X43370500Y-21105625D02*
X43370500Y-21280625D01*
X43283000Y-21193125D02*
X43458000Y-21193125D01*
X43783250Y-17295625D02*
X43783250Y-17470625D01*
X43695750Y-17383125D02*
X43870750Y-17383125D01*
X44021375Y-13485625D02*
X44021375Y-13660625D01*
X43933875Y-13573125D02*
X44108875Y-13573125D01*
X44084875Y-11342500D02*
X44084875Y-11517500D01*
X43997375Y-11430000D02*
X44172375Y-11430000D01*
X44323000Y-19200625D02*
X44323000Y-19375625D01*
X44235500Y-19288125D02*
X44410500Y-19288125D01*
X44497625Y-15390625D02*
X44497625Y-15565625D01*
X44410125Y-15478125D02*
X44585125Y-15478125D01*
X44735750Y-21105625D02*
X44735750Y-21280625D01*
X44648250Y-21193125D02*
X44823250Y-21193125D01*
X44799250Y-17295625D02*
X44799250Y-17470625D01*
X44711750Y-17383125D02*
X44886750Y-17383125D01*
X44973875Y-11342500D02*
X44973875Y-11517500D01*
X44886375Y-11430000D02*
X45061375Y-11430000D01*
X45037375Y-13485625D02*
X45037375Y-13660625D01*
X44949875Y-13573125D02*
X45124875Y-13573125D01*
X45513625Y-15390625D02*
X45513625Y-15565625D01*
X45426125Y-15478125D02*
X45601125Y-15478125D01*
X45751750Y-21105625D02*
X45751750Y-21280625D01*
X45664250Y-21193125D02*
X45839250Y-21193125D01*
X45989875Y-11342500D02*
X45989875Y-11517500D01*
X45902375Y-11430000D02*
X46077375Y-11430000D01*
X47117000Y-11342500D02*
X47117000Y-11517500D01*
X47029500Y-11430000D02*
X47204500Y-11430000D01*
X47117000Y-13485625D02*
X47117000Y-13660625D01*
X47029500Y-13573125D02*
X47204500Y-13573125D01*
X47117000Y-15390625D02*
X47117000Y-15565625D01*
X47029500Y-15478125D02*
X47204500Y-15478125D01*
X47117000Y-17295625D02*
X47117000Y-17470625D01*
X47029500Y-17383125D02*
X47204500Y-17383125D01*
X47117000Y-19200625D02*
X47117000Y-19375625D01*
X47029500Y-19288125D02*
X47204500Y-19288125D01*
X47117000Y-21105625D02*
X47117000Y-21280625D01*
X47029500Y-21193125D02*
X47204500Y-21193125D01*
X48133000Y-11342500D02*
X48133000Y-11517500D01*
X48045500Y-11430000D02*
X48220500Y-11430000D01*
X48133000Y-13485625D02*
X48133000Y-13660625D01*
X48045500Y-13573125D02*
X48220500Y-13573125D01*
X48133000Y-15390625D02*
X48133000Y-15565625D01*
X48045500Y-15478125D02*
X48220500Y-15478125D01*
X48133000Y-17295625D02*
X48133000Y-17470625D01*
X48045500Y-17383125D02*
X48220500Y-17383125D01*
X48133000Y-19200625D02*
X48133000Y-19375625D01*
X48045500Y-19288125D02*
X48220500Y-19288125D01*
X48133000Y-21105625D02*
X48133000Y-21280625D01*
X48045500Y-21193125D02*
X48220500Y-21193125D01*
X49022000Y-11342500D02*
X49022000Y-11517500D01*
X48934500Y-11430000D02*
X49109500Y-11430000D01*
X49022000Y-13485625D02*
X49022000Y-13660625D01*
X48934500Y-13573125D02*
X49109500Y-13573125D01*
X49022000Y-15390625D02*
X49022000Y-15565625D01*
X48934500Y-15478125D02*
X49109500Y-15478125D01*
X49022000Y-17295625D02*
X49022000Y-17470625D01*
X48934500Y-17383125D02*
X49109500Y-17383125D01*
X49022000Y-19200625D02*
X49022000Y-19375625D01*
X48934500Y-19288125D02*
X49109500Y-19288125D01*
X49022000Y-21105625D02*
X49022000Y-21280625D01*
X48934500Y-21193125D02*
X49109500Y-21193125D01*
X50038000Y-11342500D02*
X50038000Y-11517500D01*
X49950500Y-11430000D02*
X50125500Y-11430000D01*
X50038000Y-13485625D02*
X50038000Y-13660625D01*
X49950500Y-13573125D02*
X50125500Y-13573125D01*
X50038000Y-15390625D02*
X50038000Y-15565625D01*
X49950500Y-15478125D02*
X50125500Y-15478125D01*
X50038000Y-17295625D02*
X50038000Y-17470625D01*
X49950500Y-17383125D02*
X50125500Y-17383125D01*
X50038000Y-19200625D02*
X50038000Y-19375625D01*
X49950500Y-19288125D02*
X50125500Y-19288125D01*
X50038000Y-21105625D02*
X50038000Y-21280625D01*
X49950500Y-21193125D02*
X50125500Y-21193125D01*
X50927000Y-11342500D02*
X50927000Y-11517500D01*
X50839500Y-11430000D02*
X51014500Y-11430000D01*
X50927000Y-13485625D02*
X50927000Y-13660625D01*
X50839500Y-13573125D02*
X51014500Y-13573125D01*
X50927000Y-15390625D02*
X50927000Y-15565625D01*
X50839500Y-15478125D02*
X51014500Y-15478125D01*
X50927000Y-17295625D02*
X50927000Y-17470625D01*
X50839500Y-17383125D02*
X51014500Y-17383125D01*
X50927000Y-19200625D02*
X50927000Y-19375625D01*
X50839500Y-19288125D02*
X51014500Y-19288125D01*
X50927000Y-21105625D02*
X50927000Y-21280625D01*
X50839500Y-21193125D02*
X51014500Y-21193125D01*
X51943000Y-11342500D02*
X51943000Y-11517500D01*
X51855500Y-11430000D02*
X52030500Y-11430000D01*
X51943000Y-13485625D02*
X51943000Y-13660625D01*
X51855500Y-13573125D02*
X52030500Y-13573125D01*
X51943000Y-15390625D02*
X51943000Y-15565625D01*
X51855500Y-15478125D02*
X52030500Y-15478125D01*
X51943000Y-17295625D02*
X51943000Y-17470625D01*
X51855500Y-17383125D02*
X52030500Y-17383125D01*
X51943000Y-19200625D02*
X51943000Y-19375625D01*
X51855500Y-19288125D02*
X52030500Y-19288125D01*
X51943000Y-21105625D02*
X51943000Y-21280625D01*
X51855500Y-21193125D02*
X52030500Y-21193125D01*
X53070125Y-11342500D02*
X53070125Y-11517500D01*
X52982625Y-11430000D02*
X53157625Y-11430000D01*
X53070125Y-13485625D02*
X53070125Y-13660625D01*
X52982625Y-13573125D02*
X53157625Y-13573125D01*
X53070125Y-15390625D02*
X53070125Y-15565625D01*
X52982625Y-15478125D02*
X53157625Y-15478125D01*
X53070125Y-17295625D02*
X53070125Y-17470625D01*
X52982625Y-17383125D02*
X53157625Y-17383125D01*
X53070125Y-19200625D02*
X53070125Y-19375625D01*
X52982625Y-19288125D02*
X53157625Y-19288125D01*
X54022625Y-21105625D02*
X54022625Y-21280625D01*
X53935125Y-21193125D02*
X54110125Y-21193125D01*
X54086125Y-11342500D02*
X54086125Y-11517500D01*
X53998625Y-11430000D02*
X54173625Y-11430000D01*
X54086125Y-13485625D02*
X54086125Y-13660625D01*
X53998625Y-13573125D02*
X54173625Y-13573125D01*
X54086125Y-15390625D02*
X54086125Y-15565625D01*
X53998625Y-15478125D02*
X54173625Y-15478125D01*
X54086125Y-17295625D02*
X54086125Y-17470625D01*
X53998625Y-17383125D02*
X54173625Y-17383125D01*
X54086125Y-19200625D02*
X54086125Y-19375625D01*
X53998625Y-19288125D02*
X54173625Y-19288125D01*
X54975125Y-11342500D02*
X54975125Y-11517500D01*
X54887625Y-11430000D02*
X55062625Y-11430000D01*
X54975125Y-13485625D02*
X54975125Y-13660625D01*
X54887625Y-13573125D02*
X55062625Y-13573125D01*
X54975125Y-15390625D02*
X54975125Y-15565625D01*
X54887625Y-15478125D02*
X55062625Y-15478125D01*
X54975125Y-17295625D02*
X54975125Y-17470625D01*
X54887625Y-17383125D02*
X55062625Y-17383125D01*
X54975125Y-19200625D02*
X54975125Y-19375625D01*
X54887625Y-19288125D02*
X55062625Y-19288125D01*
X55038625Y-21105625D02*
X55038625Y-21280625D01*
X54951125Y-21193125D02*
X55126125Y-21193125D01*
X55991125Y-11342500D02*
X55991125Y-11517500D01*
X55903625Y-11430000D02*
X56078625Y-11430000D01*
X55991125Y-13485625D02*
X55991125Y-13660625D01*
X55903625Y-13573125D02*
X56078625Y-13573125D01*
X55991125Y-15390625D02*
X55991125Y-15565625D01*
X55903625Y-15478125D02*
X56078625Y-15478125D01*
X55991125Y-17295625D02*
X55991125Y-17470625D01*
X55903625Y-17383125D02*
X56078625Y-17383125D01*
X55991125Y-19200625D02*
X55991125Y-19375625D01*
X55903625Y-19288125D02*
X56078625Y-19288125D01*
X56880125Y-11342500D02*
X56880125Y-11517500D01*
X56792625Y-11430000D02*
X56967625Y-11430000D01*
X56880125Y-13485625D02*
X56880125Y-13660625D01*
X56792625Y-13573125D02*
X56967625Y-13573125D01*
X56880125Y-15390625D02*
X56880125Y-15565625D01*
X56792625Y-15478125D02*
X56967625Y-15478125D01*
X56880125Y-17295625D02*
X56880125Y-17470625D01*
X56792625Y-17383125D02*
X56967625Y-17383125D01*
X56880125Y-19200625D02*
X56880125Y-19375625D01*
X56792625Y-19288125D02*
X56967625Y-19288125D01*
X56880125Y-21105625D02*
X56880125Y-21280625D01*
X56792625Y-21193125D02*
X56967625Y-21193125D01*
X57896125Y-11342500D02*
X57896125Y-11517500D01*
X57808625Y-11430000D02*
X57983625Y-11430000D01*
X57896125Y-13485625D02*
X57896125Y-13660625D01*
X57808625Y-13573125D02*
X57983625Y-13573125D01*
X57896125Y-15390625D02*
X57896125Y-15565625D01*
X57808625Y-15478125D02*
X57983625Y-15478125D01*
X57896125Y-17295625D02*
X57896125Y-17470625D01*
X57808625Y-17383125D02*
X57983625Y-17383125D01*
X57896125Y-19200625D02*
X57896125Y-19375625D01*
X57808625Y-19288125D02*
X57983625Y-19288125D01*
X57896125Y-21105625D02*
X57896125Y-21280625D01*
X57808625Y-21193125D02*
X57983625Y-21193125D01*
X58785125Y-11342500D02*
X58785125Y-11517500D01*
X58697625Y-11430000D02*
X58872625Y-11430000D01*
X58785125Y-13485625D02*
X58785125Y-13660625D01*
X58697625Y-13573125D02*
X58872625Y-13573125D01*
X58785125Y-16343125D02*
X58785125Y-16518125D01*
X58697625Y-16430625D02*
X58872625Y-16430625D01*
X58785125Y-20153125D02*
X58785125Y-20328125D01*
X58697625Y-20240625D02*
X58872625Y-20240625D01*
X59801125Y-11342500D02*
X59801125Y-11517500D01*
X59713625Y-11430000D02*
X59888625Y-11430000D01*
X59801125Y-13485625D02*
X59801125Y-13660625D01*
X59713625Y-13573125D02*
X59888625Y-13573125D01*
X59801125Y-16343125D02*
X59801125Y-16518125D01*
X59713625Y-16430625D02*
X59888625Y-16430625D01*
X59801125Y-20153125D02*
X59801125Y-20328125D01*
X59713625Y-20240625D02*
X59888625Y-20240625D01*
D15*
X18173378Y-19365908D02*
X18173378Y-19210343D01*
X18017813Y-19210343D01*
X18017813Y-19365908D01*
X18173378Y-19365908D01*
X19840253Y-13650907D02*
X19840253Y-13495342D01*
X19684688Y-13495342D01*
X19684688Y-13650907D01*
X19840253Y-13650907D01*
X24964702Y-21270908D02*
X24964702Y-21115343D01*
X24809137Y-21115343D01*
X24809137Y-21270908D01*
X24964702Y-21270908D01*
X26984002Y-17460908D02*
X26984002Y-17305343D01*
X26828437Y-17305343D01*
X26828437Y-17460908D01*
X26984002Y-17460908D01*
X27460252Y-11745907D02*
X27460252Y-11590342D01*
X27304687Y-11590342D01*
X27304687Y-11745907D01*
X27460252Y-11745907D01*
X32099562Y-21270908D02*
X32099562Y-21115343D01*
X31943997Y-21115343D01*
X31943997Y-21270908D01*
X32099562Y-21270908D01*
X35080253Y-13650907D02*
X35080253Y-13495342D01*
X34924688Y-13495342D01*
X34924688Y-13650907D01*
X35080253Y-13650907D01*
X38414003Y-17460908D02*
X38414003Y-17305343D01*
X38258438Y-17305343D01*
X38258438Y-17460908D01*
X38414003Y-17460908D01*
X41747753Y-21270908D02*
X41747753Y-21115343D01*
X41592188Y-21115343D01*
X41592188Y-21270908D01*
X41747753Y-21270908D01*
X42700253Y-11745907D02*
X42700253Y-11590342D01*
X42544688Y-11590342D01*
X42544688Y-11745907D01*
X42700253Y-11745907D01*
X48655282Y-15555907D02*
X48655282Y-15400342D01*
X48499717Y-15400342D01*
X48499717Y-15555907D01*
X48655282Y-15555907D01*
X50558377Y-21270908D02*
X50558377Y-21115343D01*
X50402812Y-21115343D01*
X50402812Y-21270908D01*
X50558377Y-21270908D01*
X54606502Y-15555907D02*
X54606502Y-15400342D01*
X54450937Y-15400342D01*
X54450937Y-15555907D01*
X54606502Y-15555907D01*
X58413962Y-20824503D02*
X58413962Y-20668938D01*
X58258397Y-20668938D01*
X58258397Y-20824503D01*
X58413962Y-20824503D01*
X58419042Y-13650907D02*
X58419042Y-13495342D01*
X58263477Y-13495342D01*
X58263477Y-13650907D01*
X58419042Y-13650907D01*
D16*
X18811875Y-20139025D02*
X18964275Y-19986625D01*
X18811875Y-19834225D01*
X18659475Y-19986625D01*
X18811875Y-20139025D01*
X21193125Y-20139025D02*
X21345525Y-19986625D01*
X21193125Y-19834225D01*
X21040725Y-19986625D01*
X21193125Y-20139025D01*
X43100625Y-18234025D02*
X43253025Y-18081625D01*
X43100625Y-17929225D01*
X42948225Y-18081625D01*
X43100625Y-18234025D01*
X43340020Y-14424025D02*
X43492420Y-14271625D01*
X43340020Y-14119225D01*
X43187620Y-14271625D01*
X43340020Y-14424025D01*
X45481875Y-18234025D02*
X45634275Y-18081625D01*
X45481875Y-17929225D01*
X45329475Y-18081625D01*
X45481875Y-18234025D01*
X45721270Y-14424025D02*
X45873670Y-14271625D01*
X45721270Y-14119225D01*
X45568870Y-14271625D01*
X45721270Y-14424025D01*
X53340000Y-22044025D02*
X53492400Y-21891625D01*
X53340000Y-21739225D01*
X53187600Y-21891625D01*
X53340000Y-22044025D01*
X55721250Y-22044025D02*
X55873650Y-21891625D01*
X55721250Y-21739225D01*
X55568850Y-21891625D01*
X55721250Y-22044025D01*
X59991625Y-15392400D02*
X60144025Y-15240000D01*
X59991625Y-15087600D01*
X59839225Y-15240000D01*
X59991625Y-15392400D01*
X59991625Y-17773650D02*
X60144025Y-17621250D01*
X59991625Y-17468850D01*
X59839225Y-17621250D01*
X59991625Y-17773650D01*
X59991625Y-19202400D02*
X60144025Y-19050000D01*
X59991625Y-18897600D01*
X59839225Y-19050000D01*
X59991625Y-19202400D01*
X59991625Y-21583650D02*
X60144025Y-21431250D01*
X59991625Y-21278850D01*
X59839225Y-21431250D01*
X59991625Y-21583650D01*
D17*
X18611850Y-11230610D02*
X19010630Y-11629390D01*
X19010630Y-11230610D02*
X18611850Y-11629390D01*
X19010630Y-11430000D02*
G75*
G03*
X19010630Y-11430000I-199390J0D01*
G01*
X18612485Y-13373735D02*
X19011265Y-13772515D01*
X19011265Y-13373735D02*
X18612485Y-13772515D01*
X19011265Y-13573125D02*
G75*
G03*
X19011265Y-13573125I-199390J0D01*
G01*
X18612485Y-18263235D02*
X19011265Y-18662015D01*
X19011265Y-18263235D02*
X18612485Y-18662015D01*
X19011265Y-18462625D02*
G75*
G03*
X19011265Y-18462625I-199390J0D01*
G01*
X18850610Y-20993735D02*
X19249390Y-21392515D01*
X19249390Y-20993735D02*
X18850610Y-21392515D01*
X19249390Y-21193125D02*
G75*
G03*
X19249390Y-21193125I-199390J0D01*
G01*
X19088735Y-15278735D02*
X19487515Y-15677515D01*
X19487515Y-15278735D02*
X19088735Y-15677515D01*
X19487515Y-15478125D02*
G75*
G03*
X19487515Y-15478125I-199390J0D01*
G01*
X19326860Y-17183735D02*
X19725640Y-17582515D01*
X19725640Y-17183735D02*
X19326860Y-17582515D01*
X19725640Y-17383125D02*
G75*
G03*
X19725640Y-17383125I-199390J0D01*
G01*
X19803110Y-19088735D02*
X20201890Y-19487515D01*
X20201890Y-19088735D02*
X19803110Y-19487515D01*
X20201890Y-19288125D02*
G75*
G03*
X20201890Y-19288125I-199390J0D01*
G01*
X20517485Y-11230610D02*
X20916265Y-11629390D01*
X20916265Y-11230610D02*
X20517485Y-11629390D01*
X20916265Y-11430000D02*
G75*
G03*
X20916265Y-11430000I-199390J0D01*
G01*
X20517485Y-13373735D02*
X20916265Y-13772515D01*
X20916265Y-13373735D02*
X20517485Y-13772515D01*
X20916265Y-13573125D02*
G75*
G03*
X20916265Y-13573125I-199390J0D01*
G01*
X20993735Y-18263235D02*
X21392515Y-18662015D01*
X21392515Y-18263235D02*
X20993735Y-18662015D01*
X21392515Y-18462625D02*
G75*
G03*
X21392515Y-18462625I-199390J0D01*
G01*
X21231860Y-20993735D02*
X21630640Y-21392515D01*
X21630640Y-20993735D02*
X21231860Y-21392515D01*
X21630640Y-21193125D02*
G75*
G03*
X21630640Y-21193125I-199390J0D01*
G01*
X21469985Y-15278735D02*
X21868765Y-15677515D01*
X21868765Y-15278735D02*
X21469985Y-15677515D01*
X21868765Y-15478125D02*
G75*
G03*
X21868765Y-15478125I-199390J0D01*
G01*
X21946235Y-17183735D02*
X22345015Y-17582515D01*
X22345015Y-17183735D02*
X21946235Y-17582515D01*
X22345015Y-17383125D02*
G75*
G03*
X22345015Y-17383125I-199390J0D01*
G01*
X22422485Y-11230610D02*
X22821265Y-11629390D01*
X22821265Y-11230610D02*
X22422485Y-11629390D01*
X22821265Y-11430000D02*
G75*
G03*
X22821265Y-11430000I-199390J0D01*
G01*
X22422485Y-13373735D02*
X22821265Y-13772515D01*
X22821265Y-13373735D02*
X22422485Y-13772515D01*
X22821265Y-13573125D02*
G75*
G03*
X22821265Y-13573125I-199390J0D01*
G01*
X22898735Y-19088735D02*
X23297515Y-19487515D01*
X23297515Y-19088735D02*
X22898735Y-19487515D01*
X23297515Y-19288125D02*
G75*
G03*
X23297515Y-19288125I-199390J0D01*
G01*
X23374985Y-15278735D02*
X23773765Y-15677515D01*
X23773765Y-15278735D02*
X23374985Y-15677515D01*
X23773765Y-15478125D02*
G75*
G03*
X23773765Y-15478125I-199390J0D01*
G01*
X23613110Y-20993735D02*
X24011890Y-21392515D01*
X24011890Y-20993735D02*
X23613110Y-21392515D01*
X24011890Y-21193125D02*
G75*
G03*
X24011890Y-21193125I-199390J0D01*
G01*
X23851235Y-17183735D02*
X24250015Y-17582515D01*
X24250015Y-17183735D02*
X23851235Y-17582515D01*
X24250015Y-17383125D02*
G75*
G03*
X24250015Y-17383125I-199390J0D01*
G01*
X24327485Y-11230610D02*
X24726265Y-11629390D01*
X24726265Y-11230610D02*
X24327485Y-11629390D01*
X24726265Y-11430000D02*
G75*
G03*
X24726265Y-11430000I-199390J0D01*
G01*
X24327485Y-13373735D02*
X24726265Y-13772515D01*
X24726265Y-13373735D02*
X24327485Y-13772515D01*
X24726265Y-13573125D02*
G75*
G03*
X24726265Y-13573125I-199390J0D01*
G01*
X24803735Y-19088735D02*
X25202515Y-19487515D01*
X25202515Y-19088735D02*
X24803735Y-19487515D01*
X25202515Y-19288125D02*
G75*
G03*
X25202515Y-19288125I-199390J0D01*
G01*
X25279985Y-15278735D02*
X25678765Y-15677515D01*
X25678765Y-15278735D02*
X25279985Y-15677515D01*
X25678765Y-15478125D02*
G75*
G03*
X25678765Y-15478125I-199390J0D01*
G01*
X25756235Y-17183735D02*
X26155015Y-17582515D01*
X26155015Y-17183735D02*
X25756235Y-17582515D01*
X26155015Y-17383125D02*
G75*
G03*
X26155015Y-17383125I-199390J0D01*
G01*
X25756235Y-20993735D02*
X26155015Y-21392515D01*
X26155015Y-20993735D02*
X25756235Y-21392515D01*
X26155015Y-21193125D02*
G75*
G03*
X26155015Y-21193125I-199390J0D01*
G01*
X26232485Y-11230610D02*
X26631265Y-11629390D01*
X26631265Y-11230610D02*
X26232485Y-11629390D01*
X26631265Y-11430000D02*
G75*
G03*
X26631265Y-11430000I-199390J0D01*
G01*
X26232485Y-13373735D02*
X26631265Y-13772515D01*
X26631265Y-13373735D02*
X26232485Y-13772515D01*
X26631265Y-13573125D02*
G75*
G03*
X26631265Y-13573125I-199390J0D01*
G01*
X26708735Y-19088735D02*
X27107515Y-19487515D01*
X27107515Y-19088735D02*
X26708735Y-19487515D01*
X27107515Y-19288125D02*
G75*
G03*
X27107515Y-19288125I-199390J0D01*
G01*
X27184985Y-15278735D02*
X27583765Y-15677515D01*
X27583765Y-15278735D02*
X27184985Y-15677515D01*
X27583765Y-15478125D02*
G75*
G03*
X27583765Y-15478125I-199390J0D01*
G01*
X27661235Y-17183735D02*
X28060015Y-17582515D01*
X28060015Y-17183735D02*
X27661235Y-17582515D01*
X28060015Y-17383125D02*
G75*
G03*
X28060015Y-17383125I-199390J0D01*
G01*
X28137485Y-11230610D02*
X28536265Y-11629390D01*
X28536265Y-11230610D02*
X28137485Y-11629390D01*
X28536265Y-11430000D02*
G75*
G03*
X28536265Y-11430000I-199390J0D01*
G01*
X28137485Y-13373735D02*
X28536265Y-13772515D01*
X28536265Y-13373735D02*
X28137485Y-13772515D01*
X28536265Y-13573125D02*
G75*
G03*
X28536265Y-13573125I-199390J0D01*
G01*
X28613735Y-19088735D02*
X29012515Y-19487515D01*
X29012515Y-19088735D02*
X28613735Y-19487515D01*
X29012515Y-19288125D02*
G75*
G03*
X29012515Y-19288125I-199390J0D01*
G01*
X28851860Y-20993735D02*
X29250640Y-21392515D01*
X29250640Y-20993735D02*
X28851860Y-21392515D01*
X29250640Y-21193125D02*
G75*
G03*
X29250640Y-21193125I-199390J0D01*
G01*
X29089985Y-15278735D02*
X29488765Y-15677515D01*
X29488765Y-15278735D02*
X29089985Y-15677515D01*
X29488765Y-15478125D02*
G75*
G03*
X29488765Y-15478125I-199390J0D01*
G01*
X29566235Y-17183735D02*
X29965015Y-17582515D01*
X29965015Y-17183735D02*
X29566235Y-17582515D01*
X29965015Y-17383125D02*
G75*
G03*
X29965015Y-17383125I-199390J0D01*
G01*
X30042485Y-11230610D02*
X30441265Y-11629390D01*
X30441265Y-11230610D02*
X30042485Y-11629390D01*
X30441265Y-11430000D02*
G75*
G03*
X30441265Y-11430000I-199390J0D01*
G01*
X30042485Y-13373735D02*
X30441265Y-13772515D01*
X30441265Y-13373735D02*
X30042485Y-13772515D01*
X30441265Y-13573125D02*
G75*
G03*
X30441265Y-13573125I-199390J0D01*
G01*
X30518735Y-19088735D02*
X30917515Y-19487515D01*
X30917515Y-19088735D02*
X30518735Y-19487515D01*
X30917515Y-19288125D02*
G75*
G03*
X30917515Y-19288125I-199390J0D01*
G01*
X30756860Y-20993735D02*
X31155640Y-21392515D01*
X31155640Y-20993735D02*
X30756860Y-21392515D01*
X31155640Y-21193125D02*
G75*
G03*
X31155640Y-21193125I-199390J0D01*
G01*
X30994985Y-15278735D02*
X31393765Y-15677515D01*
X31393765Y-15278735D02*
X30994985Y-15677515D01*
X31393765Y-15478125D02*
G75*
G03*
X31393765Y-15478125I-199390J0D01*
G01*
X31471235Y-17183735D02*
X31870015Y-17582515D01*
X31870015Y-17183735D02*
X31471235Y-17582515D01*
X31870015Y-17383125D02*
G75*
G03*
X31870015Y-17383125I-199390J0D01*
G01*
X31947485Y-11230610D02*
X32346265Y-11629390D01*
X32346265Y-11230610D02*
X31947485Y-11629390D01*
X32346265Y-11430000D02*
G75*
G03*
X32346265Y-11430000I-199390J0D01*
G01*
X31947485Y-13373735D02*
X32346265Y-13772515D01*
X32346265Y-13373735D02*
X31947485Y-13772515D01*
X32346265Y-13573125D02*
G75*
G03*
X32346265Y-13573125I-199390J0D01*
G01*
X32423735Y-19088735D02*
X32822515Y-19487515D01*
X32822515Y-19088735D02*
X32423735Y-19487515D01*
X32822515Y-19288125D02*
G75*
G03*
X32822515Y-19288125I-199390J0D01*
G01*
X32899985Y-15278735D02*
X33298765Y-15677515D01*
X33298765Y-15278735D02*
X32899985Y-15677515D01*
X33298765Y-15478125D02*
G75*
G03*
X33298765Y-15478125I-199390J0D01*
G01*
X32899985Y-20993735D02*
X33298765Y-21392515D01*
X33298765Y-20993735D02*
X32899985Y-21392515D01*
X33298765Y-21193125D02*
G75*
G03*
X33298765Y-21193125I-199390J0D01*
G01*
X33376235Y-17183735D02*
X33775015Y-17582515D01*
X33775015Y-17183735D02*
X33376235Y-17582515D01*
X33775015Y-17383125D02*
G75*
G03*
X33775015Y-17383125I-199390J0D01*
G01*
X33852485Y-11230610D02*
X34251265Y-11629390D01*
X34251265Y-11230610D02*
X33852485Y-11629390D01*
X34251265Y-11430000D02*
G75*
G03*
X34251265Y-11430000I-199390J0D01*
G01*
X33852485Y-13373735D02*
X34251265Y-13772515D01*
X34251265Y-13373735D02*
X33852485Y-13772515D01*
X34251265Y-13573125D02*
G75*
G03*
X34251265Y-13573125I-199390J0D01*
G01*
X34328735Y-19088735D02*
X34727515Y-19487515D01*
X34727515Y-19088735D02*
X34328735Y-19487515D01*
X34727515Y-19288125D02*
G75*
G03*
X34727515Y-19288125I-199390J0D01*
G01*
X34804985Y-15278735D02*
X35203765Y-15677515D01*
X35203765Y-15278735D02*
X34804985Y-15677515D01*
X35203765Y-15478125D02*
G75*
G03*
X35203765Y-15478125I-199390J0D01*
G01*
X35281235Y-17183735D02*
X35680015Y-17582515D01*
X35680015Y-17183735D02*
X35281235Y-17582515D01*
X35680015Y-17383125D02*
G75*
G03*
X35680015Y-17383125I-199390J0D01*
G01*
X35757485Y-11230610D02*
X36156265Y-11629390D01*
X36156265Y-11230610D02*
X35757485Y-11629390D01*
X36156265Y-11430000D02*
G75*
G03*
X36156265Y-11430000I-199390J0D01*
G01*
X35757485Y-13373735D02*
X36156265Y-13772515D01*
X36156265Y-13373735D02*
X35757485Y-13772515D01*
X36156265Y-13573125D02*
G75*
G03*
X36156265Y-13573125I-199390J0D01*
G01*
X35757485Y-20993735D02*
X36156265Y-21392515D01*
X36156265Y-20993735D02*
X35757485Y-21392515D01*
X36156265Y-21193125D02*
G75*
G03*
X36156265Y-21193125I-199390J0D01*
G01*
X36233735Y-19088735D02*
X36632515Y-19487515D01*
X36632515Y-19088735D02*
X36233735Y-19487515D01*
X36632515Y-19288125D02*
G75*
G03*
X36632515Y-19288125I-199390J0D01*
G01*
X36709985Y-15278735D02*
X37108765Y-15677515D01*
X37108765Y-15278735D02*
X36709985Y-15677515D01*
X37108765Y-15478125D02*
G75*
G03*
X37108765Y-15478125I-199390J0D01*
G01*
X37186235Y-17183735D02*
X37585015Y-17582515D01*
X37585015Y-17183735D02*
X37186235Y-17582515D01*
X37585015Y-17383125D02*
G75*
G03*
X37585015Y-17383125I-199390J0D01*
G01*
X37662485Y-11230610D02*
X38061265Y-11629390D01*
X38061265Y-11230610D02*
X37662485Y-11629390D01*
X38061265Y-11430000D02*
G75*
G03*
X38061265Y-11430000I-199390J0D01*
G01*
X37662485Y-13373735D02*
X38061265Y-13772515D01*
X38061265Y-13373735D02*
X37662485Y-13772515D01*
X38061265Y-13573125D02*
G75*
G03*
X38061265Y-13573125I-199390J0D01*
G01*
X37900610Y-20993735D02*
X38299390Y-21392515D01*
X38299390Y-20993735D02*
X37900610Y-21392515D01*
X38299390Y-21193125D02*
G75*
G03*
X38299390Y-21193125I-199390J0D01*
G01*
X38138735Y-19088735D02*
X38537515Y-19487515D01*
X38537515Y-19088735D02*
X38138735Y-19487515D01*
X38537515Y-19288125D02*
G75*
G03*
X38537515Y-19288125I-199390J0D01*
G01*
X38614985Y-15278735D02*
X39013765Y-15677515D01*
X39013765Y-15278735D02*
X38614985Y-15677515D01*
X39013765Y-15478125D02*
G75*
G03*
X39013765Y-15478125I-199390J0D01*
G01*
X39091235Y-17183735D02*
X39490015Y-17582515D01*
X39490015Y-17183735D02*
X39091235Y-17582515D01*
X39490015Y-17383125D02*
G75*
G03*
X39490015Y-17383125I-199390J0D01*
G01*
X39567485Y-11230610D02*
X39966265Y-11629390D01*
X39966265Y-11230610D02*
X39567485Y-11629390D01*
X39966265Y-11430000D02*
G75*
G03*
X39966265Y-11430000I-199390J0D01*
G01*
X39567485Y-13373735D02*
X39966265Y-13772515D01*
X39966265Y-13373735D02*
X39567485Y-13772515D01*
X39966265Y-13573125D02*
G75*
G03*
X39966265Y-13573125I-199390J0D01*
G01*
X40043735Y-19088735D02*
X40442515Y-19487515D01*
X40442515Y-19088735D02*
X40043735Y-19487515D01*
X40442515Y-19288125D02*
G75*
G03*
X40442515Y-19288125I-199390J0D01*
G01*
X40281860Y-20993735D02*
X40680640Y-21392515D01*
X40680640Y-20993735D02*
X40281860Y-21392515D01*
X40680640Y-21193125D02*
G75*
G03*
X40680640Y-21193125I-199390J0D01*
G01*
X40519985Y-15278735D02*
X40918765Y-15677515D01*
X40918765Y-15278735D02*
X40519985Y-15677515D01*
X40918765Y-15478125D02*
G75*
G03*
X40918765Y-15478125I-199390J0D01*
G01*
X40996235Y-17183735D02*
X41395015Y-17582515D01*
X41395015Y-17183735D02*
X40996235Y-17582515D01*
X41395015Y-17383125D02*
G75*
G03*
X41395015Y-17383125I-199390J0D01*
G01*
X41472485Y-11230610D02*
X41871265Y-11629390D01*
X41871265Y-11230610D02*
X41472485Y-11629390D01*
X41871265Y-11430000D02*
G75*
G03*
X41871265Y-11430000I-199390J0D01*
G01*
X41472485Y-13373735D02*
X41871265Y-13772515D01*
X41871265Y-13373735D02*
X41472485Y-13772515D01*
X41871265Y-13573125D02*
G75*
G03*
X41871265Y-13573125I-199390J0D01*
G01*
X42424985Y-15278735D02*
X42823765Y-15677515D01*
X42823765Y-15278735D02*
X42424985Y-15677515D01*
X42823765Y-15478125D02*
G75*
G03*
X42823765Y-15478125I-199390J0D01*
G01*
X42663110Y-20993735D02*
X43061890Y-21392515D01*
X43061890Y-20993735D02*
X42663110Y-21392515D01*
X43061890Y-21193125D02*
G75*
G03*
X43061890Y-21193125I-199390J0D01*
G01*
X42901235Y-16358235D02*
X43300015Y-16757015D01*
X43300015Y-16358235D02*
X42901235Y-16757015D01*
X43300015Y-16557625D02*
G75*
G03*
X43300015Y-16557625I-199390J0D01*
G01*
X43140630Y-12548235D02*
X43539410Y-12947015D01*
X43539410Y-12548235D02*
X43140630Y-12947015D01*
X43539410Y-12747625D02*
G75*
G03*
X43539410Y-12747625I-199390J0D01*
G01*
X43377485Y-11230610D02*
X43776265Y-11629390D01*
X43776265Y-11230610D02*
X43377485Y-11629390D01*
X43776265Y-11430000D02*
G75*
G03*
X43776265Y-11430000I-199390J0D01*
G01*
X43615610Y-19088735D02*
X44014390Y-19487515D01*
X44014390Y-19088735D02*
X43615610Y-19487515D01*
X44014390Y-19288125D02*
G75*
G03*
X44014390Y-19288125I-199390J0D01*
G01*
X44091860Y-17183735D02*
X44490640Y-17582515D01*
X44490640Y-17183735D02*
X44091860Y-17582515D01*
X44490640Y-17383125D02*
G75*
G03*
X44490640Y-17383125I-199390J0D01*
G01*
X44329985Y-13373735D02*
X44728765Y-13772515D01*
X44728765Y-13373735D02*
X44329985Y-13772515D01*
X44728765Y-13573125D02*
G75*
G03*
X44728765Y-13573125I-199390J0D01*
G01*
X44806235Y-15278735D02*
X45205015Y-15677515D01*
X45205015Y-15278735D02*
X44806235Y-15677515D01*
X45205015Y-15478125D02*
G75*
G03*
X45205015Y-15478125I-199390J0D01*
G01*
X45044360Y-20993735D02*
X45443140Y-21392515D01*
X45443140Y-20993735D02*
X45044360Y-21392515D01*
X45443140Y-21193125D02*
G75*
G03*
X45443140Y-21193125I-199390J0D01*
G01*
X45282485Y-11230610D02*
X45681265Y-11629390D01*
X45681265Y-11230610D02*
X45282485Y-11629390D01*
X45681265Y-11430000D02*
G75*
G03*
X45681265Y-11430000I-199390J0D01*
G01*
X45282485Y-16358235D02*
X45681265Y-16757015D01*
X45681265Y-16358235D02*
X45282485Y-16757015D01*
X45681265Y-16557625D02*
G75*
G03*
X45681265Y-16557625I-199390J0D01*
G01*
X45521880Y-12548235D02*
X45920660Y-12947015D01*
X45920660Y-12548235D02*
X45521880Y-12947015D01*
X45920660Y-12747625D02*
G75*
G03*
X45920660Y-12747625I-199390J0D01*
G01*
X47425610Y-11230610D02*
X47824390Y-11629390D01*
X47824390Y-11230610D02*
X47425610Y-11629390D01*
X47824390Y-11430000D02*
G75*
G03*
X47824390Y-11430000I-199390J0D01*
G01*
X47425610Y-13373735D02*
X47824390Y-13772515D01*
X47824390Y-13373735D02*
X47425610Y-13772515D01*
X47824390Y-13573125D02*
G75*
G03*
X47824390Y-13573125I-199390J0D01*
G01*
X47425610Y-15278735D02*
X47824390Y-15677515D01*
X47824390Y-15278735D02*
X47425610Y-15677515D01*
X47824390Y-15478125D02*
G75*
G03*
X47824390Y-15478125I-199390J0D01*
G01*
X47425610Y-17183735D02*
X47824390Y-17582515D01*
X47824390Y-17183735D02*
X47425610Y-17582515D01*
X47824390Y-17383125D02*
G75*
G03*
X47824390Y-17383125I-199390J0D01*
G01*
X47425610Y-19088735D02*
X47824390Y-19487515D01*
X47824390Y-19088735D02*
X47425610Y-19487515D01*
X47824390Y-19288125D02*
G75*
G03*
X47824390Y-19288125I-199390J0D01*
G01*
X47425610Y-20993735D02*
X47824390Y-21392515D01*
X47824390Y-20993735D02*
X47425610Y-21392515D01*
X47824390Y-21193125D02*
G75*
G03*
X47824390Y-21193125I-199390J0D01*
G01*
X49330610Y-11230610D02*
X49729390Y-11629390D01*
X49729390Y-11230610D02*
X49330610Y-11629390D01*
X49729390Y-11430000D02*
G75*
G03*
X49729390Y-11430000I-199390J0D01*
G01*
X49330610Y-13373735D02*
X49729390Y-13772515D01*
X49729390Y-13373735D02*
X49330610Y-13772515D01*
X49729390Y-13573125D02*
G75*
G03*
X49729390Y-13573125I-199390J0D01*
G01*
X49330610Y-15278735D02*
X49729390Y-15677515D01*
X49729390Y-15278735D02*
X49330610Y-15677515D01*
X49729390Y-15478125D02*
G75*
G03*
X49729390Y-15478125I-199390J0D01*
G01*
X49330610Y-17183735D02*
X49729390Y-17582515D01*
X49729390Y-17183735D02*
X49330610Y-17582515D01*
X49729390Y-17383125D02*
G75*
G03*
X49729390Y-17383125I-199390J0D01*
G01*
X49330610Y-19088735D02*
X49729390Y-19487515D01*
X49729390Y-19088735D02*
X49330610Y-19487515D01*
X49729390Y-19288125D02*
G75*
G03*
X49729390Y-19288125I-199390J0D01*
G01*
X49330610Y-20993735D02*
X49729390Y-21392515D01*
X49729390Y-20993735D02*
X49330610Y-21392515D01*
X49729390Y-21193125D02*
G75*
G03*
X49729390Y-21193125I-199390J0D01*
G01*
X51235610Y-11230610D02*
X51634390Y-11629390D01*
X51634390Y-11230610D02*
X51235610Y-11629390D01*
X51634390Y-11430000D02*
G75*
G03*
X51634390Y-11430000I-199390J0D01*
G01*
X51235610Y-13373735D02*
X51634390Y-13772515D01*
X51634390Y-13373735D02*
X51235610Y-13772515D01*
X51634390Y-13573125D02*
G75*
G03*
X51634390Y-13573125I-199390J0D01*
G01*
X51235610Y-15278735D02*
X51634390Y-15677515D01*
X51634390Y-15278735D02*
X51235610Y-15677515D01*
X51634390Y-15478125D02*
G75*
G03*
X51634390Y-15478125I-199390J0D01*
G01*
X51235610Y-17183735D02*
X51634390Y-17582515D01*
X51634390Y-17183735D02*
X51235610Y-17582515D01*
X51634390Y-17383125D02*
G75*
G03*
X51634390Y-17383125I-199390J0D01*
G01*
X51235610Y-19088735D02*
X51634390Y-19487515D01*
X51634390Y-19088735D02*
X51235610Y-19487515D01*
X51634390Y-19288125D02*
G75*
G03*
X51634390Y-19288125I-199390J0D01*
G01*
X51235610Y-20993735D02*
X51634390Y-21392515D01*
X51634390Y-20993735D02*
X51235610Y-21392515D01*
X51634390Y-21193125D02*
G75*
G03*
X51634390Y-21193125I-199390J0D01*
G01*
X53140610Y-20168235D02*
X53539390Y-20567015D01*
X53539390Y-20168235D02*
X53140610Y-20567015D01*
X53539390Y-20367625D02*
G75*
G03*
X53539390Y-20367625I-199390J0D01*
G01*
X53378735Y-11230610D02*
X53777515Y-11629390D01*
X53777515Y-11230610D02*
X53378735Y-11629390D01*
X53777515Y-11430000D02*
G75*
G03*
X53777515Y-11430000I-199390J0D01*
G01*
X53378735Y-13373735D02*
X53777515Y-13772515D01*
X53777515Y-13373735D02*
X53378735Y-13772515D01*
X53777515Y-13573125D02*
G75*
G03*
X53777515Y-13573125I-199390J0D01*
G01*
X53378735Y-15278735D02*
X53777515Y-15677515D01*
X53777515Y-15278735D02*
X53378735Y-15677515D01*
X53777515Y-15478125D02*
G75*
G03*
X53777515Y-15478125I-199390J0D01*
G01*
X53378735Y-17183735D02*
X53777515Y-17582515D01*
X53777515Y-17183735D02*
X53378735Y-17582515D01*
X53777515Y-17383125D02*
G75*
G03*
X53777515Y-17383125I-199390J0D01*
G01*
X53378735Y-19088735D02*
X53777515Y-19487515D01*
X53777515Y-19088735D02*
X53378735Y-19487515D01*
X53777515Y-19288125D02*
G75*
G03*
X53777515Y-19288125I-199390J0D01*
G01*
X54331235Y-20993735D02*
X54730015Y-21392515D01*
X54730015Y-20993735D02*
X54331235Y-21392515D01*
X54730015Y-21193125D02*
G75*
G03*
X54730015Y-21193125I-199390J0D01*
G01*
X55283735Y-11230610D02*
X55682515Y-11629390D01*
X55682515Y-11230610D02*
X55283735Y-11629390D01*
X55682515Y-11430000D02*
G75*
G03*
X55682515Y-11430000I-199390J0D01*
G01*
X55283735Y-13373735D02*
X55682515Y-13772515D01*
X55682515Y-13373735D02*
X55283735Y-13772515D01*
X55682515Y-13573125D02*
G75*
G03*
X55682515Y-13573125I-199390J0D01*
G01*
X55283735Y-15278735D02*
X55682515Y-15677515D01*
X55682515Y-15278735D02*
X55283735Y-15677515D01*
X55682515Y-15478125D02*
G75*
G03*
X55682515Y-15478125I-199390J0D01*
G01*
X55283735Y-17183735D02*
X55682515Y-17582515D01*
X55682515Y-17183735D02*
X55283735Y-17582515D01*
X55682515Y-17383125D02*
G75*
G03*
X55682515Y-17383125I-199390J0D01*
G01*
X55283735Y-19088735D02*
X55682515Y-19487515D01*
X55682515Y-19088735D02*
X55283735Y-19487515D01*
X55682515Y-19288125D02*
G75*
G03*
X55682515Y-19288125I-199390J0D01*
G01*
X55521860Y-20168235D02*
X55920640Y-20567015D01*
X55920640Y-20168235D02*
X55521860Y-20567015D01*
X55920640Y-20367625D02*
G75*
G03*
X55920640Y-20367625I-199390J0D01*
G01*
X57188735Y-11230610D02*
X57587515Y-11629390D01*
X57587515Y-11230610D02*
X57188735Y-11629390D01*
X57587515Y-11430000D02*
G75*
G03*
X57587515Y-11430000I-199390J0D01*
G01*
X57188735Y-13373735D02*
X57587515Y-13772515D01*
X57587515Y-13373735D02*
X57188735Y-13772515D01*
X57587515Y-13573125D02*
G75*
G03*
X57587515Y-13573125I-199390J0D01*
G01*
X57188735Y-15278735D02*
X57587515Y-15677515D01*
X57587515Y-15278735D02*
X57188735Y-15677515D01*
X57587515Y-15478125D02*
G75*
G03*
X57587515Y-15478125I-199390J0D01*
G01*
X57188735Y-17183735D02*
X57587515Y-17582515D01*
X57587515Y-17183735D02*
X57188735Y-17582515D01*
X57587515Y-17383125D02*
G75*
G03*
X57587515Y-17383125I-199390J0D01*
G01*
X57188735Y-19088735D02*
X57587515Y-19487515D01*
X57587515Y-19088735D02*
X57188735Y-19487515D01*
X57587515Y-19288125D02*
G75*
G03*
X57587515Y-19288125I-199390J0D01*
G01*
X57188735Y-20993735D02*
X57587515Y-21392515D01*
X57587515Y-20993735D02*
X57188735Y-21392515D01*
X57587515Y-21193125D02*
G75*
G03*
X57587515Y-21193125I-199390J0D01*
G01*
X58268235Y-15040610D02*
X58667015Y-15439390D01*
X58667015Y-15040610D02*
X58268235Y-15439390D01*
X58667015Y-15240000D02*
G75*
G03*
X58667015Y-15240000I-199390J0D01*
G01*
X58268235Y-17421860D02*
X58667015Y-17820640D01*
X58667015Y-17421860D02*
X58268235Y-17820640D01*
X58667015Y-17621250D02*
G75*
G03*
X58667015Y-17621250I-199390J0D01*
G01*
X58268235Y-18850610D02*
X58667015Y-19249390D01*
X58667015Y-18850610D02*
X58268235Y-19249390D01*
X58667015Y-19050000D02*
G75*
G03*
X58667015Y-19050000I-199390J0D01*
G01*
X58268235Y-21231860D02*
X58667015Y-21630640D01*
X58667015Y-21231860D02*
X58268235Y-21630640D01*
X58667015Y-21431250D02*
G75*
G03*
X58667015Y-21431250I-199390J0D01*
G01*
X59093735Y-11230610D02*
X59492515Y-11629390D01*
X59492515Y-11230610D02*
X59093735Y-11629390D01*
X59492515Y-11430000D02*
G75*
G03*
X59492515Y-11430000I-199390J0D01*
G01*
X59093735Y-13373735D02*
X59492515Y-13772515D01*
X59492515Y-13373735D02*
X59093735Y-13772515D01*
X59492515Y-13573125D02*
G75*
G03*
X59492515Y-13573125I-199390J0D01*
G01*
X59093735Y-16231235D02*
X59492515Y-16630015D01*
X59492515Y-16231235D02*
X59093735Y-16630015D01*
X59492515Y-16430625D02*
G75*
G03*
X59492515Y-16430625I-199390J0D01*
G01*
X59093735Y-20041235D02*
X59492515Y-20440015D01*
X59492515Y-20041235D02*
X59093735Y-20440015D01*
X59492515Y-20240625D02*
G75*
G03*
X59492515Y-20240625I-199390J0D01*
G01*
D11*
X17866369Y-22698774D02*
X17866369Y-22498774D01*
X17866369Y-22498774D02*
X17913988Y-22498774D01*
X17913988Y-22498774D02*
X17942560Y-22508298D01*
X17942560Y-22508298D02*
X17961607Y-22527345D01*
X17961607Y-22527345D02*
X17971131Y-22546393D01*
X17971131Y-22546393D02*
X17980655Y-22584488D01*
X17980655Y-22584488D02*
X17980655Y-22613059D01*
X17980655Y-22613059D02*
X17971131Y-22651155D01*
X17971131Y-22651155D02*
X17961607Y-22670202D01*
X17961607Y-22670202D02*
X17942560Y-22689250D01*
X17942560Y-22689250D02*
X17913988Y-22698774D01*
X17913988Y-22698774D02*
X17866369Y-22698774D01*
X18066369Y-22698774D02*
X18066369Y-22565440D01*
X18066369Y-22603536D02*
X18075893Y-22584488D01*
X18075893Y-22584488D02*
X18085417Y-22574964D01*
X18085417Y-22574964D02*
X18104464Y-22565440D01*
X18104464Y-22565440D02*
X18123512Y-22565440D01*
X18190179Y-22698774D02*
X18190179Y-22565440D01*
X18190179Y-22498774D02*
X18180655Y-22508298D01*
X18180655Y-22508298D02*
X18190179Y-22517821D01*
X18190179Y-22517821D02*
X18199702Y-22508298D01*
X18199702Y-22508298D02*
X18190179Y-22498774D01*
X18190179Y-22498774D02*
X18190179Y-22517821D01*
X18313988Y-22698774D02*
X18294940Y-22689250D01*
X18294940Y-22689250D02*
X18285417Y-22670202D01*
X18285417Y-22670202D02*
X18285417Y-22498774D01*
X18418750Y-22698774D02*
X18399702Y-22689250D01*
X18399702Y-22689250D02*
X18390179Y-22670202D01*
X18390179Y-22670202D02*
X18390179Y-22498774D01*
X18647321Y-22698774D02*
X18647321Y-22498774D01*
X18647321Y-22498774D02*
X18713988Y-22641631D01*
X18713988Y-22641631D02*
X18780655Y-22498774D01*
X18780655Y-22498774D02*
X18780655Y-22698774D01*
X18961607Y-22698774D02*
X18961607Y-22594012D01*
X18961607Y-22594012D02*
X18952083Y-22574964D01*
X18952083Y-22574964D02*
X18933036Y-22565440D01*
X18933036Y-22565440D02*
X18894940Y-22565440D01*
X18894940Y-22565440D02*
X18875893Y-22574964D01*
X18961607Y-22689250D02*
X18942560Y-22698774D01*
X18942560Y-22698774D02*
X18894940Y-22698774D01*
X18894940Y-22698774D02*
X18875893Y-22689250D01*
X18875893Y-22689250D02*
X18866369Y-22670202D01*
X18866369Y-22670202D02*
X18866369Y-22651155D01*
X18866369Y-22651155D02*
X18875893Y-22632107D01*
X18875893Y-22632107D02*
X18894940Y-22622583D01*
X18894940Y-22622583D02*
X18942560Y-22622583D01*
X18942560Y-22622583D02*
X18961607Y-22613059D01*
X19056845Y-22565440D02*
X19056845Y-22765440D01*
X19056845Y-22574964D02*
X19075893Y-22565440D01*
X19075893Y-22565440D02*
X19113988Y-22565440D01*
X19113988Y-22565440D02*
X19133036Y-22574964D01*
X19133036Y-22574964D02*
X19142560Y-22584488D01*
X19142560Y-22584488D02*
X19152083Y-22603536D01*
X19152083Y-22603536D02*
X19152083Y-22660678D01*
X19152083Y-22660678D02*
X19142560Y-22679726D01*
X19142560Y-22679726D02*
X19133036Y-22689250D01*
X19133036Y-22689250D02*
X19113988Y-22698774D01*
X19113988Y-22698774D02*
X19075893Y-22698774D01*
X19075893Y-22698774D02*
X19056845Y-22689250D01*
X19237798Y-22679726D02*
X19247321Y-22689250D01*
X19247321Y-22689250D02*
X19237798Y-22698774D01*
X19237798Y-22698774D02*
X19228274Y-22689250D01*
X19228274Y-22689250D02*
X19237798Y-22679726D01*
X19237798Y-22679726D02*
X19237798Y-22698774D01*
X19237798Y-22574964D02*
X19247321Y-22584488D01*
X19247321Y-22584488D02*
X19237798Y-22594012D01*
X19237798Y-22594012D02*
X19228274Y-22584488D01*
X19228274Y-22584488D02*
X19237798Y-22574964D01*
X19237798Y-22574964D02*
X19237798Y-22594012D01*
D12*
X17538750Y-22986250D02*
X17618750Y-23066250D01*
X17618750Y-22986250D02*
X17538750Y-23066250D01*
D11*
X17904464Y-22918774D02*
X17923512Y-22918774D01*
X17923512Y-22918774D02*
X17942560Y-22928298D01*
X17942560Y-22928298D02*
X17952083Y-22937821D01*
X17952083Y-22937821D02*
X17961607Y-22956869D01*
X17961607Y-22956869D02*
X17971131Y-22994964D01*
X17971131Y-22994964D02*
X17971131Y-23042583D01*
X17971131Y-23042583D02*
X17961607Y-23080678D01*
X17961607Y-23080678D02*
X17952083Y-23099726D01*
X17952083Y-23099726D02*
X17942560Y-23109250D01*
X17942560Y-23109250D02*
X17923512Y-23118774D01*
X17923512Y-23118774D02*
X17904464Y-23118774D01*
X17904464Y-23118774D02*
X17885417Y-23109250D01*
X17885417Y-23109250D02*
X17875893Y-23099726D01*
X17875893Y-23099726D02*
X17866369Y-23080678D01*
X17866369Y-23080678D02*
X17856845Y-23042583D01*
X17856845Y-23042583D02*
X17856845Y-22994964D01*
X17856845Y-22994964D02*
X17866369Y-22956869D01*
X17866369Y-22956869D02*
X17875893Y-22937821D01*
X17875893Y-22937821D02*
X17885417Y-22928298D01*
X17885417Y-22928298D02*
X17904464Y-22918774D01*
X18056845Y-23099726D02*
X18066369Y-23109250D01*
X18066369Y-23109250D02*
X18056845Y-23118774D01*
X18056845Y-23118774D02*
X18047321Y-23109250D01*
X18047321Y-23109250D02*
X18056845Y-23099726D01*
X18056845Y-23099726D02*
X18056845Y-23118774D01*
X18180655Y-23004488D02*
X18161607Y-22994964D01*
X18161607Y-22994964D02*
X18152083Y-22985440D01*
X18152083Y-22985440D02*
X18142560Y-22966393D01*
X18142560Y-22966393D02*
X18142560Y-22956869D01*
X18142560Y-22956869D02*
X18152083Y-22937821D01*
X18152083Y-22937821D02*
X18161607Y-22928298D01*
X18161607Y-22928298D02*
X18180655Y-22918774D01*
X18180655Y-22918774D02*
X18218750Y-22918774D01*
X18218750Y-22918774D02*
X18237798Y-22928298D01*
X18237798Y-22928298D02*
X18247321Y-22937821D01*
X18247321Y-22937821D02*
X18256845Y-22956869D01*
X18256845Y-22956869D02*
X18256845Y-22966393D01*
X18256845Y-22966393D02*
X18247321Y-22985440D01*
X18247321Y-22985440D02*
X18237798Y-22994964D01*
X18237798Y-22994964D02*
X18218750Y-23004488D01*
X18218750Y-23004488D02*
X18180655Y-23004488D01*
X18180655Y-23004488D02*
X18161607Y-23014012D01*
X18161607Y-23014012D02*
X18152083Y-23023536D01*
X18152083Y-23023536D02*
X18142560Y-23042583D01*
X18142560Y-23042583D02*
X18142560Y-23080678D01*
X18142560Y-23080678D02*
X18152083Y-23099726D01*
X18152083Y-23099726D02*
X18161607Y-23109250D01*
X18161607Y-23109250D02*
X18180655Y-23118774D01*
X18180655Y-23118774D02*
X18218750Y-23118774D01*
X18218750Y-23118774D02*
X18237798Y-23109250D01*
X18237798Y-23109250D02*
X18247321Y-23099726D01*
X18247321Y-23099726D02*
X18256845Y-23080678D01*
X18256845Y-23080678D02*
X18256845Y-23042583D01*
X18256845Y-23042583D02*
X18247321Y-23023536D01*
X18247321Y-23023536D02*
X18237798Y-23014012D01*
X18237798Y-23014012D02*
X18218750Y-23004488D01*
X18380655Y-22918774D02*
X18399702Y-22918774D01*
X18399702Y-22918774D02*
X18418750Y-22928298D01*
X18418750Y-22928298D02*
X18428274Y-22937821D01*
X18428274Y-22937821D02*
X18437798Y-22956869D01*
X18437798Y-22956869D02*
X18447321Y-22994964D01*
X18447321Y-22994964D02*
X18447321Y-23042583D01*
X18447321Y-23042583D02*
X18437798Y-23080678D01*
X18437798Y-23080678D02*
X18428274Y-23099726D01*
X18428274Y-23099726D02*
X18418750Y-23109250D01*
X18418750Y-23109250D02*
X18399702Y-23118774D01*
X18399702Y-23118774D02*
X18380655Y-23118774D01*
X18380655Y-23118774D02*
X18361607Y-23109250D01*
X18361607Y-23109250D02*
X18352083Y-23099726D01*
X18352083Y-23099726D02*
X18342560Y-23080678D01*
X18342560Y-23080678D02*
X18333036Y-23042583D01*
X18333036Y-23042583D02*
X18333036Y-22994964D01*
X18333036Y-22994964D02*
X18342560Y-22956869D01*
X18342560Y-22956869D02*
X18352083Y-22937821D01*
X18352083Y-22937821D02*
X18361607Y-22928298D01*
X18361607Y-22928298D02*
X18380655Y-22918774D01*
X18571131Y-22918774D02*
X18590179Y-22918774D01*
X18590179Y-22918774D02*
X18609226Y-22928298D01*
X18609226Y-22928298D02*
X18618750Y-22937821D01*
X18618750Y-22937821D02*
X18628274Y-22956869D01*
X18628274Y-22956869D02*
X18637798Y-22994964D01*
X18637798Y-22994964D02*
X18637798Y-23042583D01*
X18637798Y-23042583D02*
X18628274Y-23080678D01*
X18628274Y-23080678D02*
X18618750Y-23099726D01*
X18618750Y-23099726D02*
X18609226Y-23109250D01*
X18609226Y-23109250D02*
X18590179Y-23118774D01*
X18590179Y-23118774D02*
X18571131Y-23118774D01*
X18571131Y-23118774D02*
X18552083Y-23109250D01*
X18552083Y-23109250D02*
X18542560Y-23099726D01*
X18542560Y-23099726D02*
X18533036Y-23080678D01*
X18533036Y-23080678D02*
X18523512Y-23042583D01*
X18523512Y-23042583D02*
X18523512Y-22994964D01*
X18523512Y-22994964D02*
X18533036Y-22956869D01*
X18533036Y-22956869D02*
X18542560Y-22937821D01*
X18542560Y-22937821D02*
X18552083Y-22928298D01*
X18552083Y-22928298D02*
X18571131Y-22918774D01*
X18723512Y-23118774D02*
X18723512Y-22985440D01*
X18723512Y-23004488D02*
X18733036Y-22994964D01*
X18733036Y-22994964D02*
X18752083Y-22985440D01*
X18752083Y-22985440D02*
X18780655Y-22985440D01*
X18780655Y-22985440D02*
X18799702Y-22994964D01*
X18799702Y-22994964D02*
X18809226Y-23014012D01*
X18809226Y-23014012D02*
X18809226Y-23118774D01*
X18809226Y-23014012D02*
X18818750Y-22994964D01*
X18818750Y-22994964D02*
X18837798Y-22985440D01*
X18837798Y-22985440D02*
X18866369Y-22985440D01*
X18866369Y-22985440D02*
X18885417Y-22994964D01*
X18885417Y-22994964D02*
X18894941Y-23014012D01*
X18894941Y-23014012D02*
X18894941Y-23118774D01*
X18990179Y-23118774D02*
X18990179Y-22985440D01*
X18990179Y-23004488D02*
X18999702Y-22994964D01*
X18999702Y-22994964D02*
X19018750Y-22985440D01*
X19018750Y-22985440D02*
X19047322Y-22985440D01*
X19047322Y-22985440D02*
X19066369Y-22994964D01*
X19066369Y-22994964D02*
X19075893Y-23014012D01*
X19075893Y-23014012D02*
X19075893Y-23118774D01*
X19075893Y-23014012D02*
X19085417Y-22994964D01*
X19085417Y-22994964D02*
X19104464Y-22985440D01*
X19104464Y-22985440D02*
X19133036Y-22985440D01*
X19133036Y-22985440D02*
X19152083Y-22994964D01*
X19152083Y-22994964D02*
X19161607Y-23014012D01*
X19161607Y-23014012D02*
X19161607Y-23118774D01*
X19552083Y-22909250D02*
X19380655Y-23166393D01*
X19809226Y-22918774D02*
X19828274Y-22918774D01*
X19828274Y-22918774D02*
X19847322Y-22928298D01*
X19847322Y-22928298D02*
X19856845Y-22937821D01*
X19856845Y-22937821D02*
X19866369Y-22956869D01*
X19866369Y-22956869D02*
X19875893Y-22994964D01*
X19875893Y-22994964D02*
X19875893Y-23042583D01*
X19875893Y-23042583D02*
X19866369Y-23080678D01*
X19866369Y-23080678D02*
X19856845Y-23099726D01*
X19856845Y-23099726D02*
X19847322Y-23109250D01*
X19847322Y-23109250D02*
X19828274Y-23118774D01*
X19828274Y-23118774D02*
X19809226Y-23118774D01*
X19809226Y-23118774D02*
X19790179Y-23109250D01*
X19790179Y-23109250D02*
X19780655Y-23099726D01*
X19780655Y-23099726D02*
X19771131Y-23080678D01*
X19771131Y-23080678D02*
X19761607Y-23042583D01*
X19761607Y-23042583D02*
X19761607Y-22994964D01*
X19761607Y-22994964D02*
X19771131Y-22956869D01*
X19771131Y-22956869D02*
X19780655Y-22937821D01*
X19780655Y-22937821D02*
X19790179Y-22928298D01*
X19790179Y-22928298D02*
X19809226Y-22918774D01*
X19961607Y-23099726D02*
X19971131Y-23109250D01*
X19971131Y-23109250D02*
X19961607Y-23118774D01*
X19961607Y-23118774D02*
X19952084Y-23109250D01*
X19952084Y-23109250D02*
X19961607Y-23099726D01*
X19961607Y-23099726D02*
X19961607Y-23118774D01*
X20094941Y-22918774D02*
X20113988Y-22918774D01*
X20113988Y-22918774D02*
X20133036Y-22928298D01*
X20133036Y-22928298D02*
X20142560Y-22937821D01*
X20142560Y-22937821D02*
X20152084Y-22956869D01*
X20152084Y-22956869D02*
X20161607Y-22994964D01*
X20161607Y-22994964D02*
X20161607Y-23042583D01*
X20161607Y-23042583D02*
X20152084Y-23080678D01*
X20152084Y-23080678D02*
X20142560Y-23099726D01*
X20142560Y-23099726D02*
X20133036Y-23109250D01*
X20133036Y-23109250D02*
X20113988Y-23118774D01*
X20113988Y-23118774D02*
X20094941Y-23118774D01*
X20094941Y-23118774D02*
X20075893Y-23109250D01*
X20075893Y-23109250D02*
X20066369Y-23099726D01*
X20066369Y-23099726D02*
X20056845Y-23080678D01*
X20056845Y-23080678D02*
X20047322Y-23042583D01*
X20047322Y-23042583D02*
X20047322Y-22994964D01*
X20047322Y-22994964D02*
X20056845Y-22956869D01*
X20056845Y-22956869D02*
X20066369Y-22937821D01*
X20066369Y-22937821D02*
X20075893Y-22928298D01*
X20075893Y-22928298D02*
X20094941Y-22918774D01*
X20228274Y-22918774D02*
X20352084Y-22918774D01*
X20352084Y-22918774D02*
X20285417Y-22994964D01*
X20285417Y-22994964D02*
X20313988Y-22994964D01*
X20313988Y-22994964D02*
X20333036Y-23004488D01*
X20333036Y-23004488D02*
X20342560Y-23014012D01*
X20342560Y-23014012D02*
X20352084Y-23033059D01*
X20352084Y-23033059D02*
X20352084Y-23080678D01*
X20352084Y-23080678D02*
X20342560Y-23099726D01*
X20342560Y-23099726D02*
X20333036Y-23109250D01*
X20333036Y-23109250D02*
X20313988Y-23118774D01*
X20313988Y-23118774D02*
X20256845Y-23118774D01*
X20256845Y-23118774D02*
X20237798Y-23109250D01*
X20237798Y-23109250D02*
X20228274Y-23099726D01*
X20542560Y-23118774D02*
X20428274Y-23118774D01*
X20485417Y-23118774D02*
X20485417Y-22918774D01*
X20485417Y-22918774D02*
X20466369Y-22947345D01*
X20466369Y-22947345D02*
X20447322Y-22966393D01*
X20447322Y-22966393D02*
X20428274Y-22975917D01*
X20723512Y-22918774D02*
X20628274Y-22918774D01*
X20628274Y-22918774D02*
X20618750Y-23014012D01*
X20618750Y-23014012D02*
X20628274Y-23004488D01*
X20628274Y-23004488D02*
X20647322Y-22994964D01*
X20647322Y-22994964D02*
X20694941Y-22994964D01*
X20694941Y-22994964D02*
X20713988Y-23004488D01*
X20713988Y-23004488D02*
X20723512Y-23014012D01*
X20723512Y-23014012D02*
X20733036Y-23033059D01*
X20733036Y-23033059D02*
X20733036Y-23080678D01*
X20733036Y-23080678D02*
X20723512Y-23099726D01*
X20723512Y-23099726D02*
X20713988Y-23109250D01*
X20713988Y-23109250D02*
X20694941Y-23118774D01*
X20694941Y-23118774D02*
X20647322Y-23118774D01*
X20647322Y-23118774D02*
X20628274Y-23109250D01*
X20628274Y-23109250D02*
X20618750Y-23099726D01*
X20809226Y-22918774D02*
X20809226Y-22956869D01*
X20885417Y-22918774D02*
X20885417Y-22956869D01*
X21180655Y-23194964D02*
X21171131Y-23185440D01*
X21171131Y-23185440D02*
X21152084Y-23156869D01*
X21152084Y-23156869D02*
X21142560Y-23137821D01*
X21142560Y-23137821D02*
X21133036Y-23109250D01*
X21133036Y-23109250D02*
X21123512Y-23061631D01*
X21123512Y-23061631D02*
X21123512Y-23023536D01*
X21123512Y-23023536D02*
X21133036Y-22975917D01*
X21133036Y-22975917D02*
X21142560Y-22947345D01*
X21142560Y-22947345D02*
X21152084Y-22928298D01*
X21152084Y-22928298D02*
X21171131Y-22899726D01*
X21171131Y-22899726D02*
X21180655Y-22890202D01*
X21361607Y-23118774D02*
X21247322Y-23118774D01*
X21304465Y-23118774D02*
X21304465Y-22918774D01*
X21304465Y-22918774D02*
X21285417Y-22947345D01*
X21285417Y-22947345D02*
X21266369Y-22966393D01*
X21266369Y-22966393D02*
X21247322Y-22975917D01*
X21599703Y-23118774D02*
X21599703Y-22918774D01*
X21685417Y-23118774D02*
X21685417Y-23014012D01*
X21685417Y-23014012D02*
X21675893Y-22994964D01*
X21675893Y-22994964D02*
X21656846Y-22985440D01*
X21656846Y-22985440D02*
X21628274Y-22985440D01*
X21628274Y-22985440D02*
X21609227Y-22994964D01*
X21609227Y-22994964D02*
X21599703Y-23004488D01*
X21809227Y-23118774D02*
X21790179Y-23109250D01*
X21790179Y-23109250D02*
X21780655Y-23099726D01*
X21780655Y-23099726D02*
X21771131Y-23080678D01*
X21771131Y-23080678D02*
X21771131Y-23023536D01*
X21771131Y-23023536D02*
X21780655Y-23004488D01*
X21780655Y-23004488D02*
X21790179Y-22994964D01*
X21790179Y-22994964D02*
X21809227Y-22985440D01*
X21809227Y-22985440D02*
X21837798Y-22985440D01*
X21837798Y-22985440D02*
X21856846Y-22994964D01*
X21856846Y-22994964D02*
X21866369Y-23004488D01*
X21866369Y-23004488D02*
X21875893Y-23023536D01*
X21875893Y-23023536D02*
X21875893Y-23080678D01*
X21875893Y-23080678D02*
X21866369Y-23099726D01*
X21866369Y-23099726D02*
X21856846Y-23109250D01*
X21856846Y-23109250D02*
X21837798Y-23118774D01*
X21837798Y-23118774D02*
X21809227Y-23118774D01*
X21990179Y-23118774D02*
X21971131Y-23109250D01*
X21971131Y-23109250D02*
X21961608Y-23090202D01*
X21961608Y-23090202D02*
X21961608Y-22918774D01*
X22142560Y-23109250D02*
X22123512Y-23118774D01*
X22123512Y-23118774D02*
X22085417Y-23118774D01*
X22085417Y-23118774D02*
X22066369Y-23109250D01*
X22066369Y-23109250D02*
X22056846Y-23090202D01*
X22056846Y-23090202D02*
X22056846Y-23014012D01*
X22056846Y-23014012D02*
X22066369Y-22994964D01*
X22066369Y-22994964D02*
X22085417Y-22985440D01*
X22085417Y-22985440D02*
X22123512Y-22985440D01*
X22123512Y-22985440D02*
X22142560Y-22994964D01*
X22142560Y-22994964D02*
X22152084Y-23014012D01*
X22152084Y-23014012D02*
X22152084Y-23033059D01*
X22152084Y-23033059D02*
X22056846Y-23052107D01*
X22218750Y-23194964D02*
X22228274Y-23185440D01*
X22228274Y-23185440D02*
X22247322Y-23156869D01*
X22247322Y-23156869D02*
X22256846Y-23137821D01*
X22256846Y-23137821D02*
X22266369Y-23109250D01*
X22266369Y-23109250D02*
X22275893Y-23061631D01*
X22275893Y-23061631D02*
X22275893Y-23023536D01*
X22275893Y-23023536D02*
X22266369Y-22975917D01*
X22266369Y-22975917D02*
X22256846Y-22947345D01*
X22256846Y-22947345D02*
X22247322Y-22928298D01*
X22247322Y-22928298D02*
X22228274Y-22899726D01*
X22228274Y-22899726D02*
X22218750Y-22890202D01*
X22580655Y-23194964D02*
X22571131Y-23185440D01*
X22571131Y-23185440D02*
X22552084Y-23156869D01*
X22552084Y-23156869D02*
X22542560Y-23137821D01*
X22542560Y-23137821D02*
X22533036Y-23109250D01*
X22533036Y-23109250D02*
X22523512Y-23061631D01*
X22523512Y-23061631D02*
X22523512Y-23023536D01*
X22523512Y-23023536D02*
X22533036Y-22975917D01*
X22533036Y-22975917D02*
X22542560Y-22947345D01*
X22542560Y-22947345D02*
X22552084Y-22928298D01*
X22552084Y-22928298D02*
X22571131Y-22899726D01*
X22571131Y-22899726D02*
X22580655Y-22890202D01*
X22656846Y-22985440D02*
X22656846Y-23118774D01*
X22656846Y-23004488D02*
X22666369Y-22994964D01*
X22666369Y-22994964D02*
X22685417Y-22985440D01*
X22685417Y-22985440D02*
X22713988Y-22985440D01*
X22713988Y-22985440D02*
X22733036Y-22994964D01*
X22733036Y-22994964D02*
X22742560Y-23014012D01*
X22742560Y-23014012D02*
X22742560Y-23118774D01*
X22866369Y-23118774D02*
X22847322Y-23109250D01*
X22847322Y-23109250D02*
X22837798Y-23099726D01*
X22837798Y-23099726D02*
X22828274Y-23080678D01*
X22828274Y-23080678D02*
X22828274Y-23023536D01*
X22828274Y-23023536D02*
X22837798Y-23004488D01*
X22837798Y-23004488D02*
X22847322Y-22994964D01*
X22847322Y-22994964D02*
X22866369Y-22985440D01*
X22866369Y-22985440D02*
X22894941Y-22985440D01*
X22894941Y-22985440D02*
X22913988Y-22994964D01*
X22913988Y-22994964D02*
X22923512Y-23004488D01*
X22923512Y-23004488D02*
X22933036Y-23023536D01*
X22933036Y-23023536D02*
X22933036Y-23080678D01*
X22933036Y-23080678D02*
X22923512Y-23099726D01*
X22923512Y-23099726D02*
X22913988Y-23109250D01*
X22913988Y-23109250D02*
X22894941Y-23118774D01*
X22894941Y-23118774D02*
X22866369Y-23118774D01*
X22990179Y-22985440D02*
X23066369Y-22985440D01*
X23018750Y-22918774D02*
X23018750Y-23090202D01*
X23018750Y-23090202D02*
X23028274Y-23109250D01*
X23028274Y-23109250D02*
X23047322Y-23118774D01*
X23047322Y-23118774D02*
X23066369Y-23118774D01*
X23285417Y-22985440D02*
X23285417Y-23185440D01*
X23285417Y-22994964D02*
X23304465Y-22985440D01*
X23304465Y-22985440D02*
X23342560Y-22985440D01*
X23342560Y-22985440D02*
X23361608Y-22994964D01*
X23361608Y-22994964D02*
X23371131Y-23004488D01*
X23371131Y-23004488D02*
X23380655Y-23023536D01*
X23380655Y-23023536D02*
X23380655Y-23080678D01*
X23380655Y-23080678D02*
X23371131Y-23099726D01*
X23371131Y-23099726D02*
X23361608Y-23109250D01*
X23361608Y-23109250D02*
X23342560Y-23118774D01*
X23342560Y-23118774D02*
X23304465Y-23118774D01*
X23304465Y-23118774D02*
X23285417Y-23109250D01*
X23494941Y-23118774D02*
X23475893Y-23109250D01*
X23475893Y-23109250D02*
X23466369Y-23090202D01*
X23466369Y-23090202D02*
X23466369Y-22918774D01*
X23656846Y-23118774D02*
X23656846Y-23014012D01*
X23656846Y-23014012D02*
X23647322Y-22994964D01*
X23647322Y-22994964D02*
X23628274Y-22985440D01*
X23628274Y-22985440D02*
X23590179Y-22985440D01*
X23590179Y-22985440D02*
X23571131Y-22994964D01*
X23656846Y-23109250D02*
X23637798Y-23118774D01*
X23637798Y-23118774D02*
X23590179Y-23118774D01*
X23590179Y-23118774D02*
X23571131Y-23109250D01*
X23571131Y-23109250D02*
X23561608Y-23090202D01*
X23561608Y-23090202D02*
X23561608Y-23071155D01*
X23561608Y-23071155D02*
X23571131Y-23052107D01*
X23571131Y-23052107D02*
X23590179Y-23042583D01*
X23590179Y-23042583D02*
X23637798Y-23042583D01*
X23637798Y-23042583D02*
X23656846Y-23033059D01*
X23723512Y-22985440D02*
X23799703Y-22985440D01*
X23752084Y-22918774D02*
X23752084Y-23090202D01*
X23752084Y-23090202D02*
X23761608Y-23109250D01*
X23761608Y-23109250D02*
X23780655Y-23118774D01*
X23780655Y-23118774D02*
X23799703Y-23118774D01*
X23942560Y-23109250D02*
X23923512Y-23118774D01*
X23923512Y-23118774D02*
X23885417Y-23118774D01*
X23885417Y-23118774D02*
X23866369Y-23109250D01*
X23866369Y-23109250D02*
X23856846Y-23090202D01*
X23856846Y-23090202D02*
X23856846Y-23014012D01*
X23856846Y-23014012D02*
X23866369Y-22994964D01*
X23866369Y-22994964D02*
X23885417Y-22985440D01*
X23885417Y-22985440D02*
X23923512Y-22985440D01*
X23923512Y-22985440D02*
X23942560Y-22994964D01*
X23942560Y-22994964D02*
X23952084Y-23014012D01*
X23952084Y-23014012D02*
X23952084Y-23033059D01*
X23952084Y-23033059D02*
X23856846Y-23052107D01*
X24123512Y-23118774D02*
X24123512Y-22918774D01*
X24123512Y-23109250D02*
X24104465Y-23118774D01*
X24104465Y-23118774D02*
X24066369Y-23118774D01*
X24066369Y-23118774D02*
X24047322Y-23109250D01*
X24047322Y-23109250D02*
X24037798Y-23099726D01*
X24037798Y-23099726D02*
X24028274Y-23080678D01*
X24028274Y-23080678D02*
X24028274Y-23023536D01*
X24028274Y-23023536D02*
X24037798Y-23004488D01*
X24037798Y-23004488D02*
X24047322Y-22994964D01*
X24047322Y-22994964D02*
X24066369Y-22985440D01*
X24066369Y-22985440D02*
X24104465Y-22985440D01*
X24104465Y-22985440D02*
X24123512Y-22994964D01*
X24199703Y-23194964D02*
X24209227Y-23185440D01*
X24209227Y-23185440D02*
X24228274Y-23156869D01*
X24228274Y-23156869D02*
X24237798Y-23137821D01*
X24237798Y-23137821D02*
X24247322Y-23109250D01*
X24247322Y-23109250D02*
X24256846Y-23061631D01*
X24256846Y-23061631D02*
X24256846Y-23023536D01*
X24256846Y-23023536D02*
X24247322Y-22975917D01*
X24247322Y-22975917D02*
X24237798Y-22947345D01*
X24237798Y-22947345D02*
X24228274Y-22928298D01*
X24228274Y-22928298D02*
X24209227Y-22899726D01*
X24209227Y-22899726D02*
X24199703Y-22890202D01*
D13*
X17618750Y-23290250D02*
G75*
G03*
X17618750Y-23290250I-57600J0D01*
G01*
D11*
X17971131Y-23382774D02*
X17856845Y-23382774D01*
X17913988Y-23382774D02*
X17913988Y-23182774D01*
X17913988Y-23182774D02*
X17894940Y-23211345D01*
X17894940Y-23211345D02*
X17875893Y-23230393D01*
X17875893Y-23230393D02*
X17856845Y-23239917D01*
X18056845Y-23363726D02*
X18066369Y-23373250D01*
X18066369Y-23373250D02*
X18056845Y-23382774D01*
X18056845Y-23382774D02*
X18047321Y-23373250D01*
X18047321Y-23373250D02*
X18056845Y-23363726D01*
X18056845Y-23363726D02*
X18056845Y-23382774D01*
X18256845Y-23382774D02*
X18142560Y-23382774D01*
X18199702Y-23382774D02*
X18199702Y-23182774D01*
X18199702Y-23182774D02*
X18180655Y-23211345D01*
X18180655Y-23211345D02*
X18161607Y-23230393D01*
X18161607Y-23230393D02*
X18142560Y-23239917D01*
X18437798Y-23182774D02*
X18342560Y-23182774D01*
X18342560Y-23182774D02*
X18333036Y-23278012D01*
X18333036Y-23278012D02*
X18342560Y-23268488D01*
X18342560Y-23268488D02*
X18361607Y-23258964D01*
X18361607Y-23258964D02*
X18409226Y-23258964D01*
X18409226Y-23258964D02*
X18428274Y-23268488D01*
X18428274Y-23268488D02*
X18437798Y-23278012D01*
X18437798Y-23278012D02*
X18447321Y-23297059D01*
X18447321Y-23297059D02*
X18447321Y-23344678D01*
X18447321Y-23344678D02*
X18437798Y-23363726D01*
X18437798Y-23363726D02*
X18428274Y-23373250D01*
X18428274Y-23373250D02*
X18409226Y-23382774D01*
X18409226Y-23382774D02*
X18361607Y-23382774D01*
X18361607Y-23382774D02*
X18342560Y-23373250D01*
X18342560Y-23373250D02*
X18333036Y-23363726D01*
X18523512Y-23201821D02*
X18533036Y-23192298D01*
X18533036Y-23192298D02*
X18552083Y-23182774D01*
X18552083Y-23182774D02*
X18599702Y-23182774D01*
X18599702Y-23182774D02*
X18618750Y-23192298D01*
X18618750Y-23192298D02*
X18628274Y-23201821D01*
X18628274Y-23201821D02*
X18637798Y-23220869D01*
X18637798Y-23220869D02*
X18637798Y-23239917D01*
X18637798Y-23239917D02*
X18628274Y-23268488D01*
X18628274Y-23268488D02*
X18513988Y-23382774D01*
X18513988Y-23382774D02*
X18637798Y-23382774D01*
X18723512Y-23382774D02*
X18723512Y-23249440D01*
X18723512Y-23268488D02*
X18733036Y-23258964D01*
X18733036Y-23258964D02*
X18752083Y-23249440D01*
X18752083Y-23249440D02*
X18780655Y-23249440D01*
X18780655Y-23249440D02*
X18799702Y-23258964D01*
X18799702Y-23258964D02*
X18809226Y-23278012D01*
X18809226Y-23278012D02*
X18809226Y-23382774D01*
X18809226Y-23278012D02*
X18818750Y-23258964D01*
X18818750Y-23258964D02*
X18837798Y-23249440D01*
X18837798Y-23249440D02*
X18866369Y-23249440D01*
X18866369Y-23249440D02*
X18885417Y-23258964D01*
X18885417Y-23258964D02*
X18894941Y-23278012D01*
X18894941Y-23278012D02*
X18894941Y-23382774D01*
X18990179Y-23382774D02*
X18990179Y-23249440D01*
X18990179Y-23268488D02*
X18999702Y-23258964D01*
X18999702Y-23258964D02*
X19018750Y-23249440D01*
X19018750Y-23249440D02*
X19047322Y-23249440D01*
X19047322Y-23249440D02*
X19066369Y-23258964D01*
X19066369Y-23258964D02*
X19075893Y-23278012D01*
X19075893Y-23278012D02*
X19075893Y-23382774D01*
X19075893Y-23278012D02*
X19085417Y-23258964D01*
X19085417Y-23258964D02*
X19104464Y-23249440D01*
X19104464Y-23249440D02*
X19133036Y-23249440D01*
X19133036Y-23249440D02*
X19152083Y-23258964D01*
X19152083Y-23258964D02*
X19161607Y-23278012D01*
X19161607Y-23278012D02*
X19161607Y-23382774D01*
X19552083Y-23173250D02*
X19380655Y-23430393D01*
X19809226Y-23182774D02*
X19828274Y-23182774D01*
X19828274Y-23182774D02*
X19847322Y-23192298D01*
X19847322Y-23192298D02*
X19856845Y-23201821D01*
X19856845Y-23201821D02*
X19866369Y-23220869D01*
X19866369Y-23220869D02*
X19875893Y-23258964D01*
X19875893Y-23258964D02*
X19875893Y-23306583D01*
X19875893Y-23306583D02*
X19866369Y-23344678D01*
X19866369Y-23344678D02*
X19856845Y-23363726D01*
X19856845Y-23363726D02*
X19847322Y-23373250D01*
X19847322Y-23373250D02*
X19828274Y-23382774D01*
X19828274Y-23382774D02*
X19809226Y-23382774D01*
X19809226Y-23382774D02*
X19790179Y-23373250D01*
X19790179Y-23373250D02*
X19780655Y-23363726D01*
X19780655Y-23363726D02*
X19771131Y-23344678D01*
X19771131Y-23344678D02*
X19761607Y-23306583D01*
X19761607Y-23306583D02*
X19761607Y-23258964D01*
X19761607Y-23258964D02*
X19771131Y-23220869D01*
X19771131Y-23220869D02*
X19780655Y-23201821D01*
X19780655Y-23201821D02*
X19790179Y-23192298D01*
X19790179Y-23192298D02*
X19809226Y-23182774D01*
X19961607Y-23363726D02*
X19971131Y-23373250D01*
X19971131Y-23373250D02*
X19961607Y-23382774D01*
X19961607Y-23382774D02*
X19952084Y-23373250D01*
X19952084Y-23373250D02*
X19961607Y-23363726D01*
X19961607Y-23363726D02*
X19961607Y-23382774D01*
X20094941Y-23182774D02*
X20113988Y-23182774D01*
X20113988Y-23182774D02*
X20133036Y-23192298D01*
X20133036Y-23192298D02*
X20142560Y-23201821D01*
X20142560Y-23201821D02*
X20152084Y-23220869D01*
X20152084Y-23220869D02*
X20161607Y-23258964D01*
X20161607Y-23258964D02*
X20161607Y-23306583D01*
X20161607Y-23306583D02*
X20152084Y-23344678D01*
X20152084Y-23344678D02*
X20142560Y-23363726D01*
X20142560Y-23363726D02*
X20133036Y-23373250D01*
X20133036Y-23373250D02*
X20113988Y-23382774D01*
X20113988Y-23382774D02*
X20094941Y-23382774D01*
X20094941Y-23382774D02*
X20075893Y-23373250D01*
X20075893Y-23373250D02*
X20066369Y-23363726D01*
X20066369Y-23363726D02*
X20056845Y-23344678D01*
X20056845Y-23344678D02*
X20047322Y-23306583D01*
X20047322Y-23306583D02*
X20047322Y-23258964D01*
X20047322Y-23258964D02*
X20056845Y-23220869D01*
X20056845Y-23220869D02*
X20066369Y-23201821D01*
X20066369Y-23201821D02*
X20075893Y-23192298D01*
X20075893Y-23192298D02*
X20094941Y-23182774D01*
X20333036Y-23249440D02*
X20333036Y-23382774D01*
X20285417Y-23173250D02*
X20237798Y-23316107D01*
X20237798Y-23316107D02*
X20361607Y-23316107D01*
X20533036Y-23182774D02*
X20437798Y-23182774D01*
X20437798Y-23182774D02*
X20428274Y-23278012D01*
X20428274Y-23278012D02*
X20437798Y-23268488D01*
X20437798Y-23268488D02*
X20456845Y-23258964D01*
X20456845Y-23258964D02*
X20504465Y-23258964D01*
X20504465Y-23258964D02*
X20523512Y-23268488D01*
X20523512Y-23268488D02*
X20533036Y-23278012D01*
X20533036Y-23278012D02*
X20542560Y-23297059D01*
X20542560Y-23297059D02*
X20542560Y-23344678D01*
X20542560Y-23344678D02*
X20533036Y-23363726D01*
X20533036Y-23363726D02*
X20523512Y-23373250D01*
X20523512Y-23373250D02*
X20504465Y-23382774D01*
X20504465Y-23382774D02*
X20456845Y-23382774D01*
X20456845Y-23382774D02*
X20437798Y-23373250D01*
X20437798Y-23373250D02*
X20428274Y-23363726D01*
X20713988Y-23249440D02*
X20713988Y-23382774D01*
X20666369Y-23173250D02*
X20618750Y-23316107D01*
X20618750Y-23316107D02*
X20742560Y-23316107D01*
X20809226Y-23182774D02*
X20809226Y-23220869D01*
X20885417Y-23182774D02*
X20885417Y-23220869D01*
X21180655Y-23458964D02*
X21171131Y-23449440D01*
X21171131Y-23449440D02*
X21152084Y-23420869D01*
X21152084Y-23420869D02*
X21142560Y-23401821D01*
X21142560Y-23401821D02*
X21133036Y-23373250D01*
X21133036Y-23373250D02*
X21123512Y-23325631D01*
X21123512Y-23325631D02*
X21123512Y-23287536D01*
X21123512Y-23287536D02*
X21133036Y-23239917D01*
X21133036Y-23239917D02*
X21142560Y-23211345D01*
X21142560Y-23211345D02*
X21152084Y-23192298D01*
X21152084Y-23192298D02*
X21171131Y-23163726D01*
X21171131Y-23163726D02*
X21180655Y-23154202D01*
X21237798Y-23182774D02*
X21361607Y-23182774D01*
X21361607Y-23182774D02*
X21294941Y-23258964D01*
X21294941Y-23258964D02*
X21323512Y-23258964D01*
X21323512Y-23258964D02*
X21342560Y-23268488D01*
X21342560Y-23268488D02*
X21352084Y-23278012D01*
X21352084Y-23278012D02*
X21361607Y-23297059D01*
X21361607Y-23297059D02*
X21361607Y-23344678D01*
X21361607Y-23344678D02*
X21352084Y-23363726D01*
X21352084Y-23363726D02*
X21342560Y-23373250D01*
X21342560Y-23373250D02*
X21323512Y-23382774D01*
X21323512Y-23382774D02*
X21266369Y-23382774D01*
X21266369Y-23382774D02*
X21247322Y-23373250D01*
X21247322Y-23373250D02*
X21237798Y-23363726D01*
X21599703Y-23382774D02*
X21599703Y-23182774D01*
X21685417Y-23382774D02*
X21685417Y-23278012D01*
X21685417Y-23278012D02*
X21675893Y-23258964D01*
X21675893Y-23258964D02*
X21656846Y-23249440D01*
X21656846Y-23249440D02*
X21628274Y-23249440D01*
X21628274Y-23249440D02*
X21609227Y-23258964D01*
X21609227Y-23258964D02*
X21599703Y-23268488D01*
X21809227Y-23382774D02*
X21790179Y-23373250D01*
X21790179Y-23373250D02*
X21780655Y-23363726D01*
X21780655Y-23363726D02*
X21771131Y-23344678D01*
X21771131Y-23344678D02*
X21771131Y-23287536D01*
X21771131Y-23287536D02*
X21780655Y-23268488D01*
X21780655Y-23268488D02*
X21790179Y-23258964D01*
X21790179Y-23258964D02*
X21809227Y-23249440D01*
X21809227Y-23249440D02*
X21837798Y-23249440D01*
X21837798Y-23249440D02*
X21856846Y-23258964D01*
X21856846Y-23258964D02*
X21866369Y-23268488D01*
X21866369Y-23268488D02*
X21875893Y-23287536D01*
X21875893Y-23287536D02*
X21875893Y-23344678D01*
X21875893Y-23344678D02*
X21866369Y-23363726D01*
X21866369Y-23363726D02*
X21856846Y-23373250D01*
X21856846Y-23373250D02*
X21837798Y-23382774D01*
X21837798Y-23382774D02*
X21809227Y-23382774D01*
X21990179Y-23382774D02*
X21971131Y-23373250D01*
X21971131Y-23373250D02*
X21961608Y-23354202D01*
X21961608Y-23354202D02*
X21961608Y-23182774D01*
X22142560Y-23373250D02*
X22123512Y-23382774D01*
X22123512Y-23382774D02*
X22085417Y-23382774D01*
X22085417Y-23382774D02*
X22066369Y-23373250D01*
X22066369Y-23373250D02*
X22056846Y-23354202D01*
X22056846Y-23354202D02*
X22056846Y-23278012D01*
X22056846Y-23278012D02*
X22066369Y-23258964D01*
X22066369Y-23258964D02*
X22085417Y-23249440D01*
X22085417Y-23249440D02*
X22123512Y-23249440D01*
X22123512Y-23249440D02*
X22142560Y-23258964D01*
X22142560Y-23258964D02*
X22152084Y-23278012D01*
X22152084Y-23278012D02*
X22152084Y-23297059D01*
X22152084Y-23297059D02*
X22056846Y-23316107D01*
X22228274Y-23373250D02*
X22247322Y-23382774D01*
X22247322Y-23382774D02*
X22285417Y-23382774D01*
X22285417Y-23382774D02*
X22304465Y-23373250D01*
X22304465Y-23373250D02*
X22313989Y-23354202D01*
X22313989Y-23354202D02*
X22313989Y-23344678D01*
X22313989Y-23344678D02*
X22304465Y-23325631D01*
X22304465Y-23325631D02*
X22285417Y-23316107D01*
X22285417Y-23316107D02*
X22256846Y-23316107D01*
X22256846Y-23316107D02*
X22237798Y-23306583D01*
X22237798Y-23306583D02*
X22228274Y-23287536D01*
X22228274Y-23287536D02*
X22228274Y-23278012D01*
X22228274Y-23278012D02*
X22237798Y-23258964D01*
X22237798Y-23258964D02*
X22256846Y-23249440D01*
X22256846Y-23249440D02*
X22285417Y-23249440D01*
X22285417Y-23249440D02*
X22304465Y-23258964D01*
X22380655Y-23458964D02*
X22390179Y-23449440D01*
X22390179Y-23449440D02*
X22409227Y-23420869D01*
X22409227Y-23420869D02*
X22418750Y-23401821D01*
X22418750Y-23401821D02*
X22428274Y-23373250D01*
X22428274Y-23373250D02*
X22437798Y-23325631D01*
X22437798Y-23325631D02*
X22437798Y-23287536D01*
X22437798Y-23287536D02*
X22428274Y-23239917D01*
X22428274Y-23239917D02*
X22418750Y-23211345D01*
X22418750Y-23211345D02*
X22409227Y-23192298D01*
X22409227Y-23192298D02*
X22390179Y-23163726D01*
X22390179Y-23163726D02*
X22380655Y-23154202D01*
X22742560Y-23458964D02*
X22733036Y-23449440D01*
X22733036Y-23449440D02*
X22713988Y-23420869D01*
X22713988Y-23420869D02*
X22704465Y-23401821D01*
X22704465Y-23401821D02*
X22694941Y-23373250D01*
X22694941Y-23373250D02*
X22685417Y-23325631D01*
X22685417Y-23325631D02*
X22685417Y-23287536D01*
X22685417Y-23287536D02*
X22694941Y-23239917D01*
X22694941Y-23239917D02*
X22704465Y-23211345D01*
X22704465Y-23211345D02*
X22713988Y-23192298D01*
X22713988Y-23192298D02*
X22733036Y-23163726D01*
X22733036Y-23163726D02*
X22742560Y-23154202D01*
X22818750Y-23249440D02*
X22818750Y-23382774D01*
X22818750Y-23268488D02*
X22828274Y-23258964D01*
X22828274Y-23258964D02*
X22847322Y-23249440D01*
X22847322Y-23249440D02*
X22875893Y-23249440D01*
X22875893Y-23249440D02*
X22894941Y-23258964D01*
X22894941Y-23258964D02*
X22904465Y-23278012D01*
X22904465Y-23278012D02*
X22904465Y-23382774D01*
X23028274Y-23382774D02*
X23009227Y-23373250D01*
X23009227Y-23373250D02*
X22999703Y-23363726D01*
X22999703Y-23363726D02*
X22990179Y-23344678D01*
X22990179Y-23344678D02*
X22990179Y-23287536D01*
X22990179Y-23287536D02*
X22999703Y-23268488D01*
X22999703Y-23268488D02*
X23009227Y-23258964D01*
X23009227Y-23258964D02*
X23028274Y-23249440D01*
X23028274Y-23249440D02*
X23056846Y-23249440D01*
X23056846Y-23249440D02*
X23075893Y-23258964D01*
X23075893Y-23258964D02*
X23085417Y-23268488D01*
X23085417Y-23268488D02*
X23094941Y-23287536D01*
X23094941Y-23287536D02*
X23094941Y-23344678D01*
X23094941Y-23344678D02*
X23085417Y-23363726D01*
X23085417Y-23363726D02*
X23075893Y-23373250D01*
X23075893Y-23373250D02*
X23056846Y-23382774D01*
X23056846Y-23382774D02*
X23028274Y-23382774D01*
X23152084Y-23249440D02*
X23228274Y-23249440D01*
X23180655Y-23182774D02*
X23180655Y-23354202D01*
X23180655Y-23354202D02*
X23190179Y-23373250D01*
X23190179Y-23373250D02*
X23209227Y-23382774D01*
X23209227Y-23382774D02*
X23228274Y-23382774D01*
X23447322Y-23249440D02*
X23447322Y-23449440D01*
X23447322Y-23258964D02*
X23466369Y-23249440D01*
X23466369Y-23249440D02*
X23504465Y-23249440D01*
X23504465Y-23249440D02*
X23523512Y-23258964D01*
X23523512Y-23258964D02*
X23533036Y-23268488D01*
X23533036Y-23268488D02*
X23542560Y-23287536D01*
X23542560Y-23287536D02*
X23542560Y-23344678D01*
X23542560Y-23344678D02*
X23533036Y-23363726D01*
X23533036Y-23363726D02*
X23523512Y-23373250D01*
X23523512Y-23373250D02*
X23504465Y-23382774D01*
X23504465Y-23382774D02*
X23466369Y-23382774D01*
X23466369Y-23382774D02*
X23447322Y-23373250D01*
X23656846Y-23382774D02*
X23637798Y-23373250D01*
X23637798Y-23373250D02*
X23628274Y-23354202D01*
X23628274Y-23354202D02*
X23628274Y-23182774D01*
X23818750Y-23382774D02*
X23818750Y-23278012D01*
X23818750Y-23278012D02*
X23809227Y-23258964D01*
X23809227Y-23258964D02*
X23790179Y-23249440D01*
X23790179Y-23249440D02*
X23752084Y-23249440D01*
X23752084Y-23249440D02*
X23733036Y-23258964D01*
X23818750Y-23373250D02*
X23799703Y-23382774D01*
X23799703Y-23382774D02*
X23752084Y-23382774D01*
X23752084Y-23382774D02*
X23733036Y-23373250D01*
X23733036Y-23373250D02*
X23723512Y-23354202D01*
X23723512Y-23354202D02*
X23723512Y-23335155D01*
X23723512Y-23335155D02*
X23733036Y-23316107D01*
X23733036Y-23316107D02*
X23752084Y-23306583D01*
X23752084Y-23306583D02*
X23799703Y-23306583D01*
X23799703Y-23306583D02*
X23818750Y-23297059D01*
X23885417Y-23249440D02*
X23961608Y-23249440D01*
X23913989Y-23182774D02*
X23913989Y-23354202D01*
X23913989Y-23354202D02*
X23923512Y-23373250D01*
X23923512Y-23373250D02*
X23942560Y-23382774D01*
X23942560Y-23382774D02*
X23961608Y-23382774D01*
X24104465Y-23373250D02*
X24085417Y-23382774D01*
X24085417Y-23382774D02*
X24047322Y-23382774D01*
X24047322Y-23382774D02*
X24028274Y-23373250D01*
X24028274Y-23373250D02*
X24018750Y-23354202D01*
X24018750Y-23354202D02*
X24018750Y-23278012D01*
X24018750Y-23278012D02*
X24028274Y-23258964D01*
X24028274Y-23258964D02*
X24047322Y-23249440D01*
X24047322Y-23249440D02*
X24085417Y-23249440D01*
X24085417Y-23249440D02*
X24104465Y-23258964D01*
X24104465Y-23258964D02*
X24113989Y-23278012D01*
X24113989Y-23278012D02*
X24113989Y-23297059D01*
X24113989Y-23297059D02*
X24018750Y-23316107D01*
X24285417Y-23382774D02*
X24285417Y-23182774D01*
X24285417Y-23373250D02*
X24266370Y-23382774D01*
X24266370Y-23382774D02*
X24228274Y-23382774D01*
X24228274Y-23382774D02*
X24209227Y-23373250D01*
X24209227Y-23373250D02*
X24199703Y-23363726D01*
X24199703Y-23363726D02*
X24190179Y-23344678D01*
X24190179Y-23344678D02*
X24190179Y-23287536D01*
X24190179Y-23287536D02*
X24199703Y-23268488D01*
X24199703Y-23268488D02*
X24209227Y-23258964D01*
X24209227Y-23258964D02*
X24228274Y-23249440D01*
X24228274Y-23249440D02*
X24266370Y-23249440D01*
X24266370Y-23249440D02*
X24285417Y-23258964D01*
X24361608Y-23458964D02*
X24371131Y-23449440D01*
X24371131Y-23449440D02*
X24390179Y-23420869D01*
X24390179Y-23420869D02*
X24399703Y-23401821D01*
X24399703Y-23401821D02*
X24409227Y-23373250D01*
X24409227Y-23373250D02*
X24418750Y-23325631D01*
X24418750Y-23325631D02*
X24418750Y-23287536D01*
X24418750Y-23287536D02*
X24409227Y-23239917D01*
X24409227Y-23239917D02*
X24399703Y-23211345D01*
X24399703Y-23211345D02*
X24390179Y-23192298D01*
X24390179Y-23192298D02*
X24371131Y-23163726D01*
X24371131Y-23163726D02*
X24361608Y-23154202D01*
D14*
X17531250Y-23466750D02*
X17531250Y-23641750D01*
X17443750Y-23554250D02*
X17618750Y-23554250D01*
D11*
X17971131Y-23646774D02*
X17856845Y-23646774D01*
X17913988Y-23646774D02*
X17913988Y-23446774D01*
X17913988Y-23446774D02*
X17894940Y-23475345D01*
X17894940Y-23475345D02*
X17875893Y-23494393D01*
X17875893Y-23494393D02*
X17856845Y-23503917D01*
X18056845Y-23627726D02*
X18066369Y-23637250D01*
X18066369Y-23637250D02*
X18056845Y-23646774D01*
X18056845Y-23646774D02*
X18047321Y-23637250D01*
X18047321Y-23637250D02*
X18056845Y-23627726D01*
X18056845Y-23627726D02*
X18056845Y-23646774D01*
X18133036Y-23446774D02*
X18266369Y-23446774D01*
X18266369Y-23446774D02*
X18180655Y-23646774D01*
X18437798Y-23446774D02*
X18342560Y-23446774D01*
X18342560Y-23446774D02*
X18333036Y-23542012D01*
X18333036Y-23542012D02*
X18342560Y-23532488D01*
X18342560Y-23532488D02*
X18361607Y-23522964D01*
X18361607Y-23522964D02*
X18409226Y-23522964D01*
X18409226Y-23522964D02*
X18428274Y-23532488D01*
X18428274Y-23532488D02*
X18437798Y-23542012D01*
X18437798Y-23542012D02*
X18447321Y-23561059D01*
X18447321Y-23561059D02*
X18447321Y-23608678D01*
X18447321Y-23608678D02*
X18437798Y-23627726D01*
X18437798Y-23627726D02*
X18428274Y-23637250D01*
X18428274Y-23637250D02*
X18409226Y-23646774D01*
X18409226Y-23646774D02*
X18361607Y-23646774D01*
X18361607Y-23646774D02*
X18342560Y-23637250D01*
X18342560Y-23637250D02*
X18333036Y-23627726D01*
X18571131Y-23446774D02*
X18590179Y-23446774D01*
X18590179Y-23446774D02*
X18609226Y-23456298D01*
X18609226Y-23456298D02*
X18618750Y-23465821D01*
X18618750Y-23465821D02*
X18628274Y-23484869D01*
X18628274Y-23484869D02*
X18637798Y-23522964D01*
X18637798Y-23522964D02*
X18637798Y-23570583D01*
X18637798Y-23570583D02*
X18628274Y-23608678D01*
X18628274Y-23608678D02*
X18618750Y-23627726D01*
X18618750Y-23627726D02*
X18609226Y-23637250D01*
X18609226Y-23637250D02*
X18590179Y-23646774D01*
X18590179Y-23646774D02*
X18571131Y-23646774D01*
X18571131Y-23646774D02*
X18552083Y-23637250D01*
X18552083Y-23637250D02*
X18542560Y-23627726D01*
X18542560Y-23627726D02*
X18533036Y-23608678D01*
X18533036Y-23608678D02*
X18523512Y-23570583D01*
X18523512Y-23570583D02*
X18523512Y-23522964D01*
X18523512Y-23522964D02*
X18533036Y-23484869D01*
X18533036Y-23484869D02*
X18542560Y-23465821D01*
X18542560Y-23465821D02*
X18552083Y-23456298D01*
X18552083Y-23456298D02*
X18571131Y-23446774D01*
X18723512Y-23646774D02*
X18723512Y-23513440D01*
X18723512Y-23532488D02*
X18733036Y-23522964D01*
X18733036Y-23522964D02*
X18752083Y-23513440D01*
X18752083Y-23513440D02*
X18780655Y-23513440D01*
X18780655Y-23513440D02*
X18799702Y-23522964D01*
X18799702Y-23522964D02*
X18809226Y-23542012D01*
X18809226Y-23542012D02*
X18809226Y-23646774D01*
X18809226Y-23542012D02*
X18818750Y-23522964D01*
X18818750Y-23522964D02*
X18837798Y-23513440D01*
X18837798Y-23513440D02*
X18866369Y-23513440D01*
X18866369Y-23513440D02*
X18885417Y-23522964D01*
X18885417Y-23522964D02*
X18894941Y-23542012D01*
X18894941Y-23542012D02*
X18894941Y-23646774D01*
X18990179Y-23646774D02*
X18990179Y-23513440D01*
X18990179Y-23532488D02*
X18999702Y-23522964D01*
X18999702Y-23522964D02*
X19018750Y-23513440D01*
X19018750Y-23513440D02*
X19047322Y-23513440D01*
X19047322Y-23513440D02*
X19066369Y-23522964D01*
X19066369Y-23522964D02*
X19075893Y-23542012D01*
X19075893Y-23542012D02*
X19075893Y-23646774D01*
X19075893Y-23542012D02*
X19085417Y-23522964D01*
X19085417Y-23522964D02*
X19104464Y-23513440D01*
X19104464Y-23513440D02*
X19133036Y-23513440D01*
X19133036Y-23513440D02*
X19152083Y-23522964D01*
X19152083Y-23522964D02*
X19161607Y-23542012D01*
X19161607Y-23542012D02*
X19161607Y-23646774D01*
X19552083Y-23437250D02*
X19380655Y-23694393D01*
X19809226Y-23446774D02*
X19828274Y-23446774D01*
X19828274Y-23446774D02*
X19847322Y-23456298D01*
X19847322Y-23456298D02*
X19856845Y-23465821D01*
X19856845Y-23465821D02*
X19866369Y-23484869D01*
X19866369Y-23484869D02*
X19875893Y-23522964D01*
X19875893Y-23522964D02*
X19875893Y-23570583D01*
X19875893Y-23570583D02*
X19866369Y-23608678D01*
X19866369Y-23608678D02*
X19856845Y-23627726D01*
X19856845Y-23627726D02*
X19847322Y-23637250D01*
X19847322Y-23637250D02*
X19828274Y-23646774D01*
X19828274Y-23646774D02*
X19809226Y-23646774D01*
X19809226Y-23646774D02*
X19790179Y-23637250D01*
X19790179Y-23637250D02*
X19780655Y-23627726D01*
X19780655Y-23627726D02*
X19771131Y-23608678D01*
X19771131Y-23608678D02*
X19761607Y-23570583D01*
X19761607Y-23570583D02*
X19761607Y-23522964D01*
X19761607Y-23522964D02*
X19771131Y-23484869D01*
X19771131Y-23484869D02*
X19780655Y-23465821D01*
X19780655Y-23465821D02*
X19790179Y-23456298D01*
X19790179Y-23456298D02*
X19809226Y-23446774D01*
X19961607Y-23627726D02*
X19971131Y-23637250D01*
X19971131Y-23637250D02*
X19961607Y-23646774D01*
X19961607Y-23646774D02*
X19952084Y-23637250D01*
X19952084Y-23637250D02*
X19961607Y-23627726D01*
X19961607Y-23627726D02*
X19961607Y-23646774D01*
X20094941Y-23446774D02*
X20113988Y-23446774D01*
X20113988Y-23446774D02*
X20133036Y-23456298D01*
X20133036Y-23456298D02*
X20142560Y-23465821D01*
X20142560Y-23465821D02*
X20152084Y-23484869D01*
X20152084Y-23484869D02*
X20161607Y-23522964D01*
X20161607Y-23522964D02*
X20161607Y-23570583D01*
X20161607Y-23570583D02*
X20152084Y-23608678D01*
X20152084Y-23608678D02*
X20142560Y-23627726D01*
X20142560Y-23627726D02*
X20133036Y-23637250D01*
X20133036Y-23637250D02*
X20113988Y-23646774D01*
X20113988Y-23646774D02*
X20094941Y-23646774D01*
X20094941Y-23646774D02*
X20075893Y-23637250D01*
X20075893Y-23637250D02*
X20066369Y-23627726D01*
X20066369Y-23627726D02*
X20056845Y-23608678D01*
X20056845Y-23608678D02*
X20047322Y-23570583D01*
X20047322Y-23570583D02*
X20047322Y-23522964D01*
X20047322Y-23522964D02*
X20056845Y-23484869D01*
X20056845Y-23484869D02*
X20066369Y-23465821D01*
X20066369Y-23465821D02*
X20075893Y-23456298D01*
X20075893Y-23456298D02*
X20094941Y-23446774D01*
X20333036Y-23446774D02*
X20294941Y-23446774D01*
X20294941Y-23446774D02*
X20275893Y-23456298D01*
X20275893Y-23456298D02*
X20266369Y-23465821D01*
X20266369Y-23465821D02*
X20247322Y-23494393D01*
X20247322Y-23494393D02*
X20237798Y-23532488D01*
X20237798Y-23532488D02*
X20237798Y-23608678D01*
X20237798Y-23608678D02*
X20247322Y-23627726D01*
X20247322Y-23627726D02*
X20256845Y-23637250D01*
X20256845Y-23637250D02*
X20275893Y-23646774D01*
X20275893Y-23646774D02*
X20313988Y-23646774D01*
X20313988Y-23646774D02*
X20333036Y-23637250D01*
X20333036Y-23637250D02*
X20342560Y-23627726D01*
X20342560Y-23627726D02*
X20352084Y-23608678D01*
X20352084Y-23608678D02*
X20352084Y-23561059D01*
X20352084Y-23561059D02*
X20342560Y-23542012D01*
X20342560Y-23542012D02*
X20333036Y-23532488D01*
X20333036Y-23532488D02*
X20313988Y-23522964D01*
X20313988Y-23522964D02*
X20275893Y-23522964D01*
X20275893Y-23522964D02*
X20256845Y-23532488D01*
X20256845Y-23532488D02*
X20247322Y-23542012D01*
X20247322Y-23542012D02*
X20237798Y-23561059D01*
X20466369Y-23532488D02*
X20447322Y-23522964D01*
X20447322Y-23522964D02*
X20437798Y-23513440D01*
X20437798Y-23513440D02*
X20428274Y-23494393D01*
X20428274Y-23494393D02*
X20428274Y-23484869D01*
X20428274Y-23484869D02*
X20437798Y-23465821D01*
X20437798Y-23465821D02*
X20447322Y-23456298D01*
X20447322Y-23456298D02*
X20466369Y-23446774D01*
X20466369Y-23446774D02*
X20504465Y-23446774D01*
X20504465Y-23446774D02*
X20523512Y-23456298D01*
X20523512Y-23456298D02*
X20533036Y-23465821D01*
X20533036Y-23465821D02*
X20542560Y-23484869D01*
X20542560Y-23484869D02*
X20542560Y-23494393D01*
X20542560Y-23494393D02*
X20533036Y-23513440D01*
X20533036Y-23513440D02*
X20523512Y-23522964D01*
X20523512Y-23522964D02*
X20504465Y-23532488D01*
X20504465Y-23532488D02*
X20466369Y-23532488D01*
X20466369Y-23532488D02*
X20447322Y-23542012D01*
X20447322Y-23542012D02*
X20437798Y-23551536D01*
X20437798Y-23551536D02*
X20428274Y-23570583D01*
X20428274Y-23570583D02*
X20428274Y-23608678D01*
X20428274Y-23608678D02*
X20437798Y-23627726D01*
X20437798Y-23627726D02*
X20447322Y-23637250D01*
X20447322Y-23637250D02*
X20466369Y-23646774D01*
X20466369Y-23646774D02*
X20504465Y-23646774D01*
X20504465Y-23646774D02*
X20523512Y-23637250D01*
X20523512Y-23637250D02*
X20533036Y-23627726D01*
X20533036Y-23627726D02*
X20542560Y-23608678D01*
X20542560Y-23608678D02*
X20542560Y-23570583D01*
X20542560Y-23570583D02*
X20533036Y-23551536D01*
X20533036Y-23551536D02*
X20523512Y-23542012D01*
X20523512Y-23542012D02*
X20504465Y-23532488D01*
X20637798Y-23646774D02*
X20675893Y-23646774D01*
X20675893Y-23646774D02*
X20694941Y-23637250D01*
X20694941Y-23637250D02*
X20704465Y-23627726D01*
X20704465Y-23627726D02*
X20723512Y-23599155D01*
X20723512Y-23599155D02*
X20733036Y-23561059D01*
X20733036Y-23561059D02*
X20733036Y-23484869D01*
X20733036Y-23484869D02*
X20723512Y-23465821D01*
X20723512Y-23465821D02*
X20713988Y-23456298D01*
X20713988Y-23456298D02*
X20694941Y-23446774D01*
X20694941Y-23446774D02*
X20656845Y-23446774D01*
X20656845Y-23446774D02*
X20637798Y-23456298D01*
X20637798Y-23456298D02*
X20628274Y-23465821D01*
X20628274Y-23465821D02*
X20618750Y-23484869D01*
X20618750Y-23484869D02*
X20618750Y-23532488D01*
X20618750Y-23532488D02*
X20628274Y-23551536D01*
X20628274Y-23551536D02*
X20637798Y-23561059D01*
X20637798Y-23561059D02*
X20656845Y-23570583D01*
X20656845Y-23570583D02*
X20694941Y-23570583D01*
X20694941Y-23570583D02*
X20713988Y-23561059D01*
X20713988Y-23561059D02*
X20723512Y-23551536D01*
X20723512Y-23551536D02*
X20733036Y-23532488D01*
X20809226Y-23446774D02*
X20809226Y-23484869D01*
X20885417Y-23446774D02*
X20885417Y-23484869D01*
X21180655Y-23722964D02*
X21171131Y-23713440D01*
X21171131Y-23713440D02*
X21152084Y-23684869D01*
X21152084Y-23684869D02*
X21142560Y-23665821D01*
X21142560Y-23665821D02*
X21133036Y-23637250D01*
X21133036Y-23637250D02*
X21123512Y-23589631D01*
X21123512Y-23589631D02*
X21123512Y-23551536D01*
X21123512Y-23551536D02*
X21133036Y-23503917D01*
X21133036Y-23503917D02*
X21142560Y-23475345D01*
X21142560Y-23475345D02*
X21152084Y-23456298D01*
X21152084Y-23456298D02*
X21171131Y-23427726D01*
X21171131Y-23427726D02*
X21180655Y-23418202D01*
X21247322Y-23465821D02*
X21256846Y-23456298D01*
X21256846Y-23456298D02*
X21275893Y-23446774D01*
X21275893Y-23446774D02*
X21323512Y-23446774D01*
X21323512Y-23446774D02*
X21342560Y-23456298D01*
X21342560Y-23456298D02*
X21352084Y-23465821D01*
X21352084Y-23465821D02*
X21361607Y-23484869D01*
X21361607Y-23484869D02*
X21361607Y-23503917D01*
X21361607Y-23503917D02*
X21352084Y-23532488D01*
X21352084Y-23532488D02*
X21237798Y-23646774D01*
X21237798Y-23646774D02*
X21361607Y-23646774D01*
X21428274Y-23446774D02*
X21552084Y-23446774D01*
X21552084Y-23446774D02*
X21485417Y-23522964D01*
X21485417Y-23522964D02*
X21513988Y-23522964D01*
X21513988Y-23522964D02*
X21533036Y-23532488D01*
X21533036Y-23532488D02*
X21542560Y-23542012D01*
X21542560Y-23542012D02*
X21552084Y-23561059D01*
X21552084Y-23561059D02*
X21552084Y-23608678D01*
X21552084Y-23608678D02*
X21542560Y-23627726D01*
X21542560Y-23627726D02*
X21533036Y-23637250D01*
X21533036Y-23637250D02*
X21513988Y-23646774D01*
X21513988Y-23646774D02*
X21456846Y-23646774D01*
X21456846Y-23646774D02*
X21437798Y-23637250D01*
X21437798Y-23637250D02*
X21428274Y-23627726D01*
X21666369Y-23532488D02*
X21647322Y-23522964D01*
X21647322Y-23522964D02*
X21637798Y-23513440D01*
X21637798Y-23513440D02*
X21628274Y-23494393D01*
X21628274Y-23494393D02*
X21628274Y-23484869D01*
X21628274Y-23484869D02*
X21637798Y-23465821D01*
X21637798Y-23465821D02*
X21647322Y-23456298D01*
X21647322Y-23456298D02*
X21666369Y-23446774D01*
X21666369Y-23446774D02*
X21704465Y-23446774D01*
X21704465Y-23446774D02*
X21723512Y-23456298D01*
X21723512Y-23456298D02*
X21733036Y-23465821D01*
X21733036Y-23465821D02*
X21742560Y-23484869D01*
X21742560Y-23484869D02*
X21742560Y-23494393D01*
X21742560Y-23494393D02*
X21733036Y-23513440D01*
X21733036Y-23513440D02*
X21723512Y-23522964D01*
X21723512Y-23522964D02*
X21704465Y-23532488D01*
X21704465Y-23532488D02*
X21666369Y-23532488D01*
X21666369Y-23532488D02*
X21647322Y-23542012D01*
X21647322Y-23542012D02*
X21637798Y-23551536D01*
X21637798Y-23551536D02*
X21628274Y-23570583D01*
X21628274Y-23570583D02*
X21628274Y-23608678D01*
X21628274Y-23608678D02*
X21637798Y-23627726D01*
X21637798Y-23627726D02*
X21647322Y-23637250D01*
X21647322Y-23637250D02*
X21666369Y-23646774D01*
X21666369Y-23646774D02*
X21704465Y-23646774D01*
X21704465Y-23646774D02*
X21723512Y-23637250D01*
X21723512Y-23637250D02*
X21733036Y-23627726D01*
X21733036Y-23627726D02*
X21742560Y-23608678D01*
X21742560Y-23608678D02*
X21742560Y-23570583D01*
X21742560Y-23570583D02*
X21733036Y-23551536D01*
X21733036Y-23551536D02*
X21723512Y-23542012D01*
X21723512Y-23542012D02*
X21704465Y-23532488D01*
X21980655Y-23646774D02*
X21980655Y-23446774D01*
X22066369Y-23646774D02*
X22066369Y-23542012D01*
X22066369Y-23542012D02*
X22056846Y-23522964D01*
X22056846Y-23522964D02*
X22037798Y-23513440D01*
X22037798Y-23513440D02*
X22009227Y-23513440D01*
X22009227Y-23513440D02*
X21990179Y-23522964D01*
X21990179Y-23522964D02*
X21980655Y-23532488D01*
X22190179Y-23646774D02*
X22171131Y-23637250D01*
X22171131Y-23637250D02*
X22161608Y-23627726D01*
X22161608Y-23627726D02*
X22152084Y-23608678D01*
X22152084Y-23608678D02*
X22152084Y-23551536D01*
X22152084Y-23551536D02*
X22161608Y-23532488D01*
X22161608Y-23532488D02*
X22171131Y-23522964D01*
X22171131Y-23522964D02*
X22190179Y-23513440D01*
X22190179Y-23513440D02*
X22218750Y-23513440D01*
X22218750Y-23513440D02*
X22237798Y-23522964D01*
X22237798Y-23522964D02*
X22247322Y-23532488D01*
X22247322Y-23532488D02*
X22256846Y-23551536D01*
X22256846Y-23551536D02*
X22256846Y-23608678D01*
X22256846Y-23608678D02*
X22247322Y-23627726D01*
X22247322Y-23627726D02*
X22237798Y-23637250D01*
X22237798Y-23637250D02*
X22218750Y-23646774D01*
X22218750Y-23646774D02*
X22190179Y-23646774D01*
X22371131Y-23646774D02*
X22352084Y-23637250D01*
X22352084Y-23637250D02*
X22342560Y-23618202D01*
X22342560Y-23618202D02*
X22342560Y-23446774D01*
X22523512Y-23637250D02*
X22504465Y-23646774D01*
X22504465Y-23646774D02*
X22466369Y-23646774D01*
X22466369Y-23646774D02*
X22447322Y-23637250D01*
X22447322Y-23637250D02*
X22437798Y-23618202D01*
X22437798Y-23618202D02*
X22437798Y-23542012D01*
X22437798Y-23542012D02*
X22447322Y-23522964D01*
X22447322Y-23522964D02*
X22466369Y-23513440D01*
X22466369Y-23513440D02*
X22504465Y-23513440D01*
X22504465Y-23513440D02*
X22523512Y-23522964D01*
X22523512Y-23522964D02*
X22533036Y-23542012D01*
X22533036Y-23542012D02*
X22533036Y-23561059D01*
X22533036Y-23561059D02*
X22437798Y-23580107D01*
X22609227Y-23637250D02*
X22628274Y-23646774D01*
X22628274Y-23646774D02*
X22666369Y-23646774D01*
X22666369Y-23646774D02*
X22685417Y-23637250D01*
X22685417Y-23637250D02*
X22694941Y-23618202D01*
X22694941Y-23618202D02*
X22694941Y-23608678D01*
X22694941Y-23608678D02*
X22685417Y-23589631D01*
X22685417Y-23589631D02*
X22666369Y-23580107D01*
X22666369Y-23580107D02*
X22637798Y-23580107D01*
X22637798Y-23580107D02*
X22618750Y-23570583D01*
X22618750Y-23570583D02*
X22609227Y-23551536D01*
X22609227Y-23551536D02*
X22609227Y-23542012D01*
X22609227Y-23542012D02*
X22618750Y-23522964D01*
X22618750Y-23522964D02*
X22637798Y-23513440D01*
X22637798Y-23513440D02*
X22666369Y-23513440D01*
X22666369Y-23513440D02*
X22685417Y-23522964D01*
X22761608Y-23722964D02*
X22771131Y-23713440D01*
X22771131Y-23713440D02*
X22790179Y-23684869D01*
X22790179Y-23684869D02*
X22799703Y-23665821D01*
X22799703Y-23665821D02*
X22809227Y-23637250D01*
X22809227Y-23637250D02*
X22818750Y-23589631D01*
X22818750Y-23589631D02*
X22818750Y-23551536D01*
X22818750Y-23551536D02*
X22809227Y-23503917D01*
X22809227Y-23503917D02*
X22799703Y-23475345D01*
X22799703Y-23475345D02*
X22790179Y-23456298D01*
X22790179Y-23456298D02*
X22771131Y-23427726D01*
X22771131Y-23427726D02*
X22761608Y-23418202D01*
X23123512Y-23722964D02*
X23113988Y-23713440D01*
X23113988Y-23713440D02*
X23094941Y-23684869D01*
X23094941Y-23684869D02*
X23085417Y-23665821D01*
X23085417Y-23665821D02*
X23075893Y-23637250D01*
X23075893Y-23637250D02*
X23066369Y-23589631D01*
X23066369Y-23589631D02*
X23066369Y-23551536D01*
X23066369Y-23551536D02*
X23075893Y-23503917D01*
X23075893Y-23503917D02*
X23085417Y-23475345D01*
X23085417Y-23475345D02*
X23094941Y-23456298D01*
X23094941Y-23456298D02*
X23113988Y-23427726D01*
X23113988Y-23427726D02*
X23123512Y-23418202D01*
X23199703Y-23513440D02*
X23199703Y-23646774D01*
X23199703Y-23532488D02*
X23209227Y-23522964D01*
X23209227Y-23522964D02*
X23228274Y-23513440D01*
X23228274Y-23513440D02*
X23256846Y-23513440D01*
X23256846Y-23513440D02*
X23275893Y-23522964D01*
X23275893Y-23522964D02*
X23285417Y-23542012D01*
X23285417Y-23542012D02*
X23285417Y-23646774D01*
X23409227Y-23646774D02*
X23390179Y-23637250D01*
X23390179Y-23637250D02*
X23380655Y-23627726D01*
X23380655Y-23627726D02*
X23371131Y-23608678D01*
X23371131Y-23608678D02*
X23371131Y-23551536D01*
X23371131Y-23551536D02*
X23380655Y-23532488D01*
X23380655Y-23532488D02*
X23390179Y-23522964D01*
X23390179Y-23522964D02*
X23409227Y-23513440D01*
X23409227Y-23513440D02*
X23437798Y-23513440D01*
X23437798Y-23513440D02*
X23456846Y-23522964D01*
X23456846Y-23522964D02*
X23466369Y-23532488D01*
X23466369Y-23532488D02*
X23475893Y-23551536D01*
X23475893Y-23551536D02*
X23475893Y-23608678D01*
X23475893Y-23608678D02*
X23466369Y-23627726D01*
X23466369Y-23627726D02*
X23456846Y-23637250D01*
X23456846Y-23637250D02*
X23437798Y-23646774D01*
X23437798Y-23646774D02*
X23409227Y-23646774D01*
X23533036Y-23513440D02*
X23609227Y-23513440D01*
X23561608Y-23446774D02*
X23561608Y-23618202D01*
X23561608Y-23618202D02*
X23571131Y-23637250D01*
X23571131Y-23637250D02*
X23590179Y-23646774D01*
X23590179Y-23646774D02*
X23609227Y-23646774D01*
X23828274Y-23513440D02*
X23828274Y-23713440D01*
X23828274Y-23522964D02*
X23847322Y-23513440D01*
X23847322Y-23513440D02*
X23885417Y-23513440D01*
X23885417Y-23513440D02*
X23904465Y-23522964D01*
X23904465Y-23522964D02*
X23913989Y-23532488D01*
X23913989Y-23532488D02*
X23923512Y-23551536D01*
X23923512Y-23551536D02*
X23923512Y-23608678D01*
X23923512Y-23608678D02*
X23913989Y-23627726D01*
X23913989Y-23627726D02*
X23904465Y-23637250D01*
X23904465Y-23637250D02*
X23885417Y-23646774D01*
X23885417Y-23646774D02*
X23847322Y-23646774D01*
X23847322Y-23646774D02*
X23828274Y-23637250D01*
X24037798Y-23646774D02*
X24018750Y-23637250D01*
X24018750Y-23637250D02*
X24009227Y-23618202D01*
X24009227Y-23618202D02*
X24009227Y-23446774D01*
X24199703Y-23646774D02*
X24199703Y-23542012D01*
X24199703Y-23542012D02*
X24190179Y-23522964D01*
X24190179Y-23522964D02*
X24171131Y-23513440D01*
X24171131Y-23513440D02*
X24133036Y-23513440D01*
X24133036Y-23513440D02*
X24113989Y-23522964D01*
X24199703Y-23637250D02*
X24180655Y-23646774D01*
X24180655Y-23646774D02*
X24133036Y-23646774D01*
X24133036Y-23646774D02*
X24113989Y-23637250D01*
X24113989Y-23637250D02*
X24104465Y-23618202D01*
X24104465Y-23618202D02*
X24104465Y-23599155D01*
X24104465Y-23599155D02*
X24113989Y-23580107D01*
X24113989Y-23580107D02*
X24133036Y-23570583D01*
X24133036Y-23570583D02*
X24180655Y-23570583D01*
X24180655Y-23570583D02*
X24199703Y-23561059D01*
X24266370Y-23513440D02*
X24342560Y-23513440D01*
X24294941Y-23446774D02*
X24294941Y-23618202D01*
X24294941Y-23618202D02*
X24304465Y-23637250D01*
X24304465Y-23637250D02*
X24323512Y-23646774D01*
X24323512Y-23646774D02*
X24342560Y-23646774D01*
X24485417Y-23637250D02*
X24466370Y-23646774D01*
X24466370Y-23646774D02*
X24428274Y-23646774D01*
X24428274Y-23646774D02*
X24409227Y-23637250D01*
X24409227Y-23637250D02*
X24399703Y-23618202D01*
X24399703Y-23618202D02*
X24399703Y-23542012D01*
X24399703Y-23542012D02*
X24409227Y-23522964D01*
X24409227Y-23522964D02*
X24428274Y-23513440D01*
X24428274Y-23513440D02*
X24466370Y-23513440D01*
X24466370Y-23513440D02*
X24485417Y-23522964D01*
X24485417Y-23522964D02*
X24494941Y-23542012D01*
X24494941Y-23542012D02*
X24494941Y-23561059D01*
X24494941Y-23561059D02*
X24399703Y-23580107D01*
X24666370Y-23646774D02*
X24666370Y-23446774D01*
X24666370Y-23637250D02*
X24647322Y-23646774D01*
X24647322Y-23646774D02*
X24609227Y-23646774D01*
X24609227Y-23646774D02*
X24590179Y-23637250D01*
X24590179Y-23637250D02*
X24580655Y-23627726D01*
X24580655Y-23627726D02*
X24571131Y-23608678D01*
X24571131Y-23608678D02*
X24571131Y-23551536D01*
X24571131Y-23551536D02*
X24580655Y-23532488D01*
X24580655Y-23532488D02*
X24590179Y-23522964D01*
X24590179Y-23522964D02*
X24609227Y-23513440D01*
X24609227Y-23513440D02*
X24647322Y-23513440D01*
X24647322Y-23513440D02*
X24666370Y-23522964D01*
X24742560Y-23722964D02*
X24752084Y-23713440D01*
X24752084Y-23713440D02*
X24771131Y-23684869D01*
X24771131Y-23684869D02*
X24780655Y-23665821D01*
X24780655Y-23665821D02*
X24790179Y-23637250D01*
X24790179Y-23637250D02*
X24799703Y-23589631D01*
X24799703Y-23589631D02*
X24799703Y-23551536D01*
X24799703Y-23551536D02*
X24790179Y-23503917D01*
X24790179Y-23503917D02*
X24780655Y-23475345D01*
X24780655Y-23475345D02*
X24771131Y-23456298D01*
X24771131Y-23456298D02*
X24752084Y-23427726D01*
X24752084Y-23427726D02*
X24742560Y-23418202D01*
X17589461Y-23919961D02*
X17589461Y-23778539D01*
X17448039Y-23778539D01*
X17448039Y-23919961D01*
X17589461Y-23919961D01*
X17856845Y-23760821D02*
X17866369Y-23751298D01*
X17866369Y-23751298D02*
X17885417Y-23741774D01*
X17885417Y-23741774D02*
X17933036Y-23741774D01*
X17933036Y-23741774D02*
X17952083Y-23751298D01*
X17952083Y-23751298D02*
X17961607Y-23760821D01*
X17961607Y-23760821D02*
X17971131Y-23779869D01*
X17971131Y-23779869D02*
X17971131Y-23798917D01*
X17971131Y-23798917D02*
X17961607Y-23827488D01*
X17961607Y-23827488D02*
X17847321Y-23941774D01*
X17847321Y-23941774D02*
X17971131Y-23941774D01*
X18056845Y-23922726D02*
X18066369Y-23932250D01*
X18066369Y-23932250D02*
X18056845Y-23941774D01*
X18056845Y-23941774D02*
X18047321Y-23932250D01*
X18047321Y-23932250D02*
X18056845Y-23922726D01*
X18056845Y-23922726D02*
X18056845Y-23941774D01*
X18142560Y-23760821D02*
X18152083Y-23751298D01*
X18152083Y-23751298D02*
X18171131Y-23741774D01*
X18171131Y-23741774D02*
X18218750Y-23741774D01*
X18218750Y-23741774D02*
X18237798Y-23751298D01*
X18237798Y-23751298D02*
X18247321Y-23760821D01*
X18247321Y-23760821D02*
X18256845Y-23779869D01*
X18256845Y-23779869D02*
X18256845Y-23798917D01*
X18256845Y-23798917D02*
X18247321Y-23827488D01*
X18247321Y-23827488D02*
X18133036Y-23941774D01*
X18133036Y-23941774D02*
X18256845Y-23941774D01*
X18380655Y-23741774D02*
X18399702Y-23741774D01*
X18399702Y-23741774D02*
X18418750Y-23751298D01*
X18418750Y-23751298D02*
X18428274Y-23760821D01*
X18428274Y-23760821D02*
X18437798Y-23779869D01*
X18437798Y-23779869D02*
X18447321Y-23817964D01*
X18447321Y-23817964D02*
X18447321Y-23865583D01*
X18447321Y-23865583D02*
X18437798Y-23903678D01*
X18437798Y-23903678D02*
X18428274Y-23922726D01*
X18428274Y-23922726D02*
X18418750Y-23932250D01*
X18418750Y-23932250D02*
X18399702Y-23941774D01*
X18399702Y-23941774D02*
X18380655Y-23941774D01*
X18380655Y-23941774D02*
X18361607Y-23932250D01*
X18361607Y-23932250D02*
X18352083Y-23922726D01*
X18352083Y-23922726D02*
X18342560Y-23903678D01*
X18342560Y-23903678D02*
X18333036Y-23865583D01*
X18333036Y-23865583D02*
X18333036Y-23817964D01*
X18333036Y-23817964D02*
X18342560Y-23779869D01*
X18342560Y-23779869D02*
X18352083Y-23760821D01*
X18352083Y-23760821D02*
X18361607Y-23751298D01*
X18361607Y-23751298D02*
X18380655Y-23741774D01*
X18571131Y-23741774D02*
X18590179Y-23741774D01*
X18590179Y-23741774D02*
X18609226Y-23751298D01*
X18609226Y-23751298D02*
X18618750Y-23760821D01*
X18618750Y-23760821D02*
X18628274Y-23779869D01*
X18628274Y-23779869D02*
X18637798Y-23817964D01*
X18637798Y-23817964D02*
X18637798Y-23865583D01*
X18637798Y-23865583D02*
X18628274Y-23903678D01*
X18628274Y-23903678D02*
X18618750Y-23922726D01*
X18618750Y-23922726D02*
X18609226Y-23932250D01*
X18609226Y-23932250D02*
X18590179Y-23941774D01*
X18590179Y-23941774D02*
X18571131Y-23941774D01*
X18571131Y-23941774D02*
X18552083Y-23932250D01*
X18552083Y-23932250D02*
X18542560Y-23922726D01*
X18542560Y-23922726D02*
X18533036Y-23903678D01*
X18533036Y-23903678D02*
X18523512Y-23865583D01*
X18523512Y-23865583D02*
X18523512Y-23817964D01*
X18523512Y-23817964D02*
X18533036Y-23779869D01*
X18533036Y-23779869D02*
X18542560Y-23760821D01*
X18542560Y-23760821D02*
X18552083Y-23751298D01*
X18552083Y-23751298D02*
X18571131Y-23741774D01*
X18723512Y-23941774D02*
X18723512Y-23808440D01*
X18723512Y-23827488D02*
X18733036Y-23817964D01*
X18733036Y-23817964D02*
X18752083Y-23808440D01*
X18752083Y-23808440D02*
X18780655Y-23808440D01*
X18780655Y-23808440D02*
X18799702Y-23817964D01*
X18799702Y-23817964D02*
X18809226Y-23837012D01*
X18809226Y-23837012D02*
X18809226Y-23941774D01*
X18809226Y-23837012D02*
X18818750Y-23817964D01*
X18818750Y-23817964D02*
X18837798Y-23808440D01*
X18837798Y-23808440D02*
X18866369Y-23808440D01*
X18866369Y-23808440D02*
X18885417Y-23817964D01*
X18885417Y-23817964D02*
X18894941Y-23837012D01*
X18894941Y-23837012D02*
X18894941Y-23941774D01*
X18990179Y-23941774D02*
X18990179Y-23808440D01*
X18990179Y-23827488D02*
X18999702Y-23817964D01*
X18999702Y-23817964D02*
X19018750Y-23808440D01*
X19018750Y-23808440D02*
X19047322Y-23808440D01*
X19047322Y-23808440D02*
X19066369Y-23817964D01*
X19066369Y-23817964D02*
X19075893Y-23837012D01*
X19075893Y-23837012D02*
X19075893Y-23941774D01*
X19075893Y-23837012D02*
X19085417Y-23817964D01*
X19085417Y-23817964D02*
X19104464Y-23808440D01*
X19104464Y-23808440D02*
X19133036Y-23808440D01*
X19133036Y-23808440D02*
X19152083Y-23817964D01*
X19152083Y-23817964D02*
X19161607Y-23837012D01*
X19161607Y-23837012D02*
X19161607Y-23941774D01*
X19552083Y-23732250D02*
X19380655Y-23989393D01*
X19809226Y-23741774D02*
X19828274Y-23741774D01*
X19828274Y-23741774D02*
X19847322Y-23751298D01*
X19847322Y-23751298D02*
X19856845Y-23760821D01*
X19856845Y-23760821D02*
X19866369Y-23779869D01*
X19866369Y-23779869D02*
X19875893Y-23817964D01*
X19875893Y-23817964D02*
X19875893Y-23865583D01*
X19875893Y-23865583D02*
X19866369Y-23903678D01*
X19866369Y-23903678D02*
X19856845Y-23922726D01*
X19856845Y-23922726D02*
X19847322Y-23932250D01*
X19847322Y-23932250D02*
X19828274Y-23941774D01*
X19828274Y-23941774D02*
X19809226Y-23941774D01*
X19809226Y-23941774D02*
X19790179Y-23932250D01*
X19790179Y-23932250D02*
X19780655Y-23922726D01*
X19780655Y-23922726D02*
X19771131Y-23903678D01*
X19771131Y-23903678D02*
X19761607Y-23865583D01*
X19761607Y-23865583D02*
X19761607Y-23817964D01*
X19761607Y-23817964D02*
X19771131Y-23779869D01*
X19771131Y-23779869D02*
X19780655Y-23760821D01*
X19780655Y-23760821D02*
X19790179Y-23751298D01*
X19790179Y-23751298D02*
X19809226Y-23741774D01*
X19961607Y-23922726D02*
X19971131Y-23932250D01*
X19971131Y-23932250D02*
X19961607Y-23941774D01*
X19961607Y-23941774D02*
X19952084Y-23932250D01*
X19952084Y-23932250D02*
X19961607Y-23922726D01*
X19961607Y-23922726D02*
X19961607Y-23941774D01*
X20094941Y-23741774D02*
X20113988Y-23741774D01*
X20113988Y-23741774D02*
X20133036Y-23751298D01*
X20133036Y-23751298D02*
X20142560Y-23760821D01*
X20142560Y-23760821D02*
X20152084Y-23779869D01*
X20152084Y-23779869D02*
X20161607Y-23817964D01*
X20161607Y-23817964D02*
X20161607Y-23865583D01*
X20161607Y-23865583D02*
X20152084Y-23903678D01*
X20152084Y-23903678D02*
X20142560Y-23922726D01*
X20142560Y-23922726D02*
X20133036Y-23932250D01*
X20133036Y-23932250D02*
X20113988Y-23941774D01*
X20113988Y-23941774D02*
X20094941Y-23941774D01*
X20094941Y-23941774D02*
X20075893Y-23932250D01*
X20075893Y-23932250D02*
X20066369Y-23922726D01*
X20066369Y-23922726D02*
X20056845Y-23903678D01*
X20056845Y-23903678D02*
X20047322Y-23865583D01*
X20047322Y-23865583D02*
X20047322Y-23817964D01*
X20047322Y-23817964D02*
X20056845Y-23779869D01*
X20056845Y-23779869D02*
X20066369Y-23760821D01*
X20066369Y-23760821D02*
X20075893Y-23751298D01*
X20075893Y-23751298D02*
X20094941Y-23741774D01*
X20275893Y-23827488D02*
X20256845Y-23817964D01*
X20256845Y-23817964D02*
X20247322Y-23808440D01*
X20247322Y-23808440D02*
X20237798Y-23789393D01*
X20237798Y-23789393D02*
X20237798Y-23779869D01*
X20237798Y-23779869D02*
X20247322Y-23760821D01*
X20247322Y-23760821D02*
X20256845Y-23751298D01*
X20256845Y-23751298D02*
X20275893Y-23741774D01*
X20275893Y-23741774D02*
X20313988Y-23741774D01*
X20313988Y-23741774D02*
X20333036Y-23751298D01*
X20333036Y-23751298D02*
X20342560Y-23760821D01*
X20342560Y-23760821D02*
X20352084Y-23779869D01*
X20352084Y-23779869D02*
X20352084Y-23789393D01*
X20352084Y-23789393D02*
X20342560Y-23808440D01*
X20342560Y-23808440D02*
X20333036Y-23817964D01*
X20333036Y-23817964D02*
X20313988Y-23827488D01*
X20313988Y-23827488D02*
X20275893Y-23827488D01*
X20275893Y-23827488D02*
X20256845Y-23837012D01*
X20256845Y-23837012D02*
X20247322Y-23846536D01*
X20247322Y-23846536D02*
X20237798Y-23865583D01*
X20237798Y-23865583D02*
X20237798Y-23903678D01*
X20237798Y-23903678D02*
X20247322Y-23922726D01*
X20247322Y-23922726D02*
X20256845Y-23932250D01*
X20256845Y-23932250D02*
X20275893Y-23941774D01*
X20275893Y-23941774D02*
X20313988Y-23941774D01*
X20313988Y-23941774D02*
X20333036Y-23932250D01*
X20333036Y-23932250D02*
X20342560Y-23922726D01*
X20342560Y-23922726D02*
X20352084Y-23903678D01*
X20352084Y-23903678D02*
X20352084Y-23865583D01*
X20352084Y-23865583D02*
X20342560Y-23846536D01*
X20342560Y-23846536D02*
X20333036Y-23837012D01*
X20333036Y-23837012D02*
X20313988Y-23827488D01*
X20523512Y-23741774D02*
X20485417Y-23741774D01*
X20485417Y-23741774D02*
X20466369Y-23751298D01*
X20466369Y-23751298D02*
X20456845Y-23760821D01*
X20456845Y-23760821D02*
X20437798Y-23789393D01*
X20437798Y-23789393D02*
X20428274Y-23827488D01*
X20428274Y-23827488D02*
X20428274Y-23903678D01*
X20428274Y-23903678D02*
X20437798Y-23922726D01*
X20437798Y-23922726D02*
X20447322Y-23932250D01*
X20447322Y-23932250D02*
X20466369Y-23941774D01*
X20466369Y-23941774D02*
X20504465Y-23941774D01*
X20504465Y-23941774D02*
X20523512Y-23932250D01*
X20523512Y-23932250D02*
X20533036Y-23922726D01*
X20533036Y-23922726D02*
X20542560Y-23903678D01*
X20542560Y-23903678D02*
X20542560Y-23856059D01*
X20542560Y-23856059D02*
X20533036Y-23837012D01*
X20533036Y-23837012D02*
X20523512Y-23827488D01*
X20523512Y-23827488D02*
X20504465Y-23817964D01*
X20504465Y-23817964D02*
X20466369Y-23817964D01*
X20466369Y-23817964D02*
X20447322Y-23827488D01*
X20447322Y-23827488D02*
X20437798Y-23837012D01*
X20437798Y-23837012D02*
X20428274Y-23856059D01*
X20713988Y-23741774D02*
X20675893Y-23741774D01*
X20675893Y-23741774D02*
X20656845Y-23751298D01*
X20656845Y-23751298D02*
X20647322Y-23760821D01*
X20647322Y-23760821D02*
X20628274Y-23789393D01*
X20628274Y-23789393D02*
X20618750Y-23827488D01*
X20618750Y-23827488D02*
X20618750Y-23903678D01*
X20618750Y-23903678D02*
X20628274Y-23922726D01*
X20628274Y-23922726D02*
X20637798Y-23932250D01*
X20637798Y-23932250D02*
X20656845Y-23941774D01*
X20656845Y-23941774D02*
X20694941Y-23941774D01*
X20694941Y-23941774D02*
X20713988Y-23932250D01*
X20713988Y-23932250D02*
X20723512Y-23922726D01*
X20723512Y-23922726D02*
X20733036Y-23903678D01*
X20733036Y-23903678D02*
X20733036Y-23856059D01*
X20733036Y-23856059D02*
X20723512Y-23837012D01*
X20723512Y-23837012D02*
X20713988Y-23827488D01*
X20713988Y-23827488D02*
X20694941Y-23817964D01*
X20694941Y-23817964D02*
X20656845Y-23817964D01*
X20656845Y-23817964D02*
X20637798Y-23827488D01*
X20637798Y-23827488D02*
X20628274Y-23837012D01*
X20628274Y-23837012D02*
X20618750Y-23856059D01*
X20809226Y-23741774D02*
X20809226Y-23779869D01*
X20885417Y-23741774D02*
X20885417Y-23779869D01*
X21180655Y-24017964D02*
X21171131Y-24008440D01*
X21171131Y-24008440D02*
X21152084Y-23979869D01*
X21152084Y-23979869D02*
X21142560Y-23960821D01*
X21142560Y-23960821D02*
X21133036Y-23932250D01*
X21133036Y-23932250D02*
X21123512Y-23884631D01*
X21123512Y-23884631D02*
X21123512Y-23846536D01*
X21123512Y-23846536D02*
X21133036Y-23798917D01*
X21133036Y-23798917D02*
X21142560Y-23770345D01*
X21142560Y-23770345D02*
X21152084Y-23751298D01*
X21152084Y-23751298D02*
X21171131Y-23722726D01*
X21171131Y-23722726D02*
X21180655Y-23713202D01*
X21361607Y-23941774D02*
X21247322Y-23941774D01*
X21304465Y-23941774D02*
X21304465Y-23741774D01*
X21304465Y-23741774D02*
X21285417Y-23770345D01*
X21285417Y-23770345D02*
X21266369Y-23789393D01*
X21266369Y-23789393D02*
X21247322Y-23798917D01*
X21542560Y-23741774D02*
X21447322Y-23741774D01*
X21447322Y-23741774D02*
X21437798Y-23837012D01*
X21437798Y-23837012D02*
X21447322Y-23827488D01*
X21447322Y-23827488D02*
X21466369Y-23817964D01*
X21466369Y-23817964D02*
X21513988Y-23817964D01*
X21513988Y-23817964D02*
X21533036Y-23827488D01*
X21533036Y-23827488D02*
X21542560Y-23837012D01*
X21542560Y-23837012D02*
X21552084Y-23856059D01*
X21552084Y-23856059D02*
X21552084Y-23903678D01*
X21552084Y-23903678D02*
X21542560Y-23922726D01*
X21542560Y-23922726D02*
X21533036Y-23932250D01*
X21533036Y-23932250D02*
X21513988Y-23941774D01*
X21513988Y-23941774D02*
X21466369Y-23941774D01*
X21466369Y-23941774D02*
X21447322Y-23932250D01*
X21447322Y-23932250D02*
X21437798Y-23922726D01*
X21790179Y-23941774D02*
X21790179Y-23741774D01*
X21875893Y-23941774D02*
X21875893Y-23837012D01*
X21875893Y-23837012D02*
X21866369Y-23817964D01*
X21866369Y-23817964D02*
X21847322Y-23808440D01*
X21847322Y-23808440D02*
X21818750Y-23808440D01*
X21818750Y-23808440D02*
X21799703Y-23817964D01*
X21799703Y-23817964D02*
X21790179Y-23827488D01*
X21999703Y-23941774D02*
X21980655Y-23932250D01*
X21980655Y-23932250D02*
X21971131Y-23922726D01*
X21971131Y-23922726D02*
X21961608Y-23903678D01*
X21961608Y-23903678D02*
X21961608Y-23846536D01*
X21961608Y-23846536D02*
X21971131Y-23827488D01*
X21971131Y-23827488D02*
X21980655Y-23817964D01*
X21980655Y-23817964D02*
X21999703Y-23808440D01*
X21999703Y-23808440D02*
X22028274Y-23808440D01*
X22028274Y-23808440D02*
X22047322Y-23817964D01*
X22047322Y-23817964D02*
X22056846Y-23827488D01*
X22056846Y-23827488D02*
X22066369Y-23846536D01*
X22066369Y-23846536D02*
X22066369Y-23903678D01*
X22066369Y-23903678D02*
X22056846Y-23922726D01*
X22056846Y-23922726D02*
X22047322Y-23932250D01*
X22047322Y-23932250D02*
X22028274Y-23941774D01*
X22028274Y-23941774D02*
X21999703Y-23941774D01*
X22180655Y-23941774D02*
X22161608Y-23932250D01*
X22161608Y-23932250D02*
X22152084Y-23913202D01*
X22152084Y-23913202D02*
X22152084Y-23741774D01*
X22333036Y-23932250D02*
X22313989Y-23941774D01*
X22313989Y-23941774D02*
X22275893Y-23941774D01*
X22275893Y-23941774D02*
X22256846Y-23932250D01*
X22256846Y-23932250D02*
X22247322Y-23913202D01*
X22247322Y-23913202D02*
X22247322Y-23837012D01*
X22247322Y-23837012D02*
X22256846Y-23817964D01*
X22256846Y-23817964D02*
X22275893Y-23808440D01*
X22275893Y-23808440D02*
X22313989Y-23808440D01*
X22313989Y-23808440D02*
X22333036Y-23817964D01*
X22333036Y-23817964D02*
X22342560Y-23837012D01*
X22342560Y-23837012D02*
X22342560Y-23856059D01*
X22342560Y-23856059D02*
X22247322Y-23875107D01*
X22418750Y-23932250D02*
X22437798Y-23941774D01*
X22437798Y-23941774D02*
X22475893Y-23941774D01*
X22475893Y-23941774D02*
X22494941Y-23932250D01*
X22494941Y-23932250D02*
X22504465Y-23913202D01*
X22504465Y-23913202D02*
X22504465Y-23903678D01*
X22504465Y-23903678D02*
X22494941Y-23884631D01*
X22494941Y-23884631D02*
X22475893Y-23875107D01*
X22475893Y-23875107D02*
X22447322Y-23875107D01*
X22447322Y-23875107D02*
X22428274Y-23865583D01*
X22428274Y-23865583D02*
X22418750Y-23846536D01*
X22418750Y-23846536D02*
X22418750Y-23837012D01*
X22418750Y-23837012D02*
X22428274Y-23817964D01*
X22428274Y-23817964D02*
X22447322Y-23808440D01*
X22447322Y-23808440D02*
X22475893Y-23808440D01*
X22475893Y-23808440D02*
X22494941Y-23817964D01*
X22571131Y-24017964D02*
X22580655Y-24008440D01*
X22580655Y-24008440D02*
X22599703Y-23979869D01*
X22599703Y-23979869D02*
X22609227Y-23960821D01*
X22609227Y-23960821D02*
X22618750Y-23932250D01*
X22618750Y-23932250D02*
X22628274Y-23884631D01*
X22628274Y-23884631D02*
X22628274Y-23846536D01*
X22628274Y-23846536D02*
X22618750Y-23798917D01*
X22618750Y-23798917D02*
X22609227Y-23770345D01*
X22609227Y-23770345D02*
X22599703Y-23751298D01*
X22599703Y-23751298D02*
X22580655Y-23722726D01*
X22580655Y-23722726D02*
X22571131Y-23713202D01*
X22933036Y-24017964D02*
X22923512Y-24008440D01*
X22923512Y-24008440D02*
X22904465Y-23979869D01*
X22904465Y-23979869D02*
X22894941Y-23960821D01*
X22894941Y-23960821D02*
X22885417Y-23932250D01*
X22885417Y-23932250D02*
X22875893Y-23884631D01*
X22875893Y-23884631D02*
X22875893Y-23846536D01*
X22875893Y-23846536D02*
X22885417Y-23798917D01*
X22885417Y-23798917D02*
X22894941Y-23770345D01*
X22894941Y-23770345D02*
X22904465Y-23751298D01*
X22904465Y-23751298D02*
X22923512Y-23722726D01*
X22923512Y-23722726D02*
X22933036Y-23713202D01*
X23009227Y-23808440D02*
X23009227Y-23941774D01*
X23009227Y-23827488D02*
X23018750Y-23817964D01*
X23018750Y-23817964D02*
X23037798Y-23808440D01*
X23037798Y-23808440D02*
X23066369Y-23808440D01*
X23066369Y-23808440D02*
X23085417Y-23817964D01*
X23085417Y-23817964D02*
X23094941Y-23837012D01*
X23094941Y-23837012D02*
X23094941Y-23941774D01*
X23218750Y-23941774D02*
X23199703Y-23932250D01*
X23199703Y-23932250D02*
X23190179Y-23922726D01*
X23190179Y-23922726D02*
X23180655Y-23903678D01*
X23180655Y-23903678D02*
X23180655Y-23846536D01*
X23180655Y-23846536D02*
X23190179Y-23827488D01*
X23190179Y-23827488D02*
X23199703Y-23817964D01*
X23199703Y-23817964D02*
X23218750Y-23808440D01*
X23218750Y-23808440D02*
X23247322Y-23808440D01*
X23247322Y-23808440D02*
X23266369Y-23817964D01*
X23266369Y-23817964D02*
X23275893Y-23827488D01*
X23275893Y-23827488D02*
X23285417Y-23846536D01*
X23285417Y-23846536D02*
X23285417Y-23903678D01*
X23285417Y-23903678D02*
X23275893Y-23922726D01*
X23275893Y-23922726D02*
X23266369Y-23932250D01*
X23266369Y-23932250D02*
X23247322Y-23941774D01*
X23247322Y-23941774D02*
X23218750Y-23941774D01*
X23342560Y-23808440D02*
X23418750Y-23808440D01*
X23371131Y-23741774D02*
X23371131Y-23913202D01*
X23371131Y-23913202D02*
X23380655Y-23932250D01*
X23380655Y-23932250D02*
X23399703Y-23941774D01*
X23399703Y-23941774D02*
X23418750Y-23941774D01*
X23637798Y-23808440D02*
X23637798Y-24008440D01*
X23637798Y-23817964D02*
X23656846Y-23808440D01*
X23656846Y-23808440D02*
X23694941Y-23808440D01*
X23694941Y-23808440D02*
X23713989Y-23817964D01*
X23713989Y-23817964D02*
X23723512Y-23827488D01*
X23723512Y-23827488D02*
X23733036Y-23846536D01*
X23733036Y-23846536D02*
X23733036Y-23903678D01*
X23733036Y-23903678D02*
X23723512Y-23922726D01*
X23723512Y-23922726D02*
X23713989Y-23932250D01*
X23713989Y-23932250D02*
X23694941Y-23941774D01*
X23694941Y-23941774D02*
X23656846Y-23941774D01*
X23656846Y-23941774D02*
X23637798Y-23932250D01*
X23847322Y-23941774D02*
X23828274Y-23932250D01*
X23828274Y-23932250D02*
X23818750Y-23913202D01*
X23818750Y-23913202D02*
X23818750Y-23741774D01*
X24009227Y-23941774D02*
X24009227Y-23837012D01*
X24009227Y-23837012D02*
X23999703Y-23817964D01*
X23999703Y-23817964D02*
X23980655Y-23808440D01*
X23980655Y-23808440D02*
X23942560Y-23808440D01*
X23942560Y-23808440D02*
X23923512Y-23817964D01*
X24009227Y-23932250D02*
X23990179Y-23941774D01*
X23990179Y-23941774D02*
X23942560Y-23941774D01*
X23942560Y-23941774D02*
X23923512Y-23932250D01*
X23923512Y-23932250D02*
X23913989Y-23913202D01*
X23913989Y-23913202D02*
X23913989Y-23894155D01*
X23913989Y-23894155D02*
X23923512Y-23875107D01*
X23923512Y-23875107D02*
X23942560Y-23865583D01*
X23942560Y-23865583D02*
X23990179Y-23865583D01*
X23990179Y-23865583D02*
X24009227Y-23856059D01*
X24075893Y-23808440D02*
X24152084Y-23808440D01*
X24104465Y-23741774D02*
X24104465Y-23913202D01*
X24104465Y-23913202D02*
X24113989Y-23932250D01*
X24113989Y-23932250D02*
X24133036Y-23941774D01*
X24133036Y-23941774D02*
X24152084Y-23941774D01*
X24294941Y-23932250D02*
X24275893Y-23941774D01*
X24275893Y-23941774D02*
X24237798Y-23941774D01*
X24237798Y-23941774D02*
X24218750Y-23932250D01*
X24218750Y-23932250D02*
X24209227Y-23913202D01*
X24209227Y-23913202D02*
X24209227Y-23837012D01*
X24209227Y-23837012D02*
X24218750Y-23817964D01*
X24218750Y-23817964D02*
X24237798Y-23808440D01*
X24237798Y-23808440D02*
X24275893Y-23808440D01*
X24275893Y-23808440D02*
X24294941Y-23817964D01*
X24294941Y-23817964D02*
X24304465Y-23837012D01*
X24304465Y-23837012D02*
X24304465Y-23856059D01*
X24304465Y-23856059D02*
X24209227Y-23875107D01*
X24475893Y-23941774D02*
X24475893Y-23741774D01*
X24475893Y-23932250D02*
X24456846Y-23941774D01*
X24456846Y-23941774D02*
X24418750Y-23941774D01*
X24418750Y-23941774D02*
X24399703Y-23932250D01*
X24399703Y-23932250D02*
X24390179Y-23922726D01*
X24390179Y-23922726D02*
X24380655Y-23903678D01*
X24380655Y-23903678D02*
X24380655Y-23846536D01*
X24380655Y-23846536D02*
X24390179Y-23827488D01*
X24390179Y-23827488D02*
X24399703Y-23817964D01*
X24399703Y-23817964D02*
X24418750Y-23808440D01*
X24418750Y-23808440D02*
X24456846Y-23808440D01*
X24456846Y-23808440D02*
X24475893Y-23817964D01*
X24552084Y-24017964D02*
X24561608Y-24008440D01*
X24561608Y-24008440D02*
X24580655Y-23979869D01*
X24580655Y-23979869D02*
X24590179Y-23960821D01*
X24590179Y-23960821D02*
X24599703Y-23932250D01*
X24599703Y-23932250D02*
X24609227Y-23884631D01*
X24609227Y-23884631D02*
X24609227Y-23846536D01*
X24609227Y-23846536D02*
X24599703Y-23798917D01*
X24599703Y-23798917D02*
X24590179Y-23770345D01*
X24590179Y-23770345D02*
X24580655Y-23751298D01*
X24580655Y-23751298D02*
X24561608Y-23722726D01*
X24561608Y-23722726D02*
X24552084Y-23713202D01*
X17518750Y-24269250D02*
X17618750Y-24169250D01*
X17518750Y-24069250D01*
X17418750Y-24169250D01*
X17518750Y-24269250D01*
X17847321Y-24061774D02*
X17971131Y-24061774D01*
X17971131Y-24061774D02*
X17904464Y-24137964D01*
X17904464Y-24137964D02*
X17933036Y-24137964D01*
X17933036Y-24137964D02*
X17952083Y-24147488D01*
X17952083Y-24147488D02*
X17961607Y-24157012D01*
X17961607Y-24157012D02*
X17971131Y-24176059D01*
X17971131Y-24176059D02*
X17971131Y-24223678D01*
X17971131Y-24223678D02*
X17961607Y-24242726D01*
X17961607Y-24242726D02*
X17952083Y-24252250D01*
X17952083Y-24252250D02*
X17933036Y-24261774D01*
X17933036Y-24261774D02*
X17875893Y-24261774D01*
X17875893Y-24261774D02*
X17856845Y-24252250D01*
X17856845Y-24252250D02*
X17847321Y-24242726D01*
X18056845Y-24242726D02*
X18066369Y-24252250D01*
X18066369Y-24252250D02*
X18056845Y-24261774D01*
X18056845Y-24261774D02*
X18047321Y-24252250D01*
X18047321Y-24252250D02*
X18056845Y-24242726D01*
X18056845Y-24242726D02*
X18056845Y-24261774D01*
X18190179Y-24061774D02*
X18209226Y-24061774D01*
X18209226Y-24061774D02*
X18228274Y-24071298D01*
X18228274Y-24071298D02*
X18237798Y-24080821D01*
X18237798Y-24080821D02*
X18247321Y-24099869D01*
X18247321Y-24099869D02*
X18256845Y-24137964D01*
X18256845Y-24137964D02*
X18256845Y-24185583D01*
X18256845Y-24185583D02*
X18247321Y-24223678D01*
X18247321Y-24223678D02*
X18237798Y-24242726D01*
X18237798Y-24242726D02*
X18228274Y-24252250D01*
X18228274Y-24252250D02*
X18209226Y-24261774D01*
X18209226Y-24261774D02*
X18190179Y-24261774D01*
X18190179Y-24261774D02*
X18171131Y-24252250D01*
X18171131Y-24252250D02*
X18161607Y-24242726D01*
X18161607Y-24242726D02*
X18152083Y-24223678D01*
X18152083Y-24223678D02*
X18142560Y-24185583D01*
X18142560Y-24185583D02*
X18142560Y-24137964D01*
X18142560Y-24137964D02*
X18152083Y-24099869D01*
X18152083Y-24099869D02*
X18161607Y-24080821D01*
X18161607Y-24080821D02*
X18171131Y-24071298D01*
X18171131Y-24071298D02*
X18190179Y-24061774D01*
X18428274Y-24128440D02*
X18428274Y-24261774D01*
X18380655Y-24052250D02*
X18333036Y-24195107D01*
X18333036Y-24195107D02*
X18456845Y-24195107D01*
X18561607Y-24147488D02*
X18542560Y-24137964D01*
X18542560Y-24137964D02*
X18533036Y-24128440D01*
X18533036Y-24128440D02*
X18523512Y-24109393D01*
X18523512Y-24109393D02*
X18523512Y-24099869D01*
X18523512Y-24099869D02*
X18533036Y-24080821D01*
X18533036Y-24080821D02*
X18542560Y-24071298D01*
X18542560Y-24071298D02*
X18561607Y-24061774D01*
X18561607Y-24061774D02*
X18599702Y-24061774D01*
X18599702Y-24061774D02*
X18618750Y-24071298D01*
X18618750Y-24071298D02*
X18628274Y-24080821D01*
X18628274Y-24080821D02*
X18637798Y-24099869D01*
X18637798Y-24099869D02*
X18637798Y-24109393D01*
X18637798Y-24109393D02*
X18628274Y-24128440D01*
X18628274Y-24128440D02*
X18618750Y-24137964D01*
X18618750Y-24137964D02*
X18599702Y-24147488D01*
X18599702Y-24147488D02*
X18561607Y-24147488D01*
X18561607Y-24147488D02*
X18542560Y-24157012D01*
X18542560Y-24157012D02*
X18533036Y-24166536D01*
X18533036Y-24166536D02*
X18523512Y-24185583D01*
X18523512Y-24185583D02*
X18523512Y-24223678D01*
X18523512Y-24223678D02*
X18533036Y-24242726D01*
X18533036Y-24242726D02*
X18542560Y-24252250D01*
X18542560Y-24252250D02*
X18561607Y-24261774D01*
X18561607Y-24261774D02*
X18599702Y-24261774D01*
X18599702Y-24261774D02*
X18618750Y-24252250D01*
X18618750Y-24252250D02*
X18628274Y-24242726D01*
X18628274Y-24242726D02*
X18637798Y-24223678D01*
X18637798Y-24223678D02*
X18637798Y-24185583D01*
X18637798Y-24185583D02*
X18628274Y-24166536D01*
X18628274Y-24166536D02*
X18618750Y-24157012D01*
X18618750Y-24157012D02*
X18599702Y-24147488D01*
X18723512Y-24261774D02*
X18723512Y-24128440D01*
X18723512Y-24147488D02*
X18733036Y-24137964D01*
X18733036Y-24137964D02*
X18752083Y-24128440D01*
X18752083Y-24128440D02*
X18780655Y-24128440D01*
X18780655Y-24128440D02*
X18799702Y-24137964D01*
X18799702Y-24137964D02*
X18809226Y-24157012D01*
X18809226Y-24157012D02*
X18809226Y-24261774D01*
X18809226Y-24157012D02*
X18818750Y-24137964D01*
X18818750Y-24137964D02*
X18837798Y-24128440D01*
X18837798Y-24128440D02*
X18866369Y-24128440D01*
X18866369Y-24128440D02*
X18885417Y-24137964D01*
X18885417Y-24137964D02*
X18894941Y-24157012D01*
X18894941Y-24157012D02*
X18894941Y-24261774D01*
X18990179Y-24261774D02*
X18990179Y-24128440D01*
X18990179Y-24147488D02*
X18999702Y-24137964D01*
X18999702Y-24137964D02*
X19018750Y-24128440D01*
X19018750Y-24128440D02*
X19047322Y-24128440D01*
X19047322Y-24128440D02*
X19066369Y-24137964D01*
X19066369Y-24137964D02*
X19075893Y-24157012D01*
X19075893Y-24157012D02*
X19075893Y-24261774D01*
X19075893Y-24157012D02*
X19085417Y-24137964D01*
X19085417Y-24137964D02*
X19104464Y-24128440D01*
X19104464Y-24128440D02*
X19133036Y-24128440D01*
X19133036Y-24128440D02*
X19152083Y-24137964D01*
X19152083Y-24137964D02*
X19161607Y-24157012D01*
X19161607Y-24157012D02*
X19161607Y-24261774D01*
X19552083Y-24052250D02*
X19380655Y-24309393D01*
X19809226Y-24061774D02*
X19828274Y-24061774D01*
X19828274Y-24061774D02*
X19847322Y-24071298D01*
X19847322Y-24071298D02*
X19856845Y-24080821D01*
X19856845Y-24080821D02*
X19866369Y-24099869D01*
X19866369Y-24099869D02*
X19875893Y-24137964D01*
X19875893Y-24137964D02*
X19875893Y-24185583D01*
X19875893Y-24185583D02*
X19866369Y-24223678D01*
X19866369Y-24223678D02*
X19856845Y-24242726D01*
X19856845Y-24242726D02*
X19847322Y-24252250D01*
X19847322Y-24252250D02*
X19828274Y-24261774D01*
X19828274Y-24261774D02*
X19809226Y-24261774D01*
X19809226Y-24261774D02*
X19790179Y-24252250D01*
X19790179Y-24252250D02*
X19780655Y-24242726D01*
X19780655Y-24242726D02*
X19771131Y-24223678D01*
X19771131Y-24223678D02*
X19761607Y-24185583D01*
X19761607Y-24185583D02*
X19761607Y-24137964D01*
X19761607Y-24137964D02*
X19771131Y-24099869D01*
X19771131Y-24099869D02*
X19780655Y-24080821D01*
X19780655Y-24080821D02*
X19790179Y-24071298D01*
X19790179Y-24071298D02*
X19809226Y-24061774D01*
X19961607Y-24242726D02*
X19971131Y-24252250D01*
X19971131Y-24252250D02*
X19961607Y-24261774D01*
X19961607Y-24261774D02*
X19952084Y-24252250D01*
X19952084Y-24252250D02*
X19961607Y-24242726D01*
X19961607Y-24242726D02*
X19961607Y-24261774D01*
X20161607Y-24261774D02*
X20047322Y-24261774D01*
X20104464Y-24261774D02*
X20104464Y-24061774D01*
X20104464Y-24061774D02*
X20085417Y-24090345D01*
X20085417Y-24090345D02*
X20066369Y-24109393D01*
X20066369Y-24109393D02*
X20047322Y-24118917D01*
X20237798Y-24080821D02*
X20247322Y-24071298D01*
X20247322Y-24071298D02*
X20266369Y-24061774D01*
X20266369Y-24061774D02*
X20313988Y-24061774D01*
X20313988Y-24061774D02*
X20333036Y-24071298D01*
X20333036Y-24071298D02*
X20342560Y-24080821D01*
X20342560Y-24080821D02*
X20352084Y-24099869D01*
X20352084Y-24099869D02*
X20352084Y-24118917D01*
X20352084Y-24118917D02*
X20342560Y-24147488D01*
X20342560Y-24147488D02*
X20228274Y-24261774D01*
X20228274Y-24261774D02*
X20352084Y-24261774D01*
X20475893Y-24061774D02*
X20494941Y-24061774D01*
X20494941Y-24061774D02*
X20513988Y-24071298D01*
X20513988Y-24071298D02*
X20523512Y-24080821D01*
X20523512Y-24080821D02*
X20533036Y-24099869D01*
X20533036Y-24099869D02*
X20542560Y-24137964D01*
X20542560Y-24137964D02*
X20542560Y-24185583D01*
X20542560Y-24185583D02*
X20533036Y-24223678D01*
X20533036Y-24223678D02*
X20523512Y-24242726D01*
X20523512Y-24242726D02*
X20513988Y-24252250D01*
X20513988Y-24252250D02*
X20494941Y-24261774D01*
X20494941Y-24261774D02*
X20475893Y-24261774D01*
X20475893Y-24261774D02*
X20456845Y-24252250D01*
X20456845Y-24252250D02*
X20447322Y-24242726D01*
X20447322Y-24242726D02*
X20437798Y-24223678D01*
X20437798Y-24223678D02*
X20428274Y-24185583D01*
X20428274Y-24185583D02*
X20428274Y-24137964D01*
X20428274Y-24137964D02*
X20437798Y-24099869D01*
X20437798Y-24099869D02*
X20447322Y-24080821D01*
X20447322Y-24080821D02*
X20456845Y-24071298D01*
X20456845Y-24071298D02*
X20475893Y-24061774D01*
X20666369Y-24061774D02*
X20685417Y-24061774D01*
X20685417Y-24061774D02*
X20704465Y-24071298D01*
X20704465Y-24071298D02*
X20713988Y-24080821D01*
X20713988Y-24080821D02*
X20723512Y-24099869D01*
X20723512Y-24099869D02*
X20733036Y-24137964D01*
X20733036Y-24137964D02*
X20733036Y-24185583D01*
X20733036Y-24185583D02*
X20723512Y-24223678D01*
X20723512Y-24223678D02*
X20713988Y-24242726D01*
X20713988Y-24242726D02*
X20704465Y-24252250D01*
X20704465Y-24252250D02*
X20685417Y-24261774D01*
X20685417Y-24261774D02*
X20666369Y-24261774D01*
X20666369Y-24261774D02*
X20647322Y-24252250D01*
X20647322Y-24252250D02*
X20637798Y-24242726D01*
X20637798Y-24242726D02*
X20628274Y-24223678D01*
X20628274Y-24223678D02*
X20618750Y-24185583D01*
X20618750Y-24185583D02*
X20618750Y-24137964D01*
X20618750Y-24137964D02*
X20628274Y-24099869D01*
X20628274Y-24099869D02*
X20637798Y-24080821D01*
X20637798Y-24080821D02*
X20647322Y-24071298D01*
X20647322Y-24071298D02*
X20666369Y-24061774D01*
X20809226Y-24061774D02*
X20809226Y-24099869D01*
X20885417Y-24061774D02*
X20885417Y-24099869D01*
X21180655Y-24337964D02*
X21171131Y-24328440D01*
X21171131Y-24328440D02*
X21152084Y-24299869D01*
X21152084Y-24299869D02*
X21142560Y-24280821D01*
X21142560Y-24280821D02*
X21133036Y-24252250D01*
X21133036Y-24252250D02*
X21123512Y-24204631D01*
X21123512Y-24204631D02*
X21123512Y-24166536D01*
X21123512Y-24166536D02*
X21133036Y-24118917D01*
X21133036Y-24118917D02*
X21142560Y-24090345D01*
X21142560Y-24090345D02*
X21152084Y-24071298D01*
X21152084Y-24071298D02*
X21171131Y-24042726D01*
X21171131Y-24042726D02*
X21180655Y-24033202D01*
X21361607Y-24261774D02*
X21247322Y-24261774D01*
X21304465Y-24261774D02*
X21304465Y-24061774D01*
X21304465Y-24061774D02*
X21285417Y-24090345D01*
X21285417Y-24090345D02*
X21266369Y-24109393D01*
X21266369Y-24109393D02*
X21247322Y-24118917D01*
X21437798Y-24080821D02*
X21447322Y-24071298D01*
X21447322Y-24071298D02*
X21466369Y-24061774D01*
X21466369Y-24061774D02*
X21513988Y-24061774D01*
X21513988Y-24061774D02*
X21533036Y-24071298D01*
X21533036Y-24071298D02*
X21542560Y-24080821D01*
X21542560Y-24080821D02*
X21552084Y-24099869D01*
X21552084Y-24099869D02*
X21552084Y-24118917D01*
X21552084Y-24118917D02*
X21542560Y-24147488D01*
X21542560Y-24147488D02*
X21428274Y-24261774D01*
X21428274Y-24261774D02*
X21552084Y-24261774D01*
X21790179Y-24261774D02*
X21790179Y-24061774D01*
X21875893Y-24261774D02*
X21875893Y-24157012D01*
X21875893Y-24157012D02*
X21866369Y-24137964D01*
X21866369Y-24137964D02*
X21847322Y-24128440D01*
X21847322Y-24128440D02*
X21818750Y-24128440D01*
X21818750Y-24128440D02*
X21799703Y-24137964D01*
X21799703Y-24137964D02*
X21790179Y-24147488D01*
X21999703Y-24261774D02*
X21980655Y-24252250D01*
X21980655Y-24252250D02*
X21971131Y-24242726D01*
X21971131Y-24242726D02*
X21961608Y-24223678D01*
X21961608Y-24223678D02*
X21961608Y-24166536D01*
X21961608Y-24166536D02*
X21971131Y-24147488D01*
X21971131Y-24147488D02*
X21980655Y-24137964D01*
X21980655Y-24137964D02*
X21999703Y-24128440D01*
X21999703Y-24128440D02*
X22028274Y-24128440D01*
X22028274Y-24128440D02*
X22047322Y-24137964D01*
X22047322Y-24137964D02*
X22056846Y-24147488D01*
X22056846Y-24147488D02*
X22066369Y-24166536D01*
X22066369Y-24166536D02*
X22066369Y-24223678D01*
X22066369Y-24223678D02*
X22056846Y-24242726D01*
X22056846Y-24242726D02*
X22047322Y-24252250D01*
X22047322Y-24252250D02*
X22028274Y-24261774D01*
X22028274Y-24261774D02*
X21999703Y-24261774D01*
X22180655Y-24261774D02*
X22161608Y-24252250D01*
X22161608Y-24252250D02*
X22152084Y-24233202D01*
X22152084Y-24233202D02*
X22152084Y-24061774D01*
X22333036Y-24252250D02*
X22313989Y-24261774D01*
X22313989Y-24261774D02*
X22275893Y-24261774D01*
X22275893Y-24261774D02*
X22256846Y-24252250D01*
X22256846Y-24252250D02*
X22247322Y-24233202D01*
X22247322Y-24233202D02*
X22247322Y-24157012D01*
X22247322Y-24157012D02*
X22256846Y-24137964D01*
X22256846Y-24137964D02*
X22275893Y-24128440D01*
X22275893Y-24128440D02*
X22313989Y-24128440D01*
X22313989Y-24128440D02*
X22333036Y-24137964D01*
X22333036Y-24137964D02*
X22342560Y-24157012D01*
X22342560Y-24157012D02*
X22342560Y-24176059D01*
X22342560Y-24176059D02*
X22247322Y-24195107D01*
X22418750Y-24252250D02*
X22437798Y-24261774D01*
X22437798Y-24261774D02*
X22475893Y-24261774D01*
X22475893Y-24261774D02*
X22494941Y-24252250D01*
X22494941Y-24252250D02*
X22504465Y-24233202D01*
X22504465Y-24233202D02*
X22504465Y-24223678D01*
X22504465Y-24223678D02*
X22494941Y-24204631D01*
X22494941Y-24204631D02*
X22475893Y-24195107D01*
X22475893Y-24195107D02*
X22447322Y-24195107D01*
X22447322Y-24195107D02*
X22428274Y-24185583D01*
X22428274Y-24185583D02*
X22418750Y-24166536D01*
X22418750Y-24166536D02*
X22418750Y-24157012D01*
X22418750Y-24157012D02*
X22428274Y-24137964D01*
X22428274Y-24137964D02*
X22447322Y-24128440D01*
X22447322Y-24128440D02*
X22475893Y-24128440D01*
X22475893Y-24128440D02*
X22494941Y-24137964D01*
X22571131Y-24337964D02*
X22580655Y-24328440D01*
X22580655Y-24328440D02*
X22599703Y-24299869D01*
X22599703Y-24299869D02*
X22609227Y-24280821D01*
X22609227Y-24280821D02*
X22618750Y-24252250D01*
X22618750Y-24252250D02*
X22628274Y-24204631D01*
X22628274Y-24204631D02*
X22628274Y-24166536D01*
X22628274Y-24166536D02*
X22618750Y-24118917D01*
X22618750Y-24118917D02*
X22609227Y-24090345D01*
X22609227Y-24090345D02*
X22599703Y-24071298D01*
X22599703Y-24071298D02*
X22580655Y-24042726D01*
X22580655Y-24042726D02*
X22571131Y-24033202D01*
X22933036Y-24337964D02*
X22923512Y-24328440D01*
X22923512Y-24328440D02*
X22904465Y-24299869D01*
X22904465Y-24299869D02*
X22894941Y-24280821D01*
X22894941Y-24280821D02*
X22885417Y-24252250D01*
X22885417Y-24252250D02*
X22875893Y-24204631D01*
X22875893Y-24204631D02*
X22875893Y-24166536D01*
X22875893Y-24166536D02*
X22885417Y-24118917D01*
X22885417Y-24118917D02*
X22894941Y-24090345D01*
X22894941Y-24090345D02*
X22904465Y-24071298D01*
X22904465Y-24071298D02*
X22923512Y-24042726D01*
X22923512Y-24042726D02*
X22933036Y-24033202D01*
X23009227Y-24128440D02*
X23009227Y-24261774D01*
X23009227Y-24147488D02*
X23018750Y-24137964D01*
X23018750Y-24137964D02*
X23037798Y-24128440D01*
X23037798Y-24128440D02*
X23066369Y-24128440D01*
X23066369Y-24128440D02*
X23085417Y-24137964D01*
X23085417Y-24137964D02*
X23094941Y-24157012D01*
X23094941Y-24157012D02*
X23094941Y-24261774D01*
X23218750Y-24261774D02*
X23199703Y-24252250D01*
X23199703Y-24252250D02*
X23190179Y-24242726D01*
X23190179Y-24242726D02*
X23180655Y-24223678D01*
X23180655Y-24223678D02*
X23180655Y-24166536D01*
X23180655Y-24166536D02*
X23190179Y-24147488D01*
X23190179Y-24147488D02*
X23199703Y-24137964D01*
X23199703Y-24137964D02*
X23218750Y-24128440D01*
X23218750Y-24128440D02*
X23247322Y-24128440D01*
X23247322Y-24128440D02*
X23266369Y-24137964D01*
X23266369Y-24137964D02*
X23275893Y-24147488D01*
X23275893Y-24147488D02*
X23285417Y-24166536D01*
X23285417Y-24166536D02*
X23285417Y-24223678D01*
X23285417Y-24223678D02*
X23275893Y-24242726D01*
X23275893Y-24242726D02*
X23266369Y-24252250D01*
X23266369Y-24252250D02*
X23247322Y-24261774D01*
X23247322Y-24261774D02*
X23218750Y-24261774D01*
X23342560Y-24128440D02*
X23418750Y-24128440D01*
X23371131Y-24061774D02*
X23371131Y-24233202D01*
X23371131Y-24233202D02*
X23380655Y-24252250D01*
X23380655Y-24252250D02*
X23399703Y-24261774D01*
X23399703Y-24261774D02*
X23418750Y-24261774D01*
X23637798Y-24128440D02*
X23637798Y-24328440D01*
X23637798Y-24137964D02*
X23656846Y-24128440D01*
X23656846Y-24128440D02*
X23694941Y-24128440D01*
X23694941Y-24128440D02*
X23713989Y-24137964D01*
X23713989Y-24137964D02*
X23723512Y-24147488D01*
X23723512Y-24147488D02*
X23733036Y-24166536D01*
X23733036Y-24166536D02*
X23733036Y-24223678D01*
X23733036Y-24223678D02*
X23723512Y-24242726D01*
X23723512Y-24242726D02*
X23713989Y-24252250D01*
X23713989Y-24252250D02*
X23694941Y-24261774D01*
X23694941Y-24261774D02*
X23656846Y-24261774D01*
X23656846Y-24261774D02*
X23637798Y-24252250D01*
X23847322Y-24261774D02*
X23828274Y-24252250D01*
X23828274Y-24252250D02*
X23818750Y-24233202D01*
X23818750Y-24233202D02*
X23818750Y-24061774D01*
X24009227Y-24261774D02*
X24009227Y-24157012D01*
X24009227Y-24157012D02*
X23999703Y-24137964D01*
X23999703Y-24137964D02*
X23980655Y-24128440D01*
X23980655Y-24128440D02*
X23942560Y-24128440D01*
X23942560Y-24128440D02*
X23923512Y-24137964D01*
X24009227Y-24252250D02*
X23990179Y-24261774D01*
X23990179Y-24261774D02*
X23942560Y-24261774D01*
X23942560Y-24261774D02*
X23923512Y-24252250D01*
X23923512Y-24252250D02*
X23913989Y-24233202D01*
X23913989Y-24233202D02*
X23913989Y-24214155D01*
X23913989Y-24214155D02*
X23923512Y-24195107D01*
X23923512Y-24195107D02*
X23942560Y-24185583D01*
X23942560Y-24185583D02*
X23990179Y-24185583D01*
X23990179Y-24185583D02*
X24009227Y-24176059D01*
X24075893Y-24128440D02*
X24152084Y-24128440D01*
X24104465Y-24061774D02*
X24104465Y-24233202D01*
X24104465Y-24233202D02*
X24113989Y-24252250D01*
X24113989Y-24252250D02*
X24133036Y-24261774D01*
X24133036Y-24261774D02*
X24152084Y-24261774D01*
X24294941Y-24252250D02*
X24275893Y-24261774D01*
X24275893Y-24261774D02*
X24237798Y-24261774D01*
X24237798Y-24261774D02*
X24218750Y-24252250D01*
X24218750Y-24252250D02*
X24209227Y-24233202D01*
X24209227Y-24233202D02*
X24209227Y-24157012D01*
X24209227Y-24157012D02*
X24218750Y-24137964D01*
X24218750Y-24137964D02*
X24237798Y-24128440D01*
X24237798Y-24128440D02*
X24275893Y-24128440D01*
X24275893Y-24128440D02*
X24294941Y-24137964D01*
X24294941Y-24137964D02*
X24304465Y-24157012D01*
X24304465Y-24157012D02*
X24304465Y-24176059D01*
X24304465Y-24176059D02*
X24209227Y-24195107D01*
X24475893Y-24261774D02*
X24475893Y-24061774D01*
X24475893Y-24252250D02*
X24456846Y-24261774D01*
X24456846Y-24261774D02*
X24418750Y-24261774D01*
X24418750Y-24261774D02*
X24399703Y-24252250D01*
X24399703Y-24252250D02*
X24390179Y-24242726D01*
X24390179Y-24242726D02*
X24380655Y-24223678D01*
X24380655Y-24223678D02*
X24380655Y-24166536D01*
X24380655Y-24166536D02*
X24390179Y-24147488D01*
X24390179Y-24147488D02*
X24399703Y-24137964D01*
X24399703Y-24137964D02*
X24418750Y-24128440D01*
X24418750Y-24128440D02*
X24456846Y-24128440D01*
X24456846Y-24128440D02*
X24475893Y-24137964D01*
X24552084Y-24337964D02*
X24561608Y-24328440D01*
X24561608Y-24328440D02*
X24580655Y-24299869D01*
X24580655Y-24299869D02*
X24590179Y-24280821D01*
X24590179Y-24280821D02*
X24599703Y-24252250D01*
X24599703Y-24252250D02*
X24609227Y-24204631D01*
X24609227Y-24204631D02*
X24609227Y-24166536D01*
X24609227Y-24166536D02*
X24599703Y-24118917D01*
X24599703Y-24118917D02*
X24590179Y-24090345D01*
X24590179Y-24090345D02*
X24580655Y-24071298D01*
X24580655Y-24071298D02*
X24561608Y-24042726D01*
X24561608Y-24042726D02*
X24552084Y-24033202D01*
X17418750Y-24389250D02*
X17618750Y-24589250D01*
X17618750Y-24389250D02*
X17418750Y-24589250D01*
X17618750Y-24489250D02*
G75*
G03*
X17618750Y-24489250I-100000J0D01*
G01*
X17847321Y-24381774D02*
X17971131Y-24381774D01*
X17971131Y-24381774D02*
X17904464Y-24457964D01*
X17904464Y-24457964D02*
X17933036Y-24457964D01*
X17933036Y-24457964D02*
X17952083Y-24467488D01*
X17952083Y-24467488D02*
X17961607Y-24477012D01*
X17961607Y-24477012D02*
X17971131Y-24496059D01*
X17971131Y-24496059D02*
X17971131Y-24543678D01*
X17971131Y-24543678D02*
X17961607Y-24562726D01*
X17961607Y-24562726D02*
X17952083Y-24572250D01*
X17952083Y-24572250D02*
X17933036Y-24581774D01*
X17933036Y-24581774D02*
X17875893Y-24581774D01*
X17875893Y-24581774D02*
X17856845Y-24572250D01*
X17856845Y-24572250D02*
X17847321Y-24562726D01*
X18056845Y-24562726D02*
X18066369Y-24572250D01*
X18066369Y-24572250D02*
X18056845Y-24581774D01*
X18056845Y-24581774D02*
X18047321Y-24572250D01*
X18047321Y-24572250D02*
X18056845Y-24562726D01*
X18056845Y-24562726D02*
X18056845Y-24581774D01*
X18161607Y-24581774D02*
X18199702Y-24581774D01*
X18199702Y-24581774D02*
X18218750Y-24572250D01*
X18218750Y-24572250D02*
X18228274Y-24562726D01*
X18228274Y-24562726D02*
X18247321Y-24534155D01*
X18247321Y-24534155D02*
X18256845Y-24496059D01*
X18256845Y-24496059D02*
X18256845Y-24419869D01*
X18256845Y-24419869D02*
X18247321Y-24400821D01*
X18247321Y-24400821D02*
X18237798Y-24391298D01*
X18237798Y-24391298D02*
X18218750Y-24381774D01*
X18218750Y-24381774D02*
X18180655Y-24381774D01*
X18180655Y-24381774D02*
X18161607Y-24391298D01*
X18161607Y-24391298D02*
X18152083Y-24400821D01*
X18152083Y-24400821D02*
X18142560Y-24419869D01*
X18142560Y-24419869D02*
X18142560Y-24467488D01*
X18142560Y-24467488D02*
X18152083Y-24486536D01*
X18152083Y-24486536D02*
X18161607Y-24496059D01*
X18161607Y-24496059D02*
X18180655Y-24505583D01*
X18180655Y-24505583D02*
X18218750Y-24505583D01*
X18218750Y-24505583D02*
X18237798Y-24496059D01*
X18237798Y-24496059D02*
X18247321Y-24486536D01*
X18247321Y-24486536D02*
X18256845Y-24467488D01*
X18371131Y-24467488D02*
X18352083Y-24457964D01*
X18352083Y-24457964D02*
X18342560Y-24448440D01*
X18342560Y-24448440D02*
X18333036Y-24429393D01*
X18333036Y-24429393D02*
X18333036Y-24419869D01*
X18333036Y-24419869D02*
X18342560Y-24400821D01*
X18342560Y-24400821D02*
X18352083Y-24391298D01*
X18352083Y-24391298D02*
X18371131Y-24381774D01*
X18371131Y-24381774D02*
X18409226Y-24381774D01*
X18409226Y-24381774D02*
X18428274Y-24391298D01*
X18428274Y-24391298D02*
X18437798Y-24400821D01*
X18437798Y-24400821D02*
X18447321Y-24419869D01*
X18447321Y-24419869D02*
X18447321Y-24429393D01*
X18447321Y-24429393D02*
X18437798Y-24448440D01*
X18437798Y-24448440D02*
X18428274Y-24457964D01*
X18428274Y-24457964D02*
X18409226Y-24467488D01*
X18409226Y-24467488D02*
X18371131Y-24467488D01*
X18371131Y-24467488D02*
X18352083Y-24477012D01*
X18352083Y-24477012D02*
X18342560Y-24486536D01*
X18342560Y-24486536D02*
X18333036Y-24505583D01*
X18333036Y-24505583D02*
X18333036Y-24543678D01*
X18333036Y-24543678D02*
X18342560Y-24562726D01*
X18342560Y-24562726D02*
X18352083Y-24572250D01*
X18352083Y-24572250D02*
X18371131Y-24581774D01*
X18371131Y-24581774D02*
X18409226Y-24581774D01*
X18409226Y-24581774D02*
X18428274Y-24572250D01*
X18428274Y-24572250D02*
X18437798Y-24562726D01*
X18437798Y-24562726D02*
X18447321Y-24543678D01*
X18447321Y-24543678D02*
X18447321Y-24505583D01*
X18447321Y-24505583D02*
X18437798Y-24486536D01*
X18437798Y-24486536D02*
X18428274Y-24477012D01*
X18428274Y-24477012D02*
X18409226Y-24467488D01*
X18561607Y-24467488D02*
X18542560Y-24457964D01*
X18542560Y-24457964D02*
X18533036Y-24448440D01*
X18533036Y-24448440D02*
X18523512Y-24429393D01*
X18523512Y-24429393D02*
X18523512Y-24419869D01*
X18523512Y-24419869D02*
X18533036Y-24400821D01*
X18533036Y-24400821D02*
X18542560Y-24391298D01*
X18542560Y-24391298D02*
X18561607Y-24381774D01*
X18561607Y-24381774D02*
X18599702Y-24381774D01*
X18599702Y-24381774D02*
X18618750Y-24391298D01*
X18618750Y-24391298D02*
X18628274Y-24400821D01*
X18628274Y-24400821D02*
X18637798Y-24419869D01*
X18637798Y-24419869D02*
X18637798Y-24429393D01*
X18637798Y-24429393D02*
X18628274Y-24448440D01*
X18628274Y-24448440D02*
X18618750Y-24457964D01*
X18618750Y-24457964D02*
X18599702Y-24467488D01*
X18599702Y-24467488D02*
X18561607Y-24467488D01*
X18561607Y-24467488D02*
X18542560Y-24477012D01*
X18542560Y-24477012D02*
X18533036Y-24486536D01*
X18533036Y-24486536D02*
X18523512Y-24505583D01*
X18523512Y-24505583D02*
X18523512Y-24543678D01*
X18523512Y-24543678D02*
X18533036Y-24562726D01*
X18533036Y-24562726D02*
X18542560Y-24572250D01*
X18542560Y-24572250D02*
X18561607Y-24581774D01*
X18561607Y-24581774D02*
X18599702Y-24581774D01*
X18599702Y-24581774D02*
X18618750Y-24572250D01*
X18618750Y-24572250D02*
X18628274Y-24562726D01*
X18628274Y-24562726D02*
X18637798Y-24543678D01*
X18637798Y-24543678D02*
X18637798Y-24505583D01*
X18637798Y-24505583D02*
X18628274Y-24486536D01*
X18628274Y-24486536D02*
X18618750Y-24477012D01*
X18618750Y-24477012D02*
X18599702Y-24467488D01*
X18723512Y-24581774D02*
X18723512Y-24448440D01*
X18723512Y-24467488D02*
X18733036Y-24457964D01*
X18733036Y-24457964D02*
X18752083Y-24448440D01*
X18752083Y-24448440D02*
X18780655Y-24448440D01*
X18780655Y-24448440D02*
X18799702Y-24457964D01*
X18799702Y-24457964D02*
X18809226Y-24477012D01*
X18809226Y-24477012D02*
X18809226Y-24581774D01*
X18809226Y-24477012D02*
X18818750Y-24457964D01*
X18818750Y-24457964D02*
X18837798Y-24448440D01*
X18837798Y-24448440D02*
X18866369Y-24448440D01*
X18866369Y-24448440D02*
X18885417Y-24457964D01*
X18885417Y-24457964D02*
X18894941Y-24477012D01*
X18894941Y-24477012D02*
X18894941Y-24581774D01*
X18990179Y-24581774D02*
X18990179Y-24448440D01*
X18990179Y-24467488D02*
X18999702Y-24457964D01*
X18999702Y-24457964D02*
X19018750Y-24448440D01*
X19018750Y-24448440D02*
X19047322Y-24448440D01*
X19047322Y-24448440D02*
X19066369Y-24457964D01*
X19066369Y-24457964D02*
X19075893Y-24477012D01*
X19075893Y-24477012D02*
X19075893Y-24581774D01*
X19075893Y-24477012D02*
X19085417Y-24457964D01*
X19085417Y-24457964D02*
X19104464Y-24448440D01*
X19104464Y-24448440D02*
X19133036Y-24448440D01*
X19133036Y-24448440D02*
X19152083Y-24457964D01*
X19152083Y-24457964D02*
X19161607Y-24477012D01*
X19161607Y-24477012D02*
X19161607Y-24581774D01*
X19552083Y-24372250D02*
X19380655Y-24629393D01*
X19809226Y-24381774D02*
X19828274Y-24381774D01*
X19828274Y-24381774D02*
X19847322Y-24391298D01*
X19847322Y-24391298D02*
X19856845Y-24400821D01*
X19856845Y-24400821D02*
X19866369Y-24419869D01*
X19866369Y-24419869D02*
X19875893Y-24457964D01*
X19875893Y-24457964D02*
X19875893Y-24505583D01*
X19875893Y-24505583D02*
X19866369Y-24543678D01*
X19866369Y-24543678D02*
X19856845Y-24562726D01*
X19856845Y-24562726D02*
X19847322Y-24572250D01*
X19847322Y-24572250D02*
X19828274Y-24581774D01*
X19828274Y-24581774D02*
X19809226Y-24581774D01*
X19809226Y-24581774D02*
X19790179Y-24572250D01*
X19790179Y-24572250D02*
X19780655Y-24562726D01*
X19780655Y-24562726D02*
X19771131Y-24543678D01*
X19771131Y-24543678D02*
X19761607Y-24505583D01*
X19761607Y-24505583D02*
X19761607Y-24457964D01*
X19761607Y-24457964D02*
X19771131Y-24419869D01*
X19771131Y-24419869D02*
X19780655Y-24400821D01*
X19780655Y-24400821D02*
X19790179Y-24391298D01*
X19790179Y-24391298D02*
X19809226Y-24381774D01*
X19961607Y-24562726D02*
X19971131Y-24572250D01*
X19971131Y-24572250D02*
X19961607Y-24581774D01*
X19961607Y-24581774D02*
X19952084Y-24572250D01*
X19952084Y-24572250D02*
X19961607Y-24562726D01*
X19961607Y-24562726D02*
X19961607Y-24581774D01*
X20161607Y-24581774D02*
X20047322Y-24581774D01*
X20104464Y-24581774D02*
X20104464Y-24381774D01*
X20104464Y-24381774D02*
X20085417Y-24410345D01*
X20085417Y-24410345D02*
X20066369Y-24429393D01*
X20066369Y-24429393D02*
X20047322Y-24438917D01*
X20342560Y-24381774D02*
X20247322Y-24381774D01*
X20247322Y-24381774D02*
X20237798Y-24477012D01*
X20237798Y-24477012D02*
X20247322Y-24467488D01*
X20247322Y-24467488D02*
X20266369Y-24457964D01*
X20266369Y-24457964D02*
X20313988Y-24457964D01*
X20313988Y-24457964D02*
X20333036Y-24467488D01*
X20333036Y-24467488D02*
X20342560Y-24477012D01*
X20342560Y-24477012D02*
X20352084Y-24496059D01*
X20352084Y-24496059D02*
X20352084Y-24543678D01*
X20352084Y-24543678D02*
X20342560Y-24562726D01*
X20342560Y-24562726D02*
X20333036Y-24572250D01*
X20333036Y-24572250D02*
X20313988Y-24581774D01*
X20313988Y-24581774D02*
X20266369Y-24581774D01*
X20266369Y-24581774D02*
X20247322Y-24572250D01*
X20247322Y-24572250D02*
X20237798Y-24562726D01*
X20418750Y-24381774D02*
X20552084Y-24381774D01*
X20552084Y-24381774D02*
X20466369Y-24581774D01*
X20666369Y-24381774D02*
X20685417Y-24381774D01*
X20685417Y-24381774D02*
X20704465Y-24391298D01*
X20704465Y-24391298D02*
X20713988Y-24400821D01*
X20713988Y-24400821D02*
X20723512Y-24419869D01*
X20723512Y-24419869D02*
X20733036Y-24457964D01*
X20733036Y-24457964D02*
X20733036Y-24505583D01*
X20733036Y-24505583D02*
X20723512Y-24543678D01*
X20723512Y-24543678D02*
X20713988Y-24562726D01*
X20713988Y-24562726D02*
X20704465Y-24572250D01*
X20704465Y-24572250D02*
X20685417Y-24581774D01*
X20685417Y-24581774D02*
X20666369Y-24581774D01*
X20666369Y-24581774D02*
X20647322Y-24572250D01*
X20647322Y-24572250D02*
X20637798Y-24562726D01*
X20637798Y-24562726D02*
X20628274Y-24543678D01*
X20628274Y-24543678D02*
X20618750Y-24505583D01*
X20618750Y-24505583D02*
X20618750Y-24457964D01*
X20618750Y-24457964D02*
X20628274Y-24419869D01*
X20628274Y-24419869D02*
X20637798Y-24400821D01*
X20637798Y-24400821D02*
X20647322Y-24391298D01*
X20647322Y-24391298D02*
X20666369Y-24381774D01*
X20809226Y-24381774D02*
X20809226Y-24419869D01*
X20885417Y-24381774D02*
X20885417Y-24419869D01*
X21180655Y-24657964D02*
X21171131Y-24648440D01*
X21171131Y-24648440D02*
X21152084Y-24619869D01*
X21152084Y-24619869D02*
X21142560Y-24600821D01*
X21142560Y-24600821D02*
X21133036Y-24572250D01*
X21133036Y-24572250D02*
X21123512Y-24524631D01*
X21123512Y-24524631D02*
X21123512Y-24486536D01*
X21123512Y-24486536D02*
X21133036Y-24438917D01*
X21133036Y-24438917D02*
X21142560Y-24410345D01*
X21142560Y-24410345D02*
X21152084Y-24391298D01*
X21152084Y-24391298D02*
X21171131Y-24362726D01*
X21171131Y-24362726D02*
X21180655Y-24353202D01*
X21361607Y-24581774D02*
X21247322Y-24581774D01*
X21304465Y-24581774D02*
X21304465Y-24381774D01*
X21304465Y-24381774D02*
X21285417Y-24410345D01*
X21285417Y-24410345D02*
X21266369Y-24429393D01*
X21266369Y-24429393D02*
X21247322Y-24438917D01*
X21428274Y-24381774D02*
X21552084Y-24381774D01*
X21552084Y-24381774D02*
X21485417Y-24457964D01*
X21485417Y-24457964D02*
X21513988Y-24457964D01*
X21513988Y-24457964D02*
X21533036Y-24467488D01*
X21533036Y-24467488D02*
X21542560Y-24477012D01*
X21542560Y-24477012D02*
X21552084Y-24496059D01*
X21552084Y-24496059D02*
X21552084Y-24543678D01*
X21552084Y-24543678D02*
X21542560Y-24562726D01*
X21542560Y-24562726D02*
X21533036Y-24572250D01*
X21533036Y-24572250D02*
X21513988Y-24581774D01*
X21513988Y-24581774D02*
X21456846Y-24581774D01*
X21456846Y-24581774D02*
X21437798Y-24572250D01*
X21437798Y-24572250D02*
X21428274Y-24562726D01*
X21742560Y-24581774D02*
X21628274Y-24581774D01*
X21685417Y-24581774D02*
X21685417Y-24381774D01*
X21685417Y-24381774D02*
X21666369Y-24410345D01*
X21666369Y-24410345D02*
X21647322Y-24429393D01*
X21647322Y-24429393D02*
X21628274Y-24438917D01*
X21980655Y-24581774D02*
X21980655Y-24381774D01*
X22066369Y-24581774D02*
X22066369Y-24477012D01*
X22066369Y-24477012D02*
X22056846Y-24457964D01*
X22056846Y-24457964D02*
X22037798Y-24448440D01*
X22037798Y-24448440D02*
X22009227Y-24448440D01*
X22009227Y-24448440D02*
X21990179Y-24457964D01*
X21990179Y-24457964D02*
X21980655Y-24467488D01*
X22190179Y-24581774D02*
X22171131Y-24572250D01*
X22171131Y-24572250D02*
X22161608Y-24562726D01*
X22161608Y-24562726D02*
X22152084Y-24543678D01*
X22152084Y-24543678D02*
X22152084Y-24486536D01*
X22152084Y-24486536D02*
X22161608Y-24467488D01*
X22161608Y-24467488D02*
X22171131Y-24457964D01*
X22171131Y-24457964D02*
X22190179Y-24448440D01*
X22190179Y-24448440D02*
X22218750Y-24448440D01*
X22218750Y-24448440D02*
X22237798Y-24457964D01*
X22237798Y-24457964D02*
X22247322Y-24467488D01*
X22247322Y-24467488D02*
X22256846Y-24486536D01*
X22256846Y-24486536D02*
X22256846Y-24543678D01*
X22256846Y-24543678D02*
X22247322Y-24562726D01*
X22247322Y-24562726D02*
X22237798Y-24572250D01*
X22237798Y-24572250D02*
X22218750Y-24581774D01*
X22218750Y-24581774D02*
X22190179Y-24581774D01*
X22371131Y-24581774D02*
X22352084Y-24572250D01*
X22352084Y-24572250D02*
X22342560Y-24553202D01*
X22342560Y-24553202D02*
X22342560Y-24381774D01*
X22523512Y-24572250D02*
X22504465Y-24581774D01*
X22504465Y-24581774D02*
X22466369Y-24581774D01*
X22466369Y-24581774D02*
X22447322Y-24572250D01*
X22447322Y-24572250D02*
X22437798Y-24553202D01*
X22437798Y-24553202D02*
X22437798Y-24477012D01*
X22437798Y-24477012D02*
X22447322Y-24457964D01*
X22447322Y-24457964D02*
X22466369Y-24448440D01*
X22466369Y-24448440D02*
X22504465Y-24448440D01*
X22504465Y-24448440D02*
X22523512Y-24457964D01*
X22523512Y-24457964D02*
X22533036Y-24477012D01*
X22533036Y-24477012D02*
X22533036Y-24496059D01*
X22533036Y-24496059D02*
X22437798Y-24515107D01*
X22609227Y-24572250D02*
X22628274Y-24581774D01*
X22628274Y-24581774D02*
X22666369Y-24581774D01*
X22666369Y-24581774D02*
X22685417Y-24572250D01*
X22685417Y-24572250D02*
X22694941Y-24553202D01*
X22694941Y-24553202D02*
X22694941Y-24543678D01*
X22694941Y-24543678D02*
X22685417Y-24524631D01*
X22685417Y-24524631D02*
X22666369Y-24515107D01*
X22666369Y-24515107D02*
X22637798Y-24515107D01*
X22637798Y-24515107D02*
X22618750Y-24505583D01*
X22618750Y-24505583D02*
X22609227Y-24486536D01*
X22609227Y-24486536D02*
X22609227Y-24477012D01*
X22609227Y-24477012D02*
X22618750Y-24457964D01*
X22618750Y-24457964D02*
X22637798Y-24448440D01*
X22637798Y-24448440D02*
X22666369Y-24448440D01*
X22666369Y-24448440D02*
X22685417Y-24457964D01*
X22761608Y-24657964D02*
X22771131Y-24648440D01*
X22771131Y-24648440D02*
X22790179Y-24619869D01*
X22790179Y-24619869D02*
X22799703Y-24600821D01*
X22799703Y-24600821D02*
X22809227Y-24572250D01*
X22809227Y-24572250D02*
X22818750Y-24524631D01*
X22818750Y-24524631D02*
X22818750Y-24486536D01*
X22818750Y-24486536D02*
X22809227Y-24438917D01*
X22809227Y-24438917D02*
X22799703Y-24410345D01*
X22799703Y-24410345D02*
X22790179Y-24391298D01*
X22790179Y-24391298D02*
X22771131Y-24362726D01*
X22771131Y-24362726D02*
X22761608Y-24353202D01*
X23123512Y-24657964D02*
X23113988Y-24648440D01*
X23113988Y-24648440D02*
X23094941Y-24619869D01*
X23094941Y-24619869D02*
X23085417Y-24600821D01*
X23085417Y-24600821D02*
X23075893Y-24572250D01*
X23075893Y-24572250D02*
X23066369Y-24524631D01*
X23066369Y-24524631D02*
X23066369Y-24486536D01*
X23066369Y-24486536D02*
X23075893Y-24438917D01*
X23075893Y-24438917D02*
X23085417Y-24410345D01*
X23085417Y-24410345D02*
X23094941Y-24391298D01*
X23094941Y-24391298D02*
X23113988Y-24362726D01*
X23113988Y-24362726D02*
X23123512Y-24353202D01*
X23199703Y-24448440D02*
X23199703Y-24581774D01*
X23199703Y-24467488D02*
X23209227Y-24457964D01*
X23209227Y-24457964D02*
X23228274Y-24448440D01*
X23228274Y-24448440D02*
X23256846Y-24448440D01*
X23256846Y-24448440D02*
X23275893Y-24457964D01*
X23275893Y-24457964D02*
X23285417Y-24477012D01*
X23285417Y-24477012D02*
X23285417Y-24581774D01*
X23409227Y-24581774D02*
X23390179Y-24572250D01*
X23390179Y-24572250D02*
X23380655Y-24562726D01*
X23380655Y-24562726D02*
X23371131Y-24543678D01*
X23371131Y-24543678D02*
X23371131Y-24486536D01*
X23371131Y-24486536D02*
X23380655Y-24467488D01*
X23380655Y-24467488D02*
X23390179Y-24457964D01*
X23390179Y-24457964D02*
X23409227Y-24448440D01*
X23409227Y-24448440D02*
X23437798Y-24448440D01*
X23437798Y-24448440D02*
X23456846Y-24457964D01*
X23456846Y-24457964D02*
X23466369Y-24467488D01*
X23466369Y-24467488D02*
X23475893Y-24486536D01*
X23475893Y-24486536D02*
X23475893Y-24543678D01*
X23475893Y-24543678D02*
X23466369Y-24562726D01*
X23466369Y-24562726D02*
X23456846Y-24572250D01*
X23456846Y-24572250D02*
X23437798Y-24581774D01*
X23437798Y-24581774D02*
X23409227Y-24581774D01*
X23533036Y-24448440D02*
X23609227Y-24448440D01*
X23561608Y-24381774D02*
X23561608Y-24553202D01*
X23561608Y-24553202D02*
X23571131Y-24572250D01*
X23571131Y-24572250D02*
X23590179Y-24581774D01*
X23590179Y-24581774D02*
X23609227Y-24581774D01*
X23828274Y-24448440D02*
X23828274Y-24648440D01*
X23828274Y-24457964D02*
X23847322Y-24448440D01*
X23847322Y-24448440D02*
X23885417Y-24448440D01*
X23885417Y-24448440D02*
X23904465Y-24457964D01*
X23904465Y-24457964D02*
X23913989Y-24467488D01*
X23913989Y-24467488D02*
X23923512Y-24486536D01*
X23923512Y-24486536D02*
X23923512Y-24543678D01*
X23923512Y-24543678D02*
X23913989Y-24562726D01*
X23913989Y-24562726D02*
X23904465Y-24572250D01*
X23904465Y-24572250D02*
X23885417Y-24581774D01*
X23885417Y-24581774D02*
X23847322Y-24581774D01*
X23847322Y-24581774D02*
X23828274Y-24572250D01*
X24037798Y-24581774D02*
X24018750Y-24572250D01*
X24018750Y-24572250D02*
X24009227Y-24553202D01*
X24009227Y-24553202D02*
X24009227Y-24381774D01*
X24199703Y-24581774D02*
X24199703Y-24477012D01*
X24199703Y-24477012D02*
X24190179Y-24457964D01*
X24190179Y-24457964D02*
X24171131Y-24448440D01*
X24171131Y-24448440D02*
X24133036Y-24448440D01*
X24133036Y-24448440D02*
X24113989Y-24457964D01*
X24199703Y-24572250D02*
X24180655Y-24581774D01*
X24180655Y-24581774D02*
X24133036Y-24581774D01*
X24133036Y-24581774D02*
X24113989Y-24572250D01*
X24113989Y-24572250D02*
X24104465Y-24553202D01*
X24104465Y-24553202D02*
X24104465Y-24534155D01*
X24104465Y-24534155D02*
X24113989Y-24515107D01*
X24113989Y-24515107D02*
X24133036Y-24505583D01*
X24133036Y-24505583D02*
X24180655Y-24505583D01*
X24180655Y-24505583D02*
X24199703Y-24496059D01*
X24266370Y-24448440D02*
X24342560Y-24448440D01*
X24294941Y-24381774D02*
X24294941Y-24553202D01*
X24294941Y-24553202D02*
X24304465Y-24572250D01*
X24304465Y-24572250D02*
X24323512Y-24581774D01*
X24323512Y-24581774D02*
X24342560Y-24581774D01*
X24485417Y-24572250D02*
X24466370Y-24581774D01*
X24466370Y-24581774D02*
X24428274Y-24581774D01*
X24428274Y-24581774D02*
X24409227Y-24572250D01*
X24409227Y-24572250D02*
X24399703Y-24553202D01*
X24399703Y-24553202D02*
X24399703Y-24477012D01*
X24399703Y-24477012D02*
X24409227Y-24457964D01*
X24409227Y-24457964D02*
X24428274Y-24448440D01*
X24428274Y-24448440D02*
X24466370Y-24448440D01*
X24466370Y-24448440D02*
X24485417Y-24457964D01*
X24485417Y-24457964D02*
X24494941Y-24477012D01*
X24494941Y-24477012D02*
X24494941Y-24496059D01*
X24494941Y-24496059D02*
X24399703Y-24515107D01*
X24666370Y-24581774D02*
X24666370Y-24381774D01*
X24666370Y-24572250D02*
X24647322Y-24581774D01*
X24647322Y-24581774D02*
X24609227Y-24581774D01*
X24609227Y-24581774D02*
X24590179Y-24572250D01*
X24590179Y-24572250D02*
X24580655Y-24562726D01*
X24580655Y-24562726D02*
X24571131Y-24543678D01*
X24571131Y-24543678D02*
X24571131Y-24486536D01*
X24571131Y-24486536D02*
X24580655Y-24467488D01*
X24580655Y-24467488D02*
X24590179Y-24457964D01*
X24590179Y-24457964D02*
X24609227Y-24448440D01*
X24609227Y-24448440D02*
X24647322Y-24448440D01*
X24647322Y-24448440D02*
X24666370Y-24457964D01*
X24742560Y-24657964D02*
X24752084Y-24648440D01*
X24752084Y-24648440D02*
X24771131Y-24619869D01*
X24771131Y-24619869D02*
X24780655Y-24600821D01*
X24780655Y-24600821D02*
X24790179Y-24572250D01*
X24790179Y-24572250D02*
X24799703Y-24524631D01*
X24799703Y-24524631D02*
X24799703Y-24486536D01*
X24799703Y-24486536D02*
X24790179Y-24438917D01*
X24790179Y-24438917D02*
X24780655Y-24410345D01*
X24780655Y-24410345D02*
X24771131Y-24391298D01*
X24771131Y-24391298D02*
X24752084Y-24362726D01*
X24752084Y-24362726D02*
X24742560Y-24353202D01*
M02*
