M48
; DRILL file {KiCad 7.0.2} date Wed May 17 23:03:50 2023
; FORMAT={-:-/ absolute / metric / decimal}
; #@! TF.CreationDate,2023-05-17T23:03:50-05:00
; #@! TF.GenerationSoftware,Kicad,Pcbnew,7.0.2
; #@! TF.FileFunction,NonPlated,1,2,NPTH
FMAT,2
METRIC
; #@! TA.AperFunction,NonPlated,NPTH,ComponentDrill
T1C0.800
; #@! TA.AperFunction,NonPlated,NPTH,ComponentDrill
T2C1.152
; #@! TA.AperFunction,NonPlated,NPTH,ComponentDrill
T3C1.750
; #@! TA.AperFunction,NonPlated,NPTH,ComponentDrill
T4C2.200
; #@! TA.AperFunction,NonPlated,NPTH,ComponentDrill
T5C3.048
; #@! TA.AperFunction,NonPlated,NPTH,ComponentDrill
T6C3.988
%
G90
G05
T1
X458.851Y-149.86
T2
X180.956Y-214.312
X365.43Y-111.1
X591.083Y-214.376
T3
X183.032Y-114.3
X183.039Y-135.731
X185.42Y-211.931
X187.801Y-154.781
X190.183Y-173.831
X193.192Y-114.3
X193.199Y-135.731
X194.945Y-192.881
X195.58Y-211.931
X197.961Y-154.781
X200.343Y-173.831
X202.089Y-114.3
X202.089Y-135.731
X205.105Y-192.881
X209.232Y-211.931
X211.614Y-154.781
X212.249Y-114.3
X212.249Y-135.731
X216.376Y-173.831
X219.392Y-211.931
X221.139Y-114.3
X221.139Y-135.731
X221.774Y-154.781
X225.901Y-192.881
X226.536Y-173.831
X230.664Y-154.781
X231.299Y-114.3
X231.299Y-135.731
X233.045Y-211.931
X235.426Y-173.831
X236.061Y-192.881
X240.189Y-114.3
X240.189Y-135.731
X240.824Y-154.781
X243.205Y-211.931
X244.951Y-192.881
X245.586Y-173.831
X249.714Y-154.781
X250.349Y-114.3
X250.349Y-135.731
X254.476Y-173.831
X254.476Y-211.931
X255.111Y-192.881
X259.239Y-114.3
X259.239Y-135.731
X259.874Y-154.781
X264.001Y-192.881
X264.636Y-173.831
X264.636Y-211.931
X268.764Y-154.781
X269.399Y-114.3
X269.399Y-135.731
X273.526Y-173.831
X274.161Y-192.881
X278.289Y-114.3
X278.289Y-135.731
X278.924Y-154.781
X283.051Y-192.881
X283.686Y-173.831
X285.433Y-211.931
X287.814Y-154.781
X288.449Y-114.3
X288.449Y-135.731
X292.576Y-173.831
X293.211Y-192.881
X295.592Y-211.931
X297.339Y-114.3
X297.339Y-135.731
X297.974Y-154.781
X302.101Y-192.881
X302.736Y-173.831
X304.482Y-211.931
X306.864Y-154.781
X307.499Y-114.3
X307.499Y-135.731
X311.626Y-173.831
X312.261Y-192.881
X314.642Y-211.931
X316.389Y-114.3
X316.389Y-135.731
X317.024Y-154.781
X321.151Y-192.881
X321.786Y-173.831
X325.914Y-154.781
X325.914Y-211.931
X326.549Y-114.3
X326.549Y-135.731
X330.676Y-173.831
X331.311Y-192.881
X335.439Y-114.3
X335.439Y-135.731
X336.074Y-154.781
X336.074Y-211.931
X340.201Y-192.881
X340.836Y-173.831
X344.964Y-154.781
X345.599Y-114.3
X345.599Y-135.731
X349.726Y-173.831
X350.361Y-192.881
X354.489Y-114.3
X354.489Y-135.731
X354.489Y-211.931
X355.124Y-154.781
X359.251Y-192.881
X359.886Y-173.831
X364.014Y-154.781
X364.649Y-114.3
X364.649Y-135.731
X364.649Y-211.931
X368.776Y-173.831
X369.411Y-192.881
X373.539Y-114.3
X373.539Y-135.731
X374.174Y-154.781
X375.92Y-211.931
X378.301Y-192.881
X378.936Y-173.831
X383.064Y-154.781
X383.699Y-114.3
X383.699Y-135.731
X386.08Y-211.931
X387.826Y-173.831
X388.461Y-192.881
X392.589Y-114.3
X392.589Y-135.731
X393.224Y-154.781
X397.351Y-192.881
X397.986Y-173.831
X399.732Y-211.931
X402.114Y-154.781
X402.749Y-114.3
X402.749Y-135.731
X406.876Y-173.831
X407.511Y-192.881
X409.892Y-211.931
X411.639Y-114.3
X411.639Y-135.731
X412.274Y-154.781
X417.036Y-173.831
X421.164Y-154.781
X421.799Y-114.3
X421.799Y-135.731
X423.545Y-211.931
X430.689Y-114.3
X431.324Y-154.781
X433.07Y-192.881
X433.705Y-211.931
X437.832Y-173.831
X440.214Y-135.731
X440.849Y-114.3
X443.23Y-192.881
X444.976Y-154.781
X447.357Y-211.931
X447.993Y-173.831
X449.739Y-114.3
X450.374Y-135.731
X455.136Y-154.781
X457.517Y-211.931
X459.899Y-114.3
X471.17Y-114.3
X471.17Y-135.731
X471.17Y-154.781
X471.17Y-173.831
X471.17Y-192.881
X471.17Y-211.931
X481.33Y-114.3
X481.33Y-135.731
X481.33Y-154.781
X481.33Y-173.831
X481.33Y-192.881
X481.33Y-211.931
X490.22Y-114.3
X490.22Y-135.731
X490.22Y-154.781
X490.22Y-173.831
X490.22Y-192.881
X490.22Y-211.931
X500.38Y-114.3
X500.38Y-135.731
X500.38Y-154.781
X500.38Y-173.831
X500.38Y-192.881
X500.38Y-211.931
X509.27Y-114.3
X509.27Y-135.731
X509.27Y-154.781
X509.27Y-173.831
X509.27Y-192.881
X509.27Y-211.931
X519.43Y-114.3
X519.43Y-135.731
X519.43Y-154.781
X519.43Y-173.831
X519.43Y-192.881
X519.43Y-211.931
X530.701Y-114.3
X530.701Y-135.731
X530.701Y-154.781
X530.701Y-173.831
X530.701Y-192.881
X540.226Y-211.931
X540.861Y-114.3
X540.861Y-135.731
X540.861Y-154.781
X540.861Y-173.831
X540.861Y-192.881
X549.751Y-114.3
X549.751Y-135.731
X549.751Y-154.781
X549.751Y-173.831
X549.751Y-192.881
X550.386Y-211.931
X559.911Y-114.3
X559.911Y-135.731
X559.911Y-154.781
X559.911Y-173.831
X559.911Y-192.881
X568.801Y-114.3
X568.801Y-135.731
X568.801Y-154.781
X568.801Y-173.831
X568.801Y-192.881
X568.801Y-211.931
X578.961Y-114.3
X578.961Y-135.731
X578.961Y-154.781
X578.961Y-173.831
X578.961Y-192.881
X578.961Y-211.931
X587.851Y-114.3
X587.851Y-135.731
X587.851Y-164.306
X587.851Y-202.406
X598.011Y-114.3
X598.011Y-135.731
X598.011Y-164.306
X598.011Y-202.406
T4
X180.956Y-192.881
X197.625Y-135.731
X248.869Y-211.931
X269.062Y-173.831
X273.825Y-116.681
X320.218Y-211.931
X350.025Y-135.731
X383.362Y-173.831
X416.7Y-211.931
X426.225Y-116.681
X485.775Y-154.781
X504.806Y-211.931
X545.287Y-154.781
X583.362Y-207.467
X583.413Y-135.731
T5
X188.119Y-199.866
X211.931Y-199.866
X431.006Y-180.816
X433.4Y-142.716
X454.819Y-180.816
X457.213Y-142.716
X533.4Y-218.916
X557.212Y-218.916
X599.916Y-152.4
X599.916Y-176.213
X599.916Y-190.5
X599.916Y-214.312
T6
X188.112Y-114.3
X188.119Y-135.731
X188.119Y-184.626
X190.5Y-211.931
X192.881Y-154.781
X195.262Y-173.831
X200.025Y-192.881
X207.169Y-114.3
X207.169Y-135.731
X211.931Y-184.626
X214.312Y-211.931
X216.694Y-154.781
X221.456Y-173.831
X226.219Y-114.3
X226.219Y-135.731
X230.981Y-192.881
X235.744Y-154.781
X238.125Y-211.931
X240.506Y-173.831
X245.269Y-114.3
X245.269Y-135.731
X250.031Y-192.881
X254.794Y-154.781
X259.556Y-173.831
X259.556Y-211.931
X264.319Y-114.3
X264.319Y-135.731
X269.081Y-192.881
X273.844Y-154.781
X278.606Y-173.831
X283.369Y-114.3
X283.369Y-135.731
X288.131Y-192.881
X290.512Y-211.931
X292.894Y-154.781
X297.656Y-173.831
X302.419Y-114.3
X302.419Y-135.731
X307.181Y-192.881
X309.562Y-211.931
X311.944Y-154.781
X316.706Y-173.831
X321.469Y-114.3
X321.469Y-135.731
X326.231Y-192.881
X330.994Y-154.781
X330.994Y-211.931
X335.756Y-173.831
X340.519Y-114.3
X340.519Y-135.731
X345.281Y-192.881
X350.044Y-154.781
X354.806Y-173.831
X359.569Y-114.3
X359.569Y-135.731
X359.569Y-211.931
X364.331Y-192.881
X369.094Y-154.781
X373.856Y-173.831
X378.619Y-114.3
X378.619Y-135.731
X381.0Y-211.931
X383.381Y-192.881
X388.144Y-154.781
X392.906Y-173.831
X397.669Y-114.3
X397.669Y-135.731
X402.431Y-192.881
X404.812Y-211.931
X407.194Y-154.781
X411.956Y-173.831
X416.719Y-114.3
X416.719Y-135.731
X426.244Y-154.781
X428.625Y-211.931
X431.006Y-165.576
X433.4Y-127.476
X435.769Y-114.3
X438.15Y-192.881
X442.912Y-173.831
X445.294Y-135.731
X450.056Y-154.781
X452.438Y-211.931
X454.819Y-114.3
X454.819Y-165.576
X457.213Y-127.476
X476.25Y-114.3
X476.25Y-135.731
X476.25Y-154.781
X476.25Y-173.831
X476.25Y-192.881
X476.25Y-211.931
X495.3Y-114.3
X495.3Y-135.731
X495.3Y-154.781
X495.3Y-173.831
X495.3Y-192.881
X495.3Y-211.931
X514.35Y-114.3
X514.35Y-135.731
X514.35Y-154.781
X514.35Y-173.831
X514.35Y-192.881
X514.35Y-211.931
X533.4Y-203.676
X535.781Y-114.3
X535.781Y-135.731
X535.781Y-154.781
X535.781Y-173.831
X535.781Y-192.881
X545.306Y-211.931
X554.831Y-114.3
X554.831Y-135.731
X554.831Y-154.781
X554.831Y-173.831
X554.831Y-192.881
X557.212Y-203.676
X573.881Y-114.3
X573.881Y-135.731
X573.881Y-154.781
X573.881Y-173.831
X573.881Y-192.881
X573.881Y-211.931
X584.676Y-152.4
X584.676Y-176.213
X584.676Y-190.5
X584.676Y-214.312
X592.931Y-114.3
X592.931Y-135.731
X592.931Y-164.306
X592.931Y-202.406
T0
M30
