M48
; DRILL file {KiCad 7.0.2} date Wed May 17 23:03:50 2023
; FORMAT={-:-/ absolute / metric / decimal}
; #@! TF.CreationDate,2023-05-17T23:03:50-05:00
; #@! TF.GenerationSoftware,Kicad,Pcbnew,7.0.2
; #@! TF.FileFunction,Plated,1,2,PTH
FMAT,2
METRIC
; #@! TA.AperFunction,Plated,PTH,ViaDrill
T1C0.300
; #@! TA.AperFunction,Plated,PTH,ViaDrill
T2C0.350
; #@! TA.AperFunction,Plated,PTH,ComponentDrill
T3C0.350
; #@! TA.AperFunction,Plated,PTH,ComponentDrill
T4C0.600
; #@! TA.AperFunction,Plated,PTH,ComponentDrill
T5C1.000
; #@! TA.AperFunction,Plated,PTH,ComponentDrill
T6C1.524
%
G90
G05
T1
X179.781Y-136.449
X182.321Y-160.071
X184.007Y-118.227
X184.896Y-138.928
X185.718Y-121.92
X185.718Y-214.312
X185.979Y-106.782
X185.979Y-109.22
X186.055Y-162.179
X186.207Y-179.451
X186.309Y-128.397
X187.122Y-126.924
X187.198Y-178.689
X187.309Y-215.128
X188.214Y-123.698
X188.214Y-128.524
X188.925Y-180.416
X189.595Y-157.978
X190.246Y-204.724
X190.703Y-111.252
X191.846Y-117.17
X192.008Y-177.028
X192.024Y-202.946
X192.068Y-141.561
X192.075Y-144.475
X192.583Y-112.878
X192.786Y-139.065
X193.421Y-167.132
X194.183Y-121.285
X194.589Y-139.192
X195.326Y-165.085
X195.453Y-130.651
X196.558Y-121.755
X196.834Y-196.078
X197.711Y-216.302
X198.882Y-161.798
X199.314Y-116.815
X199.365Y-121.361
X199.898Y-157.988
X199.898Y-164.516
X200.235Y-217.761
X200.279Y-202.184
X201.422Y-180.848
X202.565Y-177.292
X203.175Y-122.682
X203.946Y-117.465
X203.946Y-138.928
X204.546Y-115.011
X206.629Y-200.025
X208.788Y-195.199
X209.093Y-116.671
X209.245Y-206.851
X209.753Y-117.246
X210.515Y-117.831
X211.058Y-215.128
X211.328Y-122.428
X212.115Y-126.136
X213.238Y-142.697
X213.335Y-126.136
X213.471Y-157.978
X213.817Y-129.261
X213.817Y-139.37
X214.808Y-142.646
X214.909Y-139.37
X214.921Y-129.258
X216.078Y-142.646
X218.17Y-177.028
X220.04Y-116.671
X220.701Y-118.085
X221.183Y-117.247
X222.107Y-118.227
X222.25Y-216.281
X222.885Y-161.798
X222.996Y-138.928
X227.695Y-196.078
X227.711Y-180.848
X232.156Y-121.285
X232.156Y-142.748
X232.521Y-157.978
X233.172Y-115.824
X233.172Y-130.651
X233.172Y-139.192
X234.441Y-115.061
X234.934Y-215.128
X235.356Y-115.976
X237.22Y-177.028
X237.744Y-199.898
X240.741Y-202.692
X241.376Y-213.741
X241.935Y-161.925
X242.046Y-117.465
X242.046Y-138.928
X242.348Y-217.761
X242.494Y-219.1
X242.773Y-205.867
X243.078Y-158.242
X245.745Y-216.408
X246.235Y-200.261
X246.507Y-180.848
X246.745Y-196.078
X247.396Y-216.408
X247.523Y-177.292
X251.257Y-106.197
X251.333Y-142.748
X251.46Y-121.285
X251.571Y-157.978
X251.825Y-213.731
X252.679Y-200.787
X253.695Y-195.707
X254.457Y-202.692
X254.838Y-103.632
X255.854Y-199.009
X256.27Y-177.028
X258.966Y-207.962
X260.045Y-215.646
X260.498Y-208.606
X260.985Y-161.798
X261.096Y-117.465
X261.096Y-138.928
X262.204Y-212.598
X262.331Y-210.185
X262.484Y-158.394
X262.712Y-213.868
X263.322Y-210.871
X265.456Y-214.172
X265.887Y-161.798
X265.938Y-180.848
X266.141Y-211.455
X266.141Y-212.344
X266.903Y-201.295
X267.538Y-195.58
X267.912Y-211.102
X268.554Y-213.868
X268.808Y-206.967
X270.256Y-121.285
X270.256Y-142.748
X270.332Y-212.344
X270.332Y-214.522
X270.621Y-157.978
X270.678Y-202.219
X270.678Y-206.911
X271.145Y-117.475
X271.145Y-130.683
X271.145Y-139.065
X272.542Y-105.664
X273.507Y-213.76
X274.396Y-213.106
X275.133Y-108.255
X275.32Y-177.028
X275.336Y-199.898
X275.412Y-214.503
X276.631Y-185.877
X276.682Y-212.344
X278.331Y-213.868
X278.968Y-207.264
X279.349Y-213.868
X279.568Y-211.102
X279.908Y-161.798
X280.146Y-117.465
X280.146Y-138.928
X280.492Y-212.471
X280.492Y-214.394
X281.178Y-158.115
X281.635Y-212.471
X281.635Y-213.868
X282.956Y-177.165
X284.429Y-210.312
X284.845Y-196.078
X287.02Y-180.848
X288.62Y-214.503
X289.433Y-121.285
X289.433Y-142.748
X289.671Y-157.978
X290.163Y-200.261
X290.398Y-205.74
X293.053Y-196.405
X294.208Y-219.583
X294.37Y-177.028
X294.799Y-217.761
X294.843Y-213.868
X296.418Y-199.898
X298.577Y-216.281
X299.196Y-117.465
X299.196Y-138.928
X299.339Y-161.798
X303.895Y-196.078
X303.911Y-180.848
X306.308Y-215.128
X308.356Y-121.285
X308.356Y-142.748
X308.721Y-157.978
X309.245Y-117.475
X309.245Y-130.683
X309.245Y-139.065
X310.642Y-105.664
X312.014Y-103.607
X313.233Y-108.458
X313.547Y-177.028
X313.563Y-199.898
X318.008Y-216.281
X318.135Y-161.798
X318.246Y-117.465
X318.246Y-138.928
X319.278Y-157.099
X322.707Y-180.848
X322.945Y-196.078
X323.85Y-177.165
X326.974Y-158.496
X327.533Y-121.285
X327.533Y-142.748
X327.644Y-215.128
X332.47Y-177.028
X332.486Y-199.898
X333.375Y-196.215
X335.026Y-213.614
X337.296Y-117.465
X337.296Y-138.928
X337.388Y-162.433
X339.801Y-158.369
X341.884Y-180.848
X341.995Y-196.078
X343.103Y-161.671
X346.151Y-158.369
X346.278Y-208.661
X346.456Y-121.285
X346.456Y-142.748
X347.294Y-202.184
X347.294Y-208.788
X347.345Y-117.348
X347.345Y-130.556
X347.345Y-138.938
X348.309Y-209.677
X348.691Y-202.184
X348.742Y-105.664
X349.529Y-177.47
X350.152Y-202.248
X350.85Y-184.811
X351.18Y-199.847
X351.333Y-108.458
X351.485Y-186.69
X351.52Y-177.028
X352.628Y-186.69
X353.035Y-196.266
X353.035Y-199.593
X353.644Y-187.706
X354.152Y-196.342
X354.152Y-199.771
X355.295Y-196.469
X355.295Y-199.411
X356.235Y-161.798
X356.346Y-117.465
X356.346Y-138.928
X356.464Y-218.618
X357.378Y-156.591
X360.68Y-180.848
X361.045Y-196.078
X361.95Y-177.038
X363.55Y-213.487
X365.633Y-121.285
X365.76Y-142.748
X365.871Y-157.978
X368.3Y-201.168
X369.062Y-103.835
X369.748Y-196.469
X369.748Y-200.127
X369.951Y-181.229
X370.57Y-177.028
X370.84Y-188.849
X370.84Y-196.342
X370.84Y-198.711
X370.84Y-207.518
X370.84Y-213.995
X372.491Y-217.805
X372.783Y-215.938
X375.285Y-161.798
X375.396Y-117.465
X375.396Y-138.928
X375.742Y-158.369
X377.809Y-215.128
X378.181Y-164.516
X378.409Y-167.386
X378.917Y-161.544
X378.943Y-202.235
X379.222Y-164.516
X379.425Y-167.386
X379.755Y-180.899
X380.095Y-196.078
X380.568Y-164.592
X380.568Y-167.386
X380.822Y-177.622
X381.711Y-164.338
X381.711Y-167.386
X382.299Y-177.618
X383.197Y-177.419
X384.556Y-121.285
X384.556Y-142.748
X384.921Y-157.978
X385.445Y-117.475
X385.445Y-130.683
X385.445Y-139.065
X386.486Y-146.736
X386.791Y-105.664
X387.172Y-177.597
X387.553Y-219.405
X387.68Y-148.311
X388.087Y-186.411
X388.239Y-200.812
X388.341Y-216.23
X389.255Y-186.411
X389.433Y-108.458
X389.62Y-177.028
X390.093Y-183.007
X390.449Y-195.707
X390.449Y-206.527
X390.449Y-216.103
X390.449Y-218.669
X390.55Y-186.411
X390.867Y-163.562
X391.541Y-195.707
X391.541Y-206.527
X392.379Y-183.896
X392.659Y-195.707
X392.659Y-206.527
X393.141Y-158.496
X393.141Y-167.386
X393.954Y-158.191
X393.954Y-167.386
X394.446Y-117.465
X394.446Y-138.928
X395.446Y-158.471
X396.316Y-211.43
X399.145Y-196.078
X399.161Y-180.848
X400.126Y-215.773
X402.285Y-175.133
X403.733Y-121.285
X403.971Y-157.978
X403.987Y-142.748
X405.74Y-127.675
X405.74Y-130.759
X405.74Y-139.37
X406.781Y-139.141
X407.238Y-177.419
X407.972Y-201.092
X408.254Y-145.034
X408.28Y-142.469
X408.965Y-204.521
X409.804Y-142.469
X410.007Y-145.263
X410.058Y-198.501
X410.058Y-206.832
X411.709Y-148.488
X411.734Y-145.263
X412.242Y-216.764
X412.953Y-148.488
X413.283Y-145.263
X413.385Y-161.798
X413.496Y-117.465
X413.496Y-138.928
X414.096Y-148.514
X415.112Y-148.514
X415.747Y-204.234
X416.255Y-166.719
X417.017Y-165.862
X418.211Y-180.848
X418.795Y-169.316
X418.998Y-190.666
X418.998Y-195.53
X419.049Y-160.02
X419.049Y-182.575
X419.049Y-185.801
X419.964Y-160.02
X420.065Y-167.386
X420.573Y-169.418
X420.7Y-182.372
X420.7Y-185.293
X420.827Y-160.02
X420.827Y-176.276
X421.843Y-185.293
X421.97Y-160.02
X422.656Y-121.285
X422.732Y-126.746
X422.732Y-167.386
X422.91Y-142.748
X422.986Y-176.276
X422.986Y-185.293
X423.113Y-157.734
X423.367Y-127.767
X423.551Y-214.184
X424.002Y-128.402
X424.002Y-167.386
X424.002Y-176.276
X424.002Y-185.293
X424.637Y-215.773
X424.942Y-105.664
X425.018Y-176.276
X425.018Y-185.166
X425.463Y-167.576
X426.237Y-103.81
X427.533Y-108.458
X428.784Y-144.526
X428.79Y-126.682
X429.59Y-176.385
X429.717Y-127.127
X430.479Y-176.149
X430.682Y-190.805
X430.86Y-128.397
X431.622Y-176.276
X431.8Y-189.713
X432.511Y-176.022
X432.546Y-117.465
X433.626Y-161.544
X433.781Y-176.276
X434.07Y-196.84
X435.497Y-146.711
X435.502Y-147.657
X435.559Y-144.729
X435.559Y-145.745
X435.661Y-194.539
X435.94Y-189.636
X435.94Y-216.56
X438.937Y-201.498
X439.658Y-177.028
X440.309Y-144.729
X440.309Y-145.745
X440.309Y-146.71
X440.309Y-147.65
X440.474Y-163.773
X441.833Y-121.285
X441.909Y-191.77
X442.071Y-138.928
X442.074Y-184.747
X442.722Y-164.465
X443.102Y-184.837
X443.56Y-165.227
X443.967Y-195.707
X444.068Y-184.785
X444.246Y-165.947
X444.881Y-166.624
X444.957Y-184.695
X445.922Y-117.958
X445.922Y-129.413
X446.77Y-157.978
X446.964Y-116.84
X447.599Y-162.052
X447.929Y-144.272
X448.259Y-178.435
X448.488Y-164.44
X448.513Y-216.23
X448.894Y-171.577
X449.402Y-165.1
X449.402Y-172.466
X449.402Y-214.376
X450.19Y-165.633
X450.418Y-172.974
X450.469Y-139.294
X450.494Y-148.438
X450.698Y-166.548
X450.818Y-193.148
X451.053Y-185.166
X451.398Y-173.888
X451.596Y-117.465
X452.069Y-195.682
X452.596Y-139.268
X452.704Y-168.148
X452.958Y-191.262
X453.466Y-168.91
X453.847Y-183.769
X453.847Y-184.785
X454.228Y-169.672
X454.355Y-195.682
X454.66Y-152.527
X454.99Y-170.434
X455.422Y-149.86
X455.625Y-171.196
X456.514Y-195.199
X456.6Y-163.264
X456.616Y-159.969
X456.895Y-214.757
X457.34Y-205.549
X457.556Y-192.405
X457.657Y-199.39
X458.318Y-205.918
X458.47Y-187.757
X458.648Y-210.541
X458.673Y-199.39
X458.673Y-206.756
X459.08Y-219.329
X459.095Y-216.789
X459.901Y-185.415
X460.197Y-201.549
X460.578Y-179.296
X460.832Y-196.85
X460.883Y-121.285
X461.01Y-172.466
X461.369Y-105.21
X461.467Y-200.025
X461.721Y-179.296
X461.772Y-173.101
X462.229Y-192.837
X462.229Y-200.66
X462.28Y-159.893
X462.534Y-173.736
X463.096Y-201.549
X463.296Y-174.371
X463.372Y-197.612
X463.55Y-159.893
X463.931Y-175.006
X464.693Y-159.893
X464.845Y-187.325
X464.845Y-189.78
X465.023Y-175.641
X465.074Y-152.146
X465.506Y-188.431
X465.506Y-190.297
X465.723Y-215.265
X465.724Y-177.094
X465.963Y-159.893
X466.039Y-158.699
X466.115Y-190.83
X466.166Y-187.96
X466.293Y-200.787
X466.293Y-201.803
X466.693Y-188.755
X467.055Y-191.389
X467.106Y-152.146
X467.106Y-159.893
X467.36Y-140.843
X467.436Y-192.278
X467.519Y-205.784
X467.563Y-178.816
X467.589Y-103.886
X467.944Y-195.205
X467.944Y-196.215
X468.071Y-197.104
X468.122Y-201.676
X468.249Y-159.893
X468.325Y-191.008
X468.706Y-205.613
X468.757Y-208.915
X469.011Y-201.676
X469.011Y-213.69
X469.011Y-220.32
X469.519Y-159.893
X469.722Y-205.486
X469.925Y-213.69
X469.976Y-201.676
X470.002Y-220.929
X470.205Y-195.205
X470.23Y-196.215
X470.459Y-202.438
X470.764Y-205.359
X471.195Y-220.32
X471.627Y-202.692
X472.043Y-215.89
X472.389Y-197.206
X472.757Y-202.705
X472.932Y-177.028
X473.059Y-117.465
X473.059Y-138.928
X473.059Y-157.978
X473.253Y-204.749
X473.659Y-199.644
X473.913Y-203.861
X474.409Y-184.087
X474.955Y-148.488
X475.745Y-185.391
X476.555Y-204.546
X480.517Y-162.839
X480.568Y-181.635
X480.822Y-216.306
X481.584Y-219.177
X482.219Y-121.285
X482.219Y-142.748
X482.295Y-158.191
X482.321Y-169.469
X482.346Y-199.898
X482.397Y-177.165
X482.397Y-188.392
X483.203Y-117.634
X483.203Y-130.683
X483.235Y-139.065
X483.235Y-149.733
X483.235Y-158.115
X483.235Y-168.783
X483.235Y-177.165
X483.235Y-187.833
X483.235Y-194.869
X484.505Y-183.388
X484.505Y-188.976
X484.505Y-194.869
X484.505Y-198.711
X484.505Y-217.761
X484.975Y-106.159
X487.07Y-108.458
X491.134Y-196.418
X491.22Y-215.509
X492.109Y-117.465
X492.109Y-138.928
X492.109Y-157.978
X492.109Y-177.028
X501.269Y-121.285
X501.396Y-142.748
X501.396Y-161.798
X501.65Y-180.848
X501.777Y-199.898
X503.174Y-216.332
X504.596Y-204.927
X508.203Y-203.327
X509.016Y-204.013
X509.702Y-204.699
X510.184Y-196.494
X510.27Y-215.509
X511.159Y-117.465
X511.159Y-138.928
X511.159Y-157.978
X511.159Y-177.028
X511.861Y-203.327
X512.394Y-213.716
X512.572Y-204.013
X512.877Y-206.045
X513.283Y-204.699
X514.071Y-209.22
X516.382Y-213.741
X516.661Y-209.652
X518.77Y-209.88
X519.303Y-219.202
X520.192Y-180.975
X520.319Y-121.285
X520.319Y-142.748
X520.319Y-199.898
X520.446Y-161.798
X520.954Y-213.258
X521.335Y-117.602
X521.335Y-130.683
X521.335Y-138.811
X521.335Y-149.733
X521.335Y-158.242
X521.335Y-168.783
X521.335Y-177.292
X521.335Y-187.833
X521.335Y-194.996
X521.665Y-216.713
X523.037Y-210.82
X524.231Y-216.027
X524.891Y-211.074
X524.891Y-213.157
X525.386Y-106.134
X525.856Y-203.775
X527.456Y-103.81
X527.558Y-108.458
X528.022Y-215.182
X528.022Y-217.761
X529.463Y-208.102
X530.53Y-202.489
X531.292Y-196.469
X532.384Y-208.153
X532.495Y-117.465
X532.495Y-138.928
X532.495Y-157.978
X532.495Y-177.028
X541.122Y-215.519
X541.909Y-121.285
X542.036Y-142.748
X542.036Y-200.025
X542.163Y-180.848
X542.29Y-161.798
X543.357Y-148.057
X551.545Y-117.465
X551.545Y-138.928
X551.545Y-177.028
X551.545Y-196.078
X551.672Y-157.978
X552.882Y-215.849
X559.689Y-181.991
X559.816Y-217.881
X560.578Y-200.66
X560.832Y-121.285
X560.832Y-142.748
X560.832Y-161.798
X561.848Y-117.729
X561.848Y-130.683
X561.848Y-139.192
X561.848Y-149.733
X561.848Y-158.242
X561.848Y-168.783
X561.848Y-177.165
X561.848Y-187.801
X562.483Y-201.549
X562.483Y-216.408
X563.537Y-106.134
X563.88Y-196.342
X565.658Y-108.255
X570.595Y-117.465
X570.595Y-138.928
X570.595Y-157.978
X570.595Y-177.028
X570.595Y-196.078
X570.641Y-215.12
X574.421Y-163.322
X574.548Y-182.499
X575.903Y-181.251
X575.945Y-163.83
X576.707Y-144.272
X578.358Y-145.796
X578.485Y-163.83
X579.247Y-184.785
X579.374Y-143.129
X579.628Y-121.285
X579.628Y-140.061
X579.628Y-164.846
X579.956Y-201.168
X580.517Y-118.466
X580.517Y-129.438
X580.517Y-202.438
X580.644Y-198.755
X581.914Y-140.081
X582.041Y-145.796
X582.168Y-217.551
X582.295Y-143.129
X582.955Y-127.787
X583.184Y-201.295
X583.311Y-164.846
X583.311Y-166.497
X583.692Y-184.785
X583.857Y-171.742
X583.946Y-117.932
X584.277Y-182.372
X584.403Y-202.438
X588.756Y-168.138
X588.797Y-206.121
X588.883Y-117.881
X589.407Y-125.933
X589.645Y-138.928
X591.439Y-144.272
X591.744Y-128.321
X592.861Y-107.925
X593.217Y-146.939
X593.471Y-122.936
X593.598Y-106.426
X594.258Y-144.856
X594.639Y-111.328
X596.138Y-106.426
X596.392Y-113.055
X596.722Y-111.404
X596.976Y-215.646
X597.637Y-132.74
X597.865Y-210.388
X598.703Y-169.951
X599.796Y-146.558
X600.939Y-105.156
X602.031Y-146.583
T2
X202.082Y-119.456
X214.833Y-183.286
X223.774Y-204.876
X237.236Y-114.91
X243.51Y-110.769
X255.6Y-107.391
X265.024Y-216.855
X265.887Y-206.629
X266.827Y-166.827
X270.091Y-216.904
X275.171Y-216.904
X277.419Y-183.312
X280.251Y-216.904
X284.683Y-218.059
X317.754Y-204.851
X366.09Y-208.788
X376.961Y-183.388
X393.192Y-151.536
X397.993Y-170.891
X398.983Y-175.768
X401.422Y-187.223
X403.276Y-190.068
X410.743Y-167.869
X410.921Y-170.053
X411.556Y-218.948
X426.034Y-175.514
X426.11Y-189.789
X426.669Y-185.42
X430.225Y-199.39
X431.876Y-191.262
X432.384Y-185.547
X433.654Y-182.245
X436.982Y-219.354
X443.433Y-201.422
X449.631Y-127.203
X453.847Y-125.273
X456.87Y-218.135
X458.876Y-166.446
X462.839Y-140.462
X463.017Y-143.205
X465.607Y-218.516
X471.78Y-218.44
X476.123Y-189.611
X479.12Y-209.474
X486.842Y-216.256
X495.325Y-208.559
X495.351Y-189.611
X499.542Y-216.637
X512.267Y-208.356
X514.401Y-189.814
X515.442Y-205.435
X518.312Y-203.987
X551.51Y-205.74
X552.145Y-202.895
X574.904Y-127.762
X589.788Y-202.844
X595.808Y-204.648
T3
X458.434Y-189.031
X458.434Y-190.306
X458.434Y-191.581
X459.709Y-189.031
X459.709Y-190.306
X459.709Y-191.581
X460.984Y-189.031
X460.984Y-190.306
X460.984Y-191.581
T5
X181.119Y-111.8
X181.119Y-116.8
X195.619Y-111.8
X195.619Y-114.3
X195.619Y-116.8
X585.931Y-111.8
X585.931Y-116.8
X600.431Y-111.8
X600.431Y-114.3
X600.431Y-116.8
T6
X184.302Y-111.76
X184.309Y-133.191
X186.69Y-209.391
X189.071Y-152.241
X190.652Y-109.22
X190.659Y-130.651
X191.452Y-171.291
X193.04Y-206.851
X195.421Y-149.701
X196.215Y-190.341
X197.802Y-168.751
X202.565Y-187.801
X203.359Y-111.76
X203.359Y-133.191
X209.709Y-109.22
X209.709Y-130.651
X210.502Y-209.391
X212.884Y-152.241
X216.852Y-206.851
X217.646Y-171.291
X219.234Y-149.701
X222.409Y-111.76
X222.409Y-133.191
X223.996Y-168.751
X227.171Y-190.341
X228.759Y-109.22
X228.759Y-130.651
X231.934Y-152.241
X233.521Y-187.801
X234.315Y-209.391
X236.696Y-171.291
X238.284Y-149.701
X240.665Y-206.851
X241.459Y-111.76
X241.459Y-133.191
X243.046Y-168.751
X246.221Y-190.341
X247.809Y-109.22
X247.809Y-130.651
X250.984Y-152.241
X252.571Y-187.801
X255.746Y-171.291
X255.746Y-209.391
X257.334Y-149.701
X260.509Y-111.76
X260.509Y-133.191
X262.096Y-168.751
X262.096Y-206.851
X265.271Y-190.341
X266.859Y-109.22
X266.859Y-130.651
X270.034Y-152.241
X271.621Y-187.801
X274.796Y-171.291
X276.384Y-149.701
X279.559Y-111.76
X279.559Y-133.191
X281.146Y-168.751
X284.321Y-190.341
X285.909Y-109.22
X285.909Y-130.651
X286.702Y-209.391
X289.084Y-152.241
X290.671Y-187.801
X293.053Y-206.851
X293.846Y-171.291
X295.434Y-149.701
X298.609Y-111.76
X298.609Y-133.191
X300.196Y-168.751
X303.371Y-190.341
X304.959Y-109.22
X304.959Y-130.651
X305.752Y-209.391
X308.134Y-152.241
X309.721Y-187.801
X312.102Y-206.851
X312.896Y-171.291
X314.484Y-149.701
X317.659Y-111.76
X317.659Y-133.191
X319.246Y-168.751
X322.421Y-190.341
X324.009Y-109.22
X324.009Y-130.651
X327.184Y-152.241
X327.184Y-209.391
X328.771Y-187.801
X331.946Y-171.291
X333.534Y-149.701
X333.534Y-206.851
X336.709Y-111.76
X336.709Y-133.191
X338.296Y-168.751
X341.471Y-190.341
X343.059Y-109.22
X343.059Y-130.651
X346.234Y-152.241
X347.821Y-187.801
X350.996Y-171.291
X352.584Y-149.701
X355.759Y-111.76
X355.759Y-133.191
X355.759Y-209.391
X357.346Y-168.751
X360.521Y-190.341
X362.109Y-109.22
X362.109Y-130.651
X362.109Y-206.851
X365.284Y-152.241
X366.871Y-187.801
X370.046Y-171.291
X371.634Y-149.701
X374.809Y-111.76
X374.809Y-133.191
X376.396Y-168.751
X377.19Y-209.391
X379.571Y-190.341
X381.159Y-109.22
X381.159Y-130.651
X383.54Y-206.851
X384.334Y-152.241
X385.921Y-187.801
X389.096Y-171.291
X390.684Y-149.701
X393.859Y-111.76
X393.859Y-133.191
X395.446Y-168.751
X398.621Y-190.341
X400.209Y-109.22
X400.209Y-130.651
X401.002Y-209.391
X403.384Y-152.241
X404.971Y-187.801
X407.352Y-206.851
X408.146Y-171.291
X409.734Y-149.701
X412.909Y-111.76
X412.909Y-133.191
X414.496Y-168.751
X419.259Y-109.22
X419.259Y-130.651
X422.434Y-152.241
X424.815Y-209.391
X428.784Y-149.701
X431.165Y-206.851
X431.959Y-111.76
X434.34Y-190.341
X438.309Y-109.22
X439.102Y-171.291
X440.69Y-187.801
X441.484Y-133.191
X445.452Y-168.751
X446.246Y-152.241
X447.834Y-130.651
X448.627Y-209.391
X451.009Y-111.76
X452.596Y-149.701
X454.977Y-206.851
X457.359Y-109.22
X472.44Y-111.76
X472.44Y-133.191
X472.44Y-152.241
X472.44Y-171.291
X472.44Y-190.341
X472.44Y-209.391
X478.79Y-109.22
X478.79Y-130.651
X478.79Y-149.701
X478.79Y-168.751
X478.79Y-187.801
X478.79Y-206.851
X491.49Y-111.76
X491.49Y-133.191
X491.49Y-152.241
X491.49Y-171.291
X491.49Y-190.341
X491.49Y-209.391
X497.84Y-109.22
X497.84Y-130.651
X497.84Y-149.701
X497.84Y-168.751
X497.84Y-187.801
X497.84Y-206.851
X510.54Y-111.76
X510.54Y-133.191
X510.54Y-152.241
X510.54Y-171.291
X510.54Y-190.341
X510.54Y-209.391
X516.89Y-109.22
X516.89Y-130.651
X516.89Y-149.701
X516.89Y-168.751
X516.89Y-187.801
X516.89Y-206.851
X531.971Y-111.76
X531.971Y-133.191
X531.971Y-152.241
X531.971Y-171.291
X531.971Y-190.341
X538.321Y-109.22
X538.321Y-130.651
X538.321Y-149.701
X538.321Y-168.751
X538.321Y-187.801
X541.496Y-209.391
X547.846Y-206.851
X551.021Y-111.76
X551.021Y-133.191
X551.021Y-152.241
X551.021Y-171.291
X551.021Y-190.341
X557.371Y-109.22
X557.371Y-130.651
X557.371Y-149.701
X557.371Y-168.751
X557.371Y-187.801
X570.071Y-111.76
X570.071Y-133.191
X570.071Y-152.241
X570.071Y-171.291
X570.071Y-190.341
X570.071Y-209.391
X576.421Y-109.22
X576.421Y-130.651
X576.421Y-149.701
X576.421Y-168.751
X576.421Y-187.801
X576.421Y-206.851
X589.121Y-111.76
X589.121Y-133.191
X589.121Y-161.766
X589.121Y-199.866
X595.471Y-109.22
X595.471Y-130.651
X595.471Y-159.226
X595.471Y-197.326
T4
X212.467Y-104.595G85X212.467Y-105.395
G05
X212.467Y-108.625G85X212.467Y-109.725
G05
X221.107Y-104.595G85X221.107Y-105.395
G05
X221.107Y-108.625G85X221.107Y-109.725
G05
T0
M30
