M48
; DRILL file {KiCad 7.0.2} date Thu May 18 15:06:17 2023
; FORMAT={-:-/ absolute / inch / decimal}
; #@! TF.CreationDate,2023-05-18T15:06:17-05:00
; #@! TF.GenerationSoftware,Kicad,Pcbnew,7.0.2
; #@! TF.FileFunction,Plated,1,2,PTH
FMAT,2
INCH
; #@! TA.AperFunction,Plated,PTH,ViaDrill
T1C0.0118
; #@! TA.AperFunction,Plated,PTH,ViaDrill
T2C0.0138
; #@! TA.AperFunction,Plated,PTH,ComponentDrill
T3C0.0138
; #@! TA.AperFunction,Plated,PTH,ComponentDrill
T4C0.0236
; #@! TA.AperFunction,Plated,PTH,ComponentDrill
T5C0.0394
; #@! TA.AperFunction,Plated,PTH,ComponentDrill
T6C0.0600
%
G90
G05
T1
X3.5822Y-2.6932
X3.6822Y-3.6233
X3.7486Y-1.9759
X3.7836Y-2.7909
X3.816Y-2.1212
X3.816Y-5.7588
X3.8262Y-1.5252
X3.8262Y-1.6212
X3.8293Y-3.7062
X3.8352Y-4.3862
X3.8392Y-2.3762
X3.8712Y-2.3182
X3.8742Y-4.3563
X3.8786Y-5.7909
X3.9143Y-2.1913
X3.9143Y-2.3813
X3.9423Y-4.4242
X3.9686Y-3.5409
X3.9943Y-5.3812
X4.0122Y-1.7012
X4.0572Y-1.9343
X4.0636Y-4.2909
X4.0642Y-5.3113
X4.066Y-2.8945
X4.0663Y-3.0092
X4.0862Y-1.7652
X4.0942Y-2.7963
X4.1193Y-3.9013
X4.1493Y-2.0962
X4.1653Y-2.8013
X4.1943Y-3.8206
X4.1993Y-2.465
X4.2428Y-2.1147
X4.2536Y-5.0409
X4.2881Y-5.8371
X4.3342Y-3.6912
X4.3513Y-1.9203
X4.3533Y-2.0993
X4.3742Y-3.5412
X4.3742Y-3.7982
X4.3875Y-5.8945
X4.3892Y-5.2812
X4.4342Y-4.4413
X4.4792Y-4.3012
X4.5032Y-2.1513
X4.5336Y-1.9459
X4.5336Y-2.7909
X4.5572Y-1.8493
X4.6392Y-5.1963
X4.7242Y-5.0062
X4.7363Y-1.9146
X4.7423Y-5.465
X4.7622Y-1.9372
X4.7923Y-1.9603
X4.8136Y-5.7909
X4.8243Y-2.1412
X4.8552Y-2.2872
X4.8995Y-2.9392
X4.9032Y-2.2872
X4.9086Y-3.5409
X4.9223Y-2.4103
X4.9223Y-2.8083
X4.9612Y-2.9373
X4.9653Y-2.8083
X4.9657Y-2.4102
X5.0112Y-2.9373
X5.0936Y-4.2909
X5.1673Y-1.9146
X5.1932Y-1.9703
X5.2123Y-1.9373
X5.2486Y-1.9759
X5.2542Y-5.8362
X5.2793Y-3.6912
X5.2836Y-2.7909
X5.4686Y-5.0409
X5.4692Y-4.4413
X5.6442Y-2.0962
X5.6442Y-2.9413
X5.6586Y-3.5409
X5.6842Y-1.8812
X5.6842Y-2.465
X5.6842Y-2.8013
X5.7342Y-1.8512
X5.7536Y-5.7909
X5.7702Y-1.8872
X5.8436Y-4.2909
X5.8643Y-5.1913
X5.9822Y-5.3012
X6.0072Y-5.7363
X6.0293Y-3.6963
X6.0336Y-1.9459
X6.0336Y-2.7909
X6.0455Y-5.8945
X6.0512Y-5.9472
X6.0622Y-5.4262
X6.0743Y-3.5513
X6.1792Y-5.8412
X6.1986Y-5.2056
X6.2092Y-4.4413
X6.2186Y-5.0409
X6.2443Y-5.8412
X6.2492Y-4.3012
X6.3963Y-1.5022
X6.3992Y-2.9413
X6.4043Y-2.0962
X6.4086Y-3.5409
X6.4186Y-5.7359
X6.4523Y-5.2263
X6.4922Y-5.0263
X6.5222Y-5.3012
X6.5373Y-1.4012
X6.5773Y-5.1562
X6.5936Y-4.2909
X6.6997Y-5.5088
X6.7422Y-5.8113
X6.7601Y-5.5341
X6.7793Y-3.6912
X6.7836Y-1.9459
X6.7836Y-2.7909
X6.8273Y-5.6913
X6.8323Y-5.5962
X6.8382Y-3.5572
X6.8472Y-5.7412
X6.8712Y-5.6232
X6.9553Y-5.7532
X6.9722Y-3.6912
X6.9742Y-4.4413
X6.9822Y-5.6463
X6.9822Y-5.6812
X7.0122Y-5.2462
X7.0373Y-5.0213
X7.052Y-5.6324
X7.0773Y-5.7412
X7.0873Y-5.4696
X7.1442Y-2.0962
X7.1442Y-2.9413
X7.1472Y-5.6812
X7.1472Y-5.767
X7.1586Y-3.5409
X7.1609Y-5.2826
X7.1609Y-5.4674
X7.1792Y-1.9463
X7.1792Y-2.4663
X7.1792Y-2.7963
X7.2342Y-1.4812
X7.2722Y-5.737
X7.3072Y-5.7112
X7.3362Y-1.5833
X7.3436Y-4.2909
X7.3442Y-5.1913
X7.3472Y-5.7662
X7.3952Y-4.6392
X7.3972Y-5.6812
X7.4622Y-5.7412
X7.4872Y-5.4813
X7.5023Y-5.7412
X7.5109Y-5.6324
X7.5242Y-3.6912
X7.5336Y-1.9459
X7.5336Y-2.7909
X7.5473Y-5.6863
X7.5473Y-5.762
X7.5743Y-3.5463
X7.5922Y-5.6863
X7.5922Y-5.7412
X7.6442Y-4.2962
X7.7023Y-5.6013
X7.7186Y-5.0409
X7.8042Y-4.4413
X7.8672Y-5.7662
X7.8992Y-2.0962
X7.8992Y-2.9413
X7.9086Y-3.5409
X7.928Y-5.2056
X7.9372Y-5.4212
X8.0418Y-5.0537
X8.0872Y-5.9662
X8.0936Y-4.2909
X8.1105Y-5.8945
X8.1122Y-5.7412
X8.1743Y-5.1913
X8.2592Y-5.8362
X8.2836Y-1.9459
X8.2836Y-2.7909
X8.2892Y-3.6912
X8.4686Y-5.0409
X8.4693Y-4.4413
X8.5636Y-5.7909
X8.6442Y-2.0962
X8.6442Y-2.9413
X8.6586Y-3.5409
X8.6792Y-1.9463
X8.6792Y-2.4663
X8.6792Y-2.7963
X8.7342Y-1.4812
X8.7882Y-1.4002
X8.8362Y-1.5913
X8.8486Y-4.2909
X8.8492Y-5.1913
X9.0243Y-5.8362
X9.0292Y-3.6912
X9.0336Y-1.9459
X9.0336Y-2.7909
X9.0742Y-3.5063
X9.2092Y-4.4413
X9.2186Y-5.0409
X9.2542Y-4.2962
X9.3773Y-3.5612
X9.3993Y-2.0962
X9.3993Y-2.9413
X9.4036Y-5.7909
X9.5936Y-4.2909
X9.5943Y-5.1913
X9.6292Y-5.0462
X9.6943Y-5.7313
X9.7836Y-1.9459
X9.7836Y-2.7909
X9.7873Y-3.7163
X9.8822Y-3.5562
X9.9642Y-4.4413
X9.9686Y-5.0409
X10.0122Y-3.6862
X10.1322Y-3.5562
X10.1372Y-5.5362
X10.1442Y-2.0962
X10.1442Y-2.9413
X10.1772Y-5.2812
X10.1772Y-5.5412
X10.1792Y-1.9412
X10.1792Y-2.4613
X10.1792Y-2.7912
X10.2172Y-5.5762
X10.2323Y-5.2812
X10.2342Y-1.4812
X10.2652Y-4.3083
X10.2897Y-5.2837
X10.3172Y-4.5973
X10.3302Y-5.1892
X10.3362Y-1.5913
X10.3422Y-4.6712
X10.3436Y-4.2909
X10.3872Y-4.6712
X10.4032Y-5.0482
X10.4032Y-5.1792
X10.4272Y-4.7112
X10.4473Y-5.0512
X10.4473Y-5.1863
X10.4923Y-5.0562
X10.4923Y-5.1721
X10.5292Y-3.6912
X10.5336Y-1.9459
X10.5336Y-2.7909
X10.5382Y-5.9283
X10.5742Y-3.4863
X10.7043Y-4.4413
X10.7186Y-5.0409
X10.7542Y-4.2912
X10.8172Y-5.7263
X10.8993Y-2.0962
X10.9042Y-2.9413
X10.9086Y-3.5409
X11.0042Y-5.2412
X11.0343Y-1.4092
X11.0612Y-5.0562
X11.0612Y-5.2002
X11.0693Y-4.4562
X11.0936Y-4.2909
X11.1043Y-4.7562
X11.1043Y-5.0512
X11.1043Y-5.1445
X11.1043Y-5.4912
X11.1043Y-5.7462
X11.1692Y-5.8963
X11.1807Y-5.8228
X11.2792Y-3.6912
X11.2836Y-1.9459
X11.2836Y-2.7909
X11.2973Y-3.5562
X11.3786Y-5.7909
X11.3933Y-3.7982
X11.4023Y-3.9112
X11.4223Y-3.6812
X11.4232Y-5.2832
X11.4343Y-3.7982
X11.4422Y-3.9112
X11.4552Y-4.4432
X11.4686Y-5.0409
X11.4872Y-3.8013
X11.4872Y-3.9112
X11.4972Y-4.3142
X11.5322Y-3.7912
X11.5322Y-3.9112
X11.5554Y-4.3141
X11.5908Y-4.3062
X11.6442Y-2.0962
X11.6442Y-2.9413
X11.6586Y-3.5409
X11.6792Y-1.9463
X11.6792Y-2.4663
X11.6792Y-2.7963
X11.7203Y-3.0982
X11.7323Y-1.4812
X11.7472Y-4.3133
X11.7622Y-5.9592
X11.7672Y-3.1603
X11.7832Y-4.6602
X11.7892Y-5.2272
X11.7933Y-5.8342
X11.8293Y-4.6602
X11.8362Y-1.5913
X11.8436Y-4.2909
X11.8622Y-4.5263
X11.8762Y-5.0263
X11.8762Y-5.4523
X11.8762Y-5.8293
X11.8762Y-5.9303
X11.8803Y-4.6602
X11.8927Y-3.7607
X11.9192Y-5.0263
X11.9192Y-5.4523
X11.9522Y-4.5613
X11.9633Y-5.0263
X11.9633Y-5.4523
X11.9823Y-3.5612
X11.9823Y-3.9112
X12.0143Y-3.5492
X12.0143Y-3.9112
X12.0336Y-1.9459
X12.0336Y-2.7909
X12.073Y-3.5602
X12.1073Y-5.6452
X12.2186Y-5.0409
X12.2192Y-4.4413
X12.2572Y-5.8163
X12.3422Y-4.2162
X12.3993Y-2.0962
X12.4086Y-3.5409
X12.4093Y-2.9413
X12.4782Y-2.3478
X12.4782Y-2.4692
X12.4782Y-2.8083
X12.5192Y-2.7992
X12.5373Y-4.3062
X12.5661Y-5.2382
X12.5772Y-3.0312
X12.5783Y-2.9303
X12.6052Y-5.3732
X12.6382Y-2.9303
X12.6463Y-3.0402
X12.6482Y-5.1362
X12.6482Y-5.4642
X12.7133Y-3.1673
X12.7142Y-3.0402
X12.7342Y-5.8552
X12.7622Y-3.1673
X12.7752Y-3.0402
X12.7792Y-3.6912
X12.7836Y-1.9459
X12.7836Y-2.7909
X12.8072Y-3.1683
X12.8472Y-3.1683
X12.8722Y-5.362
X12.8922Y-3.885
X12.9223Y-3.8512
X12.9692Y-4.4413
X12.9923Y-3.9872
X13.0002Y-4.8278
X13.0002Y-5.0193
X13.0023Y-3.6212
X13.0023Y-4.5092
X13.0023Y-4.6362
X13.0382Y-3.6212
X13.0422Y-3.9112
X13.0623Y-3.9912
X13.0672Y-4.5012
X13.0672Y-4.6162
X13.0723Y-3.6212
X13.0723Y-4.2612
X13.1122Y-4.6162
X13.1173Y-3.6212
X13.1442Y-2.0962
X13.1472Y-2.3112
X13.1472Y-3.9112
X13.1542Y-2.9413
X13.1572Y-4.2612
X13.1572Y-4.6162
X13.1623Y-3.5312
X13.1723Y-2.3514
X13.1795Y-5.7537
X13.1973Y-2.3764
X13.1973Y-3.9112
X13.1973Y-4.2612
X13.1973Y-4.6162
X13.2222Y-5.8163
X13.2342Y-1.4812
X13.2372Y-4.2612
X13.2372Y-4.6113
X13.2547Y-3.9187
X13.2852Y-1.4083
X13.3362Y-1.5913
X13.3855Y-3.0112
X13.3922Y-2.2812
X13.4172Y-4.2655
X13.4223Y-2.3262
X13.4522Y-4.2562
X13.4603Y-4.8332
X13.4672Y-2.3762
X13.4972Y-4.2612
X13.5042Y-4.7902
X13.5322Y-4.2512
X13.5336Y-1.9459
X13.5761Y-3.6812
X13.5823Y-4.2612
X13.5936Y-5.0709
X13.6498Y-3.0973
X13.65Y-3.1345
X13.6523Y-3.0192
X13.6523Y-3.0593
X13.6562Y-4.9802
X13.6672Y-4.7873
X13.6672Y-5.8472
X13.7852Y-5.2542
X13.8136Y-4.2909
X13.8392Y-3.0192
X13.8392Y-3.0593
X13.8392Y-3.0972
X13.8392Y-3.1342
X13.8457Y-3.769
X13.8472Y-4.9813
X13.8993Y-2.0962
X13.9023Y-4.8712
X13.9086Y-2.7909
X13.9087Y-4.5948
X13.9343Y-3.7963
X13.9492Y-4.5983
X13.9672Y-3.8262
X13.9832Y-5.0263
X13.9872Y-4.5962
X13.9942Y-3.8546
X14.0192Y-3.8813
X14.0222Y-4.5927
X14.0602Y-1.9652
X14.0602Y-2.4162
X14.0936Y-3.5409
X14.1013Y-1.9212
X14.1262Y-3.7012
X14.1393Y-3.0012
X14.1523Y-4.3462
X14.1612Y-3.7952
X14.1623Y-5.8342
X14.1772Y-4.0762
X14.1973Y-3.8213
X14.1973Y-4.1113
X14.1973Y-5.7612
X14.2282Y-3.8422
X14.2372Y-4.1312
X14.2393Y-2.8053
X14.2402Y-3.1652
X14.2483Y-3.8782
X14.253Y-4.9255
X14.2622Y-4.6113
X14.2758Y-4.1673
X14.2836Y-1.9459
X14.3022Y-5.0252
X14.323Y-2.8043
X14.3272Y-3.9412
X14.3372Y-4.8513
X14.3573Y-3.9712
X14.3722Y-4.5562
X14.3722Y-4.5962
X14.3872Y-4.0012
X14.3922Y-5.0252
X14.4042Y-3.3262
X14.4172Y-4.0312
X14.4343Y-3.2212
X14.4422Y-4.0613
X14.4772Y-5.0062
X14.4806Y-3.749
X14.4812Y-3.6193
X14.4923Y-5.7763
X14.5098Y-5.4138
X14.5183Y-4.8963
X14.5373Y-5.1712
X14.5482Y-5.4283
X14.5542Y-4.7132
X14.5612Y-5.6102
X14.5622Y-5.4612
X14.5723Y-5.1712
X14.5782Y-5.9562
X14.5789Y-5.8563
X14.6106Y-4.6211
X14.6222Y-5.2562
X14.6372Y-4.3801
X14.6472Y-5.0713
X14.6493Y-2.0962
X14.6542Y-4.1113
X14.6684Y-1.4634
X14.6723Y-5.1963
X14.6822Y-4.3801
X14.6843Y-4.1362
X14.7022Y-4.9132
X14.7022Y-5.2212
X14.7043Y-3.6162
X14.7142Y-4.1612
X14.7364Y-5.2562
X14.7442Y-4.1863
X14.7472Y-5.1013
X14.7542Y-3.6162
X14.7692Y-4.2112
X14.7992Y-3.6162
X14.8052Y-4.6963
X14.8052Y-4.7929
X14.8122Y-4.2363
X14.8142Y-3.3112
X14.8312Y-4.7398
X14.8312Y-4.8133
X14.8398Y-5.7962
X14.8398Y-4.2935
X14.8492Y-3.6162
X14.8522Y-3.5692
X14.8552Y-4.8342
X14.8573Y-4.7212
X14.8622Y-5.2263
X14.8622Y-5.2663
X14.878Y-4.7526
X14.8922Y-4.8563
X14.8942Y-3.3112
X14.8942Y-3.6162
X14.9042Y-2.8662
X14.9072Y-4.8913
X14.9105Y-5.423
X14.9123Y-4.3613
X14.9132Y-1.4112
X14.9272Y-5.0065
X14.9272Y-5.0462
X14.9322Y-5.0812
X14.9343Y-5.2612
X14.9392Y-3.6162
X14.9422Y-4.8412
X14.9573Y-5.4162
X14.9592Y-5.5462
X14.9692Y-5.2612
X14.9692Y-5.7343
X14.9692Y-5.9952
X14.9893Y-3.6162
X14.9972Y-5.4112
X15.0053Y-5.7343
X15.0072Y-5.2612
X15.0083Y-6.0192
X15.0162Y-5.0065
X15.0172Y-5.0462
X15.0262Y-5.2912
X15.0382Y-5.4062
X15.0552Y-5.9952
X15.0723Y-5.3012
X15.0886Y-5.8209
X15.1022Y-5.0853
X15.1167Y-5.3018
X15.1236Y-4.2909
X15.1286Y-1.9459
X15.1286Y-2.7909
X15.1286Y-3.5409
X15.1363Y-5.3822
X15.1523Y-5.1812
X15.1623Y-5.3473
X15.1817Y-4.5687
X15.2032Y-3.1673
X15.2344Y-4.6201
X15.2622Y-5.3862
X15.4223Y-3.7323
X15.4242Y-4.4722
X15.4343Y-5.8373
X15.4642Y-5.9502
X15.4893Y-2.0962
X15.4893Y-2.9413
X15.4923Y-3.5492
X15.4932Y-3.9932
X15.4942Y-5.1913
X15.4962Y-4.2962
X15.4962Y-4.7382
X15.528Y-1.9525
X15.528Y-2.4663
X15.5292Y-2.7963
X15.5292Y-3.2163
X15.5292Y-3.5463
X15.5292Y-3.9663
X15.5292Y-4.2962
X15.5292Y-4.7162
X15.5292Y-4.9932
X15.5793Y-4.5412
X15.5793Y-4.7612
X15.5793Y-4.9932
X15.5793Y-5.1445
X15.5793Y-5.8945
X15.5977Y-1.5008
X15.6802Y-1.5913
X15.8402Y-5.0542
X15.8436Y-5.8059
X15.8786Y-1.9459
X15.8786Y-2.7909
X15.8786Y-3.5409
X15.8786Y-4.2909
X16.2392Y-2.0962
X16.2443Y-2.9413
X16.2443Y-3.6912
X16.2542Y-4.4413
X16.2592Y-5.1913
X16.3143Y-5.8382
X16.3702Y-5.3892
X16.5122Y-5.3262
X16.5442Y-5.3533
X16.5712Y-5.3803
X16.5903Y-5.0572
X16.5936Y-5.8059
X16.6286Y-1.9459
X16.6286Y-2.7909
X16.6286Y-3.5409
X16.6286Y-4.2909
X16.6562Y-5.3262
X16.6773Y-5.7352
X16.6842Y-5.3533
X16.6962Y-5.4333
X16.7123Y-5.3803
X16.7432Y-5.5583
X16.8343Y-5.7363
X16.8453Y-5.5752
X16.9282Y-5.5842
X16.9492Y-5.9512
X16.9842Y-4.4463
X16.9892Y-2.0962
X16.9892Y-2.9413
X16.9892Y-5.1913
X16.9943Y-3.6912
X17.0143Y-5.7172
X17.0293Y-1.9512
X17.0293Y-2.4663
X17.0293Y-2.7862
X17.0293Y-3.2163
X17.0293Y-3.5513
X17.0293Y-3.9663
X17.0293Y-4.3012
X17.0293Y-4.7162
X17.0293Y-4.9982
X17.0422Y-5.8533
X17.0963Y-5.6212
X17.1432Y-5.8262
X17.1692Y-5.6312
X17.1692Y-5.7132
X17.1887Y-1.4997
X17.2072Y-5.3439
X17.2703Y-1.4083
X17.2742Y-1.5913
X17.2925Y-5.793
X17.2925Y-5.8945
X17.3492Y-5.5142
X17.3912Y-5.2932
X17.4213Y-5.0562
X17.4642Y-5.5162
X17.4686Y-1.9459
X17.4686Y-2.7909
X17.4686Y-3.5409
X17.4686Y-4.2909
X17.8083Y-5.8062
X17.8392Y-2.0962
X17.8442Y-2.9413
X17.8442Y-5.1963
X17.8492Y-4.4413
X17.8543Y-3.6912
X17.8962Y-3.1502
X18.2186Y-1.9459
X18.2186Y-2.7909
X18.2186Y-4.2909
X18.2186Y-5.0409
X18.2236Y-3.5409
X18.2712Y-5.8193
X18.5392Y-4.4863
X18.5442Y-5.8992
X18.5742Y-5.2212
X18.5843Y-2.0962
X18.5843Y-2.9413
X18.5843Y-3.6912
X18.6242Y-1.9563
X18.6242Y-2.4663
X18.6242Y-2.8013
X18.6242Y-3.2163
X18.6242Y-3.5513
X18.6242Y-3.9663
X18.6242Y-4.2962
X18.6242Y-4.715
X18.6492Y-5.2562
X18.6492Y-5.8412
X18.6908Y-1.4997
X18.7042Y-5.0512
X18.7742Y-1.5833
X18.9686Y-1.9459
X18.9686Y-2.7909
X18.9686Y-3.5409
X18.9686Y-4.2909
X18.9686Y-5.0409
X18.9704Y-5.7906
X19.1193Y-3.7512
X19.1242Y-4.5062
X19.1776Y-4.4571
X19.1792Y-3.7712
X19.2093Y-3.0012
X19.2742Y-3.0612
X19.2793Y-3.7712
X19.3092Y-4.5962
X19.3143Y-2.9562
X19.3242Y-2.0962
X19.3242Y-2.8355
X19.3242Y-3.8112
X19.3371Y-5.2412
X19.3592Y-1.9852
X19.3592Y-2.4173
X19.3592Y-5.2912
X19.3642Y-5.1463
X19.4142Y-2.8362
X19.4192Y-3.0612
X19.4243Y-5.8862
X19.4292Y-2.9562
X19.4552Y-2.3522
X19.4642Y-5.2462
X19.4692Y-3.8112
X19.4692Y-3.8762
X19.4842Y-4.5962
X19.4908Y-4.0828
X19.4943Y-1.9643
X19.5073Y-4.5012
X19.5122Y-5.2912
X19.6836Y-3.9409
X19.6852Y-5.4363
X19.6886Y-1.9623
X19.7093Y-2.2792
X19.7186Y-2.7909
X19.7892Y-3.0012
X19.8012Y-2.3733
X19.8453Y-1.5702
X19.8592Y-3.1062
X19.8693Y-2.1612
X19.8742Y-1.5112
X19.9002Y-3.0242
X19.9153Y-1.7043
X19.9742Y-1.5112
X19.9842Y-1.7722
X19.9973Y-1.7072
X20.0072Y-5.8113
X20.0332Y-2.5473
X20.0422Y-5.6042
X20.0753Y-4.0122
X20.1182Y-3.0913
X20.1632Y-1.4612
X20.2063Y-3.0922
T2
X4.4603Y-2.0242
X4.9623Y-4.5373
X5.3142Y-5.3872
X5.8442Y-1.8453
X6.0912Y-1.6823
X6.5672Y-1.5493
X6.9383Y-5.8588
X6.9722Y-5.4562
X7.0092Y-3.8893
X7.1377Y-5.8608
X7.3377Y-5.8608
X7.4262Y-4.5382
X7.5377Y-5.8608
X7.7123Y-5.9062
X9.0143Y-5.3862
X10.9172Y-5.5412
X11.3453Y-4.5412
X11.9842Y-3.2872
X12.1732Y-4.0492
X12.2122Y-4.2412
X12.3082Y-4.6922
X12.3812Y-4.8042
X12.6753Y-3.9303
X12.6822Y-4.0163
X12.7073Y-5.9413
X13.2773Y-4.2313
X13.2803Y-4.7932
X13.3022Y-4.6212
X13.4422Y-5.1712
X13.5072Y-4.8513
X13.5273Y-4.6262
X13.5772Y-4.4962
X13.7082Y-5.9573
X13.9622Y-5.2512
X14.2062Y-2.3293
X14.3722Y-2.2532
X14.4912Y-5.9093
X14.5702Y-3.8742
X14.7263Y-2.8512
X14.7332Y-2.9592
X14.8353Y-5.9242
X15.0782Y-5.9212
X15.2492Y-4.7862
X15.3673Y-5.5682
X15.6712Y-5.8353
X16.0053Y-5.5322
X16.0062Y-4.7862
X16.1713Y-5.8502
X16.6722Y-5.5242
X16.7562Y-4.7942
X16.7972Y-5.4093
X16.9103Y-5.3522
X18.2172Y-5.4212
X18.2422Y-5.3092
X19.1382Y-2.3512
X19.7242Y-5.3072
X19.9612Y-5.3782
T3
X14.5528Y-4.7634
X14.5528Y-4.8136
X14.5528Y-4.8638
X14.603Y-4.7634
X14.603Y-4.8136
X14.603Y-4.8638
X14.6532Y-4.7634
X14.6532Y-4.8136
X14.6532Y-4.8638
T5
X3.6349Y-1.7228
X3.6349Y-1.9197
X4.2058Y-1.7228
X4.2058Y-1.8213
X4.2058Y-1.9197
X19.5724Y-1.7228
X19.5724Y-1.9197
X20.1433Y-1.7228
X20.1433Y-1.8213
X20.1433Y-1.9197
T6
X3.7603Y-1.7212
X3.7605Y-2.565
X3.8542Y-5.565
X3.948Y-3.315
X4.0103Y-1.6212
X4.0105Y-2.465
X4.0417Y-4.065
X4.1042Y-5.465
X4.198Y-3.215
X4.2292Y-4.815
X4.2917Y-3.965
X4.4792Y-4.715
X4.5105Y-1.7212
X4.5105Y-2.565
X4.7605Y-1.6212
X4.7605Y-2.465
X4.7917Y-5.565
X4.8855Y-3.315
X5.0417Y-5.465
X5.073Y-4.065
X5.1355Y-3.215
X5.2605Y-1.7212
X5.2605Y-2.565
X5.323Y-3.965
X5.448Y-4.815
X5.5105Y-1.6212
X5.5105Y-2.465
X5.6355Y-3.315
X5.698Y-4.715
X5.7292Y-5.565
X5.823Y-4.065
X5.8855Y-3.215
X5.9792Y-5.465
X6.0105Y-1.7212
X6.0105Y-2.565
X6.073Y-3.965
X6.198Y-4.815
X6.2605Y-1.6212
X6.2605Y-2.465
X6.3855Y-3.315
X6.448Y-4.715
X6.573Y-4.065
X6.573Y-5.565
X6.6355Y-3.215
X6.7605Y-1.7212
X6.7605Y-2.565
X6.823Y-3.965
X6.823Y-5.465
X6.948Y-4.815
X7.0105Y-1.6212
X7.0105Y-2.465
X7.1355Y-3.315
X7.198Y-4.715
X7.323Y-4.065
X7.3855Y-3.215
X7.5105Y-1.7212
X7.5105Y-2.565
X7.573Y-3.965
X7.698Y-4.815
X7.7605Y-1.6212
X7.7605Y-2.465
X7.7917Y-5.565
X7.8855Y-3.315
X7.948Y-4.715
X8.0418Y-5.465
X8.073Y-4.065
X8.1355Y-3.215
X8.2605Y-1.7212
X8.2605Y-2.565
X8.323Y-3.965
X8.448Y-4.815
X8.5105Y-1.6212
X8.5105Y-2.465
X8.5418Y-5.565
X8.6355Y-3.315
X8.698Y-4.715
X8.7918Y-5.465
X8.823Y-4.065
X8.8855Y-3.215
X9.0105Y-1.7212
X9.0105Y-2.565
X9.073Y-3.965
X9.198Y-4.815
X9.2605Y-1.6212
X9.2605Y-2.465
X9.3855Y-3.315
X9.3855Y-5.565
X9.448Y-4.715
X9.573Y-4.065
X9.6355Y-3.215
X9.6355Y-5.465
X9.7605Y-1.7212
X9.7605Y-2.565
X9.823Y-3.965
X9.948Y-4.815
X10.0105Y-1.6212
X10.0105Y-2.465
X10.1355Y-3.315
X10.198Y-4.715
X10.323Y-4.065
X10.3855Y-3.215
X10.5105Y-1.7212
X10.5105Y-2.565
X10.5105Y-5.565
X10.573Y-3.965
X10.698Y-4.815
X10.7605Y-1.6212
X10.7605Y-2.465
X10.7605Y-5.465
X10.8855Y-3.315
X10.948Y-4.715
X11.073Y-4.065
X11.1355Y-3.215
X11.2605Y-1.7212
X11.2605Y-2.565
X11.323Y-3.965
X11.3543Y-5.565
X11.448Y-4.815
X11.5105Y-1.6212
X11.5105Y-2.465
X11.6043Y-5.465
X11.6355Y-3.315
X11.698Y-4.715
X11.823Y-4.065
X11.8855Y-3.215
X12.0105Y-1.7212
X12.0105Y-2.565
X12.073Y-3.965
X12.198Y-4.815
X12.2605Y-1.6212
X12.2605Y-2.465
X12.2918Y-5.565
X12.3855Y-3.315
X12.448Y-4.715
X12.5418Y-5.465
X12.573Y-4.065
X12.6355Y-3.215
X12.7605Y-1.7212
X12.7605Y-2.565
X12.823Y-3.965
X13.0105Y-1.6212
X13.0105Y-2.465
X13.1355Y-3.315
X13.2293Y-5.565
X13.3855Y-3.215
X13.4793Y-5.465
X13.5105Y-1.7212
X13.6043Y-4.815
X13.7605Y-1.6212
X13.7918Y-4.065
X13.8543Y-4.715
X13.8855Y-2.565
X14.0418Y-3.965
X14.073Y-3.315
X14.1355Y-2.465
X14.1668Y-5.565
X14.2605Y-1.7212
X14.323Y-3.215
X14.4168Y-5.465
X14.5105Y-1.6212
X15.1043Y-1.7212
X15.1043Y-2.565
X15.1043Y-3.315
X15.1043Y-4.065
X15.1043Y-4.815
X15.1043Y-5.565
X15.3543Y-1.6212
X15.3543Y-2.465
X15.3543Y-3.215
X15.3543Y-3.965
X15.3543Y-4.715
X15.3543Y-5.465
X15.8543Y-1.7212
X15.8543Y-2.565
X15.8543Y-3.315
X15.8543Y-4.065
X15.8543Y-4.815
X15.8543Y-5.565
X16.1043Y-1.6212
X16.1043Y-2.465
X16.1043Y-3.215
X16.1043Y-3.965
X16.1043Y-4.715
X16.1043Y-5.465
X16.6043Y-1.7212
X16.6043Y-2.565
X16.6043Y-3.315
X16.6043Y-4.065
X16.6043Y-4.815
X16.6043Y-5.565
X16.8543Y-1.6212
X16.8543Y-2.465
X16.8543Y-3.215
X16.8543Y-3.965
X16.8543Y-4.715
X16.8543Y-5.465
X17.448Y-1.7212
X17.448Y-2.565
X17.448Y-3.315
X17.448Y-4.065
X17.448Y-4.815
X17.698Y-1.6212
X17.698Y-2.465
X17.698Y-3.215
X17.698Y-3.965
X17.698Y-4.715
X17.823Y-5.565
X18.073Y-5.465
X18.198Y-1.7212
X18.198Y-2.565
X18.198Y-3.315
X18.198Y-4.065
X18.198Y-4.815
X18.448Y-1.6212
X18.448Y-2.465
X18.448Y-3.215
X18.448Y-3.965
X18.448Y-4.715
X18.948Y-1.7212
X18.948Y-2.565
X18.948Y-3.315
X18.948Y-4.065
X18.948Y-4.815
X18.948Y-5.565
X19.198Y-1.6212
X19.198Y-2.465
X19.198Y-3.215
X19.198Y-3.965
X19.198Y-4.715
X19.198Y-5.465
X19.698Y-1.7212
X19.698Y-2.565
X19.698Y-3.69
X19.698Y-5.19
X19.948Y-1.6212
X19.948Y-2.465
X19.948Y-3.59
X19.948Y-5.09
T4
G00X4.8691Y-1.4392
M15
G01X4.8691Y-1.4707
M16
G05
G00X4.8691Y-1.5978
M15
G01X4.8691Y-1.6411
M16
G05
G00X5.2092Y-1.4392
M15
G01X5.2092Y-1.4707
M16
G05
G00X5.2092Y-1.5978
M15
G01X5.2092Y-1.6411
M16
G05
T0
M30
