%TF.GenerationSoftware,KiCad,Pcbnew,7.0.2*%
%TF.CreationDate,2023-05-17T23:03:47-05:00*%
%TF.ProjectId,Touch_Keyboard_10x12_Matrix,546f7563-685f-44b6-9579-626f6172645f,rev?*%
%TF.SameCoordinates,Original*%
%TF.FileFunction,Soldermask,Top*%
%TF.FilePolarity,Negative*%
%FSLAX46Y46*%
G04 Gerber Fmt 4.6, Leading zero omitted, Abs format (unit mm)*
G04 Created by KiCad (PCBNEW 7.0.2) date 2023-05-17 23:03:47*
%MOMM*%
%LPD*%
G01*
G04 APERTURE LIST*
%ADD10C,1.750000*%
%ADD11C,3.987800*%
%ADD12C,3.048000*%
%ADD13C,2.200000*%
%ADD14C,1.400000*%
%ADD15R,2.000000X2.000000*%
%ADD16C,2.000000*%
%ADD17C,0.800000*%
%ADD18O,1.000000X1.800000*%
%ADD19O,1.000000X2.100000*%
G04 APERTURE END LIST*
D10*
X254476250Y-211931250D03*
D11*
X259556250Y-211931250D03*
D10*
X264636250Y-211931250D03*
X264001250Y-192881250D03*
D11*
X269081250Y-192881250D03*
D10*
X274161250Y-192881250D03*
X354488750Y-135731250D03*
D11*
X359568750Y-135731250D03*
D10*
X364648750Y-135731250D03*
X490220000Y-192881250D03*
D11*
X495300000Y-192881250D03*
D10*
X500380000Y-192881250D03*
X387826250Y-173831250D03*
D11*
X392906250Y-173831250D03*
D10*
X397986250Y-173831250D03*
X423545000Y-211931250D03*
D11*
X428625000Y-211931250D03*
D10*
X433705000Y-211931250D03*
X490220000Y-154781250D03*
D11*
X495300000Y-154781250D03*
D10*
X500380000Y-154781250D03*
X230663750Y-154781250D03*
D11*
X235743750Y-154781250D03*
D10*
X240823750Y-154781250D03*
X285432500Y-211931250D03*
D11*
X290512500Y-211931250D03*
D10*
X295592500Y-211931250D03*
X185420000Y-211931250D03*
D11*
X190500000Y-211931250D03*
D10*
X195580000Y-211931250D03*
X240188750Y-135731250D03*
D11*
X245268750Y-135731250D03*
D10*
X250348750Y-135731250D03*
X411638750Y-114300000D03*
D11*
X416718750Y-114300000D03*
D10*
X421798750Y-114300000D03*
X349726250Y-173831250D03*
D11*
X354806250Y-173831250D03*
D10*
X359886250Y-173831250D03*
X490220000Y-135731250D03*
D11*
X495300000Y-135731250D03*
D10*
X500380000Y-135731250D03*
X202088750Y-135731250D03*
D11*
X207168750Y-135731250D03*
D10*
X212248750Y-135731250D03*
X373538750Y-114300000D03*
D11*
X378618750Y-114300000D03*
D10*
X383698750Y-114300000D03*
X364013750Y-154781250D03*
D11*
X369093750Y-154781250D03*
D10*
X374173750Y-154781250D03*
X509270000Y-211931250D03*
D11*
X514350000Y-211931250D03*
D10*
X519430000Y-211931250D03*
X221138750Y-114300000D03*
D11*
X226218750Y-114300000D03*
D10*
X231298750Y-114300000D03*
X509270000Y-114300000D03*
D11*
X514350000Y-114300000D03*
D10*
X519430000Y-114300000D03*
X490220000Y-173831250D03*
D11*
X495300000Y-173831250D03*
D10*
X500380000Y-173831250D03*
X568801250Y-135731250D03*
D11*
X573881250Y-135731250D03*
D10*
X578961250Y-135731250D03*
X235426250Y-173831250D03*
D11*
X240506250Y-173831250D03*
D10*
X245586250Y-173831250D03*
X587851250Y-164306250D03*
D11*
X592931250Y-164306250D03*
D10*
X598011250Y-164306250D03*
X202088750Y-114300000D03*
D11*
X207168750Y-114300000D03*
D10*
X212248750Y-114300000D03*
D12*
X454818750Y-180816250D03*
D11*
X454818750Y-165576250D03*
D12*
X431006250Y-180816250D03*
D11*
X431006250Y-165576250D03*
D10*
X330676250Y-173831250D03*
D11*
X335756250Y-173831250D03*
D10*
X340836250Y-173831250D03*
X283051250Y-192881250D03*
D11*
X288131250Y-192881250D03*
D10*
X293211250Y-192881250D03*
X430688750Y-114300000D03*
D11*
X435768750Y-114300000D03*
D10*
X440848750Y-114300000D03*
X383063750Y-154781250D03*
D11*
X388143750Y-154781250D03*
D10*
X393223750Y-154781250D03*
X316388750Y-114300000D03*
D11*
X321468750Y-114300000D03*
D10*
X326548750Y-114300000D03*
D12*
X211931250Y-199866250D03*
D11*
X211931250Y-184626250D03*
D12*
X188118750Y-199866250D03*
D11*
X188118750Y-184626250D03*
D10*
X471170000Y-114300000D03*
D11*
X476250000Y-114300000D03*
D10*
X481330000Y-114300000D03*
X444976250Y-154781250D03*
D11*
X450056250Y-154781250D03*
D10*
X455136250Y-154781250D03*
X311626250Y-173831250D03*
D11*
X316706250Y-173831250D03*
D10*
X321786250Y-173831250D03*
X254476250Y-173831250D03*
D11*
X259556250Y-173831250D03*
D10*
X264636250Y-173831250D03*
X568801250Y-154781250D03*
D11*
X573881250Y-154781250D03*
D10*
X578961250Y-154781250D03*
X471170000Y-135731250D03*
D11*
X476250000Y-135731250D03*
D10*
X481330000Y-135731250D03*
X471170000Y-211931250D03*
D11*
X476250000Y-211931250D03*
D10*
X481330000Y-211931250D03*
X568801250Y-211931250D03*
D11*
X573881250Y-211931250D03*
D10*
X578961250Y-211931250D03*
X471170000Y-173831250D03*
D11*
X476250000Y-173831250D03*
D10*
X481330000Y-173831250D03*
X568801250Y-192881250D03*
D11*
X573881250Y-192881250D03*
D10*
X578961250Y-192881250D03*
D12*
X457212700Y-142716250D03*
D11*
X457212700Y-127476250D03*
D12*
X433400200Y-142716250D03*
D11*
X433400200Y-127476250D03*
D10*
X449738750Y-114300000D03*
D11*
X454818750Y-114300000D03*
D10*
X459898750Y-114300000D03*
X211613750Y-154781250D03*
D11*
X216693750Y-154781250D03*
D10*
X221773750Y-154781250D03*
X259238750Y-135731250D03*
D11*
X264318750Y-135731250D03*
D10*
X269398750Y-135731250D03*
X471170000Y-192881250D03*
D11*
X476250000Y-192881250D03*
D10*
X481330000Y-192881250D03*
X406876250Y-173831250D03*
D11*
X411956250Y-173831250D03*
D10*
X417036250Y-173831250D03*
X411638750Y-135731250D03*
D11*
X416718750Y-135731250D03*
D10*
X421798750Y-135731250D03*
X549751250Y-154781250D03*
D11*
X554831250Y-154781250D03*
D10*
X559911250Y-154781250D03*
X530701250Y-135731250D03*
D11*
X535781250Y-135731250D03*
D10*
X540861250Y-135731250D03*
X306863750Y-154781250D03*
D11*
X311943750Y-154781250D03*
D10*
X317023750Y-154781250D03*
X399732500Y-211931250D03*
D11*
X404812500Y-211931250D03*
D10*
X409892500Y-211931250D03*
X378301250Y-192881250D03*
D11*
X383381250Y-192881250D03*
D10*
X388461250Y-192881250D03*
X259238750Y-114300000D03*
D11*
X264318750Y-114300000D03*
D10*
X269398750Y-114300000D03*
D12*
X599916250Y-190500000D03*
D11*
X584676250Y-190500000D03*
D12*
X599916250Y-214312500D03*
D11*
X584676250Y-214312500D03*
D10*
X287813750Y-154781250D03*
D11*
X292893750Y-154781250D03*
D10*
X297973750Y-154781250D03*
X321151250Y-192881250D03*
D11*
X326231250Y-192881250D03*
D10*
X331311250Y-192881250D03*
D12*
X599916250Y-152400000D03*
D11*
X584676250Y-152400000D03*
D12*
X599916250Y-176212500D03*
D11*
X584676250Y-176212500D03*
D10*
X397351250Y-192881250D03*
D11*
X402431250Y-192881250D03*
D10*
X407511250Y-192881250D03*
X490220000Y-114300000D03*
D11*
X495300000Y-114300000D03*
D10*
X500380000Y-114300000D03*
X304482500Y-211931250D03*
D11*
X309562500Y-211931250D03*
D10*
X314642500Y-211931250D03*
X433070000Y-192881250D03*
D11*
X438150000Y-192881250D03*
D10*
X443230000Y-192881250D03*
X587851250Y-114300000D03*
D11*
X592931250Y-114300000D03*
D10*
X598011250Y-114300000D03*
D12*
X557212500Y-218916250D03*
D11*
X557212500Y-203676250D03*
D12*
X533400000Y-218916250D03*
D11*
X533400000Y-203676250D03*
D10*
X530701250Y-192881250D03*
D11*
X535781250Y-192881250D03*
D10*
X540861250Y-192881250D03*
X249713750Y-154781250D03*
D11*
X254793750Y-154781250D03*
D10*
X259873750Y-154781250D03*
X233045000Y-211931250D03*
D11*
X238125000Y-211931250D03*
D10*
X243205000Y-211931250D03*
X302101250Y-192881250D03*
D11*
X307181250Y-192881250D03*
D10*
X312261250Y-192881250D03*
X340201250Y-192881250D03*
D11*
X345281250Y-192881250D03*
D10*
X350361250Y-192881250D03*
X278288750Y-114300000D03*
D11*
X283368750Y-114300000D03*
D10*
X288448750Y-114300000D03*
X530701250Y-154781250D03*
D11*
X535781250Y-154781250D03*
D10*
X540861250Y-154781250D03*
X509270000Y-154781250D03*
D11*
X514350000Y-154781250D03*
D10*
X519430000Y-154781250D03*
X268763750Y-154781250D03*
D11*
X273843750Y-154781250D03*
D10*
X278923750Y-154781250D03*
X325913750Y-211931250D03*
D11*
X330993750Y-211931250D03*
D10*
X336073750Y-211931250D03*
X335438750Y-114300000D03*
D11*
X340518750Y-114300000D03*
D10*
X345598750Y-114300000D03*
X509270000Y-192881250D03*
D11*
X514350000Y-192881250D03*
D10*
X519430000Y-192881250D03*
X292576250Y-173831250D03*
D11*
X297656250Y-173831250D03*
D10*
X302736250Y-173831250D03*
X240188750Y-114300000D03*
D11*
X245268750Y-114300000D03*
D10*
X250348750Y-114300000D03*
X354488750Y-114300000D03*
D11*
X359568750Y-114300000D03*
D10*
X364648750Y-114300000D03*
X587851250Y-202406250D03*
D11*
X592931250Y-202406250D03*
D10*
X598011250Y-202406250D03*
X221138750Y-135731250D03*
D11*
X226218750Y-135731250D03*
D10*
X231298750Y-135731250D03*
X297338750Y-135731250D03*
D11*
X302418750Y-135731250D03*
D10*
X307498750Y-135731250D03*
X375920000Y-211931250D03*
D11*
X381000000Y-211931250D03*
D10*
X386080000Y-211931250D03*
X183032400Y-114300000D03*
D11*
X188112400Y-114300000D03*
D10*
X193192400Y-114300000D03*
X194945000Y-192881250D03*
D11*
X200025000Y-192881250D03*
D10*
X205105000Y-192881250D03*
X183038750Y-135731250D03*
D11*
X188118750Y-135731250D03*
D10*
X193198750Y-135731250D03*
X209232500Y-211931250D03*
D11*
X214312500Y-211931250D03*
D10*
X219392500Y-211931250D03*
X392588750Y-135731250D03*
D11*
X397668750Y-135731250D03*
D10*
X402748750Y-135731250D03*
X540226250Y-211931250D03*
D11*
X545306250Y-211931250D03*
D10*
X550386250Y-211931250D03*
X373538750Y-135731250D03*
D11*
X378618750Y-135731250D03*
D10*
X383698750Y-135731250D03*
X549751250Y-192881250D03*
D11*
X554831250Y-192881250D03*
D10*
X559911250Y-192881250D03*
X335438750Y-135731250D03*
D11*
X340518750Y-135731250D03*
D10*
X345598750Y-135731250D03*
X278288750Y-135731250D03*
D11*
X283368750Y-135731250D03*
D10*
X288448750Y-135731250D03*
X187801250Y-154781250D03*
D11*
X192881250Y-154781250D03*
D10*
X197961250Y-154781250D03*
X549751250Y-173831250D03*
D11*
X554831250Y-173831250D03*
D10*
X559911250Y-173831250D03*
X549751250Y-114300000D03*
D11*
X554831250Y-114300000D03*
D10*
X559911250Y-114300000D03*
X509270000Y-135731250D03*
D11*
X514350000Y-135731250D03*
D10*
X519430000Y-135731250D03*
X549751250Y-135731250D03*
D11*
X554831250Y-135731250D03*
D10*
X559911250Y-135731250D03*
X225901250Y-192881250D03*
D11*
X230981250Y-192881250D03*
D10*
X236061250Y-192881250D03*
X368776250Y-173831250D03*
D11*
X373856250Y-173831250D03*
D10*
X378936250Y-173831250D03*
X297338750Y-114300000D03*
D11*
X302418750Y-114300000D03*
D10*
X307498750Y-114300000D03*
X190182500Y-173831250D03*
D11*
X195262500Y-173831250D03*
D10*
X200342500Y-173831250D03*
X568801250Y-114300000D03*
D11*
X573881250Y-114300000D03*
D10*
X578961250Y-114300000D03*
X421163750Y-154781250D03*
D11*
X426243750Y-154781250D03*
D10*
X431323750Y-154781250D03*
X587851250Y-135731250D03*
D11*
X592931250Y-135731250D03*
D10*
X598011250Y-135731250D03*
X490220000Y-211931250D03*
D11*
X495300000Y-211931250D03*
D10*
X500380000Y-211931250D03*
X216376250Y-173831250D03*
D11*
X221456250Y-173831250D03*
D10*
X226536250Y-173831250D03*
X325913750Y-154781250D03*
D11*
X330993750Y-154781250D03*
D10*
X336073750Y-154781250D03*
X568801250Y-173831250D03*
D11*
X573881250Y-173831250D03*
D10*
X578961250Y-173831250D03*
X530701250Y-114300000D03*
D11*
X535781250Y-114300000D03*
D10*
X540861250Y-114300000D03*
X364648750Y-211931250D03*
D11*
X359568750Y-211931250D03*
D10*
X354488750Y-211931250D03*
X440213750Y-135731250D03*
D11*
X445293750Y-135731250D03*
D10*
X450373750Y-135731250D03*
X344963750Y-154781250D03*
D11*
X350043750Y-154781250D03*
D10*
X355123750Y-154781250D03*
X392588750Y-114300000D03*
D11*
X397668750Y-114300000D03*
D10*
X402748750Y-114300000D03*
X244951250Y-192881250D03*
D11*
X250031250Y-192881250D03*
D10*
X255111250Y-192881250D03*
X437832500Y-173831250D03*
D11*
X442912500Y-173831250D03*
D10*
X447992500Y-173831250D03*
X316388750Y-135731250D03*
D11*
X321468750Y-135731250D03*
D10*
X326548750Y-135731250D03*
X509270000Y-173831250D03*
D11*
X514350000Y-173831250D03*
D10*
X519430000Y-173831250D03*
X530701250Y-173831250D03*
D11*
X535781250Y-173831250D03*
D10*
X540861250Y-173831250D03*
X273526250Y-173831250D03*
D11*
X278606250Y-173831250D03*
D10*
X283686250Y-173831250D03*
X359251250Y-192881250D03*
D11*
X364331250Y-192881250D03*
D10*
X369411250Y-192881250D03*
X402113750Y-154781250D03*
D11*
X407193750Y-154781250D03*
D10*
X412273750Y-154781250D03*
X471170000Y-154781250D03*
D11*
X476250000Y-154781250D03*
D10*
X481330000Y-154781250D03*
X447357500Y-211931250D03*
D11*
X452437500Y-211931250D03*
D10*
X457517500Y-211931250D03*
D13*
X426224700Y-116681250D03*
X583361800Y-207467200D03*
X383362200Y-173831250D03*
X545287200Y-154781250D03*
X320217800Y-211931250D03*
D14*
X365429800Y-111099600D03*
D15*
X195618750Y-111800000D03*
D16*
X195618750Y-116800000D03*
X195618750Y-114300000D03*
X181118750Y-116800000D03*
X181118750Y-111800000D03*
D13*
X269062200Y-173831250D03*
X197624700Y-135731250D03*
D17*
X458851000Y-149860000D03*
D13*
X350024700Y-135731250D03*
X485775000Y-154781250D03*
X180955950Y-192881250D03*
D14*
X591083400Y-214376000D03*
D13*
X583412600Y-135731250D03*
D14*
X180955950Y-214312500D03*
D13*
X273824700Y-116681250D03*
X416699700Y-211931250D03*
D18*
X212467000Y-104995400D03*
D19*
X212467000Y-109175400D03*
D18*
X221107000Y-104995400D03*
D19*
X221107000Y-109175400D03*
D15*
X600431250Y-111800000D03*
D16*
X600431250Y-116800000D03*
X600431250Y-114300000D03*
X585931250Y-116800000D03*
X585931250Y-111800000D03*
D13*
X248869200Y-211931250D03*
X504805950Y-211931250D03*
M02*
