%TF.GenerationSoftware,KiCad,Pcbnew,7.0.2*%
%TF.CreationDate,2023-05-18T15:06:11-05:00*%
%TF.ProjectId,Touch_Keyboard_10x12_Matrix,546f7563-685f-44b6-9579-626f6172645f,rev?*%
%TF.SameCoordinates,Original*%
%TF.FileFunction,Paste,Bot*%
%TF.FilePolarity,Positive*%
%FSLAX46Y46*%
G04 Gerber Fmt 4.6, Leading zero omitted, Abs format (unit mm)*
G04 Created by KiCad (PCBNEW 7.0.2) date 2023-05-18 15:06:11*
%MOMM*%
%LPD*%
G01*
G04 APERTURE LIST*
G04 Aperture macros list*
%AMRoundRect*
0 Rectangle with rounded corners*
0 $1 Rounding radius*
0 $2 $3 $4 $5 $6 $7 $8 $9 X,Y pos of 4 corners*
0 Add a 4 corners polygon primitive as box body*
4,1,4,$2,$3,$4,$5,$6,$7,$8,$9,$2,$3,0*
0 Add four circle primitives for the rounded corners*
1,1,$1+$1,$2,$3*
1,1,$1+$1,$4,$5*
1,1,$1+$1,$6,$7*
1,1,$1+$1,$8,$9*
0 Add four rect primitives between the rounded corners*
20,1,$1+$1,$2,$3,$4,$5,0*
20,1,$1+$1,$4,$5,$6,$7,0*
20,1,$1+$1,$6,$7,$8,$9,0*
20,1,$1+$1,$8,$9,$2,$3,0*%
G04 Aperture macros list end*
%ADD10R,2.100000X5.600000*%
%ADD11R,1.700000X0.820000*%
%ADD12RoundRect,0.205000X0.645000X0.205000X-0.645000X0.205000X-0.645000X-0.205000X0.645000X-0.205000X0*%
%ADD13RoundRect,0.150000X0.650000X0.150000X-0.650000X0.150000X-0.650000X-0.150000X0.650000X-0.150000X0*%
%ADD14RoundRect,0.140000X0.140000X0.170000X-0.140000X0.170000X-0.140000X-0.170000X0.140000X-0.170000X0*%
%ADD15RoundRect,0.225000X-0.375000X0.225000X-0.375000X-0.225000X0.375000X-0.225000X0.375000X0.225000X0*%
%ADD16RoundRect,0.140000X0.170000X-0.140000X0.170000X0.140000X-0.170000X0.140000X-0.170000X-0.140000X0*%
%ADD17RoundRect,0.140000X-0.140000X-0.170000X0.140000X-0.170000X0.140000X0.170000X-0.140000X0.170000X0*%
%ADD18RoundRect,0.150000X0.512500X0.150000X-0.512500X0.150000X-0.512500X-0.150000X0.512500X-0.150000X0*%
%ADD19RoundRect,0.225000X0.225000X0.375000X-0.225000X0.375000X-0.225000X-0.375000X0.225000X-0.375000X0*%
%ADD20RoundRect,0.250000X0.262500X0.450000X-0.262500X0.450000X-0.262500X-0.450000X0.262500X-0.450000X0*%
%ADD21RoundRect,0.150000X0.825000X0.150000X-0.825000X0.150000X-0.825000X-0.150000X0.825000X-0.150000X0*%
%ADD22RoundRect,0.140000X-0.170000X0.140000X-0.170000X-0.140000X0.170000X-0.140000X0.170000X0.140000X0*%
%ADD23RoundRect,0.225000X-0.225000X-0.375000X0.225000X-0.375000X0.225000X0.375000X-0.225000X0.375000X0*%
%ADD24RoundRect,0.200000X-0.275000X0.200000X-0.275000X-0.200000X0.275000X-0.200000X0.275000X0.200000X0*%
%ADD25RoundRect,0.250000X0.292217X0.292217X-0.292217X0.292217X-0.292217X-0.292217X0.292217X-0.292217X0*%
%ADD26RoundRect,0.050000X0.387500X0.050000X-0.387500X0.050000X-0.387500X-0.050000X0.387500X-0.050000X0*%
%ADD27RoundRect,0.050000X0.050000X0.387500X-0.050000X0.387500X-0.050000X-0.387500X0.050000X-0.387500X0*%
%ADD28R,1.500000X2.000000*%
%ADD29R,3.800000X2.000000*%
%ADD30R,0.900000X1.700000*%
%ADD31RoundRect,0.225000X0.375000X-0.225000X0.375000X0.225000X-0.375000X0.225000X-0.375000X-0.225000X0*%
%ADD32RoundRect,0.200000X0.275000X-0.200000X0.275000X0.200000X-0.275000X0.200000X-0.275000X-0.200000X0*%
%ADD33RoundRect,0.150000X-0.150000X-0.625000X0.150000X-0.625000X0.150000X0.625000X-0.150000X0.625000X0*%
%ADD34RoundRect,0.250000X-0.350000X-0.650000X0.350000X-0.650000X0.350000X0.650000X-0.350000X0.650000X0*%
%ADD35R,0.600000X1.150000*%
%ADD36R,0.300000X1.150000*%
G04 APERTURE END LIST*
D10*
X326701150Y-129603350D03*
X326701150Y-120603350D03*
D11*
X216176700Y-52089750D03*
X216176700Y-50589750D03*
D12*
X211076700Y-50589750D03*
D11*
X211076700Y-52089750D03*
D13*
X377595950Y-85756750D03*
X377595950Y-87026750D03*
X377595950Y-88296750D03*
X377595950Y-89566750D03*
X370395950Y-89566750D03*
X370395950Y-88296750D03*
X370395950Y-87026750D03*
X370395950Y-85756750D03*
D14*
X451790950Y-131730750D03*
X450830950Y-131730750D03*
X332791950Y-53117750D03*
X331831950Y-53117750D03*
D15*
X438734200Y-60579000D03*
X438734200Y-63879000D03*
D14*
X430454950Y-53117750D03*
X429494950Y-53117750D03*
D15*
X417322000Y-41612550D03*
X417322000Y-44912550D03*
D16*
X372929150Y-113193750D03*
X372929150Y-112233750D03*
D11*
X428107950Y-73521000D03*
X428107950Y-72021000D03*
D12*
X423007950Y-72021000D03*
D11*
X423007950Y-73521000D03*
D15*
X291096700Y-79629000D03*
X291096700Y-82929000D03*
D11*
X311426700Y-52089750D03*
X311426700Y-50589750D03*
D12*
X306326700Y-50589750D03*
D11*
X306326700Y-52089750D03*
D15*
X193465450Y-136779000D03*
X193465450Y-140079000D03*
D17*
X189210650Y-150084750D03*
X190170650Y-150084750D03*
D11*
X197126700Y-73521000D03*
X197126700Y-72021000D03*
D12*
X192026700Y-72021000D03*
D11*
X192026700Y-73521000D03*
D15*
X305384200Y-117729000D03*
X305384200Y-121029000D03*
D18*
X184958150Y-146848750D03*
X184958150Y-147798750D03*
X184958150Y-148748750D03*
X182683150Y-148748750D03*
X182683150Y-147798750D03*
X182683150Y-146848750D03*
D11*
X201889200Y-130671000D03*
X201889200Y-129171000D03*
D12*
X196789200Y-129171000D03*
D11*
X196789200Y-130671000D03*
D14*
X237569950Y-53117750D03*
X236609950Y-53117750D03*
D11*
X366195450Y-149721000D03*
X366195450Y-148221000D03*
D12*
X361095450Y-148221000D03*
D11*
X361095450Y-149721000D03*
X390007950Y-149721000D03*
X390007950Y-148221000D03*
D12*
X384907950Y-148221000D03*
D11*
X384907950Y-149721000D03*
D15*
X379202950Y-60581000D03*
X379202950Y-63881000D03*
D11*
X506689200Y-140196000D03*
X506689200Y-138696000D03*
D12*
X501589200Y-138696000D03*
D11*
X501589200Y-140196000D03*
D19*
X107421950Y-41027350D03*
X104121950Y-41027350D03*
D11*
X135214200Y-111621000D03*
X135214200Y-110121000D03*
D12*
X130114200Y-110121000D03*
D11*
X130114200Y-111621000D03*
D17*
X178740650Y-150084750D03*
X179700650Y-150084750D03*
D11*
X368576700Y-52089750D03*
X368576700Y-50589750D03*
D12*
X363476700Y-50589750D03*
D11*
X363476700Y-52089750D03*
X301901700Y-92571000D03*
X301901700Y-91071000D03*
D12*
X296801700Y-91071000D03*
D11*
X296801700Y-92571000D03*
D15*
X148240750Y-41612550D03*
X148240750Y-44912550D03*
D14*
X227361750Y-148189950D03*
X226401750Y-148189950D03*
D15*
X300640750Y-41612550D03*
X300640750Y-44912550D03*
D11*
X204270450Y-149721000D03*
X204270450Y-148221000D03*
D12*
X199170450Y-148221000D03*
D11*
X199170450Y-149721000D03*
D15*
X214896700Y-79629000D03*
X214896700Y-82929000D03*
D11*
X297139200Y-130671000D03*
X297139200Y-129171000D03*
D12*
X292039200Y-129171000D03*
D11*
X292039200Y-130671000D03*
X468589200Y-92571000D03*
X468589200Y-91071000D03*
D12*
X463489200Y-91071000D03*
D11*
X463489200Y-92571000D03*
D14*
X392410950Y-131730750D03*
X391450950Y-131730750D03*
D15*
X224421700Y-60579000D03*
X224421700Y-63879000D03*
D20*
X294339650Y-114204750D03*
X292514650Y-114204750D03*
D17*
X375751150Y-131730750D03*
X376711150Y-131730750D03*
D11*
X356670450Y-111621000D03*
X356670450Y-110121000D03*
D12*
X351570450Y-110121000D03*
D11*
X351570450Y-111621000D03*
D18*
X174798150Y-146848750D03*
X174798150Y-147798750D03*
X174798150Y-148748750D03*
X172523150Y-148748750D03*
X172523150Y-147798750D03*
X172523150Y-146848750D03*
D14*
X430355950Y-112680750D03*
X429395950Y-112680750D03*
X161369950Y-53117750D03*
X160409950Y-53117750D03*
D15*
X398252950Y-136779000D03*
X398252950Y-140079000D03*
D11*
X230464200Y-111621000D03*
X230464200Y-110121000D03*
D12*
X225364200Y-110121000D03*
D11*
X225364200Y-111621000D03*
X168551700Y-92571000D03*
X168551700Y-91071000D03*
D12*
X163451700Y-91071000D03*
D11*
X163451700Y-92571000D03*
X206651700Y-92571000D03*
X206651700Y-91071000D03*
D12*
X201551700Y-91071000D03*
D11*
X201551700Y-92571000D03*
D15*
X148221700Y-60522000D03*
X148221700Y-63822000D03*
D14*
X392382950Y-112680750D03*
X391422950Y-112680750D03*
D11*
X159026700Y-52089750D03*
X159026700Y-50589750D03*
D12*
X153926700Y-50589750D03*
D11*
X153926700Y-52089750D03*
D15*
X262521700Y-136779000D03*
X262521700Y-140079000D03*
D11*
X187601700Y-92571000D03*
X187601700Y-91071000D03*
D12*
X182501700Y-91071000D03*
D11*
X182501700Y-92571000D03*
X197126700Y-52089750D03*
X197126700Y-50589750D03*
D12*
X192026700Y-50589750D03*
D11*
X192026700Y-52089750D03*
X139976700Y-73521000D03*
X139976700Y-72021000D03*
D12*
X134876700Y-72021000D03*
D11*
X134876700Y-73521000D03*
D21*
X188613650Y-139251750D03*
X188613650Y-140521750D03*
X188613650Y-141791750D03*
X188613650Y-143061750D03*
X183663650Y-143061750D03*
X183663650Y-141791750D03*
X183663650Y-140521750D03*
X183663650Y-139251750D03*
D15*
X229184200Y-117729000D03*
X229184200Y-121029000D03*
D22*
X428732950Y-140930150D03*
X428732950Y-141890150D03*
D15*
X93452950Y-136779000D03*
X93452950Y-140079000D03*
D14*
X470840950Y-131730750D03*
X469880950Y-131730750D03*
D11*
X449539200Y-92571000D03*
X449539200Y-91071000D03*
D12*
X444439200Y-91071000D03*
D11*
X444439200Y-92571000D03*
D15*
X398272000Y-41612550D03*
X398272000Y-44912550D03*
X141077950Y-136779000D03*
X141077950Y-140079000D03*
X172034200Y-117729000D03*
X172034200Y-121029000D03*
D23*
X474555550Y-48088550D03*
X477855550Y-48088550D03*
D11*
X273326700Y-73521000D03*
X273326700Y-72021000D03*
D12*
X268226700Y-72021000D03*
D11*
X268226700Y-73521000D03*
D15*
X262540750Y-41593550D03*
X262540750Y-44893550D03*
X495884200Y-89154000D03*
X495884200Y-92454000D03*
X476834200Y-79617000D03*
X476834200Y-82917000D03*
D19*
X256342150Y-143795750D03*
X253042150Y-143795750D03*
D15*
X348246700Y-60579000D03*
X348246700Y-63879000D03*
D11*
X459064200Y-149721000D03*
X459064200Y-148221000D03*
D12*
X453964200Y-148221000D03*
D11*
X453964200Y-149721000D03*
D14*
X196675950Y-112680750D03*
X195715950Y-112680750D03*
X156543950Y-112680750D03*
X155583950Y-112680750D03*
D11*
X294757950Y-149721000D03*
X294757950Y-148221000D03*
D12*
X289657950Y-148221000D03*
D11*
X289657950Y-149721000D03*
X113782950Y-130671000D03*
X113782950Y-129171000D03*
D12*
X108682950Y-129171000D03*
D11*
X108682950Y-130671000D03*
X220939200Y-130671000D03*
X220939200Y-129171000D03*
D12*
X215839200Y-129171000D03*
D11*
X215839200Y-130671000D03*
D15*
X495884200Y-127254000D03*
X495884200Y-130554000D03*
D22*
X178710650Y-139942750D03*
X178710650Y-140902750D03*
D14*
X108890950Y-93630750D03*
X107930950Y-93630750D03*
D11*
X263801700Y-92571000D03*
X263801700Y-91071000D03*
D12*
X258701700Y-91071000D03*
D11*
X258701700Y-92571000D03*
D15*
X438753250Y-41612550D03*
X438753250Y-44912550D03*
D14*
X411460950Y-131730750D03*
X410500950Y-131730750D03*
D17*
X375751150Y-133762750D03*
X376711150Y-133762750D03*
D14*
X142291950Y-53117750D03*
X141331950Y-53117750D03*
D11*
X182839200Y-130671000D03*
X182839200Y-129171000D03*
D12*
X177739200Y-129171000D03*
D11*
X177739200Y-130671000D03*
D14*
X228044950Y-93630750D03*
X227084950Y-93630750D03*
D15*
X152984200Y-117729000D03*
X152984200Y-121029000D03*
X129171700Y-60579000D03*
X129171700Y-63879000D03*
D14*
X508841950Y-103155750D03*
X507881950Y-103155750D03*
D11*
X468589200Y-130671000D03*
X468589200Y-129171000D03*
D12*
X463489200Y-129171000D03*
D11*
X463489200Y-130671000D03*
D15*
X210134200Y-117729000D03*
X210134200Y-121029000D03*
X286334200Y-117729000D03*
X286334200Y-121029000D03*
D14*
X170894950Y-93630750D03*
X169934950Y-93630750D03*
X107341550Y-148210900D03*
X106381550Y-148210900D03*
D17*
X350958150Y-133432550D03*
X351918150Y-133432550D03*
D14*
X111331950Y-112680750D03*
X110371950Y-112680750D03*
X332210350Y-124618750D03*
X331250350Y-124618750D03*
X289893950Y-112680750D03*
X288933950Y-112680750D03*
X411432950Y-112680750D03*
X410472950Y-112680750D03*
D11*
X390007950Y-111621000D03*
X390007950Y-110121000D03*
D12*
X384907950Y-110121000D03*
D11*
X384907950Y-111621000D03*
D18*
X190038150Y-146848750D03*
X190038150Y-147798750D03*
X190038150Y-148748750D03*
X187763150Y-148748750D03*
X187763150Y-147798750D03*
X187763150Y-146848750D03*
D11*
X316189200Y-130671000D03*
X316189200Y-129171000D03*
D12*
X311089200Y-129171000D03*
D11*
X311089200Y-130671000D03*
X168783950Y-148343750D03*
X168783950Y-146843750D03*
D12*
X163683950Y-146843750D03*
D11*
X163683950Y-148343750D03*
D15*
X398252950Y-79629000D03*
X398252950Y-82929000D03*
D14*
X430454950Y-74580750D03*
X429494950Y-74580750D03*
D22*
X181885650Y-140930750D03*
X181885650Y-141890750D03*
D24*
X368992150Y-114204750D03*
X368992150Y-115854750D03*
D15*
X457784200Y-98679000D03*
X457784200Y-101979000D03*
D11*
X178076700Y-52089750D03*
X178076700Y-50589750D03*
D12*
X172976700Y-50589750D03*
D11*
X172976700Y-52089750D03*
D15*
X160077150Y-136811750D03*
X160077150Y-140111750D03*
D17*
X359751750Y-95307150D03*
X360711750Y-95307150D03*
D15*
X248234200Y-117729000D03*
X248234200Y-121029000D03*
X233946700Y-136779000D03*
X233946700Y-140079000D03*
D14*
X470868950Y-112680750D03*
X469908950Y-112680750D03*
D11*
X340001700Y-92571000D03*
X340001700Y-91071000D03*
D12*
X334901700Y-91071000D03*
D11*
X334901700Y-92571000D03*
D14*
X358064950Y-76104750D03*
X357104950Y-76104750D03*
D15*
X476853250Y-41612550D03*
X476853250Y-44912550D03*
D19*
X145647950Y-43313350D03*
X142347950Y-43313350D03*
D11*
X278089200Y-130671000D03*
X278089200Y-129171000D03*
D12*
X272989200Y-129171000D03*
D11*
X272989200Y-130671000D03*
D15*
X314909200Y-98679000D03*
X314909200Y-101979000D03*
D14*
X218519950Y-53117750D03*
X217559950Y-53117750D03*
D11*
X216176700Y-73521000D03*
X216176700Y-72021000D03*
D12*
X211076700Y-72021000D03*
D11*
X211076700Y-73521000D03*
D16*
X360356150Y-125225750D03*
X360356150Y-124265750D03*
D15*
X281590750Y-41586550D03*
X281590750Y-44886550D03*
D11*
X449539200Y-111621000D03*
X449539200Y-110121000D03*
D12*
X444439200Y-110121000D03*
D11*
X444439200Y-111621000D03*
D15*
X186340750Y-41612550D03*
X186340750Y-44912550D03*
X457784200Y-79624000D03*
X457784200Y-82924000D03*
D14*
X155886150Y-148240750D03*
X154926150Y-148240750D03*
X118901150Y-40316150D03*
X117941150Y-40316150D03*
D15*
X281571700Y-60600000D03*
X281571700Y-63900000D03*
D14*
X123374150Y-74656950D03*
X122414150Y-74656950D03*
X146990950Y-131730750D03*
X146030950Y-131730750D03*
D15*
X476802450Y-117697250D03*
X476802450Y-120997250D03*
D11*
X244751700Y-92571000D03*
X244751700Y-91071000D03*
D12*
X239651700Y-91071000D03*
D11*
X239651700Y-92571000D03*
X359051700Y-73521000D03*
X359051700Y-72021000D03*
D12*
X353951700Y-72021000D03*
D11*
X353951700Y-73521000D03*
X428107950Y-111621000D03*
X428107950Y-110121000D03*
D12*
X423007950Y-110121000D03*
D11*
X423007950Y-111621000D03*
D15*
X398252950Y-60579000D03*
X398252950Y-63879000D03*
D11*
X223320450Y-149721000D03*
X223320450Y-148221000D03*
D12*
X218220450Y-148221000D03*
D11*
X218220450Y-149721000D03*
X109020450Y-111621000D03*
X109020450Y-110121000D03*
D12*
X103920450Y-110121000D03*
D11*
X103920450Y-111621000D03*
D15*
X224440750Y-41612550D03*
X224440750Y-44912550D03*
D11*
X449539200Y-130671000D03*
X449539200Y-129171000D03*
D12*
X444439200Y-129171000D03*
D11*
X444439200Y-130671000D03*
D14*
X237541950Y-74580750D03*
X236581950Y-74580750D03*
X256591950Y-74580750D03*
X255631950Y-74580750D03*
D11*
X325714200Y-111621000D03*
X325714200Y-110121000D03*
D12*
X320614200Y-110121000D03*
D11*
X320614200Y-111621000D03*
X506689200Y-73521000D03*
X506689200Y-72021000D03*
D12*
X501589200Y-72021000D03*
D11*
X501589200Y-73521000D03*
D14*
X489484550Y-133000750D03*
X488524550Y-133000750D03*
X199469950Y-53117750D03*
X198509950Y-53117750D03*
X247094950Y-93630750D03*
X246134950Y-93630750D03*
X282220550Y-149104350D03*
X281260550Y-149104350D03*
D11*
X506689200Y-52089750D03*
X506689200Y-50589750D03*
D12*
X501589200Y-50589750D03*
D11*
X501589200Y-52089750D03*
D14*
X501193950Y-76104750D03*
X500233950Y-76104750D03*
D15*
X319690750Y-41612550D03*
X319690750Y-44912550D03*
X143459200Y-98679000D03*
X143459200Y-101979000D03*
D14*
X367158150Y-117633750D03*
X366198150Y-117633750D03*
D11*
X390007950Y-130671000D03*
X390007950Y-129171000D03*
D12*
X384907950Y-129171000D03*
D11*
X384907950Y-130671000D03*
D15*
X300621700Y-60593000D03*
X300621700Y-63893000D03*
X243490750Y-41612550D03*
X243490750Y-44912550D03*
D14*
X175593950Y-112680750D03*
X174633950Y-112680750D03*
X313741950Y-53117750D03*
X312781950Y-53117750D03*
D11*
X101876700Y-52089750D03*
X101876700Y-50589750D03*
D12*
X96776700Y-50589750D03*
D11*
X96776700Y-52089750D03*
X487639200Y-52089750D03*
X487639200Y-50589750D03*
D12*
X482539200Y-50589750D03*
D11*
X482539200Y-52089750D03*
D15*
X238709200Y-98679000D03*
X238709200Y-101979000D03*
X295859200Y-98679000D03*
X295859200Y-101979000D03*
D14*
X367998950Y-84486750D03*
X367038950Y-84486750D03*
X199469950Y-74580750D03*
X198509950Y-74580750D03*
X484203950Y-114204750D03*
X483243950Y-114204750D03*
D16*
X167697150Y-133889750D03*
X167697150Y-132929750D03*
D15*
X341102950Y-117729000D03*
X341102950Y-121029000D03*
X310146700Y-79629000D03*
X310146700Y-82929000D03*
X200609200Y-98679000D03*
X200609200Y-101979000D03*
X438702450Y-117729000D03*
X438702450Y-121029000D03*
D11*
X128070450Y-149721000D03*
X128070450Y-148221000D03*
D12*
X122970450Y-148221000D03*
D11*
X122970450Y-149721000D03*
D15*
X379202950Y-79629000D03*
X379202950Y-82929000D03*
D14*
X275669950Y-53117750D03*
X274709950Y-53117750D03*
D15*
X319671700Y-60579000D03*
X319671700Y-63879000D03*
D11*
X390007950Y-73521000D03*
X390007950Y-72021000D03*
D12*
X384907950Y-72021000D03*
D11*
X384907950Y-73521000D03*
D14*
X189944950Y-93630750D03*
X188984950Y-93630750D03*
D15*
X457784200Y-117729000D03*
X457784200Y-121029000D03*
D11*
X428107950Y-92571000D03*
X428107950Y-91071000D03*
D12*
X423007950Y-91071000D03*
D11*
X423007950Y-92571000D03*
D15*
X495884200Y-60579000D03*
X495884200Y-63879000D03*
D19*
X95609950Y-40925750D03*
X92309950Y-40925750D03*
D15*
X379202950Y-117760750D03*
X379202950Y-121060750D03*
D16*
X180905150Y-139886750D03*
X180905150Y-138926750D03*
D14*
X323294950Y-93630750D03*
X322334950Y-93630750D03*
X151844950Y-93630750D03*
X150884950Y-93630750D03*
X509067950Y-141255750D03*
X508107950Y-141255750D03*
D22*
X428631350Y-144357150D03*
X428631350Y-145317150D03*
D11*
X173314200Y-111621000D03*
X173314200Y-110121000D03*
D12*
X168214200Y-110121000D03*
D11*
X168214200Y-111621000D03*
D14*
X430482950Y-93630750D03*
X429522950Y-93630750D03*
D11*
X239989200Y-130671000D03*
X239989200Y-129171000D03*
D12*
X234889200Y-129171000D03*
D11*
X234889200Y-130671000D03*
D14*
X484330950Y-95154750D03*
X483370950Y-95154750D03*
D11*
X487639200Y-149721000D03*
X487639200Y-148221000D03*
D12*
X482539200Y-148221000D03*
D11*
X482539200Y-149721000D03*
D15*
X110121700Y-60579000D03*
X110121700Y-63879000D03*
D11*
X342382950Y-149721000D03*
X342382950Y-148221000D03*
D12*
X337282950Y-148221000D03*
D11*
X337282950Y-149721000D03*
D14*
X313769950Y-74580750D03*
X312809950Y-74580750D03*
D25*
X371554451Y-121628250D03*
X371554451Y-122903250D03*
X370279451Y-121628250D03*
X370279451Y-122903250D03*
D26*
X374354451Y-119665750D03*
X374354451Y-120065750D03*
X374354451Y-120465750D03*
X374354451Y-120865750D03*
X374354451Y-121265750D03*
X374354451Y-121665750D03*
X374354451Y-122065750D03*
X374354451Y-122465750D03*
X374354451Y-122865750D03*
X374354451Y-123265750D03*
X374354451Y-123665750D03*
X374354451Y-124065750D03*
X374354451Y-124465750D03*
X374354451Y-124865750D03*
D27*
X373516951Y-125703250D03*
X373116951Y-125703250D03*
X372716951Y-125703250D03*
X372316951Y-125703250D03*
X371916951Y-125703250D03*
X371516951Y-125703250D03*
X371116951Y-125703250D03*
X370716951Y-125703250D03*
X370316951Y-125703250D03*
X369916951Y-125703250D03*
X369516951Y-125703250D03*
X369116951Y-125703250D03*
X368716951Y-125703250D03*
X368316951Y-125703250D03*
D26*
X367479451Y-124865750D03*
X367479451Y-124465750D03*
X367479451Y-124065750D03*
X367479451Y-123665750D03*
X367479451Y-123265750D03*
X367479451Y-122865750D03*
X367479451Y-122465750D03*
X367479451Y-122065750D03*
X367479451Y-121665750D03*
X367479451Y-121265750D03*
X367479451Y-120865750D03*
X367479451Y-120465750D03*
X367479451Y-120065750D03*
X367479451Y-119665750D03*
D27*
X368316951Y-118828250D03*
X368716951Y-118828250D03*
X369116951Y-118828250D03*
X369516951Y-118828250D03*
X369916951Y-118828250D03*
X370316951Y-118828250D03*
X370716951Y-118828250D03*
X371116951Y-118828250D03*
X371516951Y-118828250D03*
X371916951Y-118828250D03*
X372316951Y-118828250D03*
X372716951Y-118828250D03*
X373116951Y-118828250D03*
X373516951Y-118828250D03*
D16*
X371786150Y-113132750D03*
X371786150Y-112172750D03*
D15*
X119646700Y-79629000D03*
X119646700Y-82929000D03*
D17*
X374088450Y-147986750D03*
X375048450Y-147986750D03*
D14*
X413058550Y-148189950D03*
X412098550Y-148189950D03*
X294719950Y-53117750D03*
X293759950Y-53117750D03*
D22*
X246564150Y-147379750D03*
X246564150Y-148339750D03*
D11*
X351907950Y-130671000D03*
X351907950Y-129171000D03*
D12*
X346807950Y-129171000D03*
D11*
X346807950Y-130671000D03*
D14*
X161369950Y-74580750D03*
X160409950Y-74580750D03*
D16*
X164776150Y-132591750D03*
X164776150Y-131631750D03*
D14*
X346380950Y-148520150D03*
X345420950Y-148520150D03*
D11*
X330476700Y-52089750D03*
X330476700Y-50589750D03*
D12*
X325376700Y-50589750D03*
D11*
X325376700Y-52089750D03*
X104257950Y-149721000D03*
X104257950Y-148221000D03*
D12*
X99157950Y-148221000D03*
D11*
X99157950Y-149721000D03*
X487639200Y-92571000D03*
X487639200Y-91071000D03*
D12*
X482539200Y-91071000D03*
D11*
X482539200Y-92571000D03*
D14*
X451790950Y-74580750D03*
X450830950Y-74580750D03*
D11*
X154264200Y-111621000D03*
X154264200Y-110121000D03*
D12*
X149164200Y-110121000D03*
D11*
X149164200Y-111621000D03*
X273307650Y-52089750D03*
X273307650Y-50589750D03*
D12*
X268207650Y-50589750D03*
D11*
X268207650Y-52089750D03*
D22*
X177694650Y-141283750D03*
X177694650Y-142243750D03*
D15*
X417302950Y-98679000D03*
X417302950Y-101979000D03*
D14*
X261346950Y-131730750D03*
X260386950Y-131730750D03*
X343536150Y-93376750D03*
X342576150Y-93376750D03*
D15*
X283952950Y-136779000D03*
X283952950Y-140079000D03*
D14*
X180419950Y-74580750D03*
X179459950Y-74580750D03*
D11*
X120926700Y-52089750D03*
X120926700Y-50589750D03*
D12*
X115826700Y-50589750D03*
D11*
X115826700Y-52089750D03*
D14*
X451818950Y-53117750D03*
X450858950Y-53117750D03*
D15*
X252996700Y-79629000D03*
X252996700Y-82929000D03*
D11*
X409057950Y-149721000D03*
X409057950Y-148221000D03*
D12*
X403957950Y-148221000D03*
D11*
X403957950Y-149721000D03*
D14*
X298758550Y-148189950D03*
X297798550Y-148189950D03*
X430454950Y-131730750D03*
X429494950Y-131730750D03*
X223218950Y-131730750D03*
X222258950Y-131730750D03*
D11*
X120926700Y-73521000D03*
X120926700Y-72021000D03*
D12*
X115826700Y-72021000D03*
D11*
X115826700Y-73521000D03*
X139976700Y-52089750D03*
X139976700Y-50589750D03*
D12*
X134876700Y-50589750D03*
D11*
X134876700Y-52089750D03*
X487639200Y-111621000D03*
X487639200Y-110121000D03*
D12*
X482539200Y-110121000D03*
D11*
X482539200Y-111621000D03*
X259039200Y-130671000D03*
X259039200Y-129171000D03*
D12*
X253939200Y-129171000D03*
D11*
X253939200Y-130671000D03*
D14*
X322560950Y-148697950D03*
X321600950Y-148697950D03*
D15*
X195846700Y-79629000D03*
X195846700Y-82929000D03*
D14*
X359340150Y-111537750D03*
X358380150Y-111537750D03*
D11*
X192364200Y-111621000D03*
X192364200Y-110121000D03*
D12*
X187264200Y-110121000D03*
D11*
X187264200Y-111621000D03*
D15*
X176796700Y-79629000D03*
X176796700Y-82929000D03*
D14*
X308943950Y-112680750D03*
X307983950Y-112680750D03*
D17*
X393127350Y-148113750D03*
X394087350Y-148113750D03*
D14*
X278209950Y-133127750D03*
X277249950Y-133127750D03*
X332791950Y-74580750D03*
X331831950Y-74580750D03*
X213693950Y-112680750D03*
X212733950Y-112680750D03*
D15*
X95834200Y-79629000D03*
X95834200Y-82929000D03*
D11*
X106639200Y-92571000D03*
X106639200Y-91071000D03*
D12*
X101539200Y-91071000D03*
D11*
X101539200Y-92571000D03*
D14*
X142291950Y-74580750D03*
X141331950Y-74580750D03*
D11*
X468589200Y-52089750D03*
X468589200Y-50589750D03*
D12*
X463489200Y-50589750D03*
D11*
X463489200Y-52089750D03*
D15*
X417302950Y-117729000D03*
X417302950Y-121029000D03*
D14*
X270871950Y-112680750D03*
X269911950Y-112680750D03*
D17*
X133892350Y-40316150D03*
X134852350Y-40316150D03*
D15*
X417302950Y-79629000D03*
X417302950Y-82929000D03*
D11*
X254276700Y-73521000D03*
X254276700Y-72021000D03*
D12*
X249176700Y-72021000D03*
D11*
X249176700Y-73521000D03*
D15*
X331577950Y-136779000D03*
X331577950Y-140079000D03*
X417302950Y-60567000D03*
X417302950Y-63867000D03*
D17*
X173660650Y-150084750D03*
X174620650Y-150084750D03*
D15*
X162509200Y-136779000D03*
X162509200Y-140079000D03*
X133934200Y-117729000D03*
X133934200Y-121029000D03*
D22*
X368865150Y-129599750D03*
X368865150Y-130559750D03*
D28*
X376930950Y-144786750D03*
X374630950Y-144786750D03*
D29*
X374630950Y-138486750D03*
D28*
X372330950Y-144786750D03*
D30*
X371758950Y-81819750D03*
X368358950Y-81819750D03*
D14*
X102111750Y-76434950D03*
X101151750Y-76434950D03*
D15*
X110140750Y-41612550D03*
X110140750Y-44912550D03*
D14*
X411277950Y-53117750D03*
X410317950Y-53117750D03*
D15*
X262521700Y-60607000D03*
X262521700Y-63907000D03*
D14*
X251793950Y-112680750D03*
X250833950Y-112680750D03*
X232743950Y-112680750D03*
X231783950Y-112680750D03*
X470840950Y-74580750D03*
X469880950Y-74580750D03*
D15*
X386314950Y-136811750D03*
X386314950Y-140111750D03*
X457803250Y-41612550D03*
X457803250Y-44912550D03*
X91071700Y-60579000D03*
X91071700Y-63879000D03*
D11*
X468589200Y-73521000D03*
X468589200Y-72021000D03*
D12*
X463489200Y-72021000D03*
D11*
X463489200Y-73521000D03*
X211414200Y-111621000D03*
X211414200Y-110121000D03*
D12*
X206314200Y-110121000D03*
D11*
X206314200Y-111621000D03*
D15*
X398252950Y-98679000D03*
X398252950Y-101979000D03*
D11*
X278638950Y-148470750D03*
X278638950Y-146970750D03*
D12*
X273538950Y-146970750D03*
D11*
X273538950Y-148470750D03*
D28*
X169588150Y-128707750D03*
X171888150Y-128707750D03*
D29*
X171888150Y-135007750D03*
D28*
X174188150Y-128707750D03*
D14*
X299446950Y-131730750D03*
X298486950Y-131730750D03*
X365944150Y-123221750D03*
X364984150Y-123221750D03*
D16*
X176079150Y-133861750D03*
X176079150Y-132901750D03*
D11*
X449539200Y-52089750D03*
X449539200Y-50589750D03*
D12*
X444439200Y-50589750D03*
D11*
X444439200Y-52089750D03*
X409057950Y-92571000D03*
X409057950Y-91071000D03*
D12*
X403957950Y-91071000D03*
D11*
X403957950Y-92571000D03*
D15*
X493375950Y-41613550D03*
X493375950Y-44913550D03*
X379202950Y-98679000D03*
X379202950Y-101979000D03*
D14*
X470995950Y-53117750D03*
X470035950Y-53117750D03*
X463068550Y-148189950D03*
X462108550Y-148189950D03*
D17*
X159673350Y-148240750D03*
X160633350Y-148240750D03*
D14*
X327965950Y-112680750D03*
X327005950Y-112680750D03*
D15*
X379222000Y-41612550D03*
X379222000Y-44912550D03*
D14*
X392354950Y-74580750D03*
X391394950Y-74580750D03*
D15*
X438734200Y-98679000D03*
X438734200Y-101979000D03*
D11*
X235226700Y-52089750D03*
X235226700Y-50589750D03*
D12*
X230126700Y-50589750D03*
D11*
X230126700Y-52089750D03*
X409057950Y-111621000D03*
X409057950Y-110121000D03*
D12*
X403957950Y-110121000D03*
D11*
X403957950Y-111621000D03*
D14*
X451818950Y-93630750D03*
X450858950Y-93630750D03*
D22*
X361372150Y-124039750D03*
X361372150Y-124999750D03*
D14*
X351841950Y-53117750D03*
X350881950Y-53117750D03*
X208994950Y-93630750D03*
X208034950Y-93630750D03*
X470868950Y-93630750D03*
X469908950Y-93630750D03*
D11*
X244751700Y-149721000D03*
X244751700Y-148221000D03*
D12*
X239651700Y-148221000D03*
D11*
X239651700Y-149721000D03*
D23*
X102420150Y-57003950D03*
X105720150Y-57003950D03*
D11*
X487639200Y-73521000D03*
X487639200Y-72021000D03*
D12*
X482539200Y-72021000D03*
D11*
X482539200Y-73521000D03*
D14*
X132766950Y-93630750D03*
X131806950Y-93630750D03*
X180419950Y-53117750D03*
X179459950Y-53117750D03*
D15*
X167271700Y-60579000D03*
X167271700Y-63879000D03*
X233946700Y-79629000D03*
X233946700Y-82929000D03*
D14*
X489890950Y-53117750D03*
X488930950Y-53117750D03*
X503479950Y-54641750D03*
X502519950Y-54641750D03*
D11*
X149501700Y-92571000D03*
X149501700Y-91071000D03*
D12*
X144401700Y-91071000D03*
D11*
X144401700Y-92571000D03*
D14*
X367186150Y-116617750D03*
X366226150Y-116617750D03*
X205946950Y-131730750D03*
X204986950Y-131730750D03*
D15*
X157746700Y-79629000D03*
X157746700Y-82929000D03*
D16*
X330206350Y-124618750D03*
X330206350Y-123658750D03*
D22*
X369855750Y-140303350D03*
X369855750Y-141263350D03*
D15*
X124409200Y-98679000D03*
X124409200Y-101979000D03*
D22*
X330206350Y-125613250D03*
X330206350Y-126573250D03*
D15*
X117278150Y-136785350D03*
X117278150Y-140085350D03*
D11*
X363814200Y-92571000D03*
X363814200Y-91071000D03*
D12*
X358714200Y-91071000D03*
D11*
X358714200Y-92571000D03*
D31*
X493375950Y-49890950D03*
X493375950Y-46590950D03*
D14*
X317729750Y-133051550D03*
X316769750Y-133051550D03*
D17*
X376866150Y-124237750D03*
X377826150Y-124237750D03*
D15*
X438734200Y-79629000D03*
X438734200Y-82929000D03*
D17*
X184130650Y-150084750D03*
X185090650Y-150084750D03*
D14*
X218491950Y-74580750D03*
X217531950Y-74580750D03*
D11*
X225701700Y-92571000D03*
X225701700Y-91071000D03*
D12*
X220601700Y-91071000D03*
D11*
X220601700Y-92571000D03*
D15*
X191084200Y-117729000D03*
X191084200Y-121029000D03*
D14*
X194234650Y-150084750D03*
X193274650Y-150084750D03*
X451846950Y-112680750D03*
X450886950Y-112680750D03*
D15*
X276809200Y-98679000D03*
X276809200Y-101979000D03*
D32*
X370516150Y-115854750D03*
X370516150Y-114204750D03*
D15*
X98215450Y-98679000D03*
X98215450Y-101979000D03*
D18*
X179878150Y-146848750D03*
X179878150Y-147798750D03*
X179878150Y-148748750D03*
X177603150Y-148748750D03*
X177603150Y-147798750D03*
X177603150Y-146848750D03*
X195118150Y-146848750D03*
X195118150Y-147798750D03*
X195118150Y-148748750D03*
X192843150Y-148748750D03*
X192843150Y-147798750D03*
X192843150Y-146848750D03*
D22*
X369881150Y-129599750D03*
X369881150Y-130559750D03*
D11*
X468589200Y-111621000D03*
X468589200Y-110121000D03*
D12*
X463489200Y-110121000D03*
D11*
X463489200Y-111621000D03*
X449539200Y-73521000D03*
X449539200Y-72021000D03*
D12*
X444439200Y-72021000D03*
D11*
X444439200Y-73521000D03*
D14*
X137493950Y-112680750D03*
X136533950Y-112680750D03*
D11*
X130451700Y-92571000D03*
X130451700Y-91071000D03*
D12*
X125351700Y-91071000D03*
D11*
X125351700Y-92571000D03*
X249514200Y-111621000D03*
X249514200Y-110121000D03*
D12*
X244414200Y-110121000D03*
D11*
X244414200Y-111621000D03*
X306664200Y-111621000D03*
X306664200Y-110121000D03*
D12*
X301564200Y-110121000D03*
D11*
X301564200Y-111621000D03*
D15*
X102977950Y-117729000D03*
X102977950Y-121029000D03*
X417302950Y-136779000D03*
X417302950Y-140079000D03*
D19*
X256342150Y-146158950D03*
X253042150Y-146158950D03*
D14*
X492255750Y-149104350D03*
X491295750Y-149104350D03*
D15*
X338740750Y-41612550D03*
X338740750Y-44912550D03*
D11*
X409057950Y-73521000D03*
X409057950Y-72021000D03*
D12*
X403957950Y-72021000D03*
D11*
X403957950Y-73521000D03*
X292376700Y-73521000D03*
X292376700Y-72021000D03*
D12*
X287276700Y-72021000D03*
D11*
X287276700Y-73521000D03*
X390007950Y-92571000D03*
X390007950Y-91071000D03*
D12*
X384907950Y-91071000D03*
D11*
X384907950Y-92571000D03*
D14*
X364138150Y-117125750D03*
X363178150Y-117125750D03*
D15*
X476834200Y-60579000D03*
X476834200Y-63879000D03*
D14*
X303686150Y-94265750D03*
X302726150Y-94265750D03*
D11*
X159026700Y-73521000D03*
X159026700Y-72021000D03*
D12*
X153926700Y-72021000D03*
D11*
X153926700Y-73521000D03*
X409057950Y-52089750D03*
X409057950Y-50589750D03*
D12*
X403957950Y-50589750D03*
D11*
X403957950Y-52089750D03*
X282851700Y-92571000D03*
X282851700Y-91071000D03*
D12*
X277751700Y-91071000D03*
D11*
X277751700Y-92571000D03*
X318570450Y-149721000D03*
X318570450Y-148221000D03*
D12*
X313470450Y-148221000D03*
D11*
X313470450Y-149721000D03*
D14*
X285194950Y-93630750D03*
X284234950Y-93630750D03*
X104219950Y-53117750D03*
X103259950Y-53117750D03*
X431549750Y-148189950D03*
X430589750Y-148189950D03*
D17*
X368969350Y-146716750D03*
X369929350Y-146716750D03*
D22*
X375545350Y-81997550D03*
X375545350Y-82957550D03*
D15*
X181559200Y-98679000D03*
X181559200Y-101979000D03*
D14*
X132083750Y-148189950D03*
X131123750Y-148189950D03*
D11*
X428107950Y-149721000D03*
X428107950Y-148221000D03*
D12*
X423007950Y-148221000D03*
D11*
X423007950Y-149721000D03*
X144739200Y-130671000D03*
X144739200Y-129171000D03*
D12*
X139639200Y-129171000D03*
D11*
X139639200Y-130671000D03*
D33*
X435082950Y-141574750D03*
X436082950Y-141574750D03*
X437082950Y-141574750D03*
X438082950Y-141574750D03*
D34*
X433782950Y-137699750D03*
X439382950Y-137699750D03*
D14*
X370919950Y-53117750D03*
X369959950Y-53117750D03*
D22*
X379964950Y-138982550D03*
X379964950Y-139942550D03*
D11*
X163789200Y-130671000D03*
X163789200Y-129171000D03*
D12*
X158689200Y-129171000D03*
D11*
X158689200Y-130671000D03*
D15*
X476834200Y-98679000D03*
X476834200Y-101979000D03*
D17*
X376993150Y-110775750D03*
X377953150Y-110775750D03*
D15*
X398252950Y-117729000D03*
X398252950Y-121029000D03*
D14*
X275641950Y-74580750D03*
X274681950Y-74580750D03*
D15*
X257759200Y-98679000D03*
X257759200Y-101979000D03*
D14*
X208283750Y-148189950D03*
X207323750Y-148189950D03*
D15*
X355390450Y-136779000D03*
X355390450Y-140079000D03*
D14*
X294691950Y-74580750D03*
X293731950Y-74580750D03*
D35*
X124794950Y-41710150D03*
X125594950Y-41710150D03*
D36*
X126744950Y-41710150D03*
X127744950Y-41710150D03*
X128244950Y-41710150D03*
X129244950Y-41710150D03*
D35*
X130394950Y-41710150D03*
X131194950Y-41710150D03*
X131194950Y-41710150D03*
X130394950Y-41710150D03*
D36*
X129744950Y-41710150D03*
X128744950Y-41710150D03*
X127244950Y-41710150D03*
X126244950Y-41710150D03*
D35*
X125594950Y-41710150D03*
X124794950Y-41710150D03*
D11*
X254276700Y-52089750D03*
X254276700Y-50589750D03*
D12*
X249176700Y-50589750D03*
D11*
X249176700Y-52089750D03*
D16*
X373818150Y-82934750D03*
X373818150Y-81974750D03*
D11*
X151882950Y-149721000D03*
X151882950Y-148221000D03*
D12*
X146782950Y-148221000D03*
D11*
X146782950Y-149721000D03*
D15*
X138696700Y-79629000D03*
X138696700Y-82929000D03*
D11*
X101876700Y-73521000D03*
X101876700Y-72021000D03*
D12*
X96776700Y-72021000D03*
D11*
X96776700Y-73521000D03*
D14*
X411432950Y-93630750D03*
X410472950Y-93630750D03*
D11*
X390007950Y-52089750D03*
X390007950Y-50589750D03*
D12*
X384907950Y-50589750D03*
D11*
X384907950Y-52089750D03*
D15*
X205371700Y-60579000D03*
X205371700Y-63879000D03*
X186321700Y-60579000D03*
X186321700Y-63879000D03*
D11*
X320951700Y-92571000D03*
X320951700Y-91071000D03*
D12*
X315851700Y-91071000D03*
D11*
X315851700Y-92571000D03*
X349526700Y-52089750D03*
X349526700Y-50589750D03*
D12*
X344426700Y-50589750D03*
D11*
X344426700Y-52089750D03*
X235226700Y-73521000D03*
X235226700Y-72021000D03*
D12*
X230126700Y-72021000D03*
D11*
X230126700Y-73521000D03*
X428107950Y-52089750D03*
X428107950Y-50589750D03*
D12*
X423007950Y-50589750D03*
D11*
X423007950Y-52089750D03*
X311426700Y-73521000D03*
X311426700Y-72021000D03*
D12*
X306326700Y-72021000D03*
D11*
X306326700Y-73521000D03*
D14*
X123043950Y-53117750D03*
X122083950Y-53117750D03*
D15*
X357790750Y-41612550D03*
X357790750Y-44912550D03*
X157537150Y-135794750D03*
X157537150Y-139094750D03*
X345865450Y-98679000D03*
X345865450Y-101979000D03*
D20*
X469980650Y-144684750D03*
X468155650Y-144684750D03*
D11*
X292376700Y-52089750D03*
X292376700Y-50589750D03*
D12*
X287276700Y-50589750D03*
D11*
X287276700Y-52089750D03*
D14*
X116157950Y-131730750D03*
X115197950Y-131730750D03*
X392382950Y-53117750D03*
X391422950Y-53117750D03*
D11*
X506689200Y-102096000D03*
X506689200Y-100596000D03*
D12*
X501589200Y-100596000D03*
D11*
X501589200Y-102096000D03*
X287614200Y-111621000D03*
X287614200Y-110121000D03*
D12*
X282514200Y-110121000D03*
D11*
X282514200Y-111621000D03*
D14*
X256619950Y-53117750D03*
X255659950Y-53117750D03*
X486334950Y-76104750D03*
X485374950Y-76104750D03*
D15*
X457784200Y-60553000D03*
X457784200Y-63853000D03*
D11*
X409057950Y-130671000D03*
X409057950Y-129171000D03*
D12*
X403957950Y-129171000D03*
D11*
X403957950Y-130671000D03*
D19*
X256342150Y-141459950D03*
X253042150Y-141459950D03*
D14*
X185090950Y-131730750D03*
X184130950Y-131730750D03*
X392410950Y-93630750D03*
X391450950Y-93630750D03*
D15*
X243471700Y-60579000D03*
X243471700Y-63879000D03*
D11*
X330476700Y-73521000D03*
X330476700Y-72021000D03*
D12*
X325376700Y-72021000D03*
D11*
X325376700Y-73521000D03*
D14*
X242240950Y-131730750D03*
X241280950Y-131730750D03*
D15*
X307765450Y-136758000D03*
X307765450Y-140058000D03*
D11*
X428107950Y-130671000D03*
X428107950Y-129171000D03*
D12*
X423007950Y-129171000D03*
D11*
X423007950Y-130671000D03*
X268564200Y-111621000D03*
X268564200Y-110121000D03*
D12*
X263464200Y-110121000D03*
D11*
X263464200Y-111621000D03*
D15*
X353009200Y-79629000D03*
X353009200Y-82929000D03*
X476834200Y-136779000D03*
X476834200Y-140079000D03*
D14*
X266144950Y-93630750D03*
X265184950Y-93630750D03*
D15*
X329196700Y-79629000D03*
X329196700Y-82929000D03*
X167290750Y-41628550D03*
X167290750Y-44928550D03*
X212515450Y-136779000D03*
X212515450Y-140079000D03*
D14*
X411404950Y-74580750D03*
X410444950Y-74580750D03*
D15*
X162509200Y-98679000D03*
X162509200Y-101979000D03*
X205390750Y-41614550D03*
X205390750Y-44914550D03*
X448259200Y-136779000D03*
X448259200Y-140079000D03*
D14*
X171352150Y-126777750D03*
X170392150Y-126777750D03*
D15*
X267284200Y-117729000D03*
X267284200Y-121029000D03*
D14*
X181603650Y-143061750D03*
X180643650Y-143061750D03*
D11*
X487639200Y-130671000D03*
X487639200Y-129171000D03*
D12*
X482539200Y-129171000D03*
D11*
X482539200Y-130671000D03*
D15*
X272046700Y-79601000D03*
X272046700Y-82901000D03*
D11*
X178076700Y-73521000D03*
X178076700Y-72021000D03*
D12*
X172976700Y-72021000D03*
D11*
X172976700Y-73521000D03*
D15*
X219665550Y-98717100D03*
X219665550Y-102017100D03*
M02*
