M48
; DRILL file {KiCad 7.0.2} date Thu May 18 15:06:17 2023
; FORMAT={-:-/ absolute / inch / decimal}
; #@! TF.CreationDate,2023-05-18T15:06:17-05:00
; #@! TF.GenerationSoftware,Kicad,Pcbnew,7.0.2
; #@! TF.FileFunction,NonPlated,1,2,NPTH
FMAT,2
INCH
; #@! TA.AperFunction,NonPlated,NPTH,ComponentDrill
T1C0.0315
; #@! TA.AperFunction,NonPlated,NPTH,ComponentDrill
T2C0.0454
; #@! TA.AperFunction,NonPlated,NPTH,ComponentDrill
T3C0.0689
; #@! TA.AperFunction,NonPlated,NPTH,ComponentDrill
T4C0.0866
; #@! TA.AperFunction,NonPlated,NPTH,ComponentDrill
T5C0.1200
; #@! TA.AperFunction,NonPlated,NPTH,ComponentDrill
T6C0.1570
%
G90
G05
T1
X14.5693Y-3.2212
T2
X3.6285Y-5.7588
X10.8912Y-1.6952
X19.7752Y-5.7612
T3
X3.7102Y-1.8213
X3.7105Y-2.665
X3.8043Y-5.665
X3.898Y-3.415
X3.9917Y-4.165
X4.1102Y-1.8213
X4.1105Y-2.665
X4.1792Y-4.915
X4.2043Y-5.665
X4.298Y-3.415
X4.3918Y-4.165
X4.4605Y-1.8213
X4.4605Y-2.665
X4.5793Y-4.915
X4.7417Y-5.665
X4.8355Y-3.415
X4.8605Y-1.8213
X4.8605Y-2.665
X5.023Y-4.165
X5.1418Y-5.665
X5.2105Y-1.8213
X5.2105Y-2.665
X5.2355Y-3.415
X5.398Y-4.915
X5.423Y-4.165
X5.5855Y-3.415
X5.6105Y-1.8213
X5.6105Y-2.665
X5.6792Y-5.665
X5.773Y-4.165
X5.798Y-4.915
X5.9605Y-1.8213
X5.9605Y-2.665
X5.9855Y-3.415
X6.0793Y-5.665
X6.148Y-4.915
X6.173Y-4.165
X6.3355Y-3.415
X6.3605Y-1.8213
X6.3605Y-2.665
X6.523Y-4.165
X6.523Y-5.665
X6.548Y-4.915
X6.7105Y-1.8213
X6.7105Y-2.665
X6.7355Y-3.415
X6.898Y-4.915
X6.923Y-4.165
X6.923Y-5.665
X7.0855Y-3.415
X7.1105Y-1.8213
X7.1105Y-2.665
X7.273Y-4.165
X7.298Y-4.915
X7.4605Y-1.8213
X7.4605Y-2.665
X7.4855Y-3.415
X7.648Y-4.915
X7.673Y-4.165
X7.7417Y-5.665
X7.8355Y-3.415
X7.8605Y-1.8213
X7.8605Y-2.665
X8.023Y-4.165
X8.048Y-4.915
X8.1418Y-5.665
X8.2105Y-1.8213
X8.2105Y-2.665
X8.2355Y-3.415
X8.398Y-4.915
X8.423Y-4.165
X8.4917Y-5.665
X8.5855Y-3.415
X8.6105Y-1.8213
X8.6105Y-2.665
X8.773Y-4.165
X8.798Y-4.915
X8.8918Y-5.665
X8.9605Y-1.8213
X8.9605Y-2.665
X8.9855Y-3.415
X9.148Y-4.915
X9.173Y-4.165
X9.3355Y-3.415
X9.3355Y-5.665
X9.3605Y-1.8213
X9.3605Y-2.665
X9.523Y-4.165
X9.548Y-4.915
X9.7105Y-1.8213
X9.7105Y-2.665
X9.7355Y-3.415
X9.7355Y-5.665
X9.898Y-4.915
X9.923Y-4.165
X10.0855Y-3.415
X10.1105Y-1.8213
X10.1105Y-2.665
X10.273Y-4.165
X10.298Y-4.915
X10.4605Y-1.8213
X10.4605Y-2.665
X10.4605Y-5.665
X10.4855Y-3.415
X10.648Y-4.915
X10.673Y-4.165
X10.8355Y-3.415
X10.8605Y-1.8213
X10.8605Y-2.665
X10.8605Y-5.665
X11.023Y-4.165
X11.048Y-4.915
X11.2105Y-1.8213
X11.2105Y-2.665
X11.2355Y-3.415
X11.3042Y-5.665
X11.398Y-4.915
X11.423Y-4.165
X11.5855Y-3.415
X11.6105Y-1.8213
X11.6105Y-2.665
X11.7043Y-5.665
X11.773Y-4.165
X11.798Y-4.915
X11.9605Y-1.8213
X11.9605Y-2.665
X11.9855Y-3.415
X12.148Y-4.915
X12.173Y-4.165
X12.2417Y-5.665
X12.3355Y-3.415
X12.3605Y-1.8213
X12.3605Y-2.665
X12.523Y-4.165
X12.548Y-4.915
X12.6418Y-5.665
X12.7105Y-1.8213
X12.7105Y-2.665
X12.7355Y-3.415
X12.923Y-4.165
X13.0855Y-3.415
X13.1105Y-1.8213
X13.1105Y-2.665
X13.1792Y-5.665
X13.4605Y-1.8213
X13.4855Y-3.415
X13.5542Y-4.915
X13.5793Y-5.665
X13.7417Y-4.165
X13.8355Y-2.665
X13.8605Y-1.8213
X13.9543Y-4.915
X14.023Y-3.415
X14.1167Y-5.665
X14.1418Y-4.165
X14.2105Y-1.8213
X14.2355Y-2.665
X14.423Y-3.415
X14.5168Y-5.665
X14.6105Y-1.8213
X15.0542Y-1.8213
X15.0542Y-2.665
X15.0542Y-3.415
X15.0542Y-4.165
X15.0542Y-4.915
X15.0542Y-5.665
X15.4543Y-1.8213
X15.4543Y-2.665
X15.4543Y-3.415
X15.4543Y-4.165
X15.4543Y-4.915
X15.4543Y-5.665
X15.8042Y-1.8213
X15.8042Y-2.665
X15.8042Y-3.415
X15.8042Y-4.165
X15.8042Y-4.915
X15.8042Y-5.665
X16.2042Y-1.8213
X16.2042Y-2.665
X16.2042Y-3.415
X16.2042Y-4.165
X16.2042Y-4.915
X16.2042Y-5.665
X16.5542Y-1.8213
X16.5542Y-2.665
X16.5542Y-3.415
X16.5542Y-4.165
X16.5542Y-4.915
X16.5542Y-5.665
X16.9542Y-1.8213
X16.9542Y-2.665
X16.9542Y-3.415
X16.9542Y-4.165
X16.9542Y-4.915
X16.9542Y-5.665
X17.398Y-1.8213
X17.398Y-2.665
X17.398Y-3.415
X17.398Y-4.165
X17.398Y-4.915
X17.773Y-5.665
X17.798Y-1.8213
X17.798Y-2.665
X17.798Y-3.415
X17.798Y-4.165
X17.798Y-4.915
X18.148Y-1.8213
X18.148Y-2.665
X18.148Y-3.415
X18.148Y-4.165
X18.148Y-4.915
X18.173Y-5.665
X18.548Y-1.8213
X18.548Y-2.665
X18.548Y-3.415
X18.548Y-4.165
X18.548Y-4.915
X18.898Y-1.8213
X18.898Y-2.665
X18.898Y-3.415
X18.898Y-4.165
X18.898Y-4.915
X18.898Y-5.665
X19.298Y-1.8213
X19.298Y-2.665
X19.298Y-3.415
X19.298Y-4.165
X19.298Y-4.915
X19.298Y-5.665
X19.648Y-1.8213
X19.648Y-2.665
X19.648Y-3.79
X19.648Y-5.29
X20.048Y-1.8213
X20.048Y-2.665
X20.048Y-3.79
X20.048Y-5.29
T4
X3.6285Y-4.915
X4.2847Y-2.665
X6.3022Y-5.665
X7.0972Y-4.165
X7.2847Y-1.915
X9.1113Y-5.665
X10.2847Y-2.665
X11.5972Y-4.165
X12.9097Y-5.665
X13.2847Y-1.915
X15.6292Y-3.415
X16.3785Y-5.665
X17.9722Y-3.415
X19.4713Y-5.4893
X19.4733Y-2.665
T5
X3.9105Y-5.19
X4.848Y-5.19
X13.473Y-4.44
X13.5672Y-2.94
X14.4105Y-4.44
X14.5047Y-2.94
X17.5042Y-5.94
X18.4417Y-5.94
X20.123Y-3.3213
X20.123Y-4.2588
X20.123Y-4.8213
X20.123Y-5.7588
T6
X3.9103Y-1.8213
X3.9105Y-2.665
X3.9105Y-4.59
X4.0042Y-5.665
X4.098Y-3.415
X4.1917Y-4.165
X4.3792Y-4.915
X4.6605Y-1.8213
X4.6605Y-2.665
X4.848Y-4.59
X4.9417Y-5.665
X5.0355Y-3.415
X5.223Y-4.165
X5.4105Y-1.8213
X5.4105Y-2.665
X5.598Y-4.915
X5.7855Y-3.415
X5.8792Y-5.665
X5.973Y-4.165
X6.1605Y-1.8213
X6.1605Y-2.665
X6.348Y-4.915
X6.5355Y-3.415
X6.723Y-4.165
X6.723Y-5.665
X6.9105Y-1.8213
X6.9105Y-2.665
X7.098Y-4.915
X7.2855Y-3.415
X7.473Y-4.165
X7.6605Y-1.8213
X7.6605Y-2.665
X7.848Y-4.915
X7.9417Y-5.665
X8.0355Y-3.415
X8.223Y-4.165
X8.4105Y-1.8213
X8.4105Y-2.665
X8.598Y-4.915
X8.6917Y-5.665
X8.7855Y-3.415
X8.973Y-4.165
X9.1605Y-1.8213
X9.1605Y-2.665
X9.348Y-4.915
X9.5355Y-3.415
X9.5355Y-5.665
X9.723Y-4.165
X9.9105Y-1.8213
X9.9105Y-2.665
X10.098Y-4.915
X10.2855Y-3.415
X10.473Y-4.165
X10.6605Y-1.8213
X10.6605Y-2.665
X10.6605Y-5.665
X10.848Y-4.915
X11.0355Y-3.415
X11.223Y-4.165
X11.4105Y-1.8213
X11.4105Y-2.665
X11.5042Y-5.665
X11.598Y-4.915
X11.7855Y-3.415
X11.973Y-4.165
X12.1605Y-1.8213
X12.1605Y-2.665
X12.348Y-4.915
X12.4417Y-5.665
X12.5355Y-3.415
X12.723Y-4.165
X12.9105Y-1.8213
X12.9105Y-2.665
X13.2855Y-3.415
X13.3792Y-5.665
X13.473Y-3.84
X13.5672Y-2.34
X13.6605Y-1.8213
X13.7542Y-4.915
X13.9417Y-4.165
X14.0355Y-2.665
X14.223Y-3.415
X14.3167Y-5.665
X14.4105Y-1.8213
X14.4105Y-3.84
X14.5047Y-2.34
X15.2542Y-1.8213
X15.2542Y-2.665
X15.2542Y-3.415
X15.2542Y-4.165
X15.2542Y-4.915
X15.2542Y-5.665
X16.0042Y-1.8213
X16.0042Y-2.665
X16.0042Y-3.415
X16.0042Y-4.165
X16.0042Y-4.915
X16.0042Y-5.665
X16.7542Y-1.8213
X16.7542Y-2.665
X16.7542Y-3.415
X16.7542Y-4.165
X16.7542Y-4.915
X16.7542Y-5.665
X17.5042Y-5.34
X17.598Y-1.8213
X17.598Y-2.665
X17.598Y-3.415
X17.598Y-4.165
X17.598Y-4.915
X17.973Y-5.665
X18.348Y-1.8213
X18.348Y-2.665
X18.348Y-3.415
X18.348Y-4.165
X18.348Y-4.915
X18.4417Y-5.34
X19.098Y-1.8213
X19.098Y-2.665
X19.098Y-3.415
X19.098Y-4.165
X19.098Y-4.915
X19.098Y-5.665
X19.523Y-3.3213
X19.523Y-4.2588
X19.523Y-4.8213
X19.523Y-5.7588
X19.848Y-1.8213
X19.848Y-2.665
X19.848Y-3.79
X19.848Y-5.29
T0
M30
