%TF.GenerationSoftware,KiCad,Pcbnew,7.0.2*%
%TF.CreationDate,2023-05-18T15:06:11-05:00*%
%TF.ProjectId,Touch_Keyboard_10x12_Matrix,546f7563-685f-44b6-9579-626f6172645f,rev?*%
%TF.SameCoordinates,Original*%
%TF.FileFunction,Legend,Top*%
%TF.FilePolarity,Positive*%
%FSLAX46Y46*%
G04 Gerber Fmt 4.6, Leading zero omitted, Abs format (unit mm)*
G04 Created by KiCad (PCBNEW 7.0.2) date 2023-05-18 15:06:11*
%MOMM*%
%LPD*%
G01*
G04 APERTURE LIST*
%ADD10C,0.120000*%
%ADD11C,1.750000*%
%ADD12C,3.987800*%
%ADD13C,3.048000*%
%ADD14C,2.200000*%
%ADD15C,1.400000*%
%ADD16R,2.000000X2.000000*%
%ADD17C,2.000000*%
%ADD18C,0.800000*%
%ADD19O,1.000000X2.100000*%
%ADD20O,1.000000X1.800000*%
G04 APERTURE END LIST*
D10*
X176276000Y-102489000D02*
X604774000Y-102489000D01*
X604774000Y-223774000D01*
X176276000Y-223774000D01*
X176276000Y-102489000D01*
G36*
X176276000Y-102489000D02*
G01*
X604774000Y-102489000D01*
X604774000Y-223774000D01*
X176276000Y-223774000D01*
X176276000Y-102489000D01*
G37*
%LPC*%
D11*
X175209200Y-124841000D03*
D12*
X180289200Y-124841000D03*
D11*
X185369200Y-124841000D03*
X265696700Y-67691000D03*
D12*
X270776700Y-67691000D03*
D11*
X275856700Y-67691000D03*
X401427950Y-124841000D03*
D12*
X406507950Y-124841000D03*
D11*
X411587950Y-124841000D03*
X299034200Y-105791000D03*
D12*
X304114200Y-105791000D03*
D11*
X309194200Y-105791000D03*
X334752950Y-143891000D03*
D12*
X339832950Y-143891000D03*
D11*
X344912950Y-143891000D03*
X401427950Y-86741000D03*
D12*
X406507950Y-86741000D03*
D11*
X411587950Y-86741000D03*
X141871700Y-86741000D03*
D12*
X146951700Y-86741000D03*
D11*
X152031700Y-86741000D03*
X196640450Y-143891000D03*
D12*
X201720450Y-143891000D03*
D11*
X206800450Y-143891000D03*
X96627950Y-143891000D03*
D12*
X101707950Y-143891000D03*
D11*
X106787950Y-143891000D03*
X151396700Y-67691000D03*
D12*
X156476700Y-67691000D03*
D11*
X161556700Y-67691000D03*
X322846700Y-46259750D03*
D12*
X327926700Y-46259750D03*
D11*
X333006700Y-46259750D03*
X260934200Y-105791000D03*
D12*
X266014200Y-105791000D03*
D11*
X271094200Y-105791000D03*
X401427950Y-67691000D03*
D12*
X406507950Y-67691000D03*
D11*
X411587950Y-67691000D03*
X113296700Y-67691000D03*
D12*
X118376700Y-67691000D03*
D11*
X123456700Y-67691000D03*
X284746700Y-46259750D03*
D12*
X289826700Y-46259750D03*
D11*
X294906700Y-46259750D03*
X275221700Y-86741000D03*
D12*
X280301700Y-86741000D03*
D11*
X285381700Y-86741000D03*
X420477950Y-143891000D03*
D12*
X425557950Y-143891000D03*
D11*
X430637950Y-143891000D03*
X132346700Y-46259750D03*
D12*
X137426700Y-46259750D03*
D11*
X142506700Y-46259750D03*
X420477950Y-46259750D03*
D12*
X425557950Y-46259750D03*
D11*
X430637950Y-46259750D03*
X401427950Y-105791000D03*
D12*
X406507950Y-105791000D03*
D11*
X411587950Y-105791000D03*
X480009200Y-67691000D03*
D12*
X485089200Y-67691000D03*
D11*
X490169200Y-67691000D03*
X146634200Y-105791000D03*
D12*
X151714200Y-105791000D03*
D11*
X156794200Y-105791000D03*
X499059200Y-96266000D03*
D12*
X504139200Y-96266000D03*
D11*
X509219200Y-96266000D03*
X113296700Y-46259750D03*
D12*
X118376700Y-46259750D03*
D11*
X123456700Y-46259750D03*
D13*
X366026700Y-112776000D03*
D12*
X366026700Y-97536000D03*
D13*
X342214200Y-112776000D03*
D12*
X342214200Y-97536000D03*
D11*
X241884200Y-105791000D03*
D12*
X246964200Y-105791000D03*
D11*
X252044200Y-105791000D03*
X194259200Y-124841000D03*
D12*
X199339200Y-124841000D03*
D11*
X204419200Y-124841000D03*
X341896700Y-46259750D03*
D12*
X346976700Y-46259750D03*
D11*
X352056700Y-46259750D03*
X294271700Y-86741000D03*
D12*
X299351700Y-86741000D03*
D11*
X304431700Y-86741000D03*
X227596700Y-46259750D03*
D12*
X232676700Y-46259750D03*
D11*
X237756700Y-46259750D03*
D13*
X123139200Y-131826000D03*
D12*
X123139200Y-116586000D03*
D13*
X99326700Y-131826000D03*
D12*
X99326700Y-116586000D03*
D11*
X382377950Y-46259750D03*
D12*
X387457950Y-46259750D03*
D11*
X392537950Y-46259750D03*
X356184200Y-86741000D03*
D12*
X361264200Y-86741000D03*
D11*
X366344200Y-86741000D03*
X222834200Y-105791000D03*
D12*
X227914200Y-105791000D03*
D11*
X232994200Y-105791000D03*
X165684200Y-105791000D03*
D12*
X170764200Y-105791000D03*
D11*
X175844200Y-105791000D03*
X480009200Y-86741000D03*
D12*
X485089200Y-86741000D03*
D11*
X490169200Y-86741000D03*
X382377950Y-67691000D03*
D12*
X387457950Y-67691000D03*
D11*
X392537950Y-67691000D03*
X382377950Y-143891000D03*
D12*
X387457950Y-143891000D03*
D11*
X392537950Y-143891000D03*
X480009200Y-143891000D03*
D12*
X485089200Y-143891000D03*
D11*
X490169200Y-143891000D03*
X382377950Y-105791000D03*
D12*
X387457950Y-105791000D03*
D11*
X392537950Y-105791000D03*
X480009200Y-124841000D03*
D12*
X485089200Y-124841000D03*
D11*
X490169200Y-124841000D03*
D13*
X368420650Y-74676000D03*
D12*
X368420650Y-59436000D03*
D13*
X344608150Y-74676000D03*
D12*
X344608150Y-59436000D03*
D11*
X360946700Y-46259750D03*
D12*
X366026700Y-46259750D03*
D11*
X371106700Y-46259750D03*
X122821700Y-86741000D03*
D12*
X127901700Y-86741000D03*
D11*
X132981700Y-86741000D03*
X170446700Y-67691000D03*
D12*
X175526700Y-67691000D03*
D11*
X180606700Y-67691000D03*
X382377950Y-124841000D03*
D12*
X387457950Y-124841000D03*
D11*
X392537950Y-124841000D03*
X318084200Y-105791000D03*
D12*
X323164200Y-105791000D03*
D11*
X328244200Y-105791000D03*
X322846700Y-67691000D03*
D12*
X327926700Y-67691000D03*
D11*
X333006700Y-67691000D03*
X460959200Y-86741000D03*
D12*
X466039200Y-86741000D03*
D11*
X471119200Y-86741000D03*
X441909200Y-67691000D03*
D12*
X446989200Y-67691000D03*
D11*
X452069200Y-67691000D03*
X218071700Y-86741000D03*
D12*
X223151700Y-86741000D03*
D11*
X228231700Y-86741000D03*
X310940450Y-143891000D03*
D12*
X316020450Y-143891000D03*
D11*
X321100450Y-143891000D03*
X289509200Y-124841000D03*
D12*
X294589200Y-124841000D03*
D11*
X299669200Y-124841000D03*
X170446700Y-46259750D03*
D12*
X175526700Y-46259750D03*
D11*
X180606700Y-46259750D03*
D13*
X511124200Y-122459750D03*
D12*
X495884200Y-122459750D03*
D13*
X511124200Y-146272250D03*
D12*
X495884200Y-146272250D03*
D11*
X199021700Y-86741000D03*
D12*
X204101700Y-86741000D03*
D11*
X209181700Y-86741000D03*
X232359200Y-124841000D03*
D12*
X237439200Y-124841000D03*
D11*
X242519200Y-124841000D03*
D13*
X511124200Y-84359750D03*
D12*
X495884200Y-84359750D03*
D13*
X511124200Y-108172250D03*
D12*
X495884200Y-108172250D03*
D11*
X308559200Y-124841000D03*
D12*
X313639200Y-124841000D03*
D11*
X318719200Y-124841000D03*
X401427950Y-46259750D03*
D12*
X406507950Y-46259750D03*
D11*
X411587950Y-46259750D03*
X215690450Y-143891000D03*
D12*
X220770450Y-143891000D03*
D11*
X225850450Y-143891000D03*
X344277950Y-124841000D03*
D12*
X349357950Y-124841000D03*
D11*
X354437950Y-124841000D03*
X499059200Y-46259750D03*
D12*
X504139200Y-46259750D03*
D11*
X509219200Y-46259750D03*
D13*
X468420450Y-150876000D03*
D12*
X468420450Y-135636000D03*
D13*
X444607950Y-150876000D03*
D12*
X444607950Y-135636000D03*
D11*
X441909200Y-124841000D03*
D12*
X446989200Y-124841000D03*
D11*
X452069200Y-124841000D03*
X160921700Y-86741000D03*
D12*
X166001700Y-86741000D03*
D11*
X171081700Y-86741000D03*
X144252950Y-143891000D03*
D12*
X149332950Y-143891000D03*
D11*
X154412950Y-143891000D03*
X213309200Y-124841000D03*
D12*
X218389200Y-124841000D03*
D11*
X223469200Y-124841000D03*
X165684200Y-143891000D03*
D12*
X170764200Y-143891000D03*
D11*
X175844200Y-143891000D03*
X251409200Y-124841000D03*
D12*
X256489200Y-124841000D03*
D11*
X261569200Y-124841000D03*
X189496700Y-46259750D03*
D12*
X194576700Y-46259750D03*
D11*
X199656700Y-46259750D03*
X441909200Y-86741000D03*
D12*
X446989200Y-86741000D03*
D11*
X452069200Y-86741000D03*
X420477950Y-86741000D03*
D12*
X425557950Y-86741000D03*
D11*
X430637950Y-86741000D03*
X179971700Y-86741000D03*
D12*
X185051700Y-86741000D03*
D11*
X190131700Y-86741000D03*
X237121700Y-143891000D03*
D12*
X242201700Y-143891000D03*
D11*
X247281700Y-143891000D03*
X246646700Y-46259750D03*
D12*
X251726700Y-46259750D03*
D11*
X256806700Y-46259750D03*
X420477950Y-124841000D03*
D12*
X425557950Y-124841000D03*
D11*
X430637950Y-124841000D03*
X203784200Y-105791000D03*
D12*
X208864200Y-105791000D03*
D11*
X213944200Y-105791000D03*
X151396700Y-46259750D03*
D12*
X156476700Y-46259750D03*
D11*
X161556700Y-46259750D03*
X265696700Y-46259750D03*
D12*
X270776700Y-46259750D03*
D11*
X275856700Y-46259750D03*
X499059200Y-134366000D03*
D12*
X504139200Y-134366000D03*
D11*
X509219200Y-134366000D03*
X132346700Y-67691000D03*
D12*
X137426700Y-67691000D03*
D11*
X142506700Y-67691000D03*
X208546700Y-67691000D03*
D12*
X213626700Y-67691000D03*
D11*
X218706700Y-67691000D03*
X287127950Y-143891000D03*
D12*
X292207950Y-143891000D03*
D11*
X297287950Y-143891000D03*
X94240350Y-46259750D03*
D12*
X99320350Y-46259750D03*
D11*
X104400350Y-46259750D03*
X106152950Y-124841000D03*
D12*
X111232950Y-124841000D03*
D11*
X116312950Y-124841000D03*
X94246700Y-67691000D03*
D12*
X99326700Y-67691000D03*
D11*
X104406700Y-67691000D03*
X120440450Y-143891000D03*
D12*
X125520450Y-143891000D03*
D11*
X130600450Y-143891000D03*
X303796700Y-67691000D03*
D12*
X308876700Y-67691000D03*
D11*
X313956700Y-67691000D03*
X451434200Y-143891000D03*
D12*
X456514200Y-143891000D03*
D11*
X461594200Y-143891000D03*
X284746700Y-67691000D03*
D12*
X289826700Y-67691000D03*
D11*
X294906700Y-67691000D03*
X460959200Y-124841000D03*
D12*
X466039200Y-124841000D03*
D11*
X471119200Y-124841000D03*
X246646700Y-67691000D03*
D12*
X251726700Y-67691000D03*
D11*
X256806700Y-67691000D03*
X189496700Y-67691000D03*
D12*
X194576700Y-67691000D03*
D11*
X199656700Y-67691000D03*
X99009200Y-86741000D03*
D12*
X104089200Y-86741000D03*
D11*
X109169200Y-86741000D03*
X460959200Y-105791000D03*
D12*
X466039200Y-105791000D03*
D11*
X471119200Y-105791000D03*
X460959200Y-46259750D03*
D12*
X466039200Y-46259750D03*
D11*
X471119200Y-46259750D03*
X420477950Y-67691000D03*
D12*
X425557950Y-67691000D03*
D11*
X430637950Y-67691000D03*
X460959200Y-67691000D03*
D12*
X466039200Y-67691000D03*
D11*
X471119200Y-67691000D03*
X137109200Y-124841000D03*
D12*
X142189200Y-124841000D03*
D11*
X147269200Y-124841000D03*
X279984200Y-105791000D03*
D12*
X285064200Y-105791000D03*
D11*
X290144200Y-105791000D03*
X208546700Y-46259750D03*
D12*
X213626700Y-46259750D03*
D11*
X218706700Y-46259750D03*
X101390450Y-105791000D03*
D12*
X106470450Y-105791000D03*
D11*
X111550450Y-105791000D03*
X480009200Y-46259750D03*
D12*
X485089200Y-46259750D03*
D11*
X490169200Y-46259750D03*
X332371700Y-86741000D03*
D12*
X337451700Y-86741000D03*
D11*
X342531700Y-86741000D03*
X499059200Y-67691000D03*
D12*
X504139200Y-67691000D03*
D11*
X509219200Y-67691000D03*
X401427950Y-143891000D03*
D12*
X406507950Y-143891000D03*
D11*
X411587950Y-143891000D03*
X127584200Y-105791000D03*
D12*
X132664200Y-105791000D03*
D11*
X137744200Y-105791000D03*
X237121700Y-86741000D03*
D12*
X242201700Y-86741000D03*
D11*
X247281700Y-86741000D03*
X480009200Y-105791000D03*
D12*
X485089200Y-105791000D03*
D11*
X490169200Y-105791000D03*
X441909200Y-46259750D03*
D12*
X446989200Y-46259750D03*
D11*
X452069200Y-46259750D03*
X265696700Y-143891000D03*
D12*
X270776700Y-143891000D03*
D11*
X275856700Y-143891000D03*
X351421700Y-67691000D03*
D12*
X356501700Y-67691000D03*
D11*
X361581700Y-67691000D03*
X256171700Y-86741000D03*
D12*
X261251700Y-86741000D03*
D11*
X266331700Y-86741000D03*
X303796700Y-46259750D03*
D12*
X308876700Y-46259750D03*
D11*
X313956700Y-46259750D03*
X156159200Y-124841000D03*
D12*
X161239200Y-124841000D03*
D11*
X166319200Y-124841000D03*
X349040450Y-105791000D03*
D12*
X354120450Y-105791000D03*
D11*
X359200450Y-105791000D03*
X227596700Y-67691000D03*
D12*
X232676700Y-67691000D03*
D11*
X237756700Y-67691000D03*
X420477950Y-105791000D03*
D12*
X425557950Y-105791000D03*
D11*
X430637950Y-105791000D03*
X441909200Y-105791000D03*
D12*
X446989200Y-105791000D03*
D11*
X452069200Y-105791000D03*
X184734200Y-105791000D03*
D12*
X189814200Y-105791000D03*
D11*
X194894200Y-105791000D03*
X270459200Y-124841000D03*
D12*
X275539200Y-124841000D03*
D11*
X280619200Y-124841000D03*
X313321700Y-86741000D03*
D12*
X318401700Y-86741000D03*
D11*
X323481700Y-86741000D03*
X382377950Y-86741000D03*
D12*
X387457950Y-86741000D03*
D11*
X392537950Y-86741000D03*
X358565450Y-143891000D03*
D12*
X363645450Y-143891000D03*
D11*
X368725450Y-143891000D03*
D14*
X337432650Y-48641000D03*
X494569750Y-139426950D03*
X294570150Y-105791000D03*
X456495150Y-86741000D03*
X231425750Y-143891000D03*
D15*
X276637750Y-43059350D03*
D16*
X106826700Y-43759750D03*
D17*
X106826700Y-48759750D03*
X106826700Y-46259750D03*
X92326700Y-48759750D03*
X92326700Y-43759750D03*
D14*
X180270150Y-105791000D03*
X108832650Y-67691000D03*
D18*
X370058950Y-81819750D03*
D14*
X261232650Y-67691000D03*
X396982950Y-86741000D03*
X92163900Y-124841000D03*
D15*
X502291350Y-146335750D03*
D14*
X494620550Y-67691000D03*
D15*
X92163900Y-146272250D03*
D14*
X185032650Y-48641000D03*
X327907650Y-143891000D03*
D19*
X123674950Y-41135150D03*
D20*
X123674950Y-36955150D03*
D19*
X132314950Y-41135150D03*
D20*
X132314950Y-36955150D03*
D16*
X511639200Y-43759750D03*
D17*
X511639200Y-48759750D03*
X511639200Y-46259750D03*
X497139200Y-48759750D03*
X497139200Y-43759750D03*
D14*
X160077150Y-143891000D03*
X416013900Y-143891000D03*
%LPD*%
M02*
